<?xml version="1.0" encoding="utf-8"?>
<!-- Generator: Adobe Illustrator 23.0.4, SVG Export Plug-In . SVG Version: 6.00 Build 0)  -->
<svg version="1.1" id="Layer_1" xmlns="http://www.w3.org/2000/svg" xmlns:xlink="http://www.w3.org/1999/xlink" x="0px" y="0px"
	 viewBox="0 0 865 710.6" style="enable-background:new 0 0 865 710.6;" xml:space="preserve">
<style type="text/css">
	.st0{fill-rule:evenodd;clip-rule:evenodd;fill:#F0F0F0;}
	.st1{fill-rule:evenodd;clip-rule:evenodd;fill:#FFFFFF;}
	.st2{fill-rule:evenodd;clip-rule:evenodd;fill:url(#SVGID_1_);}
	.st3{fill:url(#SVGID_2_);}
	.st4{fill-rule:evenodd;clip-rule:evenodd;fill:url(#SVGID_3_);}
	.st5{fill-rule:evenodd;clip-rule:evenodd;fill:url(#SVGID_4_);}
	.st6{fill-rule:evenodd;clip-rule:evenodd;fill:url(#SVGID_5_);}
	.st7{fill-rule:evenodd;clip-rule:evenodd;fill:url(#SVGID_6_);}
	.st8{fill-rule:evenodd;clip-rule:evenodd;fill:url(#SVGID_7_);}
	.st9{fill-rule:evenodd;clip-rule:evenodd;fill:url(#SVGID_8_);}
	.st10{fill-rule:evenodd;clip-rule:evenodd;fill:url(#SVGID_9_);}
	.st11{fill-rule:evenodd;clip-rule:evenodd;fill:url(#SVGID_10_);}
	.st12{fill-rule:evenodd;clip-rule:evenodd;fill:url(#SVGID_11_);}
	.st13{fill-rule:evenodd;clip-rule:evenodd;fill:url(#SVGID_12_);}
	.st14{fill-rule:evenodd;clip-rule:evenodd;fill:url(#SVGID_13_);}
	.st15{fill-rule:evenodd;clip-rule:evenodd;fill:url(#SVGID_14_);}
	.st16{fill-rule:evenodd;clip-rule:evenodd;fill:url(#SVGID_15_);}
	.st17{fill-rule:evenodd;clip-rule:evenodd;fill:url(#SVGID_16_);}
	.st18{fill-rule:evenodd;clip-rule:evenodd;fill:url(#SVGID_17_);}
	.st19{fill-rule:evenodd;clip-rule:evenodd;fill:url(#SVGID_18_);}
	.st20{fill-rule:evenodd;clip-rule:evenodd;fill:url(#SVGID_19_);}
	.st21{fill-rule:evenodd;clip-rule:evenodd;fill:url(#SVGID_20_);}
	.st22{fill-rule:evenodd;clip-rule:evenodd;fill:url(#SVGID_21_);}
	.st23{fill:#FCD2C5;}
	.st24{fill:#4D3782;}
	.st25{fill:#FFBB00;}
	.st26{fill:#5836E5;}
	.st27{fill:#F0F0F0;}
	.st28{fill:#CE61D4;}
</style>
<g>
	<g>
		<g id="XMLID_52_">
			<g>
				<rect x="406.7" y="546.9" class="st0" width="167.8" height="58.9"/>
			</g>
		</g>
		<g id="XMLID_50_">
			<g>
				<path class="st1" d="M760.3,222.3H220.5c-15.2,0-27.6,12.4-27.6,27.6v293.7c0,15.2,12.4,27.6,27.6,27.6h539.8
					c15.2,0,27.6-12.4,27.6-27.6V249.9C788,234.7,775.5,222.3,760.3,222.3z"/>
			</g>
		</g>
		<g id="XMLID_49_">
			<g>
				<linearGradient id="SVGID_1_" gradientUnits="userSpaceOnUse" x1="211.2618" y1="380.1721" x2="769.63" y2="380.1721">
					<stop  offset="0" style="stop-color:#9E90F2"/>
					<stop  offset="1" style="stop-color:#A1D8F6"/>
				</linearGradient>
				<rect x="211.3" y="238.4" class="st2" width="558.4" height="283.6"/>
			</g>
		</g>
		<g id="XMLID_39_">
			<g>
				<path class="st1" d="M626.7,605.3H354.2c-5.9,0-10.7,4.8-10.7,10.7c0,5.9,4.8,10.7,10.7,10.7h272.4c5.9,0,10.7-4.8,10.7-10.7
					C637.3,610.1,632.5,605.3,626.7,605.3z"/>
			</g>
		</g>
	</g>
	<g>
		<g>
			<g>
				<g>
					<g>
						<g>
							<linearGradient id="SVGID_2_" gradientUnits="userSpaceOnUse" x1="240.0638" y1="291.4525" x2="740.828" y2="291.4525">
								<stop  offset="0" style="stop-color:#63D4FF"/>
								<stop  offset="1" style="stop-color:#546BE5"/>
							</linearGradient>
							<rect x="240.1" y="61" class="st3" width="500.8" height="461"/>
						</g>
					</g>
				</g>
			</g>
		</g>
		<g id="XMLID_580_">
			<g id="XMLID_2717_">
				<g>
					<linearGradient id="SVGID_3_" gradientUnits="userSpaceOnUse" x1="293.1484" y1="97.1316" x2="375.9963" y2="97.1316">
						<stop  offset="0" style="stop-color:#9E90F2"/>
						<stop  offset="1" style="stop-color:#A1D8F6"/>
					</linearGradient>
					<rect x="293.1" y="93.5" class="st4" width="82.8" height="7.4"/>
				</g>
			</g>
			<g id="XMLID_2716_">
				<g>
					<linearGradient id="SVGID_4_" gradientUnits="userSpaceOnUse" x1="293.1484" y1="115.2853" x2="375.9963" y2="115.2853">
						<stop  offset="0" style="stop-color:#9E90F2"/>
						<stop  offset="1" style="stop-color:#A1D8F6"/>
					</linearGradient>
					<rect x="293.1" y="111.6" class="st5" width="82.8" height="7.4"/>
				</g>
			</g>
			<g id="XMLID_2715_">
				<g>
					<linearGradient id="SVGID_5_" gradientUnits="userSpaceOnUse" x1="350.6507" y1="133.4854" x2="431.2281" y2="133.4854">
						<stop  offset="0" style="stop-color:#9E90F2"/>
						<stop  offset="1" style="stop-color:#A1D8F6"/>
					</linearGradient>
					<rect x="350.7" y="129.8" class="st6" width="80.6" height="7.4"/>
				</g>
			</g>
			<g id="XMLID_2710_">
				<g>
					<rect x="401.3" y="93.5" class="st1" width="48.4" height="7.4"/>
				</g>
			</g>
			<g id="XMLID_2709_">
				<g>
					<rect x="401.3" y="111.6" class="st1" width="82.8" height="7.4"/>
				</g>
			</g>
			<g id="XMLID_2708_">
				<g>
					<rect x="472.7" y="93.5" class="st1" width="92.1" height="7.4"/>
				</g>
			</g>
			<g id="XMLID_2707_">
				<g>
					<rect x="583.1" y="93.5" class="st1" width="48.3" height="7.4"/>
				</g>
			</g>
			<g id="XMLID_2706_">
				<g>
					<rect x="652.2" y="93.5" class="st1" width="59.8" height="7.4"/>
				</g>
			</g>
			<g id="XMLID_2705_">
				<g>
					<rect x="502.5" y="111.6" class="st1" width="104.6" height="7.4"/>
				</g>
			</g>
			<g id="XMLID_2704_">
				<g>
					<rect x="622.8" y="111.6" class="st1" width="31.2" height="7.4"/>
				</g>
			</g>
			<g id="XMLID_2703_">
				<g>
					<rect x="454.2" y="129.8" class="st1" width="59.9" height="7.4"/>
				</g>
			</g>
			<g id="XMLID_2702_">
				<g>
					<linearGradient id="SVGID_6_" gradientUnits="userSpaceOnUse" x1="293.1484" y1="169.8393" x2="375.9963" y2="169.8393">
						<stop  offset="0" style="stop-color:#9E90F2"/>
						<stop  offset="1" style="stop-color:#A1D8F6"/>
					</linearGradient>
					<rect x="293.1" y="166.2" class="st7" width="82.8" height="7.4"/>
				</g>
			</g>
			<g id="XMLID_2701_">
				<g>
					<linearGradient id="SVGID_7_" gradientUnits="userSpaceOnUse" x1="293.1484" y1="188.0384" x2="375.9963" y2="188.0384">
						<stop  offset="0" style="stop-color:#9E90F2"/>
						<stop  offset="1" style="stop-color:#A1D8F6"/>
					</linearGradient>
					<rect x="293.1" y="184.4" class="st8" width="82.8" height="7.4"/>
				</g>
			</g>
			<g id="XMLID_2700_">
				<g>
					<rect x="401.3" y="166.2" class="st1" width="48.4" height="7.4"/>
				</g>
			</g>
			<g id="XMLID_2699_">
				<g>
					<rect x="401.3" y="184.4" class="st1" width="74.6" height="7.4"/>
				</g>
			</g>
			<g id="XMLID_2698_">
				<g>
					<rect x="472.7" y="166.2" class="st1" width="70.8" height="7.4"/>
				</g>
			</g>
			<g id="XMLID_2697_">
				<g>
					<rect x="557.6" y="166.2" class="st1" width="37.2" height="7.4"/>
				</g>
			</g>
			<g id="XMLID_2696_">
				<g>
					<rect x="610.7" y="166.2" class="st1" width="46" height="7.4"/>
				</g>
			</g>
			<g id="XMLID_2695_">
				<g>
					<rect x="548.5" y="184.4" class="st1" width="82.9" height="7.4"/>
				</g>
			</g>
			<g id="XMLID_2694_">
				<g>
					<linearGradient id="SVGID_8_" gradientUnits="userSpaceOnUse" x1="244.0659" y1="206.1921" x2="326.9128" y2="206.1921">
						<stop  offset="0" style="stop-color:#9E90F2"/>
						<stop  offset="1" style="stop-color:#A1D8F6"/>
					</linearGradient>
					<rect x="244.1" y="202.5" class="st9" width="82.8" height="7.4"/>
				</g>
			</g>
			<g id="XMLID_2693_">
				<g>
					<linearGradient id="SVGID_9_" gradientUnits="userSpaceOnUse" x1="293.1484" y1="224.3912" x2="375.9963" y2="224.3912">
						<stop  offset="0" style="stop-color:#9E90F2"/>
						<stop  offset="1" style="stop-color:#A1D8F6"/>
					</linearGradient>
					<rect x="293.1" y="220.7" class="st10" width="82.8" height="7.4"/>
				</g>
			</g>
			<g id="XMLID_2692_">
				<g>
					<rect x="401.3" y="202.5" class="st1" width="48.4" height="7.4"/>
				</g>
			</g>
			<g id="XMLID_2691_">
				<g>
					<rect x="401.3" y="220.7" class="st1" width="151.9" height="7.4"/>
				</g>
			</g>
			<g id="XMLID_2690_">
				<g>
					<rect x="472.7" y="202.5" class="st1" width="92.1" height="7.4"/>
				</g>
			</g>
			<g id="XMLID_2689_">
				<g>
					<rect x="583.1" y="202.5" class="st1" width="48.3" height="7.4"/>
				</g>
			</g>
			<g id="XMLID_2688_">
				<g>
					<rect x="652.2" y="202.5" class="st1" width="59.8" height="7.4"/>
				</g>
			</g>
			<g id="XMLID_2687_">
				<g>
					<rect x="571.6" y="220.7" class="st1" width="85.2" height="7.4"/>
				</g>
			</g>
			<g id="XMLID_2686_">
				<g>
					<rect x="492.5" y="184.4" class="st1" width="35.3" height="7.4"/>
				</g>
			</g>
			<g>
				<g>
					<linearGradient id="SVGID_10_" gradientUnits="userSpaceOnUse" x1="267.7193" y1="260.745" x2="315.1244" y2="260.745">
						<stop  offset="0" style="stop-color:#9E90F2"/>
						<stop  offset="1" style="stop-color:#A1D8F6"/>
					</linearGradient>
					<rect x="267.7" y="257.1" class="st11" width="47.4" height="7.4"/>
				</g>
			</g>
			<g>
				<g>
					<rect x="267.7" y="275.2" class="st1" width="101.3" height="7.4"/>
				</g>
			</g>
			<g id="XMLID_2683_">
				<g>
					<linearGradient id="SVGID_11_" gradientUnits="userSpaceOnUse" x1="293.1484" y1="297.098" x2="375.9963" y2="297.098">
						<stop  offset="0" style="stop-color:#9E90F2"/>
						<stop  offset="1" style="stop-color:#A1D8F6"/>
					</linearGradient>
					<rect x="293.1" y="293.4" class="st12" width="82.8" height="7.4"/>
				</g>
			</g>
			<g id="XMLID_2682_">
				<g>
					<linearGradient id="SVGID_12_" gradientUnits="userSpaceOnUse" x1="293.1484" y1="315.2758" x2="375.9963" y2="315.2758">
						<stop  offset="0" style="stop-color:#9E90F2"/>
						<stop  offset="1" style="stop-color:#A1D8F6"/>
					</linearGradient>
					<rect x="293.1" y="311.6" class="st13" width="82.8" height="7.4"/>
				</g>
			</g>
			<g id="XMLID_2681_">
				<g>
					<linearGradient id="SVGID_13_" gradientUnits="userSpaceOnUse" x1="350.6507" y1="333.4517" x2="431.2281" y2="333.4517">
						<stop  offset="0" style="stop-color:#9E90F2"/>
						<stop  offset="1" style="stop-color:#A1D8F6"/>
					</linearGradient>
					<rect x="350.7" y="329.8" class="st14" width="80.6" height="7.4"/>
				</g>
			</g>
			<g id="XMLID_2680_">
				<g>
					<rect x="344.8" y="257.1" class="st1" width="83.3" height="7.4"/>
				</g>
			</g>
			<g id="XMLID_2679_">
				<g>
					<rect x="449.4" y="257.1" class="st1" width="42.1" height="7.4"/>
				</g>
			</g>
			<g id="XMLID_2678_">
				<g>
					<rect x="518.7" y="257.1" class="st1" width="133.8" height="7.4"/>
				</g>
			</g>
			<g id="XMLID_2677_">
				<g>
					<linearGradient id="SVGID_14_" gradientUnits="userSpaceOnUse" x1="392.7877" y1="278.8978" x2="477.2577" y2="278.8978">
						<stop  offset="0" style="stop-color:#9E90F2"/>
						<stop  offset="1" style="stop-color:#A1D8F6"/>
					</linearGradient>
					<rect x="392.8" y="275.2" class="st15" width="84.5" height="7.4"/>
				</g>
			</g>
			<g id="XMLID_2676_">
				<g>
					<rect x="401.3" y="293.4" class="st1" width="94.4" height="7.4"/>
				</g>
			</g>
			<g id="XMLID_2675_">
				<g>
					<rect x="401.3" y="311.6" class="st1" width="64.4" height="7.4"/>
				</g>
			</g>
			<g id="XMLID_2674_">
				<g>
					<rect x="518.7" y="293.4" class="st1" width="70.1" height="7.4"/>
				</g>
			</g>
			<g id="XMLID_2673_">
				<g>
					<rect x="484.1" y="311.6" class="st1" width="123" height="7.4"/>
				</g>
			</g>
			<g id="XMLID_2672_">
				<g>
					<rect x="622.8" y="311.6" class="st1" width="31.2" height="7.4"/>
				</g>
			</g>
			<g id="XMLID_2671_">
				<g>
					<rect x="454.2" y="329.8" class="st1" width="59.9" height="7.4"/>
				</g>
			</g>
			<g id="XMLID_2670_">
				<g>
					<rect x="527.4" y="329.8" class="st1" width="111.5" height="7.4"/>
				</g>
			</g>
			<g id="XMLID_2669_">
				<g>
					<rect x="655.5" y="329.8" class="st1" width="33.3" height="7.4"/>
				</g>
			</g>
			<g id="XMLID_2668_">
				<g>
					<linearGradient id="SVGID_15_" gradientUnits="userSpaceOnUse" x1="293.1484" y1="369.8045" x2="375.9963" y2="369.8045">
						<stop  offset="0" style="stop-color:#9E90F2"/>
						<stop  offset="1" style="stop-color:#A1D8F6"/>
					</linearGradient>
					<rect x="293.1" y="366.1" class="st16" width="82.8" height="7.4"/>
				</g>
			</g>
			<g id="XMLID_2667_">
				<g>
					<linearGradient id="SVGID_16_" gradientUnits="userSpaceOnUse" x1="293.1484" y1="388.0037" x2="375.9963" y2="388.0037">
						<stop  offset="0" style="stop-color:#9E90F2"/>
						<stop  offset="1" style="stop-color:#A1D8F6"/>
					</linearGradient>
					<rect x="293.1" y="384.3" class="st17" width="82.8" height="7.4"/>
				</g>
			</g>
			<g id="XMLID_2666_">
				<g>
					<rect x="401.3" y="366.1" class="st1" width="136.4" height="7.4"/>
				</g>
			</g>
			<g id="XMLID_2665_">
				<g>
					<rect x="401.3" y="384.3" class="st1" width="74.6" height="7.4"/>
				</g>
			</g>
			<g id="XMLID_2664_">
				<g>
					<rect x="557.6" y="366.1" class="st1" width="37.2" height="7.4"/>
				</g>
			</g>
			<g id="XMLID_2663_">
				<g>
					<rect x="610.7" y="366.1" class="st1" width="46" height="7.4"/>
				</g>
			</g>
			<g id="XMLID_2662_">
				<g>
					<rect x="548.5" y="384.3" class="st1" width="82.9" height="7.4"/>
				</g>
			</g>
			<g id="XMLID_2661_">
				<g>
					<rect x="492.5" y="384.3" class="st1" width="35.3" height="7.4"/>
				</g>
			</g>
			<g>
				<g>
					<linearGradient id="SVGID_17_" gradientUnits="userSpaceOnUse" x1="267.7193" y1="417.8181" x2="315.1244" y2="417.8181">
						<stop  offset="0" style="stop-color:#9E90F2"/>
						<stop  offset="1" style="stop-color:#A1D8F6"/>
					</linearGradient>
					<rect x="267.7" y="414.1" class="st18" width="47.4" height="7.4"/>
				</g>
			</g>
			<g>
				<g>
					<rect x="267.7" y="432.3" class="st1" width="101.3" height="7.4"/>
				</g>
			</g>
			<g id="XMLID_2658_">
				<g>
					<linearGradient id="SVGID_18_" gradientUnits="userSpaceOnUse" x1="293.1484" y1="454.171" x2="375.9963" y2="454.171">
						<stop  offset="0" style="stop-color:#9E90F2"/>
						<stop  offset="1" style="stop-color:#A1D8F6"/>
					</linearGradient>
					<rect x="293.1" y="450.5" class="st19" width="82.8" height="7.4"/>
				</g>
			</g>
			<g id="XMLID_2657_">
				<g>
					<linearGradient id="SVGID_19_" gradientUnits="userSpaceOnUse" x1="293.1484" y1="472.3257" x2="375.9963" y2="472.3257">
						<stop  offset="0" style="stop-color:#9E90F2"/>
						<stop  offset="1" style="stop-color:#A1D8F6"/>
					</linearGradient>
					<rect x="293.1" y="468.6" class="st20" width="82.8" height="7.4"/>
				</g>
			</g>
			<g id="XMLID_2656_">
				<g>
					<linearGradient id="SVGID_20_" gradientUnits="userSpaceOnUse" x1="350.6507" y1="490.5258" x2="431.2281" y2="490.5258">
						<stop  offset="0" style="stop-color:#9E90F2"/>
						<stop  offset="1" style="stop-color:#A1D8F6"/>
					</linearGradient>
					<rect x="350.7" y="486.8" class="st21" width="80.6" height="7.4"/>
				</g>
			</g>
			<g id="XMLID_2655_">
				<g>
					<rect x="344.8" y="414.1" class="st1" width="83.3" height="7.4"/>
				</g>
			</g>
			<g id="XMLID_2654_">
				<g>
					<rect x="449.4" y="414.1" class="st1" width="42.1" height="7.4"/>
				</g>
			</g>
			<g id="XMLID_2633_">
				<g>
					<rect x="518.7" y="414.1" class="st1" width="193.3" height="7.4"/>
				</g>
			</g>
			<g id="XMLID_2632_">
				<g>
					<linearGradient id="SVGID_21_" gradientUnits="userSpaceOnUse" x1="392.7877" y1="435.971" x2="477.2577" y2="435.971">
						<stop  offset="0" style="stop-color:#9E90F2"/>
						<stop  offset="1" style="stop-color:#A1D8F6"/>
					</linearGradient>
					<rect x="392.8" y="432.3" class="st22" width="84.5" height="7.4"/>
				</g>
			</g>
			<g id="XMLID_2631_">
				<g>
					<rect x="401.3" y="450.5" class="st1" width="94.4" height="7.4"/>
				</g>
			</g>
			<g id="XMLID_2630_">
				<g>
					<rect x="401.3" y="468.6" class="st1" width="64.4" height="7.4"/>
				</g>
			</g>
			<g id="XMLID_2629_">
				<g>
					<rect x="518.7" y="450.5" class="st1" width="70.1" height="7.4"/>
				</g>
			</g>
			<g id="XMLID_2628_">
				<g>
					<rect x="607.2" y="450.5" class="st1" width="42.7" height="7.4"/>
				</g>
			</g>
			<g id="XMLID_2627_">
				<g>
					<rect x="670.6" y="450.5" class="st1" width="41.4" height="7.4"/>
				</g>
			</g>
			<g id="XMLID_2626_">
				<g>
					<rect x="484.1" y="468.6" class="st1" width="123" height="7.4"/>
				</g>
			</g>
			<g id="XMLID_2567_">
				<g>
					<rect x="622.8" y="468.6" class="st1" width="31.2" height="7.4"/>
				</g>
			</g>
			<g id="XMLID_2505_">
				<g>
					<rect x="454.2" y="486.8" class="st1" width="59.9" height="7.4"/>
				</g>
			</g>
		</g>
	</g>
	<g>
		<path class="st23" d="M369.1,487.5c0.2,5.5,23.2,122.3,23.2,122.3c0.1,0.2,4.8,0.2,7.5-2.5c0,0-5.3-116.1-5.4-118.5
			C392.6,490.9,372.5,489.6,369.1,487.5z"/>
		<path class="st24" d="M388,431c-10.6,2.6-21.1,5.2-31.8,7l0.8,7.2c3.2,2.1,6.2,38.1,15.5,75.4c10.8,43.3,18.5,85.4,18.5,85.4
			c2.7-2.7,6.8-2.9,9.4-1.3c0,0-1.9-117.8-3.6-176.1C394,429.5,391.1,430.3,388,431z"/>
		<path class="st25" d="M401.4,606.9c-1.3-1.2-1.7-1.8-1.7-1.8s-5.9-1.4-7.7,2.9c0,0,0,5.1,1.4,6.9c0.8,1.1,5.3,5.8,7.5,6.8
			c1.8,0.8,4.6,0.7,7.7,0.3c3.1-0.5,6.8-2.5,6.6-4.3C414.8,614.1,403.8,609.2,401.4,606.9z"/>
		<path class="st25" d="M399.9,609.6c-3.1-2.1-8.3,1.5-4.8,6.5c0.6,0.9,4.5,4.9,6.3,5.8c1.5,0.7,3.8,0.6,6.5,0.2
			c2.6-0.4,5.7-2.1,5.6-3.6C413.2,615.4,403,611.8,399.9,609.6z"/>
		<g>
			<path class="st23" d="M279.1,212.1c-0.6-0.5-3.4,1.5-3.7,2.3c-0.2,1.9,0.9,2.1,0.5,3.9c0.6-1.5,1.6-3,2.7-4.2
				C279.2,213.4,280.1,212.8,279.1,212.1z"/>
			<path class="st23" d="M276.7,201.5c-0.2-0.5-1.2-1.7-1.9-1.8c-0.8-0.3-1.4,0.5-1.4,0.5c-1-0.5-1.8,2.2-2.1,2
				c-0.9-0.8-2.2,0.2-2.1,4.3c0,0.2-1.7,10.3-2,13.5c2,0.3,8.3-0.3,8.3-0.4c0.5-1.8,0.8-3.7,1-5.7c0.3-2.3,0.3-7.5,0.3-7.9
				C276.8,205,277,202.3,276.7,201.5z"/>
			<path class="st23" d="M275.7,219c-3.4,0.2-6.2,0.2-8.3-0.3c-2.2,17-2.7,59.8,3.5,62.5c5.7,2.5,8.9-1,9.8-3.9
				c0.2-0.7,0.3-1.3,0.3-1.8C281,265.6,274.2,229.3,275.7,219z"/>
			<path class="st23" d="M283.5,274.3c-11.1-13.6-16.6-1-14.6,4.2c5.4,13.7,26.7,48.8,34,46.7c3.2-0.9,18.4-12.2,17.4-13.6
				C315.2,304.2,292.6,285.4,283.5,274.3z"/>
			<path class="st26" d="M282.8,270.4c-0.4-4.2-1.2-9.9-2-15.9c-1.8-13-3.9-29.3-3.1-35.3l-12.4-0.8c-1.9,14.9-2.7,50.3,1.7,60.9
				c4.4,11.1,24.2,43.5,48.2,65.1c2.9,2.6,20-39.9,19.2-39.8C313.2,307.8,283.6,271.2,282.8,270.4z"/>
		</g>
		<g>
			<path class="st23" d="M485.2,296.9c-0.6,1.5-1.4,3.1-2.4,4.4c1.4-1.3,2-0.3,3.6-1.4c0.5-0.6,0.9-4,0.2-4.3
				C485.5,295,485.4,296.1,485.2,296.9z"/>
			<path class="st23" d="M499.7,294.7c0,0,0.4-0.9-0.2-1.5c-0.5-0.5-2-0.8-2.5-0.7c-0.8,0.1-3.1,1.6-4,2.1c-0.3,0.2-4.9,2.7-6.7,4
				c-1.6,1.1-3.1,2.3-4.5,3.6c-0.1,0.1,2.4,5.9,3.6,7.5c2.7-1.8,10.6-8.2,10.9-8.3c3.6-1.9,3.8-3.5,2.7-3.9
				C498.7,297.4,500.7,295.3,499.7,294.7z"/>
			<path class="st23" d="M430.1,324.5c-0.5,0.3-1,0.7-1.5,1.2c-2.1,2.3-3.6,6.7,1.3,10.5c5.4,4.2,42.6-17.1,56.4-27.2
				c-1.4-1.6-2.8-4.1-4.3-7.1C473.9,308.1,438.8,319.8,430.1,324.5z"/>
			<path class="st23" d="M430,321.8c-14.1-2.6-41.5-13.2-50.5-14.2c-1.6-0.2-4.2,18.6-3.4,21.8c1.8,7.5,42.7,9.1,57.3,7.2
				C438.9,335.8,447.3,324.9,430,321.8z"/>
			<path class="st26" d="M433.8,320.5c-1.1-0.3-50.2-15.8-66.6-17.3c-6.1-0.6-17.3,22.6-14,24.7c23.6,15.6,68.4,12.2,80.3,10.7
				c11.5-1.3,42-19.1,54.1-28l-6.7-10.4C476.1,303.8,437.7,318.8,433.8,320.5z"/>
		</g>
		<path class="st23" d="M327.8,492.6c0.2,2.4,6.9,118.4,6.9,118.4c2.9,2.4,7.6,1.9,7.7,1.7c0,0,10.8-118.5,10.4-124
			C349.6,491.1,329.7,494.5,327.8,492.6z"/>
		<path class="st24" d="M317.4,401.6c-1.1,8.2,16.4,207.1,16.4,207.1c2.4-1.9,6.5-2.1,9.5,0.3c0,0,3.3-42.7,9.6-86.8
			c5.4-38.1,4.6-74.2,7.6-76.6v-40.4C345,406.1,322.5,403.8,317.4,401.6z"/>
		<path class="st27" d="M372.5,410.6c-15.4,1.9-30.9,2-46.4,2.3c-3.6,0.1-7.1,0.1-10.5,0c0.4,12.9-0.7,20.8,0.9,32.2
			c30.5,5.1,63.8,7.1,76.7,2.9c2.3-0.8,8.5-3.4,8.8-4.2c0.3-11.9-1-26.1-3-40.4C391,407.1,382.1,409.4,372.5,410.6z"/>
		<path class="st23" d="M356.8,282.4c-1.1,0.8-12.2,7-15.4,6.5c0,0.9,2.6,8.2,0.5,13.3c0.9,4.7,14.1,8.6,17.7,0.7
			C358.1,300.6,356.2,286.7,356.8,282.4z"/>
		<path class="st23" d="M345.1,266.9c-5.9-0.4-11.5,0.9-12.8,6.5c-0.5,2,0.4,19.9,9.9,22.6c4,1.2,11.8-5.8,12.1-10.5
			c0,0,0.4-6.4,0.4-6.5C355.2,272.8,351.4,267.3,345.1,266.9z"/>
		<path class="st26" d="M359.1,301.8c0,0-3.3,3.5-8.8,3.1c-6.1-0.4-8.4-2.8-8.4-2.8s-11.4,4.1-14.6,5.3
			c-9.5,3.8-11.6,11.8-10.8,20.4c0.2,2.1-7,70-0.8,114.2c1.5-0.1,5.3-0.2,7.2-0.2l1.4-28.7l6.1,28.6c19.6,0.1,49.1,1.5,62.2-1.8
			l0.5-26l4.1,24.3c1-0.6,3.9-1.7,4.2-2.5c1.2-40.6-8.5-99.7-9.8-104.7C384.4,301.8,359.1,301.8,359.1,301.8z"/>
		<path class="st25" d="M334.6,608.8c0,0-0.4,0.7-1.5,2c-2.2,2.6-12.6,8.5-12.6,12.2c0,1.8,3.9,3.5,7,3.6c3.2,0.1,5.9-0.1,7.6-1
			c2.1-1.2,6.1-6.5,6.8-7.6c1.2-2,0.7-7,0.7-7C340.3,606.8,334.6,608.8,334.6,608.8z"/>
		<path class="st25" d="M334.8,613.4c-2.9,2.5-12.6,7.1-12.6,10.2c0,1.6,3.3,2.9,5.9,3c2.7,0.1,5,0,6.4-0.9c1.8-1,5.2-5.4,5.7-6.4
			C343.2,614.1,337.6,611,334.8,613.4z"/>
		<path class="st28" d="M357.5,259.8c-9.1-7.2-24.6-0.3-28.7,9.1c-3.1,7-5.9,2.1-5.6,0.3c-0.9,4.7,1,8.7,10,8.1
			c1.9-0.1-4.2,1.7-4.2,1.7s9.6,20,24.4,15.2c4.4-1.4,8.3-5.7,8.3-5.7s-4.8,0.8-2.3-3.1C364.4,277.6,365.5,266.2,357.5,259.8z"/>
	</g>
</g>
</svg>
