<?xml version="1.0" encoding="utf-8"?>
<!-- Generator: Adobe Illustrator 23.0.4, SVG Export Plug-In . SVG Version: 6.00 Build 0)  -->
<svg version="1.1" id="Layer_1" xmlns="http://www.w3.org/2000/svg" xmlns:xlink="http://www.w3.org/1999/xlink" x="0px" y="0px"
	 viewBox="0 0 40.8 35.6" style="enable-background:new 0 0 40.8 35.6;" xml:space="preserve">
<style type="text/css">
	.st0{fill:#00C28C;}
</style>
<g>
	<g>
		<path class="st0" d="M0.8,35.6c-0.3,0-0.5-0.1-0.7-0.3C0,35-0.1,34.6,0.1,34.3L19.7,0.4C19.8,0.2,20.1,0,20.4,0
			c0.3,0,0.6,0.2,0.7,0.4l19.6,33.9c0.2,0.3,0.1,0.7-0.1,1c-0.3,0.3-0.6,0.3-1,0.2l-13.9-7.1L1.1,35.6C1,35.6,0.9,35.6,0.8,35.6z
			 M20.4,2.5L2.6,33.4l23-6.6c0.2-0.1,0.4,0,0.6,0.1l11.7,5.9L20.4,2.5z"/>
	</g>
	<g>
		<path class="st0" d="M0.8,35.6c-0.2,0-0.4-0.1-0.6-0.2c-0.3-0.3-0.4-0.8-0.1-1.2l18.5-20.4l0.8-13C19.6,0.3,20,0,20.5,0
			c0.5,0,0.8,0.4,0.8,0.9l-0.8,12.7l10.3,3.9c0.2,0.1,0.4,0.3,0.5,0.5c0.1,0.2,0.1,0.5,0,0.7l-4.7,9.3c-0.1,0.3-0.4,0.5-0.8,0.5
			c-0.3,0-0.6-0.2-0.7-0.5l-5.7-12.3L1.4,35.3C1.3,35.5,1.1,35.6,0.8,35.6z M21.2,15.6l4.6,10l3.5-7L21.2,15.6z"/>
	</g>
</g>
</svg>
