<?xml version="1.0" encoding="UTF-8" standalone="no"?>
<!DOCTYPE svg PUBLIC "-//W3C//DTD SVG 1.1//EN"
 "http://www.w3.org/Graphics/SVG/1.1/DTD/svg11.dtd">
<!-- Generated by graphviz version 2.40.1 (20161225.0304)
 -->
<!-- Title: dependencies Pages: 1 -->
<svg width="539pt" height="211pt"
 viewBox="0.00 0.00 539.00 211.00" xmlns="http://www.w3.org/2000/svg" xmlns:xlink="http://www.w3.org/1999/xlink">
<g id="graph0" class="graph" transform="scale(1 1) rotate(0) translate(4 207)">
<title>dependencies</title>
<polygon fill="#ffffff" stroke="transparent" points="-4,4 -4,-207 535,-207 535,4 -4,4"/>
<text text-anchor="start" x="244.5091" y="-42.4" font-family="sans-serif" font-weight="bold" font-size="14.00" fill="#000000">Legend</text>
<polygon fill="#ffffb3" stroke="transparent" points="31.5,-10 31.5,-30 51.5,-30 51.5,-10 31.5,-10"/>
<text text-anchor="start" x="55.129" y="-15.4" font-family="sans-serif" font-size="14.00" fill="#000000"> &#160;Declarations</text>
<polygon fill="#8dd3c7" stroke="transparent" points="144.5,-10 144.5,-30 164.5,-30 164.5,-10 144.5,-10"/>
<text text-anchor="start" x="168.2251" y="-15.4" font-family="sans-serif" font-size="14.00" fill="#000000"> &#160;Module</text>
<polygon fill="#80b1d3" stroke="transparent" points="230.5,-10 230.5,-30 250.5,-30 250.5,-10 230.5,-10"/>
<text text-anchor="start" x="254.2812" y="-15.4" font-family="sans-serif" font-size="14.00" fill="#000000"> &#160;Bootstrap</text>
<polygon fill="#fdb462" stroke="transparent" points="327.5,-10 327.5,-30 347.5,-30 347.5,-10 327.5,-10"/>
<text text-anchor="start" x="351.1732" y="-15.4" font-family="sans-serif" font-size="14.00" fill="#000000"> &#160;Providers</text>
<polygon fill="#fb8072" stroke="transparent" points="423.5,-10 423.5,-30 443.5,-30 443.5,-10 423.5,-10"/>
<text text-anchor="start" x="447.2258" y="-15.4" font-family="sans-serif" font-size="14.00" fill="#000000"> &#160;Exports</text>
<g id="clust1" class="cluster">
<title>cluster_BlogModule</title>
<polygon fill="none" stroke="#000000" stroke-dasharray="1,5" points="8,-70 8,-195 523,-195 523,-70 8,-70"/>
</g>
<g id="clust2" class="cluster">
<title>cluster_BlogModule_declarations</title>
<polygon fill="none" stroke="#000000" points="276,-78 276,-130 515,-130 515,-78 276,-78"/>
</g>
<g id="clust5" class="cluster">
<title>cluster_BlogModule_imports</title>
<polygon fill="none" stroke="#000000" points="16,-78 16,-130 268,-130 268,-78 16,-78"/>
</g>
<!-- AllComponent -->
<g id="node1" class="node">
<title>AllComponent</title>
<polygon fill="#ffffb3" stroke="#000000" points="506.7204,-122 407.2796,-122 407.2796,-86 506.7204,-86 506.7204,-122"/>
<text text-anchor="middle" x="457" y="-99.8" font-family="Times,serif" font-size="14.00" fill="#000000">AllComponent</text>
</g>
<!-- BlogModule -->
<g id="node3" class="node">
<title>BlogModule</title>
<polygon fill="#8dd3c7" stroke="#000000" points="308.2773,-187 305.2773,-191 284.2773,-191 281.2773,-187 221.7227,-187 221.7227,-151 308.2773,-151 308.2773,-187"/>
<text text-anchor="middle" x="265" y="-164.8" font-family="Times,serif" font-size="14.00" fill="#000000">BlogModule</text>
</g>
<!-- AllComponent&#45;&gt;BlogModule -->
<g id="edge1" class="edge">
<title>AllComponent&#45;&gt;BlogModule</title>
<path fill="none" stroke="#000000" d="M457,-122.1061C457,-141.3391 457,-169 457,-169 457,-169 318.5678,-169 318.5678,-169"/>
<polygon fill="#000000" stroke="#000000" points="318.5678,-165.5001 308.5678,-169 318.5677,-172.5001 318.5678,-165.5001"/>
</g>
<!-- PostComponent -->
<g id="node2" class="node">
<title>PostComponent</title>
<polygon fill="#ffffb3" stroke="#000000" points="389.9512,-122 284.0488,-122 284.0488,-86 389.9512,-86 389.9512,-122"/>
<text text-anchor="middle" x="337" y="-99.8" font-family="Times,serif" font-size="14.00" fill="#000000">PostComponent</text>
</g>
<!-- PostComponent&#45;&gt;BlogModule -->
<g id="edge2" class="edge">
<title>PostComponent&#45;&gt;BlogModule</title>
<path fill="none" stroke="#000000" d="M296.3317,-122.1061C296.3317,-122.1061 296.3317,-140.991 296.3317,-140.991"/>
<polygon fill="#000000" stroke="#000000" points="292.8318,-140.9909 296.3317,-150.991 299.8318,-140.991 292.8318,-140.9909"/>
</g>
<!-- BlogRoutingModule -->
<g id="node4" class="node">
<title>BlogRoutingModule</title>
<polygon fill="#8dd3c7" stroke="#000000" points="259.8948,-122 256.8948,-126 235.8948,-126 232.8948,-122 128.1052,-122 128.1052,-86 259.8948,-86 259.8948,-122"/>
<text text-anchor="middle" x="194" y="-99.8" font-family="Times,serif" font-size="14.00" fill="#000000">BlogRoutingModule</text>
</g>
<!-- BlogRoutingModule&#45;&gt;BlogModule -->
<g id="edge3" class="edge">
<title>BlogRoutingModule&#45;&gt;BlogModule</title>
<path fill="none" stroke="#000000" d="M240.7795,-122.1061C240.7795,-122.1061 240.7795,-140.991 240.7795,-140.991"/>
<polygon fill="#000000" stroke="#000000" points="237.2795,-140.9909 240.7795,-150.991 244.2795,-140.991 237.2795,-140.9909"/>
</g>
<!-- CoreModule -->
<g id="node5" class="node">
<title>CoreModule</title>
<polygon fill="#8dd3c7" stroke="#000000" points="110.2619,-122 107.2619,-126 86.2619,-126 83.2619,-122 23.7381,-122 23.7381,-86 110.2619,-86 110.2619,-122"/>
<text text-anchor="middle" x="67" y="-99.8" font-family="Times,serif" font-size="14.00" fill="#000000">CoreModule</text>
</g>
<!-- CoreModule&#45;&gt;BlogModule -->
<g id="edge4" class="edge">
<title>CoreModule&#45;&gt;BlogModule</title>
<path fill="none" stroke="#000000" d="M67,-122.1061C67,-141.3391 67,-169 67,-169 67,-169 211.5481,-169 211.5481,-169"/>
<polygon fill="#000000" stroke="#000000" points="211.5481,-172.5001 221.5481,-169 211.548,-165.5001 211.5481,-172.5001"/>
</g>
</g>
</svg>
