<?xml version="1.0" encoding="UTF-8" standalone="no"?>
<!DOCTYPE svg PUBLIC "-//W3C//DTD SVG 1.1//EN"
 "http://www.w3.org/Graphics/SVG/1.1/DTD/svg11.dtd">
<!-- Generated by graphviz version 2.40.1 (20161225.0304)
 -->
<!-- Title: dependencies Pages: 1 -->
<svg width="562pt" height="211pt"
 viewBox="0.00 0.00 562.00 211.00" xmlns="http://www.w3.org/2000/svg" xmlns:xlink="http://www.w3.org/1999/xlink">
<g id="graph0" class="graph" transform="scale(1 1) rotate(0) translate(4 207)">
<title>dependencies</title>
<polygon fill="#ffffff" stroke="transparent" points="-4,4 -4,-207 558,-207 558,4 -4,4"/>
<text text-anchor="start" x="256.0091" y="-42.4" font-family="sans-serif" font-weight="bold" font-size="14.00" fill="#000000">Legend</text>
<polygon fill="#ffffb3" stroke="transparent" points="43,-10 43,-30 63,-30 63,-10 43,-10"/>
<text text-anchor="start" x="66.629" y="-15.4" font-family="sans-serif" font-size="14.00" fill="#000000"> &#160;Declarations</text>
<polygon fill="#8dd3c7" stroke="transparent" points="156,-10 156,-30 176,-30 176,-10 156,-10"/>
<text text-anchor="start" x="179.7251" y="-15.4" font-family="sans-serif" font-size="14.00" fill="#000000"> &#160;Module</text>
<polygon fill="#80b1d3" stroke="transparent" points="242,-10 242,-30 262,-30 262,-10 242,-10"/>
<text text-anchor="start" x="265.7812" y="-15.4" font-family="sans-serif" font-size="14.00" fill="#000000"> &#160;Bootstrap</text>
<polygon fill="#fdb462" stroke="transparent" points="339,-10 339,-30 359,-30 359,-10 339,-10"/>
<text text-anchor="start" x="362.6732" y="-15.4" font-family="sans-serif" font-size="14.00" fill="#000000"> &#160;Providers</text>
<polygon fill="#fb8072" stroke="transparent" points="435,-10 435,-30 455,-30 455,-10 435,-10"/>
<text text-anchor="start" x="458.7258" y="-15.4" font-family="sans-serif" font-size="14.00" fill="#000000"> &#160;Exports</text>
<g id="clust1" class="cluster">
<title>cluster_BlogModule</title>
<polygon fill="none" stroke="#000000" stroke-dasharray="1,5" points="8,-70 8,-195 546,-195 546,-70 8,-70"/>
</g>
<g id="clust2" class="cluster">
<title>cluster_BlogModule_declarations</title>
<polygon fill="none" stroke="#000000" points="172,-78 172,-130 538,-130 538,-78 172,-78"/>
</g>
<g id="clust6" class="cluster">
<title>cluster_BlogModule_imports</title>
<polygon fill="none" stroke="#000000" points="16,-78 16,-130 164,-130 164,-78 16,-78"/>
</g>
<!-- AllComponent -->
<g id="node1" class="node">
<title>AllComponent</title>
<polygon fill="#ffffb3" stroke="#000000" points="529.7204,-122 430.2796,-122 430.2796,-86 529.7204,-86 529.7204,-122"/>
<text text-anchor="middle" x="480" y="-99.8" font-family="Times,serif" font-size="14.00" fill="#000000">AllComponent</text>
</g>
<!-- BlogModule -->
<g id="node4" class="node">
<title>BlogModule</title>
<polygon fill="#8dd3c7" stroke="#000000" points="338.2773,-187 335.2773,-191 314.2773,-191 311.2773,-187 251.7227,-187 251.7227,-151 338.2773,-151 338.2773,-187"/>
<text text-anchor="middle" x="295" y="-164.8" font-family="Times,serif" font-size="14.00" fill="#000000">BlogModule</text>
</g>
<!-- AllComponent&#45;&gt;BlogModule -->
<g id="edge1" class="edge">
<title>AllComponent&#45;&gt;BlogModule</title>
<path fill="none" stroke="#000000" d="M480,-122.1061C480,-141.3391 480,-169 480,-169 480,-169 348.3743,-169 348.3743,-169"/>
<polygon fill="#000000" stroke="#000000" points="348.3743,-165.5001 338.3743,-169 348.3742,-172.5001 348.3743,-165.5001"/>
</g>
<!-- CardComponent -->
<g id="node2" class="node">
<title>CardComponent</title>
<polygon fill="#ffffb3" stroke="#000000" points="412.0452,-122 303.9548,-122 303.9548,-86 412.0452,-86 412.0452,-122"/>
<text text-anchor="middle" x="358" y="-99.8" font-family="Times,serif" font-size="14.00" fill="#000000">CardComponent</text>
</g>
<!-- CardComponent&#45;&gt;BlogModule -->
<g id="edge2" class="edge">
<title>CardComponent&#45;&gt;BlogModule</title>
<path fill="none" stroke="#000000" d="M321.0582,-122.1061C321.0582,-122.1061 321.0582,-140.991 321.0582,-140.991"/>
<polygon fill="#000000" stroke="#000000" points="317.5583,-140.9909 321.0582,-150.991 324.5583,-140.991 317.5583,-140.9909"/>
</g>
<!-- PostComponent -->
<g id="node3" class="node">
<title>PostComponent</title>
<polygon fill="#ffffb3" stroke="#000000" points="285.9512,-122 180.0488,-122 180.0488,-86 285.9512,-86 285.9512,-122"/>
<text text-anchor="middle" x="233" y="-99.8" font-family="Times,serif" font-size="14.00" fill="#000000">PostComponent</text>
</g>
<!-- PostComponent&#45;&gt;BlogModule -->
<g id="edge3" class="edge">
<title>PostComponent&#45;&gt;BlogModule</title>
<path fill="none" stroke="#000000" d="M268.6683,-122.1061C268.6683,-122.1061 268.6683,-140.991 268.6683,-140.991"/>
<polygon fill="#000000" stroke="#000000" points="265.1684,-140.9909 268.6683,-150.991 272.1684,-140.991 265.1684,-140.9909"/>
</g>
<!-- BlogRoutingModule -->
<g id="node5" class="node">
<title>BlogRoutingModule</title>
<polygon fill="#8dd3c7" stroke="#000000" points="155.8948,-122 152.8948,-126 131.8948,-126 128.8948,-122 24.1052,-122 24.1052,-86 155.8948,-86 155.8948,-122"/>
<text text-anchor="middle" x="90" y="-99.8" font-family="Times,serif" font-size="14.00" fill="#000000">BlogRoutingModule</text>
</g>
<!-- BlogRoutingModule&#45;&gt;BlogModule -->
<g id="edge4" class="edge">
<title>BlogRoutingModule&#45;&gt;BlogModule</title>
<path fill="none" stroke="#000000" d="M90,-122.1061C90,-141.3391 90,-169 90,-169 90,-169 241.5248,-169 241.5248,-169"/>
<polygon fill="#000000" stroke="#000000" points="241.5248,-172.5001 251.5248,-169 241.5247,-165.5001 241.5248,-172.5001"/>
</g>
</g>
</svg>
