<?xml version="1.0" encoding="UTF-8" standalone="no"?>
<!DOCTYPE svg PUBLIC "-//W3C//DTD SVG 1.1//EN"
 "http://www.w3.org/Graphics/SVG/1.1/DTD/svg11.dtd">
<!-- Generated by graphviz version 2.40.1 (20161225.0304)
 -->
<!-- Title: dependencies Pages: 1 -->
<svg width="1331pt" height="211pt"
 viewBox="0.00 0.00 1331.00 211.00" xmlns="http://www.w3.org/2000/svg" xmlns:xlink="http://www.w3.org/1999/xlink">
<g id="graph0" class="graph" transform="scale(1 1) rotate(0) translate(4 207)">
<title>dependencies</title>
<polygon fill="#ffffff" stroke="transparent" points="-4,4 -4,-207 1327,-207 1327,4 -4,4"/>
<text text-anchor="start" x="640.5091" y="-42.4" font-family="sans-serif" font-weight="bold" font-size="14.00" fill="#000000">Legend</text>
<polygon fill="#ffffb3" stroke="transparent" points="427.5,-10 427.5,-30 447.5,-30 447.5,-10 427.5,-10"/>
<text text-anchor="start" x="451.129" y="-15.4" font-family="sans-serif" font-size="14.00" fill="#000000"> &#160;Declarations</text>
<polygon fill="#8dd3c7" stroke="transparent" points="540.5,-10 540.5,-30 560.5,-30 560.5,-10 540.5,-10"/>
<text text-anchor="start" x="564.2251" y="-15.4" font-family="sans-serif" font-size="14.00" fill="#000000"> &#160;Module</text>
<polygon fill="#80b1d3" stroke="transparent" points="626.5,-10 626.5,-30 646.5,-30 646.5,-10 626.5,-10"/>
<text text-anchor="start" x="650.2812" y="-15.4" font-family="sans-serif" font-size="14.00" fill="#000000"> &#160;Bootstrap</text>
<polygon fill="#fdb462" stroke="transparent" points="723.5,-10 723.5,-30 743.5,-30 743.5,-10 723.5,-10"/>
<text text-anchor="start" x="747.1732" y="-15.4" font-family="sans-serif" font-size="14.00" fill="#000000"> &#160;Providers</text>
<polygon fill="#fb8072" stroke="transparent" points="819.5,-10 819.5,-30 839.5,-30 839.5,-10 819.5,-10"/>
<text text-anchor="start" x="843.2258" y="-15.4" font-family="sans-serif" font-size="14.00" fill="#000000"> &#160;Exports</text>
<g id="clust1" class="cluster">
<title>cluster_BlogModule</title>
<polygon fill="none" stroke="#000000" stroke-dasharray="1,5" points="8,-70 8,-195 1315,-195 1315,-70 8,-70"/>
</g>
<g id="clust2" class="cluster">
<title>cluster_BlogModule_declarations</title>
<polygon fill="none" stroke="#000000" points="1068,-78 1068,-130 1307,-130 1307,-78 1068,-78"/>
</g>
<g id="clust5" class="cluster">
<title>cluster_BlogModule_imports</title>
<polygon fill="none" stroke="#000000" points="16,-78 16,-130 1060,-130 1060,-78 16,-78"/>
</g>
<!-- PostComponent -->
<g id="node1" class="node">
<title>PostComponent</title>
<polygon fill="#ffffb3" stroke="#000000" points="1298.9512,-122 1193.0488,-122 1193.0488,-86 1298.9512,-86 1298.9512,-122"/>
<text text-anchor="middle" x="1246" y="-99.8" font-family="Times,serif" font-size="14.00" fill="#000000">PostComponent</text>
</g>
<!-- BlogModule -->
<g id="node3" class="node">
<title>BlogModule</title>
<polygon fill="#8dd3c7" stroke="#000000" points="687.2773,-187 684.2773,-191 663.2773,-191 660.2773,-187 600.7227,-187 600.7227,-151 687.2773,-151 687.2773,-187"/>
<text text-anchor="middle" x="644" y="-164.8" font-family="Times,serif" font-size="14.00" fill="#000000">BlogModule</text>
</g>
<!-- PostComponent&#45;&gt;BlogModule -->
<g id="edge1" class="edge">
<title>PostComponent&#45;&gt;BlogModule</title>
<path fill="none" stroke="#000000" d="M1246,-122.0109C1246,-144.4852 1246,-180 1246,-180 1246,-180 697.2944,-180 697.2944,-180"/>
<polygon fill="#000000" stroke="#000000" points="697.2944,-176.5001 687.2944,-180 697.2943,-183.5001 697.2944,-176.5001"/>
</g>
<!-- AllComponent -->
<g id="node2" class="node">
<title>AllComponent</title>
<polygon fill="#ffffb3" stroke="#000000" points="1175.7204,-122 1076.2796,-122 1076.2796,-86 1175.7204,-86 1175.7204,-122"/>
<text text-anchor="middle" x="1126" y="-99.8" font-family="Times,serif" font-size="14.00" fill="#000000">AllComponent</text>
</g>
<!-- AllComponent&#45;&gt;BlogModule -->
<g id="edge2" class="edge">
<title>AllComponent&#45;&gt;BlogModule</title>
<path fill="none" stroke="#000000" d="M1126,-122.1289C1126,-142.5724 1126,-173 1126,-173 1126,-173 697.6244,-173 697.6244,-173"/>
<polygon fill="#000000" stroke="#000000" points="697.6244,-169.5001 687.6244,-173 697.6244,-176.5001 697.6244,-169.5001"/>
</g>
<!-- CommonModule -->
<g id="node4" class="node">
<title>CommonModule</title>
<polygon fill="#8dd3c7" stroke="#000000" points="1051.6681,-122 1048.6681,-126 1027.6681,-126 1024.6681,-122 940.3319,-122 940.3319,-86 1051.6681,-86 1051.6681,-122"/>
<text text-anchor="middle" x="996" y="-99.8" font-family="Times,serif" font-size="14.00" fill="#000000">CommonModule</text>
</g>
<!-- CommonModule&#45;&gt;BlogModule -->
<g id="edge3" class="edge">
<title>CommonModule&#45;&gt;BlogModule</title>
<path fill="none" stroke="#000000" d="M996,-122.2667C996,-140.5552 996,-166 996,-166 996,-166 697.5152,-166 697.5152,-166"/>
<polygon fill="#000000" stroke="#000000" points="697.5152,-162.5001 687.5152,-166 697.5151,-169.5001 697.5152,-162.5001"/>
</g>
<!-- BlogRoutingModule -->
<g id="node5" class="node">
<title>BlogRoutingModule</title>
<polygon fill="#8dd3c7" stroke="#000000" points="921.8948,-122 918.8948,-126 897.8948,-126 894.8948,-122 790.1052,-122 790.1052,-86 921.8948,-86 921.8948,-122"/>
<text text-anchor="middle" x="856" y="-99.8" font-family="Times,serif" font-size="14.00" fill="#000000">BlogRoutingModule</text>
</g>
<!-- BlogRoutingModule&#45;&gt;BlogModule -->
<g id="edge4" class="edge">
<title>BlogRoutingModule&#45;&gt;BlogModule</title>
<path fill="none" stroke="#000000" d="M856,-122.0091C856,-138.0494 856,-159 856,-159 856,-159 697.4129,-159 697.4129,-159"/>
<polygon fill="#000000" stroke="#000000" points="697.413,-155.5001 687.4129,-159 697.4129,-162.5001 697.413,-155.5001"/>
</g>
<!-- MarkdownModule -->
<g id="node6" class="node">
<title>MarkdownModule</title>
<polygon fill="#8dd3c7" stroke="#000000" points="772.4762,-122 769.4762,-126 748.4762,-126 745.4762,-122 651.5238,-122 651.5238,-86 772.4762,-86 772.4762,-122"/>
<text text-anchor="middle" x="712" y="-99.8" font-family="Times,serif" font-size="14.00" fill="#000000">MarkdownModule</text>
</g>
<!-- MarkdownModule&#45;&gt;BlogModule -->
<g id="edge5" class="edge">
<title>MarkdownModule&#45;&gt;BlogModule</title>
<path fill="none" stroke="#000000" d="M669.4502,-122.1061C669.4502,-122.1061 669.4502,-140.991 669.4502,-140.991"/>
<polygon fill="#000000" stroke="#000000" points="665.9503,-140.9909 669.4502,-150.991 672.9503,-140.991 665.9503,-140.9909"/>
</g>
<!-- MatChipsModule -->
<g id="node7" class="node">
<title>MatChipsModule</title>
<polygon fill="#8dd3c7" stroke="#000000" points="633.2716,-122 630.2716,-126 609.2716,-126 606.2716,-122 518.7284,-122 518.7284,-86 633.2716,-86 633.2716,-122"/>
<text text-anchor="middle" x="576" y="-99.8" font-family="Times,serif" font-size="14.00" fill="#000000">MatChipsModule</text>
</g>
<!-- MatChipsModule&#45;&gt;BlogModule -->
<g id="edge6" class="edge">
<title>MatChipsModule&#45;&gt;BlogModule</title>
<path fill="none" stroke="#000000" d="M616.9986,-122.1061C616.9986,-122.1061 616.9986,-140.991 616.9986,-140.991"/>
<polygon fill="#000000" stroke="#000000" points="613.4987,-140.9909 616.9986,-150.991 620.4987,-140.991 613.4987,-140.9909"/>
</g>
<!-- CoreModule -->
<g id="node8" class="node">
<title>CoreModule</title>
<polygon fill="#8dd3c7" stroke="#000000" points="500.2619,-122 497.2619,-126 476.2619,-126 473.2619,-122 413.7381,-122 413.7381,-86 500.2619,-86 500.2619,-122"/>
<text text-anchor="middle" x="457" y="-99.8" font-family="Times,serif" font-size="14.00" fill="#000000">CoreModule</text>
</g>
<!-- CoreModule&#45;&gt;BlogModule -->
<g id="edge7" class="edge">
<title>CoreModule&#45;&gt;BlogModule</title>
<path fill="none" stroke="#000000" d="M457,-122.0091C457,-138.0494 457,-159 457,-159 457,-159 590.6284,-159 590.6284,-159"/>
<polygon fill="#000000" stroke="#000000" points="590.6285,-162.5001 600.6284,-159 590.6284,-155.5001 590.6285,-162.5001"/>
</g>
<!-- NgAisModule -->
<g id="node9" class="node">
<title>NgAisModule</title>
<polygon fill="#8dd3c7" stroke="#000000" points="396.0983,-122 393.0983,-126 372.0983,-126 369.0983,-122 299.9017,-122 299.9017,-86 396.0983,-86 396.0983,-122"/>
<text text-anchor="middle" x="348" y="-99.8" font-family="Times,serif" font-size="14.00" fill="#000000">NgAisModule</text>
</g>
<!-- NgAisModule&#45;&gt;BlogModule -->
<g id="edge8" class="edge">
<title>NgAisModule&#45;&gt;BlogModule</title>
<path fill="none" stroke="#000000" d="M348,-122.2667C348,-140.5552 348,-166 348,-166 348,-166 590.6421,-166 590.6421,-166"/>
<polygon fill="#000000" stroke="#000000" points="590.6421,-169.5001 600.6421,-166 590.642,-162.5001 590.6421,-169.5001"/>
</g>
<!-- FormsModule -->
<g id="node10" class="node">
<title>FormsModule</title>
<polygon fill="#8dd3c7" stroke="#000000" points="281.8288,-122 278.8288,-126 257.8288,-126 254.8288,-122 186.1712,-122 186.1712,-86 281.8288,-86 281.8288,-122"/>
<text text-anchor="middle" x="234" y="-99.8" font-family="Times,serif" font-size="14.00" fill="#000000">FormsModule</text>
</g>
<!-- FormsModule&#45;&gt;BlogModule -->
<g id="edge9" class="edge">
<title>FormsModule&#45;&gt;BlogModule</title>
<path fill="none" stroke="#000000" d="M234,-122.1289C234,-142.5724 234,-173 234,-173 234,-173 590.511,-173 590.511,-173"/>
<polygon fill="#000000" stroke="#000000" points="590.511,-176.5001 600.511,-173 590.5109,-169.5001 590.511,-176.5001"/>
</g>
<!-- ReactiveFormsModule -->
<g id="node11" class="node">
<title>ReactiveFormsModule</title>
<polygon fill="#8dd3c7" stroke="#000000" points="168.3047,-122 165.3047,-126 144.3047,-126 141.3047,-122 23.6953,-122 23.6953,-86 168.3047,-86 168.3047,-122"/>
<text text-anchor="middle" x="96" y="-99.8" font-family="Times,serif" font-size="14.00" fill="#000000">ReactiveFormsModule</text>
</g>
<!-- ReactiveFormsModule&#45;&gt;BlogModule -->
<g id="edge10" class="edge">
<title>ReactiveFormsModule&#45;&gt;BlogModule</title>
<path fill="none" stroke="#000000" d="M96,-122.0109C96,-144.4852 96,-180 96,-180 96,-180 590.5413,-180 590.5413,-180"/>
<polygon fill="#000000" stroke="#000000" points="590.5413,-183.5001 600.5413,-180 590.5413,-176.5001 590.5413,-183.5001"/>
</g>
</g>
</svg>
