<?xml version="1.0" encoding="UTF-8" standalone="no"?>
<!DOCTYPE svg PUBLIC "-//W3C//DTD SVG 1.1//EN"
 "http://www.w3.org/Graphics/SVG/1.1/DTD/svg11.dtd">
<!-- Generated by graphviz version 2.40.1 (20161225.0304)
 -->
<!-- Title: dependencies Pages: 1 -->
<svg width="666pt" height="211pt"
 viewBox="0.00 0.00 666.00 211.00" xmlns="http://www.w3.org/2000/svg" xmlns:xlink="http://www.w3.org/1999/xlink">
<g id="graph0" class="graph" transform="scale(1 1) rotate(0) translate(4 207)">
<title>dependencies</title>
<polygon fill="#ffffff" stroke="transparent" points="-4,4 -4,-207 662,-207 662,4 -4,4"/>
<text text-anchor="start" x="308.0091" y="-42.4" font-family="sans-serif" font-weight="bold" font-size="14.00" fill="#000000">Legend</text>
<polygon fill="#ffffb3" stroke="transparent" points="95,-10 95,-30 115,-30 115,-10 95,-10"/>
<text text-anchor="start" x="118.629" y="-15.4" font-family="sans-serif" font-size="14.00" fill="#000000"> &#160;Declarations</text>
<polygon fill="#8dd3c7" stroke="transparent" points="208,-10 208,-30 228,-30 228,-10 208,-10"/>
<text text-anchor="start" x="231.7251" y="-15.4" font-family="sans-serif" font-size="14.00" fill="#000000"> &#160;Module</text>
<polygon fill="#80b1d3" stroke="transparent" points="294,-10 294,-30 314,-30 314,-10 294,-10"/>
<text text-anchor="start" x="317.7812" y="-15.4" font-family="sans-serif" font-size="14.00" fill="#000000"> &#160;Bootstrap</text>
<polygon fill="#fdb462" stroke="transparent" points="391,-10 391,-30 411,-30 411,-10 391,-10"/>
<text text-anchor="start" x="414.6732" y="-15.4" font-family="sans-serif" font-size="14.00" fill="#000000"> &#160;Providers</text>
<polygon fill="#fb8072" stroke="transparent" points="487,-10 487,-30 507,-30 507,-10 487,-10"/>
<text text-anchor="start" x="510.7258" y="-15.4" font-family="sans-serif" font-size="14.00" fill="#000000"> &#160;Exports</text>
<g id="clust1" class="cluster">
<title>cluster_BlogModule</title>
<polygon fill="none" stroke="#000000" stroke-dasharray="1,5" points="8,-70 8,-195 650,-195 650,-70 8,-70"/>
</g>
<g id="clust2" class="cluster">
<title>cluster_BlogModule_declarations</title>
<polygon fill="none" stroke="#000000" points="276,-78 276,-130 642,-130 642,-78 276,-78"/>
</g>
<g id="clust6" class="cluster">
<title>cluster_BlogModule_imports</title>
<polygon fill="none" stroke="#000000" points="16,-78 16,-130 268,-130 268,-78 16,-78"/>
</g>
<!-- AllComponent -->
<g id="node1" class="node">
<title>AllComponent</title>
<polygon fill="#ffffb3" stroke="#000000" points="633.7204,-122 534.2796,-122 534.2796,-86 633.7204,-86 633.7204,-122"/>
<text text-anchor="middle" x="584" y="-99.8" font-family="Times,serif" font-size="14.00" fill="#000000">AllComponent</text>
</g>
<!-- BlogModule -->
<g id="node4" class="node">
<title>BlogModule</title>
<polygon fill="#8dd3c7" stroke="#000000" points="380.2773,-187 377.2773,-191 356.2773,-191 353.2773,-187 293.7227,-187 293.7227,-151 380.2773,-151 380.2773,-187"/>
<text text-anchor="middle" x="337" y="-164.8" font-family="Times,serif" font-size="14.00" fill="#000000">BlogModule</text>
</g>
<!-- AllComponent&#45;&gt;BlogModule -->
<g id="edge1" class="edge">
<title>AllComponent&#45;&gt;BlogModule</title>
<path fill="none" stroke="#000000" d="M584,-122.2843C584,-143.3211 584,-175 584,-175 584,-175 390.3068,-175 390.3068,-175"/>
<polygon fill="#000000" stroke="#000000" points="390.3068,-171.5001 380.3068,-175 390.3067,-178.5001 390.3068,-171.5001"/>
</g>
<!-- CardComponent -->
<g id="node2" class="node">
<title>CardComponent</title>
<polygon fill="#ffffb3" stroke="#000000" points="516.0452,-122 407.9548,-122 407.9548,-86 516.0452,-86 516.0452,-122"/>
<text text-anchor="middle" x="462" y="-99.8" font-family="Times,serif" font-size="14.00" fill="#000000">CardComponent</text>
</g>
<!-- CardComponent&#45;&gt;BlogModule -->
<g id="edge2" class="edge">
<title>CardComponent&#45;&gt;BlogModule</title>
<path fill="none" stroke="#000000" d="M462,-122.0225C462,-139.3734 462,-163 462,-163 462,-163 390.3681,-163 390.3681,-163"/>
<polygon fill="#000000" stroke="#000000" points="390.3682,-159.5001 380.3681,-163 390.3681,-166.5001 390.3682,-159.5001"/>
</g>
<!-- PostComponent -->
<g id="node3" class="node">
<title>PostComponent</title>
<polygon fill="#ffffb3" stroke="#000000" points="389.9512,-122 284.0488,-122 284.0488,-86 389.9512,-86 389.9512,-122"/>
<text text-anchor="middle" x="337" y="-99.8" font-family="Times,serif" font-size="14.00" fill="#000000">PostComponent</text>
</g>
<!-- PostComponent&#45;&gt;BlogModule -->
<g id="edge3" class="edge">
<title>PostComponent&#45;&gt;BlogModule</title>
<path fill="none" stroke="#000000" d="M337,-122.1061C337,-122.1061 337,-140.991 337,-140.991"/>
<polygon fill="#000000" stroke="#000000" points="333.5001,-140.9909 337,-150.991 340.5001,-140.991 333.5001,-140.9909"/>
</g>
<!-- BlogRoutingModule -->
<g id="node5" class="node">
<title>BlogRoutingModule</title>
<polygon fill="#8dd3c7" stroke="#000000" points="259.8948,-122 256.8948,-126 235.8948,-126 232.8948,-122 128.1052,-122 128.1052,-86 259.8948,-86 259.8948,-122"/>
<text text-anchor="middle" x="194" y="-99.8" font-family="Times,serif" font-size="14.00" fill="#000000">BlogRoutingModule</text>
</g>
<!-- BlogRoutingModule&#45;&gt;BlogModule -->
<g id="edge4" class="edge">
<title>BlogRoutingModule&#45;&gt;BlogModule</title>
<path fill="none" stroke="#000000" d="M194,-122.0225C194,-139.3734 194,-163 194,-163 194,-163 283.7072,-163 283.7072,-163"/>
<polygon fill="#000000" stroke="#000000" points="283.7073,-166.5001 293.7072,-163 283.7072,-159.5001 283.7073,-166.5001"/>
</g>
<!-- CoreModule -->
<g id="node6" class="node">
<title>CoreModule</title>
<polygon fill="#8dd3c7" stroke="#000000" points="110.2619,-122 107.2619,-126 86.2619,-126 83.2619,-122 23.7381,-122 23.7381,-86 110.2619,-86 110.2619,-122"/>
<text text-anchor="middle" x="67" y="-99.8" font-family="Times,serif" font-size="14.00" fill="#000000">CoreModule</text>
</g>
<!-- CoreModule&#45;&gt;BlogModule -->
<g id="edge5" class="edge">
<title>CoreModule&#45;&gt;BlogModule</title>
<path fill="none" stroke="#000000" d="M67,-122.2843C67,-143.3211 67,-175 67,-175 67,-175 283.6198,-175 283.6198,-175"/>
<polygon fill="#000000" stroke="#000000" points="283.6199,-178.5001 293.6198,-175 283.6198,-171.5001 283.6199,-178.5001"/>
</g>
</g>
</svg>
