<?xml version="1.0" encoding="UTF-8" standalone="no"?>
<!DOCTYPE svg PUBLIC "-//W3C//DTD SVG 1.1//EN"
 "http://www.w3.org/Graphics/SVG/1.1/DTD/svg11.dtd">
<!-- Generated by graphviz version 2.40.1 (20161225.0304)
 -->
<!-- Title: dependencies Pages: 1 -->
<svg width="1133pt" height="211pt"
 viewBox="0.00 0.00 1133.00 211.00" xmlns="http://www.w3.org/2000/svg" xmlns:xlink="http://www.w3.org/1999/xlink">
<g id="graph0" class="graph" transform="scale(1 1) rotate(0) translate(4 207)">
<title>dependencies</title>
<polygon fill="#ffffff" stroke="transparent" points="-4,4 -4,-207 1129,-207 1129,4 -4,4"/>
<text text-anchor="start" x="541.5091" y="-42.4" font-family="sans-serif" font-weight="bold" font-size="14.00" fill="#000000">Legend</text>
<polygon fill="#ffffb3" stroke="transparent" points="328.5,-10 328.5,-30 348.5,-30 348.5,-10 328.5,-10"/>
<text text-anchor="start" x="352.129" y="-15.4" font-family="sans-serif" font-size="14.00" fill="#000000"> &#160;Declarations</text>
<polygon fill="#8dd3c7" stroke="transparent" points="441.5,-10 441.5,-30 461.5,-30 461.5,-10 441.5,-10"/>
<text text-anchor="start" x="465.2251" y="-15.4" font-family="sans-serif" font-size="14.00" fill="#000000"> &#160;Module</text>
<polygon fill="#80b1d3" stroke="transparent" points="527.5,-10 527.5,-30 547.5,-30 547.5,-10 527.5,-10"/>
<text text-anchor="start" x="551.2812" y="-15.4" font-family="sans-serif" font-size="14.00" fill="#000000"> &#160;Bootstrap</text>
<polygon fill="#fdb462" stroke="transparent" points="624.5,-10 624.5,-30 644.5,-30 644.5,-10 624.5,-10"/>
<text text-anchor="start" x="648.1732" y="-15.4" font-family="sans-serif" font-size="14.00" fill="#000000"> &#160;Providers</text>
<polygon fill="#fb8072" stroke="transparent" points="720.5,-10 720.5,-30 740.5,-30 740.5,-10 720.5,-10"/>
<text text-anchor="start" x="744.2258" y="-15.4" font-family="sans-serif" font-size="14.00" fill="#000000"> &#160;Exports</text>
<g id="clust1" class="cluster">
<title>cluster_AuthModule</title>
<polygon fill="none" stroke="#000000" stroke-dasharray="1,5" points="8,-70 8,-195 1117,-195 1117,-70 8,-70"/>
</g>
<g id="clust2" class="cluster">
<title>cluster_AuthModule_declarations</title>
<polygon fill="none" stroke="#000000" points="837,-78 837,-130 1109,-130 1109,-78 837,-78"/>
</g>
<g id="clust5" class="cluster">
<title>cluster_AuthModule_imports</title>
<polygon fill="none" stroke="#000000" points="16,-78 16,-130 829,-130 829,-78 16,-78"/>
</g>
<!-- AuthComponent -->
<g id="node1" class="node">
<title>AuthComponent</title>
<polygon fill="#ffffb3" stroke="#000000" points="1100.8301,-122 991.1699,-122 991.1699,-86 1100.8301,-86 1100.8301,-122"/>
<text text-anchor="middle" x="1046" y="-99.8" font-family="Times,serif" font-size="14.00" fill="#000000">AuthComponent</text>
</g>
<!-- AuthModule -->
<g id="node3" class="node">
<title>AuthModule</title>
<polygon fill="#8dd3c7" stroke="#000000" points="602.5482,-187 599.5482,-191 578.5482,-191 575.5482,-187 515.4518,-187 515.4518,-151 602.5482,-151 602.5482,-187"/>
<text text-anchor="middle" x="559" y="-164.8" font-family="Times,serif" font-size="14.00" fill="#000000">AuthModule</text>
</g>
<!-- AuthComponent&#45;&gt;AuthModule -->
<g id="edge1" class="edge">
<title>AuthComponent&#45;&gt;AuthModule</title>
<path fill="none" stroke="#000000" d="M1046,-122.2921C1046,-144.2057 1046,-178 1046,-178 1046,-178 612.6466,-178 612.6466,-178"/>
<polygon fill="#000000" stroke="#000000" points="612.6466,-174.5001 602.6466,-178 612.6466,-181.5001 612.6466,-174.5001"/>
</g>
<!-- AccountComponent -->
<g id="node2" class="node">
<title>AccountComponent</title>
<polygon fill="#ffffb3" stroke="#000000" points="973.259,-122 844.741,-122 844.741,-86 973.259,-86 973.259,-122"/>
<text text-anchor="middle" x="909" y="-99.8" font-family="Times,serif" font-size="14.00" fill="#000000">AccountComponent</text>
</g>
<!-- AccountComponent&#45;&gt;AuthModule -->
<g id="edge2" class="edge">
<title>AccountComponent&#45;&gt;AuthModule</title>
<path fill="none" stroke="#000000" d="M909,-122.1061C909,-141.3391 909,-169 909,-169 909,-169 612.6201,-169 612.6201,-169"/>
<polygon fill="#000000" stroke="#000000" points="612.6201,-165.5001 602.6201,-169 612.62,-172.5001 612.6201,-165.5001"/>
</g>
<!-- CommonModule -->
<g id="node4" class="node">
<title>CommonModule</title>
<polygon fill="#8dd3c7" stroke="#000000" points="820.6681,-122 817.6681,-126 796.6681,-126 793.6681,-122 709.3319,-122 709.3319,-86 820.6681,-86 820.6681,-122"/>
<text text-anchor="middle" x="765" y="-99.8" font-family="Times,serif" font-size="14.00" fill="#000000">CommonModule</text>
</g>
<!-- CommonModule&#45;&gt;AuthModule -->
<g id="edge3" class="edge">
<title>CommonModule&#45;&gt;AuthModule</title>
<path fill="none" stroke="#000000" d="M765,-122.027C765,-138.3976 765,-160 765,-160 765,-160 612.6873,-160 612.6873,-160"/>
<polygon fill="#000000" stroke="#000000" points="612.6873,-156.5001 602.6873,-160 612.6873,-163.5001 612.6873,-156.5001"/>
</g>
<!-- AuthRoutingModule -->
<g id="node5" class="node">
<title>AuthRoutingModule</title>
<polygon fill="#8dd3c7" stroke="#000000" points="691.1652,-122 688.1652,-126 667.1652,-126 664.1652,-122 558.8348,-122 558.8348,-86 691.1652,-86 691.1652,-122"/>
<text text-anchor="middle" x="625" y="-99.8" font-family="Times,serif" font-size="14.00" fill="#000000">AuthRoutingModule</text>
</g>
<!-- AuthRoutingModule&#45;&gt;AuthModule -->
<g id="edge4" class="edge">
<title>AuthRoutingModule&#45;&gt;AuthModule</title>
<path fill="none" stroke="#000000" d="M580.7206,-122.1061C580.7206,-122.1061 580.7206,-140.991 580.7206,-140.991"/>
<polygon fill="#000000" stroke="#000000" points="577.2206,-140.9909 580.7206,-150.991 584.2206,-140.991 577.2206,-140.9909"/>
</g>
<!-- FormsModule -->
<g id="node6" class="node">
<title>FormsModule</title>
<polygon fill="#8dd3c7" stroke="#000000" points="540.8288,-122 537.8288,-126 516.8288,-126 513.8288,-122 445.1712,-122 445.1712,-86 540.8288,-86 540.8288,-122"/>
<text text-anchor="middle" x="493" y="-99.8" font-family="Times,serif" font-size="14.00" fill="#000000">FormsModule</text>
</g>
<!-- FormsModule&#45;&gt;AuthModule -->
<g id="edge5" class="edge">
<title>FormsModule&#45;&gt;AuthModule</title>
<path fill="none" stroke="#000000" d="M527.9453,-122.1061C527.9453,-122.1061 527.9453,-140.991 527.9453,-140.991"/>
<polygon fill="#000000" stroke="#000000" points="524.4454,-140.9909 527.9453,-150.991 531.4454,-140.991 524.4454,-140.9909"/>
</g>
<!-- ReactiveFormsModule -->
<g id="node7" class="node">
<title>ReactiveFormsModule</title>
<polygon fill="#8dd3c7" stroke="#000000" points="427.3047,-122 424.3047,-126 403.3047,-126 400.3047,-122 282.6953,-122 282.6953,-86 427.3047,-86 427.3047,-122"/>
<text text-anchor="middle" x="355" y="-99.8" font-family="Times,serif" font-size="14.00" fill="#000000">ReactiveFormsModule</text>
</g>
<!-- ReactiveFormsModule&#45;&gt;AuthModule -->
<g id="edge6" class="edge">
<title>ReactiveFormsModule&#45;&gt;AuthModule</title>
<path fill="none" stroke="#000000" d="M355,-122.027C355,-138.3976 355,-160 355,-160 355,-160 505.2369,-160 505.2369,-160"/>
<polygon fill="#000000" stroke="#000000" points="505.2369,-163.5001 515.2369,-160 505.2368,-156.5001 505.2369,-163.5001"/>
</g>
<!-- MatSnackBarModule -->
<g id="node8" class="node">
<title>MatSnackBarModule</title>
<polygon fill="#8dd3c7" stroke="#000000" points="265.024,-122 262.024,-126 241.024,-126 238.024,-122 128.976,-122 128.976,-86 265.024,-86 265.024,-122"/>
<text text-anchor="middle" x="197" y="-99.8" font-family="Times,serif" font-size="14.00" fill="#000000">MatSnackBarModule</text>
</g>
<!-- MatSnackBarModule&#45;&gt;AuthModule -->
<g id="edge7" class="edge">
<title>MatSnackBarModule&#45;&gt;AuthModule</title>
<path fill="none" stroke="#000000" d="M197,-122.1061C197,-141.3391 197,-169 197,-169 197,-169 505.3343,-169 505.3343,-169"/>
<polygon fill="#000000" stroke="#000000" points="505.3344,-172.5001 515.3343,-169 505.3343,-165.5001 505.3344,-172.5001"/>
</g>
<!-- CoreModule -->
<g id="node9" class="node">
<title>CoreModule</title>
<polygon fill="#8dd3c7" stroke="#000000" points="110.2619,-122 107.2619,-126 86.2619,-126 83.2619,-122 23.7381,-122 23.7381,-86 110.2619,-86 110.2619,-122"/>
<text text-anchor="middle" x="67" y="-99.8" font-family="Times,serif" font-size="14.00" fill="#000000">CoreModule</text>
</g>
<!-- CoreModule&#45;&gt;AuthModule -->
<g id="edge8" class="edge">
<title>CoreModule&#45;&gt;AuthModule</title>
<path fill="none" stroke="#000000" d="M67,-122.2921C67,-144.2057 67,-178 67,-178 67,-178 505.3383,-178 505.3383,-178"/>
<polygon fill="#000000" stroke="#000000" points="505.3383,-181.5001 515.3383,-178 505.3382,-174.5001 505.3383,-181.5001"/>
</g>
</g>
</svg>
