<?xml version="1.0" encoding="UTF-8" standalone="no"?>
<!DOCTYPE svg PUBLIC "-//W3C//DTD SVG 1.1//EN"
 "http://www.w3.org/Graphics/SVG/1.1/DTD/svg11.dtd">
<!-- Generated by graphviz version 2.40.1 (20161225.0304)
 -->
<!-- Title: dependencies Pages: 1 -->
<svg width="628pt" height="284pt"
 viewBox="0.00 0.00 628.00 284.00" xmlns="http://www.w3.org/2000/svg" xmlns:xlink="http://www.w3.org/1999/xlink">
<g id="graph0" class="graph" transform="scale(1 1) rotate(0) translate(4 280)">
<title>dependencies</title>
<polygon fill="#ffffff" stroke="transparent" points="-4,4 -4,-280 624,-280 624,4 -4,4"/>
<text text-anchor="start" x="289.0091" y="-42.4" font-family="sans-serif" font-weight="bold" font-size="14.00" fill="#000000">Legend</text>
<polygon fill="#ffffb3" stroke="transparent" points="76,-10 76,-30 96,-30 96,-10 76,-10"/>
<text text-anchor="start" x="99.629" y="-15.4" font-family="sans-serif" font-size="14.00" fill="#000000"> &#160;Declarations</text>
<polygon fill="#8dd3c7" stroke="transparent" points="189,-10 189,-30 209,-30 209,-10 189,-10"/>
<text text-anchor="start" x="212.7251" y="-15.4" font-family="sans-serif" font-size="14.00" fill="#000000"> &#160;Module</text>
<polygon fill="#80b1d3" stroke="transparent" points="275,-10 275,-30 295,-30 295,-10 275,-10"/>
<text text-anchor="start" x="298.7812" y="-15.4" font-family="sans-serif" font-size="14.00" fill="#000000"> &#160;Bootstrap</text>
<polygon fill="#fdb462" stroke="transparent" points="372,-10 372,-30 392,-30 392,-10 372,-10"/>
<text text-anchor="start" x="395.6732" y="-15.4" font-family="sans-serif" font-size="14.00" fill="#000000"> &#160;Providers</text>
<polygon fill="#fb8072" stroke="transparent" points="468,-10 468,-30 488,-30 488,-10 468,-10"/>
<text text-anchor="start" x="491.7258" y="-15.4" font-family="sans-serif" font-size="14.00" fill="#000000"> &#160;Exports</text>
<g id="clust1" class="cluster">
<title>cluster_CoreModule</title>
<polygon fill="none" stroke="#000000" stroke-dasharray="1,5" points="8,-70 8,-268 612,-268 612,-70 8,-70"/>
</g>
<g id="clust2" class="cluster">
<title>cluster_CoreModule_declarations</title>
<polygon fill="none" stroke="#000000" points="24,-78 24,-130 598,-130 598,-78 24,-78"/>
</g>
<g id="clust8" class="cluster">
<title>cluster_CoreModule_exports</title>
<polygon fill="none" stroke="#000000" points="16,-208 16,-260 604,-260 604,-208 16,-208"/>
</g>
<!-- BubblesComponent -->
<g id="node1" class="node">
<title>BubblesComponent</title>
<polygon fill="#ffffb3" stroke="#000000" points="589.719,-122 462.281,-122 462.281,-86 589.719,-86 589.719,-122"/>
<text text-anchor="middle" x="526" y="-99.8" font-family="Times,serif" font-size="14.00" fill="#000000">BubblesComponent</text>
</g>
<!-- CoreModule -->
<g id="node5" class="node">
<title>CoreModule</title>
<polygon fill="#8dd3c7" stroke="#000000" points="259.2619,-187 256.2619,-191 235.2619,-191 232.2619,-187 172.7381,-187 172.7381,-151 259.2619,-151 259.2619,-187"/>
<text text-anchor="middle" x="216" y="-164.8" font-family="Times,serif" font-size="14.00" fill="#000000">CoreModule</text>
</g>
<!-- BubblesComponent&#45;&gt;CoreModule -->
<g id="edge1" class="edge">
<title>BubblesComponent&#45;&gt;CoreModule</title>
<path fill="none" stroke="#000000" d="M548.2865,-122.2667C548.2865,-140.5552 548.2865,-166 548.2865,-166 548.2865,-166 269.4407,-166 269.4407,-166"/>
<polygon fill="#000000" stroke="#000000" points="269.4407,-162.5001 259.4407,-166 269.4406,-169.5001 269.4407,-162.5001"/>
</g>
<!-- EmailSignupComponent -->
<g id="node2" class="node">
<title>EmailSignupComponent</title>
<polygon fill="#ffffb3" stroke="#000000" points="444.4452,-122 289.5548,-122 289.5548,-86 444.4452,-86 444.4452,-122"/>
<text text-anchor="middle" x="367" y="-99.8" font-family="Times,serif" font-size="14.00" fill="#000000">EmailSignupComponent</text>
</g>
<!-- EmailSignupComponent&#45;&gt;CoreModule -->
<g id="edge2" class="edge">
<title>EmailSignupComponent&#45;&gt;CoreModule</title>
<path fill="none" stroke="#000000" d="M392.8241,-122.0091C392.8241,-138.0494 392.8241,-159 392.8241,-159 392.8241,-159 269.7093,-159 269.7093,-159"/>
<polygon fill="#000000" stroke="#000000" points="269.7094,-155.5001 259.7093,-159 269.7093,-162.5001 269.7094,-155.5001"/>
</g>
<!-- FooterComponent -->
<g id="node3" class="node">
<title>FooterComponent</title>
<polygon fill="#ffffb3" stroke="#000000" points="271.8809,-122 154.1191,-122 154.1191,-86 271.8809,-86 271.8809,-122"/>
<text text-anchor="middle" x="213" y="-99.8" font-family="Times,serif" font-size="14.00" fill="#000000">FooterComponent</text>
</g>
<!-- FooterComponent&#45;&gt;CoreModule -->
<g id="edge3" class="edge">
<title>FooterComponent&#45;&gt;CoreModule</title>
<path fill="none" stroke="#000000" d="M216,-122.1061C216,-122.1061 216,-140.991 216,-140.991"/>
<polygon fill="#000000" stroke="#000000" points="212.5001,-140.9909 216,-150.991 219.5001,-140.991 212.5001,-140.9909"/>
</g>
<!-- NavComponent -->
<g id="node4" class="node">
<title>NavComponent</title>
<polygon fill="#ffffb3" stroke="#000000" points="136.1542,-122 31.8458,-122 31.8458,-86 136.1542,-86 136.1542,-122"/>
<text text-anchor="middle" x="84" y="-99.8" font-family="Times,serif" font-size="14.00" fill="#000000">NavComponent</text>
</g>
<!-- NavComponent&#45;&gt;CoreModule -->
<g id="edge4" class="edge">
<title>NavComponent&#45;&gt;CoreModule</title>
<path fill="none" stroke="#000000" d="M98.6089,-122.0225C98.6089,-139.3734 98.6089,-163 98.6089,-163 98.6089,-163 162.6214,-163 162.6214,-163"/>
<polygon fill="#000000" stroke="#000000" points="162.6215,-166.5001 172.6214,-163 162.6214,-159.5001 162.6215,-166.5001"/>
</g>
<!-- BubblesComponent  -->
<g id="node6" class="node">
<title>BubblesComponent </title>
<polygon fill="#fb8072" stroke="#000000" points="596.2191,-252 465.7809,-252 465.7809,-216 596.2191,-216 596.2191,-252"/>
<text text-anchor="middle" x="531" y="-229.8" font-family="Times,serif" font-size="14.00" fill="#000000">BubblesComponent </text>
</g>
<!-- CoreModule&#45;&gt;BubblesComponent  -->
<g id="edge5" class="edge">
<title>CoreModule&#45;&gt;BubblesComponent </title>
<path fill="none" stroke="#000000" stroke-dasharray="5,2" d="M259.5602,-173C340.7293,-173 506.9635,-173 506.9635,-173 506.9635,-173 506.9635,-205.698 506.9635,-205.698"/>
<polygon fill="#000000" stroke="#000000" points="503.4636,-205.698 506.9635,-215.698 510.4636,-205.698 503.4636,-205.698"/>
</g>
<!-- EmailSignupComponent  -->
<g id="node7" class="node">
<title>EmailSignupComponent </title>
<polygon fill="#fb8072" stroke="#000000" points="447.9446,-252 290.0554,-252 290.0554,-216 447.9446,-216 447.9446,-252"/>
<text text-anchor="middle" x="369" y="-229.8" font-family="Times,serif" font-size="14.00" fill="#000000">EmailSignupComponent </text>
</g>
<!-- CoreModule&#45;&gt;EmailSignupComponent  -->
<g id="edge6" class="edge">
<title>CoreModule&#45;&gt;EmailSignupComponent </title>
<path fill="none" stroke="#000000" stroke-dasharray="5,2" d="M259.5159,-180C295.7419,-180 341.4259,-180 341.4259,-180 341.4259,-180 341.4259,-205.7181 341.4259,-205.7181"/>
<polygon fill="#000000" stroke="#000000" points="337.926,-205.718 341.4259,-215.7181 344.926,-205.7181 337.926,-205.718"/>
</g>
<!-- FooterComponent  -->
<g id="node8" class="node">
<title>FooterComponent </title>
<polygon fill="#fb8072" stroke="#000000" points="271.8814,-252 150.1186,-252 150.1186,-216 271.8814,-216 271.8814,-252"/>
<text text-anchor="middle" x="211" y="-229.8" font-family="Times,serif" font-size="14.00" fill="#000000">FooterComponent </text>
</g>
<!-- CoreModule&#45;&gt;FooterComponent  -->
<g id="edge7" class="edge">
<title>CoreModule&#45;&gt;FooterComponent </title>
<path fill="none" stroke="#000000" stroke-dasharray="5,2" d="M216,-187.1061C216,-187.1061 216,-205.991 216,-205.991"/>
<polygon fill="#000000" stroke="#000000" points="212.5001,-205.9909 216,-215.991 219.5001,-205.991 212.5001,-205.9909"/>
</g>
<!-- NavComponent  -->
<g id="node9" class="node">
<title>NavComponent </title>
<polygon fill="#fb8072" stroke="#000000" points="132.1537,-252 23.8463,-252 23.8463,-216 132.1537,-216 132.1537,-252"/>
<text text-anchor="middle" x="78" y="-229.8" font-family="Times,serif" font-size="14.00" fill="#000000">NavComponent </text>
</g>
<!-- CoreModule&#45;&gt;NavComponent  -->
<g id="edge8" class="edge">
<title>CoreModule&#45;&gt;NavComponent </title>
<path fill="none" stroke="#000000" stroke-dasharray="5,2" d="M172.3653,-175C127.811,-175 65.1411,-175 65.1411,-175 65.1411,-175 65.1411,-205.9775 65.1411,-205.9775"/>
<polygon fill="#000000" stroke="#000000" points="61.6412,-205.9774 65.1411,-215.9775 68.6412,-205.9775 61.6412,-205.9774"/>
</g>
</g>
</svg>
