<?xml version="1.0" encoding="UTF-8" standalone="no"?>
<!DOCTYPE svg PUBLIC "-//W3C//DTD SVG 1.1//EN"
 "http://www.w3.org/Graphics/SVG/1.1/DTD/svg11.dtd">
<!-- Generated by graphviz version 2.40.1 (20161225.0304)
 -->
<!-- Title: dependencies Pages: 1 -->
<svg width="794pt" height="284pt"
 viewBox="0.00 0.00 794.00 284.00" xmlns="http://www.w3.org/2000/svg" xmlns:xlink="http://www.w3.org/1999/xlink">
<g id="graph0" class="graph" transform="scale(1 1) rotate(0) translate(4 280)">
<title>dependencies</title>
<polygon fill="#ffffff" stroke="transparent" points="-4,4 -4,-280 790,-280 790,4 -4,4"/>
<text text-anchor="start" x="372.0091" y="-42.4" font-family="sans-serif" font-weight="bold" font-size="14.00" fill="#000000">Legend</text>
<polygon fill="#ffffb3" stroke="transparent" points="159,-10 159,-30 179,-30 179,-10 159,-10"/>
<text text-anchor="start" x="182.629" y="-15.4" font-family="sans-serif" font-size="14.00" fill="#000000"> &#160;Declarations</text>
<polygon fill="#8dd3c7" stroke="transparent" points="272,-10 272,-30 292,-30 292,-10 272,-10"/>
<text text-anchor="start" x="295.7251" y="-15.4" font-family="sans-serif" font-size="14.00" fill="#000000"> &#160;Module</text>
<polygon fill="#80b1d3" stroke="transparent" points="358,-10 358,-30 378,-30 378,-10 358,-10"/>
<text text-anchor="start" x="381.7812" y="-15.4" font-family="sans-serif" font-size="14.00" fill="#000000"> &#160;Bootstrap</text>
<polygon fill="#fdb462" stroke="transparent" points="455,-10 455,-30 475,-30 475,-10 455,-10"/>
<text text-anchor="start" x="478.6732" y="-15.4" font-family="sans-serif" font-size="14.00" fill="#000000"> &#160;Providers</text>
<polygon fill="#fb8072" stroke="transparent" points="551,-10 551,-30 571,-30 571,-10 551,-10"/>
<text text-anchor="start" x="574.7258" y="-15.4" font-family="sans-serif" font-size="14.00" fill="#000000"> &#160;Exports</text>
<g id="clust1" class="cluster">
<title>cluster_CoreModule</title>
<polygon fill="none" stroke="#000000" stroke-dasharray="1,5" points="8,-70 8,-268 778,-268 778,-70 8,-70"/>
</g>
<g id="clust2" class="cluster">
<title>cluster_CoreModule_declarations</title>
<polygon fill="none" stroke="#000000" points="26,-78 26,-130 762,-130 762,-78 26,-78"/>
</g>
<g id="clust9" class="cluster">
<title>cluster_CoreModule_exports</title>
<polygon fill="none" stroke="#000000" points="16,-208 16,-260 770,-260 770,-208 16,-208"/>
</g>
<!-- BubblesComponent -->
<g id="node1" class="node">
<title>BubblesComponent</title>
<polygon fill="#ffffb3" stroke="#000000" points="753.719,-122 626.281,-122 626.281,-86 753.719,-86 753.719,-122"/>
<text text-anchor="middle" x="690" y="-99.8" font-family="Times,serif" font-size="14.00" fill="#000000">BubblesComponent</text>
</g>
<!-- CoreModule -->
<g id="node6" class="node">
<title>CoreModule</title>
<polygon fill="#8dd3c7" stroke="#000000" points="420.2619,-187 417.2619,-191 396.2619,-191 393.2619,-187 333.7381,-187 333.7381,-151 420.2619,-151 420.2619,-187"/>
<text text-anchor="middle" x="377" y="-164.8" font-family="Times,serif" font-size="14.00" fill="#000000">CoreModule</text>
</g>
<!-- BubblesComponent&#45;&gt;CoreModule -->
<g id="edge1" class="edge">
<title>BubblesComponent&#45;&gt;CoreModule</title>
<path fill="none" stroke="#000000" d="M712.9531,-122.2667C712.9531,-140.5552 712.9531,-166 712.9531,-166 712.9531,-166 430.5756,-166 430.5756,-166"/>
<polygon fill="#000000" stroke="#000000" points="430.5756,-162.5001 420.5756,-166 430.5756,-169.5001 430.5756,-162.5001"/>
</g>
<!-- EmailSignupComponent -->
<g id="node2" class="node">
<title>EmailSignupComponent</title>
<polygon fill="#ffffb3" stroke="#000000" points="608.4452,-122 453.5548,-122 453.5548,-86 608.4452,-86 608.4452,-122"/>
<text text-anchor="middle" x="531" y="-99.8" font-family="Times,serif" font-size="14.00" fill="#000000">EmailSignupComponent</text>
</g>
<!-- EmailSignupComponent&#45;&gt;CoreModule -->
<g id="edge2" class="edge">
<title>EmailSignupComponent&#45;&gt;CoreModule</title>
<path fill="none" stroke="#000000" d="M557.4908,-122.0091C557.4908,-138.0494 557.4908,-159 557.4908,-159 557.4908,-159 430.6918,-159 430.6918,-159"/>
<polygon fill="#000000" stroke="#000000" points="430.6918,-155.5001 420.6918,-159 430.6917,-162.5001 430.6918,-155.5001"/>
</g>
<!-- FooterComponent -->
<g id="node3" class="node">
<title>FooterComponent</title>
<polygon fill="#ffffb3" stroke="#000000" points="435.8809,-122 318.1191,-122 318.1191,-86 435.8809,-86 435.8809,-122"/>
<text text-anchor="middle" x="377" y="-99.8" font-family="Times,serif" font-size="14.00" fill="#000000">FooterComponent</text>
</g>
<!-- FooterComponent&#45;&gt;CoreModule -->
<g id="edge3" class="edge">
<title>FooterComponent&#45;&gt;CoreModule</title>
<path fill="none" stroke="#000000" d="M377,-122.1061C377,-122.1061 377,-140.991 377,-140.991"/>
<polygon fill="#000000" stroke="#000000" points="373.5001,-140.9909 377,-150.991 380.5001,-140.991 373.5001,-140.9909"/>
</g>
<!-- NavComponent -->
<g id="node4" class="node">
<title>NavComponent</title>
<polygon fill="#ffffb3" stroke="#000000" points="300.1542,-122 195.8458,-122 195.8458,-86 300.1542,-86 300.1542,-122"/>
<text text-anchor="middle" x="248" y="-99.8" font-family="Times,serif" font-size="14.00" fill="#000000">NavComponent</text>
</g>
<!-- NavComponent&#45;&gt;CoreModule -->
<g id="edge4" class="edge">
<title>NavComponent&#45;&gt;CoreModule</title>
<path fill="none" stroke="#000000" d="M263.9423,-122.0091C263.9423,-138.0494 263.9423,-159 263.9423,-159 263.9423,-159 323.6123,-159 323.6123,-159"/>
<polygon fill="#000000" stroke="#000000" points="323.6123,-162.5001 333.6123,-159 323.6122,-155.5001 323.6123,-162.5001"/>
</g>
<!-- TagViewerComponent -->
<g id="node5" class="node">
<title>TagViewerComponent</title>
<polygon fill="#ffffb3" stroke="#000000" points="178.2935,-122 33.7065,-122 33.7065,-86 178.2935,-86 178.2935,-122"/>
<text text-anchor="middle" x="106" y="-99.8" font-family="Times,serif" font-size="14.00" fill="#000000">TagViewerComponent</text>
</g>
<!-- TagViewerComponent&#45;&gt;CoreModule -->
<g id="edge5" class="edge">
<title>TagViewerComponent&#45;&gt;CoreModule</title>
<path fill="none" stroke="#000000" d="M125.8822,-122.2667C125.8822,-140.5552 125.8822,-166 125.8822,-166 125.8822,-166 323.5453,-166 323.5453,-166"/>
<polygon fill="#000000" stroke="#000000" points="323.5453,-169.5001 333.5453,-166 323.5453,-162.5001 323.5453,-169.5001"/>
</g>
<!-- BubblesComponent  -->
<g id="node7" class="node">
<title>BubblesComponent </title>
<polygon fill="#fb8072" stroke="#000000" points="762.2191,-252 631.7809,-252 631.7809,-216 762.2191,-216 762.2191,-252"/>
<text text-anchor="middle" x="697" y="-229.8" font-family="Times,serif" font-size="14.00" fill="#000000">BubblesComponent </text>
</g>
<!-- CoreModule&#45;&gt;BubblesComponent  -->
<g id="edge6" class="edge">
<title>CoreModule&#45;&gt;BubblesComponent </title>
<path fill="none" stroke="#000000" stroke-dasharray="5,2" d="M420.5721,-173C502.7138,-173 672.2969,-173 672.2969,-173 672.2969,-173 672.2969,-205.698 672.2969,-205.698"/>
<polygon fill="#000000" stroke="#000000" points="668.797,-205.698 672.2969,-215.698 675.797,-205.698 668.797,-205.698"/>
</g>
<!-- EmailSignupComponent  -->
<g id="node8" class="node">
<title>EmailSignupComponent </title>
<polygon fill="#fb8072" stroke="#000000" points="613.9446,-252 456.0554,-252 456.0554,-216 613.9446,-216 613.9446,-252"/>
<text text-anchor="middle" x="535" y="-229.8" font-family="Times,serif" font-size="14.00" fill="#000000">EmailSignupComponent </text>
</g>
<!-- CoreModule&#45;&gt;EmailSignupComponent  -->
<g id="edge7" class="edge">
<title>CoreModule&#45;&gt;EmailSignupComponent </title>
<path fill="none" stroke="#000000" stroke-dasharray="5,2" d="M420.5689,-180C458.2653,-180 506.7592,-180 506.7592,-180 506.7592,-180 506.7592,-205.7181 506.7592,-205.7181"/>
<polygon fill="#000000" stroke="#000000" points="503.2593,-205.718 506.7592,-215.7181 510.2593,-205.7181 503.2593,-205.718"/>
</g>
<!-- FooterComponent  -->
<g id="node9" class="node">
<title>FooterComponent </title>
<polygon fill="#fb8072" stroke="#000000" points="437.8814,-252 316.1186,-252 316.1186,-216 437.8814,-216 437.8814,-252"/>
<text text-anchor="middle" x="377" y="-229.8" font-family="Times,serif" font-size="14.00" fill="#000000">FooterComponent </text>
</g>
<!-- CoreModule&#45;&gt;FooterComponent  -->
<g id="edge8" class="edge">
<title>CoreModule&#45;&gt;FooterComponent </title>
<path fill="none" stroke="#000000" stroke-dasharray="5,2" d="M377,-187.1061C377,-187.1061 377,-205.991 377,-205.991"/>
<polygon fill="#000000" stroke="#000000" points="373.5001,-205.9909 377,-215.991 380.5001,-205.991 373.5001,-205.9909"/>
</g>
<!-- NavComponent  -->
<g id="node10" class="node">
<title>NavComponent </title>
<polygon fill="#fb8072" stroke="#000000" points="298.1537,-252 189.8463,-252 189.8463,-216 298.1537,-216 298.1537,-252"/>
<text text-anchor="middle" x="244" y="-229.8" font-family="Times,serif" font-size="14.00" fill="#000000">NavComponent </text>
</g>
<!-- CoreModule&#45;&gt;NavComponent  -->
<g id="edge9" class="edge">
<title>CoreModule&#45;&gt;NavComponent </title>
<path fill="none" stroke="#000000" stroke-dasharray="5,2" d="M333.6336,-180C290.2155,-180 229.8077,-180 229.8077,-180 229.8077,-180 229.8077,-205.7181 229.8077,-205.7181"/>
<polygon fill="#000000" stroke="#000000" points="226.3078,-205.718 229.8077,-215.7181 233.3078,-205.7181 226.3078,-205.718"/>
</g>
<!-- TagViewerComponent  -->
<g id="node11" class="node">
<title>TagViewerComponent </title>
<polygon fill="#fb8072" stroke="#000000" points="171.7933,-252 24.2067,-252 24.2067,-216 171.7933,-216 171.7933,-252"/>
<text text-anchor="middle" x="98" y="-229.8" font-family="Times,serif" font-size="14.00" fill="#000000">TagViewerComponent </text>
</g>
<!-- CoreModule&#45;&gt;TagViewerComponent  -->
<g id="edge10" class="edge">
<title>CoreModule&#45;&gt;TagViewerComponent </title>
<path fill="none" stroke="#000000" stroke-dasharray="5,2" d="M333.4762,-173C250.9449,-173 79.8678,-173 79.8678,-173 79.8678,-173 79.8678,-205.698 79.8678,-205.698"/>
<polygon fill="#000000" stroke="#000000" points="76.3679,-205.698 79.8678,-215.698 83.3679,-205.698 76.3679,-205.698"/>
</g>
</g>
</svg>
