<?xml version="1.0" encoding="UTF-8" standalone="no"?>
<!DOCTYPE svg PUBLIC "-//W3C//DTD SVG 1.1//EN"
 "http://www.w3.org/Graphics/SVG/1.1/DTD/svg11.dtd">
<!-- Generated by graphviz version 2.40.1 (20161225.0304)
 -->
<!-- Title: dependencies Pages: 1 -->
<svg width="2105pt" height="284pt"
 viewBox="0.00 0.00 2105.00 284.00" xmlns="http://www.w3.org/2000/svg" xmlns:xlink="http://www.w3.org/1999/xlink">
<g id="graph0" class="graph" transform="scale(1 1) rotate(0) translate(4 280)">
<title>dependencies</title>
<polygon fill="#ffffff" stroke="transparent" points="-4,4 -4,-280 2101,-280 2101,4 -4,4"/>
<text text-anchor="start" x="1027.5091" y="-42.4" font-family="sans-serif" font-weight="bold" font-size="14.00" fill="#000000">Legend</text>
<polygon fill="#ffffb3" stroke="transparent" points="814.5,-10 814.5,-30 834.5,-30 834.5,-10 814.5,-10"/>
<text text-anchor="start" x="838.129" y="-15.4" font-family="sans-serif" font-size="14.00" fill="#000000"> &#160;Declarations</text>
<polygon fill="#8dd3c7" stroke="transparent" points="927.5,-10 927.5,-30 947.5,-30 947.5,-10 927.5,-10"/>
<text text-anchor="start" x="951.2251" y="-15.4" font-family="sans-serif" font-size="14.00" fill="#000000"> &#160;Module</text>
<polygon fill="#80b1d3" stroke="transparent" points="1013.5,-10 1013.5,-30 1033.5,-30 1033.5,-10 1013.5,-10"/>
<text text-anchor="start" x="1037.2812" y="-15.4" font-family="sans-serif" font-size="14.00" fill="#000000"> &#160;Bootstrap</text>
<polygon fill="#fdb462" stroke="transparent" points="1110.5,-10 1110.5,-30 1130.5,-30 1130.5,-10 1110.5,-10"/>
<text text-anchor="start" x="1134.1732" y="-15.4" font-family="sans-serif" font-size="14.00" fill="#000000"> &#160;Providers</text>
<polygon fill="#fb8072" stroke="transparent" points="1206.5,-10 1206.5,-30 1226.5,-30 1226.5,-10 1206.5,-10"/>
<text text-anchor="start" x="1230.2258" y="-15.4" font-family="sans-serif" font-size="14.00" fill="#000000"> &#160;Exports</text>
<g id="clust1" class="cluster">
<title>cluster_CoreModule</title>
<polygon fill="none" stroke="#000000" stroke-dasharray="1,5" points="8,-70 8,-268 2089,-268 2089,-70 8,-70"/>
</g>
<g id="clust2" class="cluster">
<title>cluster_CoreModule_declarations</title>
<polygon fill="none" stroke="#000000" points="762,-78 762,-130 2081,-130 2081,-78 762,-78"/>
</g>
<g id="clust12" class="cluster">
<title>cluster_CoreModule_imports</title>
<polygon fill="none" stroke="#000000" points="16,-78 16,-130 754,-130 754,-78 16,-78"/>
</g>
<g id="clust13" class="cluster">
<title>cluster_CoreModule_exports</title>
<polygon fill="none" stroke="#000000" points="477,-208 477,-260 1555,-260 1555,-208 477,-208"/>
</g>
<!-- NavComponent -->
<g id="node1" class="node">
<title>NavComponent</title>
<polygon fill="#ffffb3" stroke="#000000" points="2073.1542,-122 1968.8458,-122 1968.8458,-86 2073.1542,-86 2073.1542,-122"/>
<text text-anchor="middle" x="2021" y="-99.8" font-family="Times,serif" font-size="14.00" fill="#000000">NavComponent</text>
</g>
<!-- CoreModule -->
<g id="node10" class="node">
<title>CoreModule</title>
<polygon fill="#8dd3c7" stroke="#000000" points="1083.2619,-187 1080.2619,-191 1059.2619,-191 1056.2619,-187 996.7381,-187 996.7381,-151 1083.2619,-151 1083.2619,-187"/>
<text text-anchor="middle" x="1040" y="-164.8" font-family="Times,serif" font-size="14.00" fill="#000000">CoreModule</text>
</g>
<!-- NavComponent&#45;&gt;CoreModule -->
<g id="edge1" class="edge">
<title>NavComponent&#45;&gt;CoreModule</title>
<path fill="none" stroke="#000000" d="M2021,-122.1289C2021,-142.5724 2021,-173 2021,-173 2021,-173 1093.4181,-173 1093.4181,-173"/>
<polygon fill="#000000" stroke="#000000" points="1093.4182,-169.5001 1083.4181,-173 1093.4181,-176.5001 1093.4182,-169.5001"/>
</g>
<!-- EmailSignupComponent -->
<g id="node2" class="node">
<title>EmailSignupComponent</title>
<polygon fill="#ffffb3" stroke="#000000" points="1950.4452,-122 1795.5548,-122 1795.5548,-86 1950.4452,-86 1950.4452,-122"/>
<text text-anchor="middle" x="1873" y="-99.8" font-family="Times,serif" font-size="14.00" fill="#000000">EmailSignupComponent</text>
</g>
<!-- EmailSignupComponent&#45;&gt;CoreModule -->
<g id="edge2" class="edge">
<title>EmailSignupComponent&#45;&gt;CoreModule</title>
<path fill="none" stroke="#000000" d="M1873,-122.1061C1873,-141.3391 1873,-169 1873,-169 1873,-169 1093.3218,-169 1093.3218,-169"/>
<polygon fill="#000000" stroke="#000000" points="1093.3218,-165.5001 1083.3218,-169 1093.3218,-172.5001 1093.3218,-165.5001"/>
</g>
<!-- FooterComponent -->
<g id="node3" class="node">
<title>FooterComponent</title>
<polygon fill="#ffffb3" stroke="#000000" points="1777.8809,-122 1660.1191,-122 1660.1191,-86 1777.8809,-86 1777.8809,-122"/>
<text text-anchor="middle" x="1719" y="-99.8" font-family="Times,serif" font-size="14.00" fill="#000000">FooterComponent</text>
</g>
<!-- FooterComponent&#45;&gt;CoreModule -->
<g id="edge3" class="edge">
<title>FooterComponent&#45;&gt;CoreModule</title>
<path fill="none" stroke="#000000" d="M1719,-122.2667C1719,-140.5552 1719,-166 1719,-166 1719,-166 1093.5074,-166 1093.5074,-166"/>
<polygon fill="#000000" stroke="#000000" points="1093.5075,-162.5001 1083.5074,-166 1093.5074,-169.5001 1093.5075,-162.5001"/>
</g>
<!-- BubblesComponent -->
<g id="node4" class="node">
<title>BubblesComponent</title>
<polygon fill="#ffffb3" stroke="#000000" points="1641.719,-122 1514.281,-122 1514.281,-86 1641.719,-86 1641.719,-122"/>
<text text-anchor="middle" x="1578" y="-99.8" font-family="Times,serif" font-size="14.00" fill="#000000">BubblesComponent</text>
</g>
<!-- BubblesComponent&#45;&gt;CoreModule -->
<g id="edge4" class="edge">
<title>BubblesComponent&#45;&gt;CoreModule</title>
<path fill="none" stroke="#000000" d="M1530.7337,-122.0336C1530.7337,-139.0597 1530.7337,-162 1530.7337,-162 1530.7337,-162 1093.5493,-162 1093.5493,-162"/>
<polygon fill="#000000" stroke="#000000" points="1093.5494,-158.5001 1083.5493,-162 1093.5493,-165.5001 1093.5494,-158.5001"/>
</g>
<!-- TagViewerComponent -->
<g id="node5" class="node">
<title>TagViewerComponent</title>
<polygon fill="#ffffb3" stroke="#000000" points="1496.2935,-122 1351.7065,-122 1351.7065,-86 1496.2935,-86 1496.2935,-122"/>
<text text-anchor="middle" x="1424" y="-99.8" font-family="Times,serif" font-size="14.00" fill="#000000">TagViewerComponent</text>
</g>
<!-- TagViewerComponent&#45;&gt;CoreModule -->
<g id="edge5" class="edge">
<title>TagViewerComponent&#45;&gt;CoreModule</title>
<path fill="none" stroke="#000000" d="M1386.2719,-122.0091C1386.2719,-138.0494 1386.2719,-159 1386.2719,-159 1386.2719,-159 1093.505,-159 1093.505,-159"/>
<polygon fill="#000000" stroke="#000000" points="1093.505,-155.5001 1083.505,-159 1093.5049,-162.5001 1093.505,-155.5001"/>
</g>
<!-- BlogCardComponent -->
<g id="node6" class="node">
<title>BlogCardComponent</title>
<polygon fill="#ffffb3" stroke="#000000" points="1333.7716,-122 1198.2284,-122 1198.2284,-86 1333.7716,-86 1333.7716,-122"/>
<text text-anchor="middle" x="1266" y="-99.8" font-family="Times,serif" font-size="14.00" fill="#000000">BlogCardComponent</text>
</g>
<!-- BlogCardComponent&#45;&gt;CoreModule -->
<g id="edge6" class="edge">
<title>BlogCardComponent&#45;&gt;CoreModule</title>
<path fill="none" stroke="#000000" d="M1239.5433,-122.1243C1239.5433,-136.7832 1239.5433,-155 1239.5433,-155 1239.5433,-155 1093.2979,-155 1093.2979,-155"/>
<polygon fill="#000000" stroke="#000000" points="1093.298,-151.5001 1083.2979,-155 1093.2979,-158.5001 1093.298,-151.5001"/>
</g>
<!-- DropZoneDirective -->
<g id="node7" class="node">
<title>DropZoneDirective</title>
<polygon fill="#ffffb3" stroke="#000000" points="1179.6178,-122 1054.3822,-122 1054.3822,-86 1179.6178,-86 1179.6178,-122"/>
<text text-anchor="middle" x="1117" y="-99.8" font-family="Times,serif" font-size="14.00" fill="#000000">DropZoneDirective</text>
</g>
<!-- DropZoneDirective&#45;&gt;CoreModule -->
<g id="edge7" class="edge">
<title>DropZoneDirective&#45;&gt;CoreModule</title>
<path fill="none" stroke="#000000" d="M1068.7861,-122.1061C1068.7861,-122.1061 1068.7861,-140.991 1068.7861,-140.991"/>
<polygon fill="#000000" stroke="#000000" points="1065.2862,-140.9909 1068.7861,-150.991 1072.2862,-140.991 1065.2862,-140.9909"/>
</g>
<!-- FileUploadComponent -->
<g id="node8" class="node">
<title>FileUploadComponent</title>
<polygon fill="#ffffb3" stroke="#000000" points="1036.323,-122 891.677,-122 891.677,-86 1036.323,-86 1036.323,-122"/>
<text text-anchor="middle" x="964" y="-99.8" font-family="Times,serif" font-size="14.00" fill="#000000">FileUploadComponent</text>
</g>
<!-- FileUploadComponent&#45;&gt;CoreModule -->
<g id="edge8" class="edge">
<title>FileUploadComponent&#45;&gt;CoreModule</title>
<path fill="none" stroke="#000000" d="M1016.3903,-122.1061C1016.3903,-122.1061 1016.3903,-140.991 1016.3903,-140.991"/>
<polygon fill="#000000" stroke="#000000" points="1012.8903,-140.9909 1016.3903,-150.991 1019.8903,-140.991 1012.8903,-140.9909"/>
</g>
<!-- FileUploadPipe -->
<g id="node9" class="node">
<title>FileUploadPipe</title>
<polygon fill="#ffffb3" stroke="#000000" points="873.8781,-122 770.1219,-122 770.1219,-86 873.8781,-86 873.8781,-122"/>
<text text-anchor="middle" x="822" y="-99.8" font-family="Times,serif" font-size="14.00" fill="#000000">FileUploadPipe</text>
</g>
<!-- FileUploadPipe&#45;&gt;CoreModule -->
<g id="edge9" class="edge">
<title>FileUploadPipe&#45;&gt;CoreModule</title>
<path fill="none" stroke="#000000" d="M841.5212,-122.1243C841.5212,-136.7832 841.5212,-155 841.5212,-155 841.5212,-155 986.443,-155 986.443,-155"/>
<polygon fill="#000000" stroke="#000000" points="986.443,-158.5001 996.443,-155 986.443,-151.5001 986.443,-158.5001"/>
</g>
<!-- NavComponent  -->
<g id="node16" class="node">
<title>NavComponent </title>
<polygon fill="#fb8072" stroke="#000000" points="1547.1537,-252 1438.8463,-252 1438.8463,-216 1547.1537,-216 1547.1537,-252"/>
<text text-anchor="middle" x="1493" y="-229.8" font-family="Times,serif" font-size="14.00" fill="#000000">NavComponent </text>
</g>
<!-- CoreModule&#45;&gt;NavComponent  -->
<g id="edge15" class="edge">
<title>CoreModule&#45;&gt;NavComponent </title>
<path fill="none" stroke="#000000" stroke-dasharray="5,2" d="M1083.3471,-177C1192.0389,-177 1467.5349,-177 1467.5349,-177 1467.5349,-177 1467.5349,-205.9648 1467.5349,-205.9648"/>
<polygon fill="#000000" stroke="#000000" points="1464.035,-205.9648 1467.5349,-215.9648 1471.035,-205.9649 1464.035,-205.9648"/>
</g>
<!-- FooterComponent  -->
<g id="node17" class="node">
<title>FooterComponent </title>
<polygon fill="#fb8072" stroke="#000000" points="1420.8814,-252 1299.1186,-252 1299.1186,-216 1420.8814,-216 1420.8814,-252"/>
<text text-anchor="middle" x="1360" y="-229.8" font-family="Times,serif" font-size="14.00" fill="#000000">FooterComponent </text>
</g>
<!-- CoreModule&#45;&gt;FooterComponent  -->
<g id="edge16" class="edge">
<title>CoreModule&#45;&gt;FooterComponent </title>
<path fill="none" stroke="#000000" stroke-dasharray="5,2" d="M1083.5227,-180C1161.4164,-180 1316.5977,-180 1316.5977,-180 1316.5977,-180 1316.5977,-205.7181 1316.5977,-205.7181"/>
<polygon fill="#000000" stroke="#000000" points="1313.0977,-205.718 1316.5977,-215.7181 1320.0977,-205.7181 1313.0977,-205.718"/>
</g>
<!-- EmailSignupComponent  -->
<g id="node18" class="node">
<title>EmailSignupComponent </title>
<polygon fill="#fb8072" stroke="#000000" points="1280.9446,-252 1123.0554,-252 1123.0554,-216 1280.9446,-216 1280.9446,-252"/>
<text text-anchor="middle" x="1202" y="-229.8" font-family="Times,serif" font-size="14.00" fill="#000000">EmailSignupComponent </text>
</g>
<!-- CoreModule&#45;&gt;EmailSignupComponent  -->
<g id="edge17" class="edge">
<title>CoreModule&#45;&gt;EmailSignupComponent </title>
<path fill="none" stroke="#000000" stroke-dasharray="5,2" d="M1083.3962,-184C1114.6806,-184 1151.4182,-184 1151.4182,-184 1151.4182,-184 1151.4182,-205.9489 1151.4182,-205.9489"/>
<polygon fill="#000000" stroke="#000000" points="1147.9182,-205.9488 1151.4182,-215.9489 1154.9182,-205.9489 1147.9182,-205.9488"/>
</g>
<!-- BubblesComponent  -->
<g id="node19" class="node">
<title>BubblesComponent </title>
<polygon fill="#fb8072" stroke="#000000" points="1105.2191,-252 974.7809,-252 974.7809,-216 1105.2191,-216 1105.2191,-252"/>
<text text-anchor="middle" x="1040" y="-229.8" font-family="Times,serif" font-size="14.00" fill="#000000">BubblesComponent </text>
</g>
<!-- CoreModule&#45;&gt;BubblesComponent  -->
<g id="edge18" class="edge">
<title>CoreModule&#45;&gt;BubblesComponent </title>
<path fill="none" stroke="#000000" stroke-dasharray="5,2" d="M1040,-187.1061C1040,-187.1061 1040,-205.991 1040,-205.991"/>
<polygon fill="#000000" stroke="#000000" points="1036.5001,-205.9909 1040,-215.991 1043.5001,-205.991 1036.5001,-205.9909"/>
</g>
<!-- TagViewerComponent  -->
<g id="node20" class="node">
<title>TagViewerComponent </title>
<polygon fill="#fb8072" stroke="#000000" points="956.7933,-252 809.2067,-252 809.2067,-216 956.7933,-216 956.7933,-252"/>
<text text-anchor="middle" x="883" y="-229.8" font-family="Times,serif" font-size="14.00" fill="#000000">TagViewerComponent </text>
</g>
<!-- CoreModule&#45;&gt;TagViewerComponent  -->
<g id="edge19" class="edge">
<title>CoreModule&#45;&gt;TagViewerComponent </title>
<path fill="none" stroke="#000000" stroke-dasharray="5,2" d="M996.6138,-184C963.8026,-184 924.3677,-184 924.3677,-184 924.3677,-184 924.3677,-205.9489 924.3677,-205.9489"/>
<polygon fill="#000000" stroke="#000000" points="920.8677,-205.9488 924.3677,-215.9489 927.8677,-205.9489 920.8677,-205.9488"/>
</g>
<!-- BlogCardComponent  -->
<g id="node21" class="node">
<title>BlogCardComponent </title>
<polygon fill="#fb8072" stroke="#000000" points="790.7717,-252 651.2283,-252 651.2283,-216 790.7717,-216 790.7717,-252"/>
<text text-anchor="middle" x="721" y="-229.8" font-family="Times,serif" font-size="14.00" fill="#000000">BlogCardComponent </text>
</g>
<!-- CoreModule&#45;&gt;BlogCardComponent  -->
<g id="edge20" class="edge">
<title>CoreModule&#45;&gt;BlogCardComponent </title>
<path fill="none" stroke="#000000" stroke-dasharray="5,2" d="M996.5402,-180C922.6237,-180 780.3484,-180 780.3484,-180 780.3484,-180 780.3484,-205.7181 780.3484,-205.7181"/>
<polygon fill="#000000" stroke="#000000" points="776.8484,-205.718 780.3484,-215.7181 783.8484,-205.7181 776.8484,-205.718"/>
</g>
<!-- FileUploadComponent  -->
<g id="node22" class="node">
<title>FileUploadComponent </title>
<polygon fill="#fb8072" stroke="#000000" points="632.8227,-252 485.1773,-252 485.1773,-216 632.8227,-216 632.8227,-252"/>
<text text-anchor="middle" x="559" y="-229.8" font-family="Times,serif" font-size="14.00" fill="#000000">FileUploadComponent </text>
</g>
<!-- CoreModule&#45;&gt;FileUploadComponent  -->
<g id="edge21" class="edge">
<title>CoreModule&#45;&gt;FileUploadComponent </title>
<path fill="none" stroke="#000000" stroke-dasharray="5,2" d="M996.6964,-177C890.2429,-177 624.3687,-177 624.3687,-177 624.3687,-177 624.3687,-205.9648 624.3687,-205.9648"/>
<polygon fill="#000000" stroke="#000000" points="620.8688,-205.9648 624.3687,-215.9648 627.8688,-205.9649 620.8688,-205.9648"/>
</g>
<!-- CommonModule -->
<g id="node11" class="node">
<title>CommonModule</title>
<polygon fill="#8dd3c7" stroke="#000000" points="745.6681,-122 742.6681,-126 721.6681,-126 718.6681,-122 634.3319,-122 634.3319,-86 745.6681,-86 745.6681,-122"/>
<text text-anchor="middle" x="690" y="-99.8" font-family="Times,serif" font-size="14.00" fill="#000000">CommonModule</text>
</g>
<!-- CommonModule&#45;&gt;CoreModule -->
<g id="edge10" class="edge">
<title>CommonModule&#45;&gt;CoreModule</title>
<path fill="none" stroke="#000000" d="M698.5991,-122.0091C698.5991,-138.0494 698.5991,-159 698.5991,-159 698.5991,-159 986.4146,-159 986.4146,-159"/>
<polygon fill="#000000" stroke="#000000" points="986.4146,-162.5001 996.4146,-159 986.4145,-155.5001 986.4146,-162.5001"/>
</g>
<!-- RouterModule -->
<g id="node12" class="node">
<title>RouterModule</title>
<polygon fill="#8dd3c7" stroke="#000000" points="615.6528,-122 612.6528,-126 591.6528,-126 588.6528,-122 518.3472,-122 518.3472,-86 615.6528,-86 615.6528,-122"/>
<text text-anchor="middle" x="567" y="-99.8" font-family="Times,serif" font-size="14.00" fill="#000000">RouterModule</text>
</g>
<!-- RouterModule&#45;&gt;CoreModule -->
<g id="edge11" class="edge">
<title>RouterModule&#45;&gt;CoreModule</title>
<path fill="none" stroke="#000000" d="M567,-122.0336C567,-139.0597 567,-162 567,-162 567,-162 986.3491,-162 986.3491,-162"/>
<polygon fill="#000000" stroke="#000000" points="986.3492,-165.5001 996.3491,-162 986.3491,-158.5001 986.3492,-165.5001"/>
</g>
<!-- MatChipsModule -->
<g id="node13" class="node">
<title>MatChipsModule</title>
<polygon fill="#8dd3c7" stroke="#000000" points="500.2716,-122 497.2716,-126 476.2716,-126 473.2716,-122 385.7284,-122 385.7284,-86 500.2716,-86 500.2716,-122"/>
<text text-anchor="middle" x="443" y="-99.8" font-family="Times,serif" font-size="14.00" fill="#000000">MatChipsModule</text>
</g>
<!-- MatChipsModule&#45;&gt;CoreModule -->
<g id="edge12" class="edge">
<title>MatChipsModule&#45;&gt;CoreModule</title>
<path fill="none" stroke="#000000" d="M492.7372,-122.2667C492.7372,-140.5552 492.7372,-166 492.7372,-166 492.7372,-166 986.5998,-166 986.5998,-166"/>
<polygon fill="#000000" stroke="#000000" points="986.5998,-169.5001 996.5998,-166 986.5997,-162.5001 986.5998,-169.5001"/>
</g>
<!-- AngularFirestoreModule -->
<g id="node14" class="node">
<title>AngularFirestoreModule</title>
<polygon fill="#8dd3c7" stroke="#000000" points="367.6811,-122 364.6811,-126 343.6811,-126 340.6811,-122 212.3189,-122 212.3189,-86 367.6811,-86 367.6811,-122"/>
<text text-anchor="middle" x="290" y="-99.8" font-family="Times,serif" font-size="14.00" fill="#000000">AngularFirestoreModule</text>
</g>
<!-- AngularFirestoreModule&#45;&gt;CoreModule -->
<g id="edge13" class="edge">
<title>AngularFirestoreModule&#45;&gt;CoreModule</title>
<path fill="none" stroke="#000000" d="M290,-122.1061C290,-141.3391 290,-169 290,-169 290,-169 986.7094,-169 986.7094,-169"/>
<polygon fill="#000000" stroke="#000000" points="986.7094,-172.5001 996.7094,-169 986.7094,-165.5001 986.7094,-172.5001"/>
</g>
<!-- AngularFireStorageModule -->
<g id="node15" class="node">
<title>AngularFireStorageModule</title>
<polygon fill="#8dd3c7" stroke="#000000" points="194.2338,-122 191.2338,-126 170.2338,-126 167.2338,-122 23.7662,-122 23.7662,-86 194.2338,-86 194.2338,-122"/>
<text text-anchor="middle" x="109" y="-99.8" font-family="Times,serif" font-size="14.00" fill="#000000">AngularFireStorageModule</text>
</g>
<!-- AngularFireStorageModule&#45;&gt;CoreModule -->
<g id="edge14" class="edge">
<title>AngularFireStorageModule&#45;&gt;CoreModule</title>
<path fill="none" stroke="#000000" d="M109,-122.1289C109,-142.5724 109,-173 109,-173 109,-173 986.6544,-173 986.6544,-173"/>
<polygon fill="#000000" stroke="#000000" points="986.6544,-176.5001 996.6544,-173 986.6543,-169.5001 986.6544,-176.5001"/>
</g>
</g>
</svg>
