<?xml version="1.0" encoding="UTF-8" standalone="no"?>
<!DOCTYPE svg PUBLIC "-//W3C//DTD SVG 1.1//EN"
 "http://www.w3.org/Graphics/SVG/1.1/DTD/svg11.dtd">
<!-- Generated by graphviz version 2.40.1 (20161225.0304)
 -->
<!-- Title: dependencies Pages: 1 -->
<svg width="504pt" height="284pt"
 viewBox="0.00 0.00 504.00 284.00" xmlns="http://www.w3.org/2000/svg" xmlns:xlink="http://www.w3.org/1999/xlink">
<g id="graph0" class="graph" transform="scale(1 1) rotate(0) translate(4 280)">
<title>dependencies</title>
<polygon fill="#ffffff" stroke="transparent" points="-4,4 -4,-280 500,-280 500,4 -4,4"/>
<text text-anchor="start" x="227.0091" y="-42.4" font-family="sans-serif" font-weight="bold" font-size="14.00" fill="#000000">Legend</text>
<polygon fill="#ffffb3" stroke="transparent" points="14,-10 14,-30 34,-30 34,-10 14,-10"/>
<text text-anchor="start" x="37.629" y="-15.4" font-family="sans-serif" font-size="14.00" fill="#000000"> &#160;Declarations</text>
<polygon fill="#8dd3c7" stroke="transparent" points="127,-10 127,-30 147,-30 147,-10 127,-10"/>
<text text-anchor="start" x="150.7251" y="-15.4" font-family="sans-serif" font-size="14.00" fill="#000000"> &#160;Module</text>
<polygon fill="#80b1d3" stroke="transparent" points="213,-10 213,-30 233,-30 233,-10 213,-10"/>
<text text-anchor="start" x="236.7812" y="-15.4" font-family="sans-serif" font-size="14.00" fill="#000000"> &#160;Bootstrap</text>
<polygon fill="#fdb462" stroke="transparent" points="310,-10 310,-30 330,-30 330,-10 310,-10"/>
<text text-anchor="start" x="333.6732" y="-15.4" font-family="sans-serif" font-size="14.00" fill="#000000"> &#160;Providers</text>
<polygon fill="#fb8072" stroke="transparent" points="406,-10 406,-30 426,-30 426,-10 406,-10"/>
<text text-anchor="start" x="429.7258" y="-15.4" font-family="sans-serif" font-size="14.00" fill="#000000"> &#160;Exports</text>
<g id="clust1" class="cluster">
<title>cluster_CoreModule</title>
<polygon fill="none" stroke="#000000" stroke-dasharray="1,5" points="20,-70 20,-268 476,-268 476,-70 20,-70"/>
</g>
<g id="clust2" class="cluster">
<title>cluster_CoreModule_declarations</title>
<polygon fill="none" stroke="#000000" points="34,-78 34,-130 462,-130 462,-78 34,-78"/>
</g>
<g id="clust7" class="cluster">
<title>cluster_CoreModule_exports</title>
<polygon fill="none" stroke="#000000" points="28,-208 28,-260 468,-260 468,-208 28,-208"/>
</g>
<!-- EmailSignupComponent -->
<g id="node1" class="node">
<title>EmailSignupComponent</title>
<polygon fill="#ffffb3" stroke="#000000" points="454.4452,-122 299.5548,-122 299.5548,-86 454.4452,-86 454.4452,-122"/>
<text text-anchor="middle" x="377" y="-99.8" font-family="Times,serif" font-size="14.00" fill="#000000">EmailSignupComponent</text>
</g>
<!-- CoreModule -->
<g id="node4" class="node">
<title>CoreModule</title>
<polygon fill="#8dd3c7" stroke="#000000" points="266.2619,-187 263.2619,-191 242.2619,-191 239.2619,-187 179.7381,-187 179.7381,-151 266.2619,-151 266.2619,-187"/>
<text text-anchor="middle" x="223" y="-164.8" font-family="Times,serif" font-size="14.00" fill="#000000">CoreModule</text>
</g>
<!-- EmailSignupComponent&#45;&gt;CoreModule -->
<g id="edge1" class="edge">
<title>EmailSignupComponent&#45;&gt;CoreModule</title>
<path fill="none" stroke="#000000" d="M403.4908,-122.0225C403.4908,-139.3734 403.4908,-163 403.4908,-163 403.4908,-163 276.6918,-163 276.6918,-163"/>
<polygon fill="#000000" stroke="#000000" points="276.6918,-159.5001 266.6918,-163 276.6917,-166.5001 276.6918,-159.5001"/>
</g>
<!-- FooterComponent -->
<g id="node2" class="node">
<title>FooterComponent</title>
<polygon fill="#ffffb3" stroke="#000000" points="281.8809,-122 164.1191,-122 164.1191,-86 281.8809,-86 281.8809,-122"/>
<text text-anchor="middle" x="223" y="-99.8" font-family="Times,serif" font-size="14.00" fill="#000000">FooterComponent</text>
</g>
<!-- FooterComponent&#45;&gt;CoreModule -->
<g id="edge2" class="edge">
<title>FooterComponent&#45;&gt;CoreModule</title>
<path fill="none" stroke="#000000" d="M223,-122.1061C223,-122.1061 223,-140.991 223,-140.991"/>
<polygon fill="#000000" stroke="#000000" points="219.5001,-140.9909 223,-150.991 226.5001,-140.991 219.5001,-140.9909"/>
</g>
<!-- NavComponent -->
<g id="node3" class="node">
<title>NavComponent</title>
<polygon fill="#ffffb3" stroke="#000000" points="146.1542,-122 41.8458,-122 41.8458,-86 146.1542,-86 146.1542,-122"/>
<text text-anchor="middle" x="94" y="-99.8" font-family="Times,serif" font-size="14.00" fill="#000000">NavComponent</text>
</g>
<!-- NavComponent&#45;&gt;CoreModule -->
<g id="edge3" class="edge">
<title>NavComponent&#45;&gt;CoreModule</title>
<path fill="none" stroke="#000000" d="M109.9423,-122.0225C109.9423,-139.3734 109.9423,-163 109.9423,-163 109.9423,-163 169.6123,-163 169.6123,-163"/>
<polygon fill="#000000" stroke="#000000" points="169.6123,-166.5001 179.6123,-163 169.6122,-159.5001 169.6123,-166.5001"/>
</g>
<!-- EmailSignupComponent  -->
<g id="node5" class="node">
<title>EmailSignupComponent </title>
<polygon fill="#fb8072" stroke="#000000" points="459.9446,-252 302.0554,-252 302.0554,-216 459.9446,-216 459.9446,-252"/>
<text text-anchor="middle" x="381" y="-229.8" font-family="Times,serif" font-size="14.00" fill="#000000">EmailSignupComponent </text>
</g>
<!-- CoreModule&#45;&gt;EmailSignupComponent  -->
<g id="edge4" class="edge">
<title>CoreModule&#45;&gt;EmailSignupComponent </title>
<path fill="none" stroke="#000000" stroke-dasharray="5,2" d="M266.5689,-175C304.2653,-175 352.7592,-175 352.7592,-175 352.7592,-175 352.7592,-205.9775 352.7592,-205.9775"/>
<polygon fill="#000000" stroke="#000000" points="349.2593,-205.9774 352.7592,-215.9775 356.2593,-205.9775 349.2593,-205.9774"/>
</g>
<!-- FooterComponent  -->
<g id="node6" class="node">
<title>FooterComponent </title>
<polygon fill="#fb8072" stroke="#000000" points="283.8814,-252 162.1186,-252 162.1186,-216 283.8814,-216 283.8814,-252"/>
<text text-anchor="middle" x="223" y="-229.8" font-family="Times,serif" font-size="14.00" fill="#000000">FooterComponent </text>
</g>
<!-- CoreModule&#45;&gt;FooterComponent  -->
<g id="edge5" class="edge">
<title>CoreModule&#45;&gt;FooterComponent </title>
<path fill="none" stroke="#000000" stroke-dasharray="5,2" d="M223,-187.1061C223,-187.1061 223,-205.991 223,-205.991"/>
<polygon fill="#000000" stroke="#000000" points="219.5001,-205.9909 223,-215.991 226.5001,-205.991 219.5001,-205.9909"/>
</g>
<!-- NavComponent  -->
<g id="node7" class="node">
<title>NavComponent </title>
<polygon fill="#fb8072" stroke="#000000" points="144.1537,-252 35.8463,-252 35.8463,-216 144.1537,-216 144.1537,-252"/>
<text text-anchor="middle" x="90" y="-229.8" font-family="Times,serif" font-size="14.00" fill="#000000">NavComponent </text>
</g>
<!-- CoreModule&#45;&gt;NavComponent  -->
<g id="edge6" class="edge">
<title>CoreModule&#45;&gt;NavComponent </title>
<path fill="none" stroke="#000000" stroke-dasharray="5,2" d="M179.6336,-175C136.2155,-175 75.8077,-175 75.8077,-175 75.8077,-175 75.8077,-205.9775 75.8077,-205.9775"/>
<polygon fill="#000000" stroke="#000000" points="72.3078,-205.9774 75.8077,-215.9775 79.3078,-205.9775 72.3078,-205.9774"/>
</g>
</g>
</svg>
