<?xml version="1.0" encoding="UTF-8" standalone="no"?>
<!DOCTYPE svg PUBLIC "-//W3C//DTD SVG 1.1//EN"
 "http://www.w3.org/Graphics/SVG/1.1/DTD/svg11.dtd">
<!-- Generated by graphviz version 2.40.1 (20161225.0304)
 -->
<!-- Title: dependencies Pages: 1 -->
<svg width="4817pt" height="360pt"
 viewBox="0.00 0.00 4817.00 360.00" xmlns="http://www.w3.org/2000/svg" xmlns:xlink="http://www.w3.org/1999/xlink">
<g id="graph0" class="graph" transform="scale(1 1) rotate(0) translate(4 356)">
<title>dependencies</title>
<polygon fill="#ffffff" stroke="transparent" points="-4,4 -4,-356 4813,-356 4813,4 -4,4"/>
<text text-anchor="start" x="2383.5091" y="-42.4" font-family="sans-serif" font-weight="bold" font-size="14.00" fill="#000000">Legend</text>
<polygon fill="#ffffb3" stroke="transparent" points="2170.5,-10 2170.5,-30 2190.5,-30 2190.5,-10 2170.5,-10"/>
<text text-anchor="start" x="2194.129" y="-15.4" font-family="sans-serif" font-size="14.00" fill="#000000"> &#160;Declarations</text>
<polygon fill="#8dd3c7" stroke="transparent" points="2283.5,-10 2283.5,-30 2303.5,-30 2303.5,-10 2283.5,-10"/>
<text text-anchor="start" x="2307.2251" y="-15.4" font-family="sans-serif" font-size="14.00" fill="#000000"> &#160;Module</text>
<polygon fill="#80b1d3" stroke="transparent" points="2369.5,-10 2369.5,-30 2389.5,-30 2389.5,-10 2369.5,-10"/>
<text text-anchor="start" x="2393.2812" y="-15.4" font-family="sans-serif" font-size="14.00" fill="#000000"> &#160;Bootstrap</text>
<polygon fill="#fdb462" stroke="transparent" points="2466.5,-10 2466.5,-30 2486.5,-30 2486.5,-10 2466.5,-10"/>
<text text-anchor="start" x="2490.1732" y="-15.4" font-family="sans-serif" font-size="14.00" fill="#000000"> &#160;Providers</text>
<polygon fill="#fb8072" stroke="transparent" points="2562.5,-10 2562.5,-30 2582.5,-30 2582.5,-10 2562.5,-10"/>
<text text-anchor="start" x="2586.2258" y="-15.4" font-family="sans-serif" font-size="14.00" fill="#000000"> &#160;Exports</text>
<g id="clust1" class="cluster">
<title>cluster_AboutModule</title>
<polygon fill="none" stroke="#000000" stroke-dasharray="1,5" points="8,-70 8,-206 424,-206 424,-70 8,-70"/>
</g>
<g id="clust2" class="cluster">
<title>cluster_AboutModule_declarations</title>
<polygon fill="none" stroke="#000000" points="16,-78 16,-130 148,-130 148,-78 16,-78"/>
</g>
<g id="clust4" class="cluster">
<title>cluster_AboutModule_imports</title>
<polygon fill="none" stroke="#000000" points="156,-78 156,-130 416,-130 416,-78 156,-78"/>
</g>
<g id="clust14" class="cluster">
<title>cluster_AppModule</title>
<polygon fill="none" stroke="#000000" stroke-dasharray="1,5" points="2226,-70 2226,-344 2690,-344 2690,-70 2226,-70"/>
</g>
<g id="clust15" class="cluster">
<title>cluster_AppModule_declarations</title>
<polygon fill="none" stroke="#000000" points="2560,-154 2560,-206 2682,-206 2682,-154 2560,-154"/>
</g>
<g id="clust17" class="cluster">
<title>cluster_AppModule_imports</title>
<polygon fill="none" stroke="#000000" points="2234,-78 2234,-206 2552,-206 2552,-78 2234,-78"/>
</g>
<g id="clust19" class="cluster">
<title>cluster_AppModule_bootstrap</title>
<polygon fill="none" stroke="#000000" points="2293,-284 2293,-336 2417,-336 2417,-284 2293,-284"/>
</g>
<g id="clust27" class="cluster">
<title>cluster_BlogEditorModule</title>
<polygon fill="none" stroke="#000000" stroke-dasharray="1,5" points="4149,-70 4149,-206 4801,-206 4801,-70 4149,-70"/>
</g>
<g id="clust28" class="cluster">
<title>cluster_BlogEditorModule_declarations</title>
<polygon fill="none" stroke="#000000" points="4347,-78 4347,-130 4793,-130 4793,-78 4347,-78"/>
</g>
<g id="clust32" class="cluster">
<title>cluster_BlogEditorModule_imports</title>
<polygon fill="none" stroke="#000000" points="4157,-78 4157,-130 4339,-130 4339,-78 4157,-78"/>
</g>
<g id="clust42" class="cluster">
<title>cluster_BlogModule</title>
<polygon fill="none" stroke="#000000" stroke-dasharray="1,5" points="3082,-70 3082,-206 3493,-206 3493,-70 3082,-70"/>
</g>
<g id="clust43" class="cluster">
<title>cluster_BlogModule_declarations</title>
<polygon fill="none" stroke="#000000" points="3246,-78 3246,-130 3485,-130 3485,-78 3246,-78"/>
</g>
<g id="clust46" class="cluster">
<title>cluster_BlogModule_imports</title>
<polygon fill="none" stroke="#000000" points="3090,-78 3090,-130 3238,-130 3238,-78 3090,-78"/>
</g>
<g id="clust56" class="cluster">
<title>cluster_CoreModule</title>
<polygon fill="none" stroke="#000000" stroke-dasharray="1,5" points="432,-146 432,-214 1946,-214 1946,-146 432,-146"/>
</g>
<g id="clust57" class="cluster">
<title>cluster_CoreModule_declarations</title>
<polygon fill="none" stroke="#000000" points="1202,-154 1202,-206 1938,-206 1938,-154 1202,-154"/>
</g>
<g id="clust64" class="cluster">
<title>cluster_CoreModule_exports</title>
<polygon fill="none" stroke="#000000" points="440,-154 440,-206 1194,-206 1194,-154 440,-154"/>
</g>
<g id="clust67" class="cluster">
<title>cluster_FragmentPolyfillModule</title>
<polygon fill="none" stroke="#000000" stroke-dasharray="1,5" points="2698,-146 2698,-214 3074,-214 3074,-146 2698,-146"/>
</g>
<g id="clust68" class="cluster">
<title>cluster_FragmentPolyfillModule_declarations</title>
<polygon fill="none" stroke="#000000" points="2892,-154 2892,-206 3066,-206 3066,-154 2892,-154"/>
</g>
<g id="clust71" class="cluster">
<title>cluster_FragmentPolyfillModule_exports</title>
<polygon fill="none" stroke="#000000" points="2706,-154 2706,-206 2884,-206 2884,-154 2706,-154"/>
</g>
<g id="clust74" class="cluster">
<title>cluster_HomeModule</title>
<polygon fill="none" stroke="#000000" stroke-dasharray="1,5" points="432,-70 432,-138 2218,-138 2218,-70 432,-70"/>
</g>
<g id="clust75" class="cluster">
<title>cluster_HomeModule_declarations</title>
<polygon fill="none" stroke="#000000" points="746,-78 746,-130 2210,-130 2210,-78 746,-78"/>
</g>
<g id="clust86" class="cluster">
<title>cluster_HomeModule_imports</title>
<polygon fill="none" stroke="#000000" points="584,-78 584,-130 738,-130 738,-78 584,-78"/>
</g>
<g id="clust87" class="cluster">
<title>cluster_HomeModule_exports</title>
<polygon fill="none" stroke="#000000" points="440,-78 440,-130 576,-130 576,-78 440,-78"/>
</g>
<g id="clust96" class="cluster">
<title>cluster_PressModule</title>
<polygon fill="none" stroke="#000000" stroke-dasharray="1,5" points="3501,-70 3501,-206 3801,-206 3801,-70 3501,-70"/>
</g>
<g id="clust97" class="cluster">
<title>cluster_PressModule_declarations</title>
<polygon fill="none" stroke="#000000" points="3667,-78 3667,-130 3793,-130 3793,-78 3667,-78"/>
</g>
<g id="clust99" class="cluster">
<title>cluster_PressModule_imports</title>
<polygon fill="none" stroke="#000000" points="3509,-78 3509,-130 3659,-130 3659,-78 3509,-78"/>
</g>
<g id="clust109" class="cluster">
<title>cluster_SupportModule</title>
<polygon fill="none" stroke="#000000" stroke-dasharray="1,5" points="3809,-70 3809,-206 4141,-206 4141,-70 3809,-70"/>
</g>
<g id="clust110" class="cluster">
<title>cluster_SupportModule_declarations</title>
<polygon fill="none" stroke="#000000" points="3991,-78 3991,-130 4133,-130 4133,-78 3991,-78"/>
</g>
<g id="clust112" class="cluster">
<title>cluster_SupportModule_imports</title>
<polygon fill="none" stroke="#000000" points="3817,-78 3817,-130 3983,-130 3983,-78 3817,-78"/>
</g>
<!-- AboutComponent -->
<g id="node1" class="node">
<title>AboutComponent</title>
<polygon fill="#ffffb3" stroke="#000000" points="140.3301,-122 23.6699,-122 23.6699,-86 140.3301,-86 140.3301,-122"/>
<text text-anchor="middle" x="82" y="-99.8" font-family="Times,serif" font-size="14.00" fill="#000000">AboutComponent</text>
</g>
<!-- AboutModule -->
<g id="node2" class="node">
<title>AboutModule</title>
<polygon fill="#8dd3c7" stroke="#000000" points="281.0481,-198 278.0481,-202 257.0481,-202 254.0481,-198 186.9519,-198 186.9519,-162 281.0481,-162 281.0481,-198"/>
<text text-anchor="middle" x="234" y="-175.8" font-family="Times,serif" font-size="14.00" fill="#000000">AboutModule</text>
</g>
<!-- AboutComponent&#45;&gt;AboutModule -->
<g id="edge1" class="edge">
<title>AboutComponent&#45;&gt;AboutModule</title>
<path fill="none" stroke="#000000" d="M82,-122.0109C82,-144.4852 82,-180 82,-180 82,-180 176.7395,-180 176.7395,-180"/>
<polygon fill="#000000" stroke="#000000" points="176.7395,-183.5001 186.7395,-180 176.7394,-176.5001 176.7395,-183.5001"/>
</g>
<!-- AboutRoutingModule -->
<g id="node3" class="node">
<title>AboutRoutingModule</title>
<polygon fill="#8dd3c7" stroke="#000000" points="303.6652,-122 300.6652,-126 279.6652,-126 276.6652,-122 164.3348,-122 164.3348,-86 303.6652,-86 303.6652,-122"/>
<text text-anchor="middle" x="234" y="-99.8" font-family="Times,serif" font-size="14.00" fill="#000000">AboutRoutingModule</text>
</g>
<!-- AboutRoutingModule&#45;&gt;AboutModule -->
<g id="edge2" class="edge">
<title>AboutRoutingModule&#45;&gt;AboutModule</title>
<path fill="none" stroke="#000000" d="M234,-122.0109C234,-122.0109 234,-151.855 234,-151.855"/>
<polygon fill="#000000" stroke="#000000" points="230.5001,-151.8549 234,-161.855 237.5001,-151.855 230.5001,-151.8549"/>
</g>
<!-- CoreModule -->
<g id="node4" class="node">
<title>CoreModule</title>
<polygon fill="#8dd3c7" stroke="#000000" points="408.2619,-122 405.2619,-126 384.2619,-126 381.2619,-122 321.7381,-122 321.7381,-86 408.2619,-86 408.2619,-122"/>
<text text-anchor="middle" x="365" y="-99.8" font-family="Times,serif" font-size="14.00" fill="#000000">CoreModule</text>
</g>
<!-- CoreModule&#45;&gt;AboutModule -->
<g id="edge3" class="edge">
<title>CoreModule&#45;&gt;AboutModule</title>
<path fill="none" stroke="#000000" d="M352.2409,-122.1985C352.2409,-146.3563 352.2409,-186 352.2409,-186 352.2409,-186 291.0717,-186 291.0717,-186"/>
<polygon fill="#000000" stroke="#000000" points="291.0717,-182.5001 281.0717,-186 291.0717,-189.5001 291.0717,-182.5001"/>
</g>
<!-- AppModule -->
<g id="node6" class="node">
<title>AppModule</title>
<polygon fill="#8dd3c7" stroke="#000000" points="2396.6571,-263 2393.6571,-267 2372.6571,-267 2369.6571,-263 2313.3429,-263 2313.3429,-227 2396.6571,-227 2396.6571,-263"/>
<text text-anchor="middle" x="2355" y="-240.8" font-family="Times,serif" font-size="14.00" fill="#000000">AppModule</text>
</g>
<!-- CoreModule&#45;&gt;AppModule -->
<g id="edge6" class="edge">
<title>CoreModule&#45;&gt;AppModule</title>
<path fill="none" stroke="#000000" d="M357.3446,-122.1446C357.3446,-160.2265 357.3446,-245 357.3446,-245 357.3446,-245 2303.2761,-245 2303.2761,-245"/>
<polygon fill="#000000" stroke="#000000" points="2303.2762,-248.5001 2313.2761,-245 2303.2761,-241.5001 2303.2762,-248.5001"/>
</g>
<!-- HomeModule -->
<g id="node9" class="node">
<title>HomeModule</title>
<polygon fill="#8dd3c7" stroke="#000000" points="2335.7619,-198 2332.7619,-202 2311.7619,-202 2308.7619,-198 2242.2381,-198 2242.2381,-162 2335.7619,-162 2335.7619,-198"/>
<text text-anchor="middle" x="2289" y="-175.8" font-family="Times,serif" font-size="14.00" fill="#000000">HomeModule</text>
</g>
<!-- CoreModule&#45;&gt;HomeModule -->
<g id="edge40" class="edge">
<title>CoreModule&#45;&gt;HomeModule</title>
<path fill="none" stroke="#000000" d="M382.8627,-122.0555C382.8627,-133.439 382.8627,-146 382.8627,-146 382.8627,-146 2249.9327,-146 2249.9327,-146 2249.9327,-146 2249.9327,-151.8056 2249.9327,-151.8056"/>
<polygon fill="#000000" stroke="#000000" points="2246.4328,-151.8055 2249.9327,-161.8056 2253.4328,-151.8056 2246.4328,-151.8055"/>
</g>
<!-- BlogModule -->
<g id="node18" class="node">
<title>BlogModule</title>
<polygon fill="#8dd3c7" stroke="#000000" points="3278.2773,-198 3275.2773,-202 3254.2773,-202 3251.2773,-198 3191.7227,-198 3191.7227,-162 3278.2773,-162 3278.2773,-198"/>
<text text-anchor="middle" x="3235" y="-175.8" font-family="Times,serif" font-size="14.00" fill="#000000">BlogModule</text>
</g>
<!-- CoreModule&#45;&gt;BlogModule -->
<g id="edge17" class="edge">
<title>CoreModule&#45;&gt;BlogModule</title>
<path fill="none" stroke="#000000" d="M387.9663,-122.1223C387.9663,-124.9729 387.9663,-127 387.9663,-127 387.9663,-127 3204.3901,-127 3204.3901,-127 3204.3901,-127 3204.3901,-151.7604 3204.3901,-151.7604"/>
<polygon fill="#000000" stroke="#000000" points="3200.8902,-151.7604 3204.3901,-161.7604 3207.8902,-151.7604 3200.8902,-151.7604"/>
</g>
<!-- BubblesComponent  -->
<g id="node25" class="node">
<title>BubblesComponent </title>
<polygon fill="#fb8072" stroke="#000000" points="578.2191,-198 447.7809,-198 447.7809,-162 578.2191,-162 578.2191,-198"/>
<text text-anchor="middle" x="513" y="-175.8" font-family="Times,serif" font-size="14.00" fill="#000000">BubblesComponent </text>
</g>
<!-- CoreModule&#45;&gt;BubblesComponent  -->
<g id="edge23" class="edge">
<title>CoreModule&#45;&gt;BubblesComponent </title>
<path fill="none" stroke="#000000" stroke-dasharray="5,2" d="M403.2772,-122.0267C403.2772,-142.7672 403.2772,-174 403.2772,-174 403.2772,-174 437.5894,-174 437.5894,-174"/>
<polygon fill="#000000" stroke="#000000" points="437.5894,-177.5001 447.5894,-174 437.5893,-170.5001 437.5894,-177.5001"/>
</g>
<!-- EmailSignupComponent  -->
<g id="node26" class="node">
<title>EmailSignupComponent </title>
<polygon fill="#fb8072" stroke="#000000" points="1185.9446,-198 1028.0554,-198 1028.0554,-162 1185.9446,-162 1185.9446,-198"/>
<text text-anchor="middle" x="1107" y="-175.8" font-family="Times,serif" font-size="14.00" fill="#000000">EmailSignupComponent </text>
</g>
<!-- CoreModule&#45;&gt;EmailSignupComponent  -->
<g id="edge24" class="edge">
<title>CoreModule&#45;&gt;EmailSignupComponent </title>
<path fill="none" stroke="#000000" stroke-dasharray="5,2" d="M377.7591,-122.1871C377.7591,-137.1824 377.7591,-156 377.7591,-156 377.7591,-156 1042.59,-156 1042.59,-156 1042.59,-156 1042.59,-156.581 1042.59,-156.581"/>
<polygon fill="#000000" stroke="#000000" points="1039.0902,-151.8097 1042.59,-161.8097 1046.0902,-151.8098 1039.0902,-151.8097"/>
</g>
<!-- FooterComponent  -->
<g id="node27" class="node">
<title>FooterComponent </title>
<polygon fill="#fb8072" stroke="#000000" points="1009.8814,-198 888.1186,-198 888.1186,-162 1009.8814,-162 1009.8814,-198"/>
<text text-anchor="middle" x="949" y="-175.8" font-family="Times,serif" font-size="14.00" fill="#000000">FooterComponent </text>
</g>
<!-- CoreModule&#45;&gt;FooterComponent  -->
<g id="edge25" class="edge">
<title>CoreModule&#45;&gt;FooterComponent </title>
<path fill="none" stroke="#000000" stroke-dasharray="5,2" d="M372.6554,-122.2396C372.6554,-137.5706 372.6554,-157 372.6554,-157 372.6554,-157 901.351,-157 901.351,-157 901.351,-157 901.351,-157.4878 901.351,-157.4878"/>
<polygon fill="#000000" stroke="#000000" points="897.8512,-151.8776 901.351,-161.8777 904.8512,-151.8778 897.8512,-151.8776"/>
</g>
<!-- NavComponent  -->
<g id="node28" class="node">
<title>NavComponent </title>
<polygon fill="#fb8072" stroke="#000000" points="870.1537,-198 761.8463,-198 761.8463,-162 870.1537,-162 870.1537,-198"/>
<text text-anchor="middle" x="816" y="-175.8" font-family="Times,serif" font-size="14.00" fill="#000000">NavComponent </text>
</g>
<!-- CoreModule&#45;&gt;NavComponent  -->
<g id="edge26" class="edge">
<title>CoreModule&#45;&gt;NavComponent </title>
<path fill="none" stroke="#000000" stroke-dasharray="5,2" d="M367.5518,-122.0091C367.5518,-138.0494 367.5518,-159 367.5518,-159 367.5518,-159 816,-159 816,-159 816,-159 816,-159.292 816,-159.292"/>
<polygon fill="#000000" stroke="#000000" points="812.5004,-151.9198 816,-161.92 819.5004,-151.9201 812.5004,-151.9198"/>
</g>
<!-- TagViewerComponent  -->
<g id="node29" class="node">
<title>TagViewerComponent </title>
<polygon fill="#fb8072" stroke="#000000" points="743.7933,-198 596.2067,-198 596.2067,-162 743.7933,-162 743.7933,-198"/>
<text text-anchor="middle" x="670" y="-175.8" font-family="Times,serif" font-size="14.00" fill="#000000">TagViewerComponent </text>
</g>
<!-- CoreModule&#45;&gt;TagViewerComponent  -->
<g id="edge27" class="edge">
<title>CoreModule&#45;&gt;TagViewerComponent </title>
<path fill="none" stroke="#000000" stroke-dasharray="5,2" d="M362.4482,-122.0352C362.4482,-138.7344 362.4482,-161 362.4482,-161 362.4482,-161 640.8822,-161 640.8822,-161 640.8822,-161 640.8822,-161.0816 640.8822,-161.0816"/>
<polygon fill="#000000" stroke="#000000" points="637.3835,-151.8159 640.8822,-161.8164 644.3835,-151.8169 637.3835,-151.8159"/>
</g>
<!-- PressModule -->
<g id="node45" class="node">
<title>PressModule</title>
<polygon fill="#8dd3c7" stroke="#000000" points="3628.5969,-198 3625.5969,-202 3604.5969,-202 3601.5969,-198 3539.4031,-198 3539.4031,-162 3628.5969,-162 3628.5969,-198"/>
<text text-anchor="middle" x="3584" y="-175.8" font-family="Times,serif" font-size="14.00" fill="#000000">PressModule</text>
</g>
<!-- CoreModule&#45;&gt;PressModule -->
<g id="edge45" class="edge">
<title>CoreModule&#45;&gt;PressModule</title>
<path fill="none" stroke="#000000" d="M393.0699,-122.1679C393.0699,-124.4478 393.0699,-126 393.0699,-126 393.0699,-126 3569.1505,-126 3569.1505,-126 3569.1505,-126 3569.1505,-151.7181 3569.1505,-151.7181"/>
<polygon fill="#000000" stroke="#000000" points="3565.6506,-151.718 3569.1505,-161.7181 3572.6506,-151.7181 3565.6506,-151.718"/>
</g>
<!-- SupportModule -->
<g id="node48" class="node">
<title>SupportModule</title>
<polygon fill="#8dd3c7" stroke="#000000" points="3951.8837,-198 3948.8837,-202 3927.8837,-202 3924.8837,-198 3848.1163,-198 3848.1163,-162 3951.8837,-162 3951.8837,-198"/>
<text text-anchor="middle" x="3900" y="-175.8" font-family="Times,serif" font-size="14.00" fill="#000000">SupportModule</text>
</g>
<!-- CoreModule&#45;&gt;SupportModule -->
<g id="edge48" class="edge">
<title>CoreModule&#45;&gt;SupportModule</title>
<path fill="none" stroke="#000000" d="M398.1736,-122.1543C398.1736,-123.2969 398.1736,-124 398.1736,-124 398.1736,-124 3882.6861,-124 3882.6861,-124 3882.6861,-124 3882.6861,-151.973 3882.6861,-151.973"/>
<polygon fill="#000000" stroke="#000000" points="3879.1862,-151.973 3882.6861,-161.973 3886.1862,-151.973 3879.1862,-151.973"/>
</g>
<!-- AppComponent -->
<g id="node5" class="node">
<title>AppComponent</title>
<polygon fill="#ffffb3" stroke="#000000" points="2673.9399,-198 2568.0601,-198 2568.0601,-162 2673.9399,-162 2673.9399,-198"/>
<text text-anchor="middle" x="2621" y="-175.8" font-family="Times,serif" font-size="14.00" fill="#000000">AppComponent</text>
</g>
<!-- AppComponent&#45;&gt;AppModule -->
<g id="edge4" class="edge">
<title>AppComponent&#45;&gt;AppModule</title>
<path fill="none" stroke="#000000" d="M2568.233,-186C2501.369,-186 2394.72,-186 2394.72,-186 2394.72,-186 2394.72,-216.9775 2394.72,-216.9775"/>
<polygon fill="#000000" stroke="#000000" points="2391.2201,-216.9774 2394.72,-226.9775 2398.2201,-216.9775 2391.2201,-216.9774"/>
</g>
<!-- AppComponent  -->
<g id="node10" class="node">
<title>AppComponent </title>
<polygon fill="#80b1d3" stroke="#000000" points="2409.439,-328 2300.561,-328 2300.561,-292 2409.439,-292 2409.439,-328"/>
<text text-anchor="middle" x="2355" y="-305.8" font-family="Times,serif" font-size="14.00" fill="#000000">AppComponent </text>
</g>
<!-- AppModule&#45;&gt;AppComponent  -->
<g id="edge9" class="edge">
<title>AppModule&#45;&gt;AppComponent </title>
<path fill="none" stroke="#000000" stroke-dasharray="1,5" d="M2355,-263.1061C2355,-263.1061 2355,-281.991 2355,-281.991"/>
<polygon fill="#000000" stroke="#000000" points="2351.5001,-281.9909 2355,-291.991 2358.5001,-281.991 2351.5001,-281.9909"/>
</g>
<!-- AppRoutingModule -->
<g id="node7" class="node">
<title>AppRoutingModule</title>
<polygon fill="#8dd3c7" stroke="#000000" points="2370.2744,-122 2367.2744,-126 2346.2744,-126 2343.2744,-122 2241.7256,-122 2241.7256,-86 2370.2744,-86 2370.2744,-122"/>
<text text-anchor="middle" x="2306" y="-99.8" font-family="Times,serif" font-size="14.00" fill="#000000">AppRoutingModule</text>
</g>
<!-- AppRoutingModule&#45;&gt;AppModule -->
<g id="edge5" class="edge">
<title>AppRoutingModule&#45;&gt;AppModule</title>
<path fill="none" stroke="#000000" d="M2353.134,-122.1446C2353.134,-122.1446 2353.134,-216.925 2353.134,-216.925"/>
<polygon fill="#000000" stroke="#000000" points="2349.634,-216.925 2353.134,-226.925 2356.634,-216.925 2349.634,-216.925"/>
</g>
<!-- FragmentPolyfillModule -->
<g id="node8" class="node">
<title>FragmentPolyfillModule</title>
<polygon fill="#8dd3c7" stroke="#000000" points="2543.7091,-122 2540.7091,-126 2519.7091,-126 2516.7091,-122 2388.2909,-122 2388.2909,-86 2543.7091,-86 2543.7091,-122"/>
<text text-anchor="middle" x="2466" y="-99.8" font-family="Times,serif" font-size="14.00" fill="#000000">FragmentPolyfillModule</text>
</g>
<!-- FragmentPolyfillModule&#45;&gt;AppModule -->
<g id="edge7" class="edge">
<title>FragmentPolyfillModule&#45;&gt;AppModule</title>
<path fill="none" stroke="#000000" d="M2392.6119,-122.1446C2392.6119,-122.1446 2392.6119,-216.925 2392.6119,-216.925"/>
<polygon fill="#000000" stroke="#000000" points="2389.1119,-216.925 2392.6119,-226.925 2396.1119,-216.925 2389.1119,-216.925"/>
</g>
<!-- FragmentPolyfillModule&#45;&gt;HomeModule -->
<g id="edge41" class="edge">
<title>FragmentPolyfillModule&#45;&gt;HomeModule</title>
<path fill="none" stroke="#000000" d="M2390.5037,-122.0267C2390.5037,-142.7672 2390.5037,-174 2390.5037,-174 2390.5037,-174 2345.8893,-174 2345.8893,-174"/>
<polygon fill="#000000" stroke="#000000" points="2345.8893,-170.5001 2335.8893,-174 2345.8893,-177.5001 2345.8893,-170.5001"/>
</g>
<!-- FragmentTargetDirective  -->
<g id="node31" class="node">
<title>FragmentTargetDirective </title>
<polygon fill="#fb8072" stroke="#000000" points="2875.7696,-198 2714.2304,-198 2714.2304,-162 2875.7696,-162 2875.7696,-198"/>
<text text-anchor="middle" x="2795" y="-175.8" font-family="Times,serif" font-size="14.00" fill="#000000">FragmentTargetDirective </text>
</g>
<!-- FragmentPolyfillModule&#45;&gt;FragmentTargetDirective  -->
<g id="edge29" class="edge">
<title>FragmentPolyfillModule&#45;&gt;FragmentTargetDirective </title>
<path fill="none" stroke="#000000" stroke-dasharray="5,2" d="M2543.9684,-110C2641.2582,-110 2795,-110 2795,-110 2795,-110 2795,-151.9733 2795,-151.9733"/>
<polygon fill="#000000" stroke="#000000" points="2791.5001,-151.9732 2795,-161.9733 2798.5001,-151.9733 2791.5001,-151.9732"/>
</g>
<!-- HomeModule&#45;&gt;AppModule -->
<g id="edge8" class="edge">
<title>HomeModule&#45;&gt;AppModule</title>
<path fill="none" stroke="#000000" d="M2324.5263,-198.1061C2324.5263,-198.1061 2324.5263,-216.991 2324.5263,-216.991"/>
<polygon fill="#000000" stroke="#000000" points="2321.0264,-216.9909 2324.5263,-226.991 2328.0264,-216.991 2321.0264,-216.9909"/>
</g>
<!-- HomeComponent  -->
<g id="node43" class="node">
<title>HomeComponent </title>
<polygon fill="#fb8072" stroke="#000000" points="567.5442,-122 448.4558,-122 448.4558,-86 567.5442,-86 567.5442,-122"/>
<text text-anchor="middle" x="508" y="-99.8" font-family="Times,serif" font-size="14.00" fill="#000000">HomeComponent </text>
</g>
<!-- HomeModule&#45;&gt;HomeComponent  -->
<g id="edge43" class="edge">
<title>HomeModule&#45;&gt;HomeComponent </title>
<path fill="none" stroke="#000000" stroke-dasharray="5,2" d="M2257.7461,-161.5782C2257.7461,-152.7209 2257.7461,-144 2257.7461,-144 2257.7461,-144 508,-144 508,-144 508,-144 508,-132.1274 508,-132.1274"/>
<polygon fill="#000000" stroke="#000000" points="511.5001,-132.1274 508,-122.1274 504.5001,-132.1275 511.5001,-132.1274"/>
</g>
<!-- EditorPostComponent -->
<g id="node11" class="node">
<title>EditorPostComponent</title>
<polygon fill="#ffffb3" stroke="#000000" points="4495.4453,-122 4354.5547,-122 4354.5547,-86 4495.4453,-86 4495.4453,-122"/>
<text text-anchor="middle" x="4425" y="-99.8" font-family="Times,serif" font-size="14.00" fill="#000000">EditorPostComponent</text>
</g>
<!-- BlogEditorModule -->
<g id="node14" class="node">
<title>BlogEditorModule</title>
<polygon fill="#8dd3c7" stroke="#000000" points="4556.7716,-198 4553.7716,-202 4532.7716,-202 4529.7716,-198 4435.2284,-198 4435.2284,-162 4556.7716,-162 4556.7716,-198"/>
<text text-anchor="middle" x="4496" y="-175.8" font-family="Times,serif" font-size="14.00" fill="#000000">BlogEditorModule</text>
</g>
<!-- EditorPostComponent&#45;&gt;BlogEditorModule -->
<g id="edge10" class="edge">
<title>EditorPostComponent&#45;&gt;BlogEditorModule</title>
<path fill="none" stroke="#000000" d="M4465.1683,-122.0109C4465.1683,-122.0109 4465.1683,-151.855 4465.1683,-151.855"/>
<polygon fill="#000000" stroke="#000000" points="4461.6684,-151.8549 4465.1683,-161.855 4468.6684,-151.855 4461.6684,-151.8549"/>
</g>
<!-- EditorPostsComponent -->
<g id="node12" class="node">
<title>EditorPostsComponent</title>
<polygon fill="#ffffb3" stroke="#000000" points="4784.8892,-122 4639.1108,-122 4639.1108,-86 4784.8892,-86 4784.8892,-122"/>
<text text-anchor="middle" x="4712" y="-99.8" font-family="Times,serif" font-size="14.00" fill="#000000">EditorPostsComponent</text>
</g>
<!-- EditorPostsComponent&#45;&gt;BlogEditorModule -->
<g id="edge11" class="edge">
<title>EditorPostsComponent&#45;&gt;BlogEditorModule</title>
<path fill="none" stroke="#000000" d="M4712,-122.0109C4712,-144.4852 4712,-180 4712,-180 4712,-180 4567.0308,-180 4567.0308,-180"/>
<polygon fill="#000000" stroke="#000000" points="4567.0309,-176.5001 4557.0308,-180 4567.0308,-183.5001 4567.0309,-176.5001"/>
</g>
<!-- TagsComponent -->
<g id="node13" class="node">
<title>TagsComponent</title>
<polygon fill="#ffffb3" stroke="#000000" points="4621.0452,-122 4512.9548,-122 4512.9548,-86 4621.0452,-86 4621.0452,-122"/>
<text text-anchor="middle" x="4567" y="-99.8" font-family="Times,serif" font-size="14.00" fill="#000000">TagsComponent</text>
</g>
<!-- TagsComponent&#45;&gt;BlogEditorModule -->
<g id="edge12" class="edge">
<title>TagsComponent&#45;&gt;BlogEditorModule</title>
<path fill="none" stroke="#000000" d="M4534.8068,-122.0109C4534.8068,-122.0109 4534.8068,-151.855 4534.8068,-151.855"/>
<polygon fill="#000000" stroke="#000000" points="4531.3069,-151.8549 4534.8068,-161.855 4538.3069,-151.855 4531.3069,-151.8549"/>
</g>
<!-- BlogEditorRoutingModule -->
<g id="node15" class="node">
<title>BlogEditorRoutingModule</title>
<polygon fill="#8dd3c7" stroke="#000000" points="4331.3892,-122 4328.3892,-126 4307.3892,-126 4304.3892,-122 4164.6108,-122 4164.6108,-86 4331.3892,-86 4331.3892,-122"/>
<text text-anchor="middle" x="4248" y="-99.8" font-family="Times,serif" font-size="14.00" fill="#000000">BlogEditorRoutingModule</text>
</g>
<!-- BlogEditorRoutingModule&#45;&gt;BlogEditorModule -->
<g id="edge13" class="edge">
<title>BlogEditorRoutingModule&#45;&gt;BlogEditorModule</title>
<path fill="none" stroke="#000000" d="M4248,-122.0267C4248,-142.7672 4248,-174 4248,-174 4248,-174 4425.0147,-174 4425.0147,-174"/>
<polygon fill="#000000" stroke="#000000" points="4425.0148,-177.5001 4435.0147,-174 4425.0147,-170.5001 4425.0148,-177.5001"/>
</g>
<!-- AllComponent -->
<g id="node16" class="node">
<title>AllComponent</title>
<polygon fill="#ffffb3" stroke="#000000" points="3476.7204,-122 3377.2796,-122 3377.2796,-86 3476.7204,-86 3476.7204,-122"/>
<text text-anchor="middle" x="3427" y="-99.8" font-family="Times,serif" font-size="14.00" fill="#000000">AllComponent</text>
</g>
<!-- AllComponent&#45;&gt;BlogModule -->
<g id="edge14" class="edge">
<title>AllComponent&#45;&gt;BlogModule</title>
<path fill="none" stroke="#000000" d="M3427,-122.0109C3427,-144.4852 3427,-180 3427,-180 3427,-180 3288.5678,-180 3288.5678,-180"/>
<polygon fill="#000000" stroke="#000000" points="3288.5678,-176.5001 3278.5678,-180 3288.5677,-183.5001 3288.5678,-176.5001"/>
</g>
<!-- PostComponent -->
<g id="node17" class="node">
<title>PostComponent</title>
<polygon fill="#ffffb3" stroke="#000000" points="3359.9512,-122 3254.0488,-122 3254.0488,-86 3359.9512,-86 3359.9512,-122"/>
<text text-anchor="middle" x="3307" y="-99.8" font-family="Times,serif" font-size="14.00" fill="#000000">PostComponent</text>
</g>
<!-- PostComponent&#45;&gt;BlogModule -->
<g id="edge15" class="edge">
<title>PostComponent&#45;&gt;BlogModule</title>
<path fill="none" stroke="#000000" d="M3266.3317,-122.0109C3266.3317,-122.0109 3266.3317,-151.855 3266.3317,-151.855"/>
<polygon fill="#000000" stroke="#000000" points="3262.8318,-151.8549 3266.3317,-161.855 3269.8318,-151.855 3262.8318,-151.8549"/>
</g>
<!-- BlogRoutingModule -->
<g id="node19" class="node">
<title>BlogRoutingModule</title>
<polygon fill="#8dd3c7" stroke="#000000" points="3229.8948,-122 3226.8948,-126 3205.8948,-126 3202.8948,-122 3098.1052,-122 3098.1052,-86 3229.8948,-86 3229.8948,-122"/>
<text text-anchor="middle" x="3164" y="-99.8" font-family="Times,serif" font-size="14.00" fill="#000000">BlogRoutingModule</text>
</g>
<!-- BlogRoutingModule&#45;&gt;BlogModule -->
<g id="edge16" class="edge">
<title>BlogRoutingModule&#45;&gt;BlogModule</title>
<path fill="none" stroke="#000000" d="M3217.1688,-122.0109C3217.1688,-122.0109 3217.1688,-151.855 3217.1688,-151.855"/>
<polygon fill="#000000" stroke="#000000" points="3213.6689,-151.8549 3217.1688,-161.855 3220.6689,-151.855 3213.6689,-151.8549"/>
</g>
<!-- BubblesComponent -->
<g id="node20" class="node">
<title>BubblesComponent</title>
<polygon fill="#ffffb3" stroke="#000000" points="1337.719,-198 1210.281,-198 1210.281,-162 1337.719,-162 1337.719,-198"/>
<text text-anchor="middle" x="1274" y="-175.8" font-family="Times,serif" font-size="14.00" fill="#000000">BubblesComponent</text>
</g>
<!-- BubblesComponent&#45;&gt;CoreModule -->
<g id="edge18" class="edge">
<title>BubblesComponent&#45;&gt;CoreModule</title>
<path fill="none" stroke="#000000" d="M1256.6169,-161.9421C1256.6169,-157.5055 1256.6169,-154 1256.6169,-154 1256.6169,-154 326.7228,-154 326.7228,-154 326.7228,-154 326.7228,-132.0511 326.7228,-132.0511"/>
<polygon fill="#000000" stroke="#000000" points="330.2229,-132.0511 326.7228,-122.0511 323.2229,-132.0512 330.2229,-132.0511"/>
</g>
<!-- EmailSignupComponent -->
<g id="node21" class="node">
<title>EmailSignupComponent</title>
<polygon fill="#ffffb3" stroke="#000000" points="1930.4452,-198 1775.5548,-198 1775.5548,-162 1930.4452,-162 1930.4452,-198"/>
<text text-anchor="middle" x="1853" y="-175.8" font-family="Times,serif" font-size="14.00" fill="#000000">EmailSignupComponent</text>
</g>
<!-- EmailSignupComponent&#45;&gt;CoreModule -->
<g id="edge19" class="edge">
<title>EmailSignupComponent&#45;&gt;CoreModule</title>
<path fill="none" stroke="#000000" d="M1809.7758,-161.9551C1809.7758,-154.251 1809.7758,-147 1809.7758,-147 1809.7758,-147 347.1373,-147 347.1373,-147 347.1373,-147 347.1373,-132.4854 347.1373,-132.4854"/>
<polygon fill="#000000" stroke="#000000" points="350.6374,-132.4854 347.1373,-122.4854 343.6374,-132.4855 350.6374,-132.4854"/>
</g>
<!-- FooterComponent -->
<g id="node22" class="node">
<title>FooterComponent</title>
<polygon fill="#ffffb3" stroke="#000000" points="1757.8809,-198 1640.1191,-198 1640.1191,-162 1757.8809,-162 1757.8809,-198"/>
<text text-anchor="middle" x="1699" y="-175.8" font-family="Times,serif" font-size="14.00" fill="#000000">FooterComponent</text>
</g>
<!-- FooterComponent&#45;&gt;CoreModule -->
<g id="edge20" class="edge">
<title>FooterComponent&#45;&gt;CoreModule</title>
<path fill="none" stroke="#000000" d="M1674.7609,-161.9672C1674.7609,-155.1474 1674.7609,-149 1674.7609,-149 1674.7609,-149 342.0337,-149 342.0337,-149 342.0337,-149 342.0337,-132.0439 342.0337,-132.0439"/>
<polygon fill="#000000" stroke="#000000" points="345.5338,-132.0439 342.0337,-122.0439 338.5338,-132.044 345.5338,-132.0439"/>
</g>
<!-- NavComponent -->
<g id="node23" class="node">
<title>NavComponent</title>
<polygon fill="#ffffb3" stroke="#000000" points="1622.1542,-198 1517.8458,-198 1517.8458,-162 1622.1542,-162 1622.1542,-198"/>
<text text-anchor="middle" x="1570" y="-175.8" font-family="Times,serif" font-size="14.00" fill="#000000">NavComponent</text>
</g>
<!-- NavComponent&#45;&gt;CoreModule -->
<g id="edge21" class="edge">
<title>NavComponent&#45;&gt;CoreModule</title>
<path fill="none" stroke="#000000" d="M1548.5206,-161.7985C1548.5206,-155.972 1548.5206,-151 1548.5206,-151 1548.5206,-151 336.9301,-151 336.9301,-151 336.9301,-151 336.9301,-132.037 336.9301,-132.037"/>
<polygon fill="#000000" stroke="#000000" points="340.4302,-132.037 336.9301,-122.037 333.4302,-132.037 340.4302,-132.037"/>
</g>
<!-- TagViewerComponent -->
<g id="node24" class="node">
<title>TagViewerComponent</title>
<polygon fill="#ffffb3" stroke="#000000" points="1500.2935,-198 1355.7065,-198 1355.7065,-162 1500.2935,-162 1500.2935,-198"/>
<text text-anchor="middle" x="1428" y="-175.8" font-family="Times,serif" font-size="14.00" fill="#000000">TagViewerComponent</text>
</g>
<!-- TagViewerComponent&#45;&gt;CoreModule -->
<g id="edge22" class="edge">
<title>TagViewerComponent&#45;&gt;CoreModule</title>
<path fill="none" stroke="#000000" d="M1392.7812,-161.793C1392.7812,-156.4451 1392.7812,-152 1392.7812,-152 1392.7812,-152 331.8264,-152 331.8264,-152 331.8264,-152 331.8264,-132.1467 331.8264,-132.1467"/>
<polygon fill="#000000" stroke="#000000" points="335.3265,-132.1467 331.8264,-122.1467 328.3265,-132.1468 335.3265,-132.1467"/>
</g>
<!-- FragmentTargetDirective -->
<g id="node30" class="node">
<title>FragmentTargetDirective</title>
<polygon fill="#ffffb3" stroke="#000000" points="3058.2696,-198 2899.7304,-198 2899.7304,-162 3058.2696,-162 3058.2696,-198"/>
<text text-anchor="middle" x="2979" y="-175.8" font-family="Times,serif" font-size="14.00" fill="#000000">FragmentTargetDirective</text>
</g>
<!-- FragmentTargetDirective&#45;&gt;FragmentPolyfillModule -->
<g id="edge28" class="edge">
<title>FragmentTargetDirective&#45;&gt;FragmentPolyfillModule</title>
<path fill="none" stroke="#000000" d="M2979,-161.8015C2979,-137.6437 2979,-98 2979,-98 2979,-98 2553.635,-98 2553.635,-98"/>
<polygon fill="#000000" stroke="#000000" points="2553.635,-94.5001 2543.635,-98 2553.635,-101.5001 2553.635,-94.5001"/>
</g>
<!-- BannerComponent -->
<g id="node32" class="node">
<title>BannerComponent</title>
<polygon fill="#ffffb3" stroke="#000000" points="1337.759,-122 1216.241,-122 1216.241,-86 1337.759,-86 1337.759,-122"/>
<text text-anchor="middle" x="1277" y="-99.8" font-family="Times,serif" font-size="14.00" fill="#000000">BannerComponent</text>
</g>
<!-- BannerComponent&#45;&gt;HomeModule -->
<g id="edge30" class="edge">
<title>BannerComponent&#45;&gt;HomeModule</title>
<path fill="none" stroke="#000000" d="M1297.1131,-122.2434C1297.1131,-129.4297 1297.1131,-136 1297.1131,-136 1297.1131,-136 2296.8135,-136 2296.8135,-136 2296.8135,-136 2296.8135,-151.8495 2296.8135,-151.8495"/>
<polygon fill="#000000" stroke="#000000" points="2293.3136,-151.8494 2296.8135,-161.8495 2300.3136,-151.8495 2293.3136,-151.8494"/>
</g>
<!-- BlogComponent -->
<g id="node33" class="node">
<title>BlogComponent</title>
<polygon fill="#ffffb3" stroke="#000000" points="1198.0605,-122 1089.9395,-122 1089.9395,-86 1198.0605,-86 1198.0605,-122"/>
<text text-anchor="middle" x="1144" y="-99.8" font-family="Times,serif" font-size="14.00" fill="#000000">BlogComponent</text>
</g>
<!-- BlogComponent&#45;&gt;HomeModule -->
<g id="edge31" class="edge">
<title>BlogComponent&#45;&gt;HomeModule</title>
<path fill="none" stroke="#000000" d="M1192.126,-122.0449C1192.126,-129.749 1192.126,-137 1192.126,-137 1192.126,-137 2289,-137 2289,-137 2289,-137 2289,-151.5146 2289,-151.5146"/>
<polygon fill="#000000" stroke="#000000" points="2285.5001,-151.5145 2289,-161.5146 2292.5001,-151.5146 2285.5001,-151.5145"/>
</g>
<!-- ClubMembersComponent -->
<g id="node34" class="node">
<title>ClubMembersComponent</title>
<polygon fill="#ffffb3" stroke="#000000" points="1071.9298,-122 910.0702,-122 910.0702,-86 1071.9298,-86 1071.9298,-122"/>
<text text-anchor="middle" x="991" y="-99.8" font-family="Times,serif" font-size="14.00" fill="#000000">ClubMembersComponent</text>
</g>
<!-- ClubMembersComponent&#45;&gt;HomeModule -->
<g id="edge32" class="edge">
<title>ClubMembersComponent&#45;&gt;HomeModule</title>
<path fill="none" stroke="#000000" d="M1057.1523,-122.32C1057.1523,-130.7883 1057.1523,-139 1057.1523,-139 1057.1523,-139 2281.1865,-139 2281.1865,-139 2281.1865,-139 2281.1865,-151.8975 2281.1865,-151.8975"/>
<polygon fill="#000000" stroke="#000000" points="2277.6866,-151.8974 2281.1865,-161.8975 2284.6866,-151.8975 2277.6866,-151.8974"/>
</g>
<!-- DeepracerComponent -->
<g id="node35" class="node">
<title>DeepracerComponent</title>
<polygon fill="#ffffb3" stroke="#000000" points="892.3333,-122 753.6667,-122 753.6667,-86 892.3333,-86 892.3333,-122"/>
<text text-anchor="middle" x="823" y="-99.8" font-family="Times,serif" font-size="14.00" fill="#000000">DeepracerComponent</text>
</g>
<!-- DeepracerComponent&#45;&gt;HomeModule -->
<g id="edge33" class="edge">
<title>DeepracerComponent&#45;&gt;HomeModule</title>
<path fill="none" stroke="#000000" d="M879.1932,-122.0664C879.1932,-131.4587 879.1932,-141 879.1932,-141 879.1932,-141 2273.3731,-141 2273.3731,-141 2273.3731,-141 2273.3731,-151.8701 2273.3731,-151.8701"/>
<polygon fill="#000000" stroke="#000000" points="2269.8732,-151.8701 2273.3731,-161.8701 2276.8732,-151.8701 2269.8732,-151.8701"/>
</g>
<!-- FounderLetterComponent -->
<g id="node36" class="node">
<title>FounderLetterComponent</title>
<polygon fill="#ffffb3" stroke="#000000" points="2201.9143,-122 2040.0857,-122 2040.0857,-86 2201.9143,-86 2201.9143,-122"/>
<text text-anchor="middle" x="2121" y="-99.8" font-family="Times,serif" font-size="14.00" fill="#000000">FounderLetterComponent</text>
</g>
<!-- FounderLetterComponent&#45;&gt;HomeModule -->
<g id="edge34" class="edge">
<title>FounderLetterComponent&#45;&gt;HomeModule</title>
<path fill="none" stroke="#000000" d="M2121,-122.0267C2121,-142.7672 2121,-174 2121,-174 2121,-174 2232.2026,-174 2232.2026,-174"/>
<polygon fill="#000000" stroke="#000000" points="2232.2027,-177.5001 2242.2026,-174 2232.2026,-170.5001 2232.2027,-177.5001"/>
</g>
<!-- FunFactComponent -->
<g id="node37" class="node">
<title>FunFactComponent</title>
<polygon fill="#ffffb3" stroke="#000000" points="2022.7176,-122 1895.2824,-122 1895.2824,-86 2022.7176,-86 2022.7176,-122"/>
<text text-anchor="middle" x="1959" y="-99.8" font-family="Times,serif" font-size="14.00" fill="#000000">FunFactComponent</text>
</g>
<!-- FunFactComponent&#45;&gt;HomeModule -->
<g id="edge35" class="edge">
<title>FunFactComponent&#45;&gt;HomeModule</title>
<path fill="none" stroke="#000000" d="M1976.4155,-122.1985C1976.4155,-146.3563 1976.4155,-186 1976.4155,-186 1976.4155,-186 2232.2029,-186 2232.2029,-186"/>
<polygon fill="#000000" stroke="#000000" points="2232.203,-189.5001 2242.2029,-186 2232.2029,-182.5001 2232.203,-189.5001"/>
</g>
<!-- HomeComponent -->
<g id="node38" class="node">
<title>HomeComponent</title>
<polygon fill="#ffffb3" stroke="#000000" points="1877.5451,-122 1762.4549,-122 1762.4549,-86 1877.5451,-86 1877.5451,-122"/>
<text text-anchor="middle" x="1820" y="-99.8" font-family="Times,serif" font-size="14.00" fill="#000000">HomeComponent</text>
</g>
<!-- HomeComponent&#45;&gt;HomeModule -->
<g id="edge36" class="edge">
<title>HomeComponent&#45;&gt;HomeModule</title>
<path fill="none" stroke="#000000" d="M1843.774,-122.1686C1843.774,-126.0459 1843.774,-129 1843.774,-129 1843.774,-129 2328.0673,-129 2328.0673,-129 2328.0673,-129 2328.0673,-151.8757 2328.0673,-151.8757"/>
<polygon fill="#000000" stroke="#000000" points="2324.5674,-151.8757 2328.0673,-161.8757 2331.5674,-151.8757 2324.5674,-151.8757"/>
</g>
<!-- JetsonComponent -->
<g id="node39" class="node">
<title>JetsonComponent</title>
<polygon fill="#ffffb3" stroke="#000000" points="1744.3273,-122 1627.6727,-122 1627.6727,-86 1744.3273,-86 1744.3273,-122"/>
<text text-anchor="middle" x="1686" y="-99.8" font-family="Times,serif" font-size="14.00" fill="#000000">JetsonComponent</text>
</g>
<!-- JetsonComponent&#45;&gt;HomeModule -->
<g id="edge37" class="edge">
<title>JetsonComponent&#45;&gt;HomeModule</title>
<path fill="none" stroke="#000000" d="M1709.4621,-122.1592C1709.4621,-127.0433 1709.4621,-131 1709.4621,-131 1709.4621,-131 2320.2539,-131 2320.2539,-131 2320.2539,-131 2320.2539,-151.7542 2320.2539,-151.7542"/>
<polygon fill="#000000" stroke="#000000" points="2316.754,-151.7542 2320.2539,-161.7542 2323.754,-151.7542 2316.754,-151.7542"/>
</g>
<!-- ProjectsComponent -->
<g id="node40" class="node">
<title>ProjectsComponent</title>
<polygon fill="#ffffb3" stroke="#000000" points="1610.4313,-122 1483.5687,-122 1483.5687,-86 1610.4313,-86 1610.4313,-122"/>
<text text-anchor="middle" x="1547" y="-99.8" font-family="Times,serif" font-size="14.00" fill="#000000">ProjectsComponent</text>
</g>
<!-- ProjectsComponent&#45;&gt;HomeModule -->
<g id="edge38" class="edge">
<title>ProjectsComponent&#45;&gt;HomeModule</title>
<path fill="none" stroke="#000000" d="M1579.3679,-122.207C1579.3679,-127.5549 1579.3679,-132 1579.3679,-132 1579.3679,-132 2312.4404,-132 2312.4404,-132 2312.4404,-132 2312.4404,-151.8533 2312.4404,-151.8533"/>
<polygon fill="#000000" stroke="#000000" points="2308.9405,-151.8532 2312.4404,-161.8533 2315.9405,-151.8533 2308.9405,-151.8532"/>
</g>
<!-- RaceComponent -->
<g id="node41" class="node">
<title>RaceComponent</title>
<polygon fill="#ffffb3" stroke="#000000" points="1465.8132,-122 1356.1868,-122 1356.1868,-86 1465.8132,-86 1465.8132,-122"/>
<text text-anchor="middle" x="1411" y="-99.8" font-family="Times,serif" font-size="14.00" fill="#000000">RaceComponent</text>
</g>
<!-- RaceComponent&#45;&gt;HomeModule -->
<g id="edge39" class="edge">
<title>RaceComponent&#45;&gt;HomeModule</title>
<path fill="none" stroke="#000000" d="M1429.2188,-122.1432C1429.2188,-128.4611 1429.2188,-134 1429.2188,-134 1429.2188,-134 2304.6269,-134 2304.6269,-134 2304.6269,-134 2304.6269,-151.8196 2304.6269,-151.8196"/>
<polygon fill="#000000" stroke="#000000" points="2301.127,-151.8195 2304.6269,-161.8196 2308.127,-151.8196 2301.127,-151.8195"/>
</g>
<!-- HomeRoutingModule -->
<g id="node42" class="node">
<title>HomeRoutingModule</title>
<polygon fill="#8dd3c7" stroke="#000000" points="730.3795,-122 727.3795,-126 706.3795,-126 703.3795,-122 591.6205,-122 591.6205,-86 730.3795,-86 730.3795,-122"/>
<text text-anchor="middle" x="661" y="-99.8" font-family="Times,serif" font-size="14.00" fill="#000000">HomeRoutingModule</text>
</g>
<!-- HomeRoutingModule&#45;&gt;HomeModule -->
<g id="edge42" class="edge">
<title>HomeRoutingModule&#45;&gt;HomeModule</title>
<path fill="none" stroke="#000000" d="M685.6609,-122.1097C685.6609,-131.897 685.6609,-142 685.6609,-142 685.6609,-142 2265.5596,-142 2265.5596,-142 2265.5596,-142 2265.5596,-151.8903 2265.5596,-151.8903"/>
<polygon fill="#000000" stroke="#000000" points="2262.0597,-151.8903 2265.5596,-161.8903 2269.0597,-151.8904 2262.0597,-151.8903"/>
</g>
<!-- PressComponent -->
<g id="node44" class="node">
<title>PressComponent</title>
<polygon fill="#ffffb3" stroke="#000000" points="3785.3795,-122 3674.6205,-122 3674.6205,-86 3785.3795,-86 3785.3795,-122"/>
<text text-anchor="middle" x="3730" y="-99.8" font-family="Times,serif" font-size="14.00" fill="#000000">PressComponent</text>
</g>
<!-- PressComponent&#45;&gt;PressModule -->
<g id="edge44" class="edge">
<title>PressComponent&#45;&gt;PressModule</title>
<path fill="none" stroke="#000000" d="M3730,-122.0109C3730,-144.4852 3730,-180 3730,-180 3730,-180 3638.5981,-180 3638.5981,-180"/>
<polygon fill="#000000" stroke="#000000" points="3638.5982,-176.5001 3628.5981,-180 3638.5981,-183.5001 3638.5982,-176.5001"/>
</g>
<!-- PressRoutingModule -->
<g id="node46" class="node">
<title>PressRoutingModule</title>
<polygon fill="#8dd3c7" stroke="#000000" points="3651.2148,-122 3648.2148,-126 3627.2148,-126 3624.2148,-122 3516.7852,-122 3516.7852,-86 3651.2148,-86 3651.2148,-122"/>
<text text-anchor="middle" x="3584" y="-99.8" font-family="Times,serif" font-size="14.00" fill="#000000">PressRoutingModule</text>
</g>
<!-- PressRoutingModule&#45;&gt;PressModule -->
<g id="edge46" class="edge">
<title>PressRoutingModule&#45;&gt;PressModule</title>
<path fill="none" stroke="#000000" d="M3598.8495,-122.0109C3598.8495,-122.0109 3598.8495,-151.855 3598.8495,-151.855"/>
<polygon fill="#000000" stroke="#000000" points="3595.3496,-151.8549 3598.8495,-161.855 3602.3496,-151.855 3595.3496,-151.8549"/>
</g>
<!-- SupportComponent -->
<g id="node47" class="node">
<title>SupportComponent</title>
<polygon fill="#ffffb3" stroke="#000000" points="4124.6666,-122 3999.3334,-122 3999.3334,-86 4124.6666,-86 4124.6666,-122"/>
<text text-anchor="middle" x="4062" y="-99.8" font-family="Times,serif" font-size="14.00" fill="#000000">SupportComponent</text>
</g>
<!-- SupportComponent&#45;&gt;SupportModule -->
<g id="edge47" class="edge">
<title>SupportComponent&#45;&gt;SupportModule</title>
<path fill="none" stroke="#000000" d="M4062,-122.1985C4062,-146.3563 4062,-186 4062,-186 4062,-186 3962.1495,-186 3962.1495,-186"/>
<polygon fill="#000000" stroke="#000000" points="3962.1496,-182.5001 3952.1495,-186 3962.1495,-189.5001 3962.1496,-182.5001"/>
</g>
<!-- SupportRoutingModule -->
<g id="node49" class="node">
<title>SupportRoutingModule</title>
<polygon fill="#8dd3c7" stroke="#000000" points="3974.5014,-122 3971.5014,-126 3950.5014,-126 3947.5014,-122 3825.4986,-122 3825.4986,-86 3974.5014,-86 3974.5014,-122"/>
<text text-anchor="middle" x="3900" y="-99.8" font-family="Times,serif" font-size="14.00" fill="#000000">SupportRoutingModule</text>
</g>
<!-- SupportRoutingModule&#45;&gt;SupportModule -->
<g id="edge49" class="edge">
<title>SupportRoutingModule&#45;&gt;SupportModule</title>
<path fill="none" stroke="#000000" d="M3917.3139,-122.0109C3917.3139,-122.0109 3917.3139,-151.855 3917.3139,-151.855"/>
<polygon fill="#000000" stroke="#000000" points="3913.814,-151.8549 3917.3139,-161.855 3920.814,-151.855 3913.814,-151.8549"/>
</g>
</g>
</svg>
