<?xml version="1.0" encoding="UTF-8" standalone="no"?>
<!DOCTYPE svg PUBLIC "-//W3C//DTD SVG 1.1//EN"
 "http://www.w3.org/Graphics/SVG/1.1/DTD/svg11.dtd">
<!-- Generated by graphviz version 2.40.1 (20161225.0304)
 -->
<!-- Title: dependencies Pages: 1 -->
<svg width="5123pt" height="360pt"
 viewBox="0.00 0.00 5123.00 360.00" xmlns="http://www.w3.org/2000/svg" xmlns:xlink="http://www.w3.org/1999/xlink">
<g id="graph0" class="graph" transform="scale(1 1) rotate(0) translate(4 356)">
<title>dependencies</title>
<polygon fill="#ffffff" stroke="transparent" points="-4,4 -4,-356 5119,-356 5119,4 -4,4"/>
<text text-anchor="start" x="2536.5091" y="-42.4" font-family="sans-serif" font-weight="bold" font-size="14.00" fill="#000000">Legend</text>
<polygon fill="#ffffb3" stroke="transparent" points="2323.5,-10 2323.5,-30 2343.5,-30 2343.5,-10 2323.5,-10"/>
<text text-anchor="start" x="2347.129" y="-15.4" font-family="sans-serif" font-size="14.00" fill="#000000"> &#160;Declarations</text>
<polygon fill="#8dd3c7" stroke="transparent" points="2436.5,-10 2436.5,-30 2456.5,-30 2456.5,-10 2436.5,-10"/>
<text text-anchor="start" x="2460.2251" y="-15.4" font-family="sans-serif" font-size="14.00" fill="#000000"> &#160;Module</text>
<polygon fill="#80b1d3" stroke="transparent" points="2522.5,-10 2522.5,-30 2542.5,-30 2542.5,-10 2522.5,-10"/>
<text text-anchor="start" x="2546.2812" y="-15.4" font-family="sans-serif" font-size="14.00" fill="#000000"> &#160;Bootstrap</text>
<polygon fill="#fdb462" stroke="transparent" points="2619.5,-10 2619.5,-30 2639.5,-30 2639.5,-10 2619.5,-10"/>
<text text-anchor="start" x="2643.1732" y="-15.4" font-family="sans-serif" font-size="14.00" fill="#000000"> &#160;Providers</text>
<polygon fill="#fb8072" stroke="transparent" points="2715.5,-10 2715.5,-30 2735.5,-30 2735.5,-10 2715.5,-10"/>
<text text-anchor="start" x="2739.2258" y="-15.4" font-family="sans-serif" font-size="14.00" fill="#000000"> &#160;Exports</text>
<g id="clust1" class="cluster">
<title>cluster_AboutModule</title>
<polygon fill="none" stroke="#000000" stroke-dasharray="1,5" points="8,-70 8,-206 424,-206 424,-70 8,-70"/>
</g>
<g id="clust2" class="cluster">
<title>cluster_AboutModule_declarations</title>
<polygon fill="none" stroke="#000000" points="16,-78 16,-130 148,-130 148,-78 16,-78"/>
</g>
<g id="clust4" class="cluster">
<title>cluster_AboutModule_imports</title>
<polygon fill="none" stroke="#000000" points="156,-78 156,-130 416,-130 416,-78 156,-78"/>
</g>
<g id="clust14" class="cluster">
<title>cluster_AppModule</title>
<polygon fill="none" stroke="#000000" stroke-dasharray="1,5" points="2226,-70 2226,-344 2690,-344 2690,-70 2226,-70"/>
</g>
<g id="clust15" class="cluster">
<title>cluster_AppModule_declarations</title>
<polygon fill="none" stroke="#000000" points="2560,-154 2560,-206 2682,-206 2682,-154 2560,-154"/>
</g>
<g id="clust17" class="cluster">
<title>cluster_AppModule_imports</title>
<polygon fill="none" stroke="#000000" points="2234,-78 2234,-206 2552,-206 2552,-78 2234,-78"/>
</g>
<g id="clust19" class="cluster">
<title>cluster_AppModule_bootstrap</title>
<polygon fill="none" stroke="#000000" points="2293,-284 2293,-336 2417,-336 2417,-284 2293,-284"/>
</g>
<g id="clust27" class="cluster">
<title>cluster_AuthModule</title>
<polygon fill="none" stroke="#000000" stroke-dasharray="1,5" points="4149,-70 4149,-206 4447,-206 4447,-70 4149,-70"/>
</g>
<g id="clust28" class="cluster">
<title>cluster_AuthModule_declarations</title>
<polygon fill="none" stroke="#000000" points="4313,-78 4313,-130 4439,-130 4439,-78 4313,-78"/>
</g>
<g id="clust30" class="cluster">
<title>cluster_AuthModule_imports</title>
<polygon fill="none" stroke="#000000" points="4157,-78 4157,-130 4305,-130 4305,-78 4157,-78"/>
</g>
<g id="clust40" class="cluster">
<title>cluster_BlogEditorModule</title>
<polygon fill="none" stroke="#000000" stroke-dasharray="1,5" points="4455,-70 4455,-206 5107,-206 5107,-70 4455,-70"/>
</g>
<g id="clust41" class="cluster">
<title>cluster_BlogEditorModule_declarations</title>
<polygon fill="none" stroke="#000000" points="4653,-78 4653,-130 5099,-130 5099,-78 4653,-78"/>
</g>
<g id="clust45" class="cluster">
<title>cluster_BlogEditorModule_imports</title>
<polygon fill="none" stroke="#000000" points="4463,-78 4463,-130 4645,-130 4645,-78 4463,-78"/>
</g>
<g id="clust55" class="cluster">
<title>cluster_BlogModule</title>
<polygon fill="none" stroke="#000000" stroke-dasharray="1,5" points="3082,-70 3082,-206 3493,-206 3493,-70 3082,-70"/>
</g>
<g id="clust56" class="cluster">
<title>cluster_BlogModule_declarations</title>
<polygon fill="none" stroke="#000000" points="3246,-78 3246,-130 3485,-130 3485,-78 3246,-78"/>
</g>
<g id="clust59" class="cluster">
<title>cluster_BlogModule_imports</title>
<polygon fill="none" stroke="#000000" points="3090,-78 3090,-130 3238,-130 3238,-78 3090,-78"/>
</g>
<g id="clust69" class="cluster">
<title>cluster_CoreModule</title>
<polygon fill="none" stroke="#000000" stroke-dasharray="1,5" points="432,-146 432,-214 1946,-214 1946,-146 432,-146"/>
</g>
<g id="clust70" class="cluster">
<title>cluster_CoreModule_declarations</title>
<polygon fill="none" stroke="#000000" points="1202,-154 1202,-206 1938,-206 1938,-154 1202,-154"/>
</g>
<g id="clust77" class="cluster">
<title>cluster_CoreModule_exports</title>
<polygon fill="none" stroke="#000000" points="440,-154 440,-206 1194,-206 1194,-154 440,-154"/>
</g>
<g id="clust80" class="cluster">
<title>cluster_FragmentPolyfillModule</title>
<polygon fill="none" stroke="#000000" stroke-dasharray="1,5" points="2698,-146 2698,-214 3074,-214 3074,-146 2698,-146"/>
</g>
<g id="clust81" class="cluster">
<title>cluster_FragmentPolyfillModule_declarations</title>
<polygon fill="none" stroke="#000000" points="2892,-154 2892,-206 3066,-206 3066,-154 2892,-154"/>
</g>
<g id="clust84" class="cluster">
<title>cluster_FragmentPolyfillModule_exports</title>
<polygon fill="none" stroke="#000000" points="2706,-154 2706,-206 2884,-206 2884,-154 2706,-154"/>
</g>
<g id="clust87" class="cluster">
<title>cluster_HomeModule</title>
<polygon fill="none" stroke="#000000" stroke-dasharray="1,5" points="432,-70 432,-138 2218,-138 2218,-70 432,-70"/>
</g>
<g id="clust88" class="cluster">
<title>cluster_HomeModule_declarations</title>
<polygon fill="none" stroke="#000000" points="746,-78 746,-130 2210,-130 2210,-78 746,-78"/>
</g>
<g id="clust99" class="cluster">
<title>cluster_HomeModule_imports</title>
<polygon fill="none" stroke="#000000" points="584,-78 584,-130 738,-130 738,-78 584,-78"/>
</g>
<g id="clust100" class="cluster">
<title>cluster_HomeModule_exports</title>
<polygon fill="none" stroke="#000000" points="440,-78 440,-130 576,-130 576,-78 440,-78"/>
</g>
<g id="clust109" class="cluster">
<title>cluster_PressModule</title>
<polygon fill="none" stroke="#000000" stroke-dasharray="1,5" points="3501,-70 3501,-206 3801,-206 3801,-70 3501,-70"/>
</g>
<g id="clust110" class="cluster">
<title>cluster_PressModule_declarations</title>
<polygon fill="none" stroke="#000000" points="3667,-78 3667,-130 3793,-130 3793,-78 3667,-78"/>
</g>
<g id="clust112" class="cluster">
<title>cluster_PressModule_imports</title>
<polygon fill="none" stroke="#000000" points="3509,-78 3509,-130 3659,-130 3659,-78 3509,-78"/>
</g>
<g id="clust122" class="cluster">
<title>cluster_SupportModule</title>
<polygon fill="none" stroke="#000000" stroke-dasharray="1,5" points="3809,-70 3809,-206 4141,-206 4141,-70 3809,-70"/>
</g>
<g id="clust123" class="cluster">
<title>cluster_SupportModule_declarations</title>
<polygon fill="none" stroke="#000000" points="3991,-78 3991,-130 4133,-130 4133,-78 3991,-78"/>
</g>
<g id="clust125" class="cluster">
<title>cluster_SupportModule_imports</title>
<polygon fill="none" stroke="#000000" points="3817,-78 3817,-130 3983,-130 3983,-78 3817,-78"/>
</g>
<!-- AboutComponent -->
<g id="node1" class="node">
<title>AboutComponent</title>
<polygon fill="#ffffb3" stroke="#000000" points="140.3301,-122 23.6699,-122 23.6699,-86 140.3301,-86 140.3301,-122"/>
<text text-anchor="middle" x="82" y="-99.8" font-family="Times,serif" font-size="14.00" fill="#000000">AboutComponent</text>
</g>
<!-- AboutModule -->
<g id="node2" class="node">
<title>AboutModule</title>
<polygon fill="#8dd3c7" stroke="#000000" points="281.0481,-198 278.0481,-202 257.0481,-202 254.0481,-198 186.9519,-198 186.9519,-162 281.0481,-162 281.0481,-198"/>
<text text-anchor="middle" x="234" y="-175.8" font-family="Times,serif" font-size="14.00" fill="#000000">AboutModule</text>
</g>
<!-- AboutComponent&#45;&gt;AboutModule -->
<g id="edge1" class="edge">
<title>AboutComponent&#45;&gt;AboutModule</title>
<path fill="none" stroke="#000000" d="M82,-122.0109C82,-144.4852 82,-180 82,-180 82,-180 176.7395,-180 176.7395,-180"/>
<polygon fill="#000000" stroke="#000000" points="176.7395,-183.5001 186.7395,-180 176.7394,-176.5001 176.7395,-183.5001"/>
</g>
<!-- AboutRoutingModule -->
<g id="node3" class="node">
<title>AboutRoutingModule</title>
<polygon fill="#8dd3c7" stroke="#000000" points="303.6652,-122 300.6652,-126 279.6652,-126 276.6652,-122 164.3348,-122 164.3348,-86 303.6652,-86 303.6652,-122"/>
<text text-anchor="middle" x="234" y="-99.8" font-family="Times,serif" font-size="14.00" fill="#000000">AboutRoutingModule</text>
</g>
<!-- AboutRoutingModule&#45;&gt;AboutModule -->
<g id="edge2" class="edge">
<title>AboutRoutingModule&#45;&gt;AboutModule</title>
<path fill="none" stroke="#000000" d="M234,-122.0109C234,-122.0109 234,-151.855 234,-151.855"/>
<polygon fill="#000000" stroke="#000000" points="230.5001,-151.8549 234,-161.855 237.5001,-151.855 230.5001,-151.8549"/>
</g>
<!-- CoreModule -->
<g id="node4" class="node">
<title>CoreModule</title>
<polygon fill="#8dd3c7" stroke="#000000" points="408.2619,-122 405.2619,-126 384.2619,-126 381.2619,-122 321.7381,-122 321.7381,-86 408.2619,-86 408.2619,-122"/>
<text text-anchor="middle" x="365" y="-99.8" font-family="Times,serif" font-size="14.00" fill="#000000">CoreModule</text>
</g>
<!-- CoreModule&#45;&gt;AboutModule -->
<g id="edge3" class="edge">
<title>CoreModule&#45;&gt;AboutModule</title>
<path fill="none" stroke="#000000" d="M352.2409,-122.1985C352.2409,-146.3563 352.2409,-186 352.2409,-186 352.2409,-186 291.0717,-186 291.0717,-186"/>
<polygon fill="#000000" stroke="#000000" points="291.0717,-182.5001 281.0717,-186 291.0717,-189.5001 291.0717,-182.5001"/>
</g>
<!-- AppModule -->
<g id="node6" class="node">
<title>AppModule</title>
<polygon fill="#8dd3c7" stroke="#000000" points="2396.6571,-263 2393.6571,-267 2372.6571,-267 2369.6571,-263 2313.3429,-263 2313.3429,-227 2396.6571,-227 2396.6571,-263"/>
<text text-anchor="middle" x="2355" y="-240.8" font-family="Times,serif" font-size="14.00" fill="#000000">AppModule</text>
</g>
<!-- CoreModule&#45;&gt;AppModule -->
<g id="edge6" class="edge">
<title>CoreModule&#45;&gt;AppModule</title>
<path fill="none" stroke="#000000" d="M357.3446,-122.1446C357.3446,-160.2265 357.3446,-245 357.3446,-245 357.3446,-245 2303.2761,-245 2303.2761,-245"/>
<polygon fill="#000000" stroke="#000000" points="2303.2762,-248.5001 2313.2761,-245 2303.2761,-241.5001 2303.2762,-248.5001"/>
</g>
<!-- HomeModule -->
<g id="node9" class="node">
<title>HomeModule</title>
<polygon fill="#8dd3c7" stroke="#000000" points="2335.7619,-198 2332.7619,-202 2311.7619,-202 2308.7619,-198 2242.2381,-198 2242.2381,-162 2335.7619,-162 2335.7619,-198"/>
<text text-anchor="middle" x="2289" y="-175.8" font-family="Times,serif" font-size="14.00" fill="#000000">HomeModule</text>
</g>
<!-- CoreModule&#45;&gt;HomeModule -->
<g id="edge42" class="edge">
<title>CoreModule&#45;&gt;HomeModule</title>
<path fill="none" stroke="#000000" d="M382.8627,-122.1299C382.8627,-132.3145 382.8627,-143 382.8627,-143 382.8627,-143 2252.5372,-143 2252.5372,-143 2252.5372,-143 2252.5372,-151.9336 2252.5372,-151.9336"/>
<polygon fill="#000000" stroke="#000000" points="2249.0373,-151.9335 2252.5372,-161.9336 2256.0373,-151.9336 2249.0373,-151.9335"/>
</g>
<!-- BlogModule -->
<g id="node21" class="node">
<title>BlogModule</title>
<polygon fill="#8dd3c7" stroke="#000000" points="3278.2773,-198 3275.2773,-202 3254.2773,-202 3251.2773,-198 3191.7227,-198 3191.7227,-162 3278.2773,-162 3278.2773,-198"/>
<text text-anchor="middle" x="3235" y="-175.8" font-family="Times,serif" font-size="14.00" fill="#000000">BlogModule</text>
</g>
<!-- CoreModule&#45;&gt;BlogModule -->
<g id="edge19" class="edge">
<title>CoreModule&#45;&gt;BlogModule</title>
<path fill="none" stroke="#000000" d="M387.9663,-122.1903C387.9663,-125.5376 387.9663,-128 387.9663,-128 387.9663,-128 3204.3901,-128 3204.3901,-128 3204.3901,-128 3204.3901,-151.8129 3204.3901,-151.8129"/>
<polygon fill="#000000" stroke="#000000" points="3200.8902,-151.8129 3204.3901,-161.8129 3207.8902,-151.813 3200.8902,-151.8129"/>
</g>
<!-- BubblesComponent  -->
<g id="node28" class="node">
<title>BubblesComponent </title>
<polygon fill="#fb8072" stroke="#000000" points="1020.2191,-198 889.7809,-198 889.7809,-162 1020.2191,-162 1020.2191,-198"/>
<text text-anchor="middle" x="955" y="-175.8" font-family="Times,serif" font-size="14.00" fill="#000000">BubblesComponent </text>
</g>
<!-- CoreModule&#45;&gt;BubblesComponent  -->
<g id="edge25" class="edge">
<title>CoreModule&#45;&gt;BubblesComponent </title>
<path fill="none" stroke="#000000" stroke-dasharray="5,2" d="M372.6554,-122.2396C372.6554,-137.5706 372.6554,-157 372.6554,-157 372.6554,-157 929.1655,-157 929.1655,-157 929.1655,-157 929.1655,-157.4878 929.1655,-157.4878"/>
<polygon fill="#000000" stroke="#000000" points="925.6657,-151.8776 929.1655,-161.8777 932.6657,-151.8778 925.6657,-151.8776"/>
</g>
<!-- EmailSignupComponent  -->
<g id="node29" class="node">
<title>EmailSignupComponent </title>
<polygon fill="#fb8072" stroke="#000000" points="871.9446,-198 714.0554,-198 714.0554,-162 871.9446,-162 871.9446,-198"/>
<text text-anchor="middle" x="793" y="-175.8" font-family="Times,serif" font-size="14.00" fill="#000000">EmailSignupComponent </text>
</g>
<!-- CoreModule&#45;&gt;EmailSignupComponent  -->
<g id="edge26" class="edge">
<title>CoreModule&#45;&gt;EmailSignupComponent </title>
<path fill="none" stroke="#000000" stroke-dasharray="5,2" d="M367.5518,-122.0091C367.5518,-138.0494 367.5518,-159 367.5518,-159 367.5518,-159 722.2337,-159 722.2337,-159 722.2337,-159 722.2337,-159.292 722.2337,-159.292"/>
<polygon fill="#000000" stroke="#000000" points="718.7341,-151.9198 722.2337,-161.92 725.7341,-151.9201 718.7341,-151.9198"/>
</g>
<!-- FooterComponent  -->
<g id="node30" class="node">
<title>FooterComponent </title>
<polygon fill="#fb8072" stroke="#000000" points="695.8814,-198 574.1186,-198 574.1186,-162 695.8814,-162 695.8814,-198"/>
<text text-anchor="middle" x="635" y="-175.8" font-family="Times,serif" font-size="14.00" fill="#000000">FooterComponent </text>
</g>
<!-- CoreModule&#45;&gt;FooterComponent  -->
<g id="edge27" class="edge">
<title>CoreModule&#45;&gt;FooterComponent </title>
<path fill="none" stroke="#000000" stroke-dasharray="5,2" d="M362.4482,-122.0352C362.4482,-138.7344 362.4482,-161 362.4482,-161 362.4482,-161 582.935,-161 582.935,-161 582.935,-161 582.935,-161.0816 582.935,-161.0816"/>
<polygon fill="#000000" stroke="#000000" points="579.4363,-151.8159 582.935,-161.8164 586.4363,-151.8169 579.4363,-151.8159"/>
</g>
<!-- NavComponent  -->
<g id="node31" class="node">
<title>NavComponent </title>
<polygon fill="#fb8072" stroke="#000000" points="556.1537,-198 447.8463,-198 447.8463,-162 556.1537,-162 556.1537,-198"/>
<text text-anchor="middle" x="502" y="-175.8" font-family="Times,serif" font-size="14.00" fill="#000000">NavComponent </text>
</g>
<!-- CoreModule&#45;&gt;NavComponent  -->
<g id="edge28" class="edge">
<title>CoreModule&#45;&gt;NavComponent </title>
<path fill="none" stroke="#000000" stroke-dasharray="5,2" d="M403.2772,-122.0267C403.2772,-142.7672 403.2772,-174 403.2772,-174 403.2772,-174 437.729,-174 437.729,-174"/>
<polygon fill="#000000" stroke="#000000" points="437.729,-177.5001 447.729,-174 437.7289,-170.5001 437.729,-177.5001"/>
</g>
<!-- TagViewerComponent  -->
<g id="node32" class="node">
<title>TagViewerComponent </title>
<polygon fill="#fb8072" stroke="#000000" points="1185.7933,-198 1038.2067,-198 1038.2067,-162 1185.7933,-162 1185.7933,-198"/>
<text text-anchor="middle" x="1112" y="-175.8" font-family="Times,serif" font-size="14.00" fill="#000000">TagViewerComponent </text>
</g>
<!-- CoreModule&#45;&gt;TagViewerComponent  -->
<g id="edge29" class="edge">
<title>CoreModule&#45;&gt;TagViewerComponent </title>
<path fill="none" stroke="#000000" stroke-dasharray="5,2" d="M377.7591,-122.1243C377.7591,-136.7832 377.7591,-155 377.7591,-155 377.7591,-155 1072.7901,-155 1072.7901,-155 1072.7901,-155 1072.7901,-155.6831 1072.7901,-155.6831"/>
<polygon fill="#000000" stroke="#000000" points="1069.2902,-151.8313 1072.7901,-161.8314 1076.2902,-151.8314 1069.2902,-151.8313"/>
</g>
<!-- PressModule -->
<g id="node48" class="node">
<title>PressModule</title>
<polygon fill="#8dd3c7" stroke="#000000" points="3628.5969,-198 3625.5969,-202 3604.5969,-202 3601.5969,-198 3539.4031,-198 3539.4031,-162 3628.5969,-162 3628.5969,-198"/>
<text text-anchor="middle" x="3584" y="-175.8" font-family="Times,serif" font-size="14.00" fill="#000000">PressModule</text>
</g>
<!-- CoreModule&#45;&gt;PressModule -->
<g id="edge47" class="edge">
<title>CoreModule&#45;&gt;PressModule</title>
<path fill="none" stroke="#000000" d="M393.0699,-122.1679C393.0699,-124.4478 393.0699,-126 393.0699,-126 393.0699,-126 3569.1505,-126 3569.1505,-126 3569.1505,-126 3569.1505,-151.7181 3569.1505,-151.7181"/>
<polygon fill="#000000" stroke="#000000" points="3565.6506,-151.718 3569.1505,-161.7181 3572.6506,-151.7181 3565.6506,-151.718"/>
</g>
<!-- SupportModule -->
<g id="node51" class="node">
<title>SupportModule</title>
<polygon fill="#8dd3c7" stroke="#000000" points="3951.8837,-198 3948.8837,-202 3927.8837,-202 3924.8837,-198 3848.1163,-198 3848.1163,-162 3951.8837,-162 3951.8837,-198"/>
<text text-anchor="middle" x="3900" y="-175.8" font-family="Times,serif" font-size="14.00" fill="#000000">SupportModule</text>
</g>
<!-- CoreModule&#45;&gt;SupportModule -->
<g id="edge50" class="edge">
<title>CoreModule&#45;&gt;SupportModule</title>
<path fill="none" stroke="#000000" d="M398.1736,-122.1543C398.1736,-123.2969 398.1736,-124 398.1736,-124 398.1736,-124 3882.6861,-124 3882.6861,-124 3882.6861,-124 3882.6861,-151.973 3882.6861,-151.973"/>
<polygon fill="#000000" stroke="#000000" points="3879.1862,-151.973 3882.6861,-161.973 3886.1862,-151.973 3879.1862,-151.973"/>
</g>
<!-- AppComponent -->
<g id="node5" class="node">
<title>AppComponent</title>
<polygon fill="#ffffb3" stroke="#000000" points="2673.9399,-198 2568.0601,-198 2568.0601,-162 2673.9399,-162 2673.9399,-198"/>
<text text-anchor="middle" x="2621" y="-175.8" font-family="Times,serif" font-size="14.00" fill="#000000">AppComponent</text>
</g>
<!-- AppComponent&#45;&gt;AppModule -->
<g id="edge4" class="edge">
<title>AppComponent&#45;&gt;AppModule</title>
<path fill="none" stroke="#000000" d="M2568.233,-186C2501.369,-186 2394.72,-186 2394.72,-186 2394.72,-186 2394.72,-216.9775 2394.72,-216.9775"/>
<polygon fill="#000000" stroke="#000000" points="2391.2201,-216.9774 2394.72,-226.9775 2398.2201,-216.9775 2391.2201,-216.9774"/>
</g>
<!-- AppComponent  -->
<g id="node10" class="node">
<title>AppComponent </title>
<polygon fill="#80b1d3" stroke="#000000" points="2409.439,-328 2300.561,-328 2300.561,-292 2409.439,-292 2409.439,-328"/>
<text text-anchor="middle" x="2355" y="-305.8" font-family="Times,serif" font-size="14.00" fill="#000000">AppComponent </text>
</g>
<!-- AppModule&#45;&gt;AppComponent  -->
<g id="edge9" class="edge">
<title>AppModule&#45;&gt;AppComponent </title>
<path fill="none" stroke="#000000" stroke-dasharray="1,5" d="M2355,-263.1061C2355,-263.1061 2355,-281.991 2355,-281.991"/>
<polygon fill="#000000" stroke="#000000" points="2351.5001,-281.9909 2355,-291.991 2358.5001,-281.991 2351.5001,-281.9909"/>
</g>
<!-- AppRoutingModule -->
<g id="node7" class="node">
<title>AppRoutingModule</title>
<polygon fill="#8dd3c7" stroke="#000000" points="2370.2744,-122 2367.2744,-126 2346.2744,-126 2343.2744,-122 2241.7256,-122 2241.7256,-86 2370.2744,-86 2370.2744,-122"/>
<text text-anchor="middle" x="2306" y="-99.8" font-family="Times,serif" font-size="14.00" fill="#000000">AppRoutingModule</text>
</g>
<!-- AppRoutingModule&#45;&gt;AppModule -->
<g id="edge5" class="edge">
<title>AppRoutingModule&#45;&gt;AppModule</title>
<path fill="none" stroke="#000000" d="M2353.134,-122.1446C2353.134,-122.1446 2353.134,-216.925 2353.134,-216.925"/>
<polygon fill="#000000" stroke="#000000" points="2349.634,-216.925 2353.134,-226.925 2356.634,-216.925 2349.634,-216.925"/>
</g>
<!-- FragmentPolyfillModule -->
<g id="node8" class="node">
<title>FragmentPolyfillModule</title>
<polygon fill="#8dd3c7" stroke="#000000" points="2543.7091,-122 2540.7091,-126 2519.7091,-126 2516.7091,-122 2388.2909,-122 2388.2909,-86 2543.7091,-86 2543.7091,-122"/>
<text text-anchor="middle" x="2466" y="-99.8" font-family="Times,serif" font-size="14.00" fill="#000000">FragmentPolyfillModule</text>
</g>
<!-- FragmentPolyfillModule&#45;&gt;AppModule -->
<g id="edge7" class="edge">
<title>FragmentPolyfillModule&#45;&gt;AppModule</title>
<path fill="none" stroke="#000000" d="M2392.6119,-122.1446C2392.6119,-122.1446 2392.6119,-216.925 2392.6119,-216.925"/>
<polygon fill="#000000" stroke="#000000" points="2389.1119,-216.925 2392.6119,-226.925 2396.1119,-216.925 2389.1119,-216.925"/>
</g>
<!-- FragmentPolyfillModule&#45;&gt;HomeModule -->
<g id="edge43" class="edge">
<title>FragmentPolyfillModule&#45;&gt;HomeModule</title>
<path fill="none" stroke="#000000" d="M2390.5037,-122.0267C2390.5037,-142.7672 2390.5037,-174 2390.5037,-174 2390.5037,-174 2345.8893,-174 2345.8893,-174"/>
<polygon fill="#000000" stroke="#000000" points="2345.8893,-170.5001 2335.8893,-174 2345.8893,-177.5001 2345.8893,-170.5001"/>
</g>
<!-- FragmentTargetDirective  -->
<g id="node34" class="node">
<title>FragmentTargetDirective </title>
<polygon fill="#fb8072" stroke="#000000" points="2875.7696,-198 2714.2304,-198 2714.2304,-162 2875.7696,-162 2875.7696,-198"/>
<text text-anchor="middle" x="2795" y="-175.8" font-family="Times,serif" font-size="14.00" fill="#000000">FragmentTargetDirective </text>
</g>
<!-- FragmentPolyfillModule&#45;&gt;FragmentTargetDirective  -->
<g id="edge31" class="edge">
<title>FragmentPolyfillModule&#45;&gt;FragmentTargetDirective </title>
<path fill="none" stroke="#000000" stroke-dasharray="5,2" d="M2543.9684,-110C2641.2582,-110 2795,-110 2795,-110 2795,-110 2795,-151.9733 2795,-151.9733"/>
<polygon fill="#000000" stroke="#000000" points="2791.5001,-151.9732 2795,-161.9733 2798.5001,-151.9733 2791.5001,-151.9732"/>
</g>
<!-- HomeModule&#45;&gt;AppModule -->
<g id="edge8" class="edge">
<title>HomeModule&#45;&gt;AppModule</title>
<path fill="none" stroke="#000000" d="M2324.5263,-198.1061C2324.5263,-198.1061 2324.5263,-216.991 2324.5263,-216.991"/>
<polygon fill="#000000" stroke="#000000" points="2321.0264,-216.9909 2324.5263,-226.991 2328.0264,-216.991 2321.0264,-216.9909"/>
</g>
<!-- HomeComponent  -->
<g id="node46" class="node">
<title>HomeComponent </title>
<polygon fill="#fb8072" stroke="#000000" points="567.5442,-122 448.4558,-122 448.4558,-86 567.5442,-86 567.5442,-122"/>
<text text-anchor="middle" x="508" y="-99.8" font-family="Times,serif" font-size="14.00" fill="#000000">HomeComponent </text>
</g>
<!-- HomeModule&#45;&gt;HomeComponent  -->
<g id="edge45" class="edge">
<title>HomeModule&#45;&gt;HomeComponent </title>
<path fill="none" stroke="#000000" stroke-dasharray="5,2" d="M2261.5896,-198.1097C2261.5896,-207.897 2261.5896,-218 2261.5896,-218 2261.5896,-218 561.7995,-218 561.7995,-218 561.7995,-218 561.7995,-132.0636 561.7995,-132.0636"/>
<polygon fill="#000000" stroke="#000000" points="565.2995,-132.0636 561.7995,-122.0636 558.2995,-132.0637 565.2995,-132.0636"/>
</g>
<!-- AuthComponent -->
<g id="node11" class="node">
<title>AuthComponent</title>
<polygon fill="#ffffb3" stroke="#000000" points="4430.8301,-122 4321.1699,-122 4321.1699,-86 4430.8301,-86 4430.8301,-122"/>
<text text-anchor="middle" x="4376" y="-99.8" font-family="Times,serif" font-size="14.00" fill="#000000">AuthComponent</text>
</g>
<!-- AuthModule -->
<g id="node12" class="node">
<title>AuthModule</title>
<polygon fill="#8dd3c7" stroke="#000000" points="4346.5482,-198 4343.5482,-202 4322.5482,-202 4319.5482,-198 4259.4518,-198 4259.4518,-162 4346.5482,-162 4346.5482,-198"/>
<text text-anchor="middle" x="4303" y="-175.8" font-family="Times,serif" font-size="14.00" fill="#000000">AuthModule</text>
</g>
<!-- AuthComponent&#45;&gt;AuthModule -->
<g id="edge10" class="edge">
<title>AuthComponent&#45;&gt;AuthModule</title>
<path fill="none" stroke="#000000" d="M4334.0544,-122.0109C4334.0544,-122.0109 4334.0544,-151.855 4334.0544,-151.855"/>
<polygon fill="#000000" stroke="#000000" points="4330.5544,-151.8549 4334.0544,-161.855 4337.5544,-151.855 4330.5544,-151.8549"/>
</g>
<!-- AuthRoutingModule -->
<g id="node13" class="node">
<title>AuthRoutingModule</title>
<polygon fill="#8dd3c7" stroke="#000000" points="4297.1652,-122 4294.1652,-126 4273.1652,-126 4270.1652,-122 4164.8348,-122 4164.8348,-86 4297.1652,-86 4297.1652,-122"/>
<text text-anchor="middle" x="4231" y="-99.8" font-family="Times,serif" font-size="14.00" fill="#000000">AuthRoutingModule</text>
</g>
<!-- AuthRoutingModule&#45;&gt;AuthModule -->
<g id="edge11" class="edge">
<title>AuthRoutingModule&#45;&gt;AuthModule</title>
<path fill="none" stroke="#000000" d="M4278.2795,-122.0109C4278.2795,-122.0109 4278.2795,-151.855 4278.2795,-151.855"/>
<polygon fill="#000000" stroke="#000000" points="4274.7795,-151.8549 4278.2795,-161.855 4281.7795,-151.855 4274.7795,-151.8549"/>
</g>
<!-- EditorPostComponent -->
<g id="node14" class="node">
<title>EditorPostComponent</title>
<polygon fill="#ffffb3" stroke="#000000" points="5091.4453,-122 4950.5547,-122 4950.5547,-86 5091.4453,-86 5091.4453,-122"/>
<text text-anchor="middle" x="5021" y="-99.8" font-family="Times,serif" font-size="14.00" fill="#000000">EditorPostComponent</text>
</g>
<!-- BlogEditorModule -->
<g id="node17" class="node">
<title>BlogEditorModule</title>
<polygon fill="#8dd3c7" stroke="#000000" points="4847.7716,-198 4844.7716,-202 4823.7716,-202 4820.7716,-198 4726.2284,-198 4726.2284,-162 4847.7716,-162 4847.7716,-198"/>
<text text-anchor="middle" x="4787" y="-175.8" font-family="Times,serif" font-size="14.00" fill="#000000">BlogEditorModule</text>
</g>
<!-- EditorPostComponent&#45;&gt;BlogEditorModule -->
<g id="edge12" class="edge">
<title>EditorPostComponent&#45;&gt;BlogEditorModule</title>
<path fill="none" stroke="#000000" d="M5021,-122.0109C5021,-144.4852 5021,-180 5021,-180 5021,-180 4857.8699,-180 4857.8699,-180"/>
<polygon fill="#000000" stroke="#000000" points="4857.8699,-176.5001 4847.8699,-180 4857.8699,-183.5001 4857.8699,-176.5001"/>
</g>
<!-- EditorPostsComponent -->
<g id="node15" class="node">
<title>EditorPostsComponent</title>
<polygon fill="#ffffb3" stroke="#000000" points="4932.8892,-122 4787.1108,-122 4787.1108,-86 4932.8892,-86 4932.8892,-122"/>
<text text-anchor="middle" x="4860" y="-99.8" font-family="Times,serif" font-size="14.00" fill="#000000">EditorPostsComponent</text>
</g>
<!-- EditorPostsComponent&#45;&gt;BlogEditorModule -->
<g id="edge13" class="edge">
<title>EditorPostsComponent&#45;&gt;BlogEditorModule</title>
<path fill="none" stroke="#000000" d="M4817.4706,-122.0109C4817.4706,-122.0109 4817.4706,-151.855 4817.4706,-151.855"/>
<polygon fill="#000000" stroke="#000000" points="4813.9706,-151.8549 4817.4706,-161.855 4820.9706,-151.855 4813.9706,-151.8549"/>
</g>
<!-- TagsComponent -->
<g id="node16" class="node">
<title>TagsComponent</title>
<polygon fill="#ffffb3" stroke="#000000" points="4769.0452,-122 4660.9548,-122 4660.9548,-86 4769.0452,-86 4769.0452,-122"/>
<text text-anchor="middle" x="4715" y="-99.8" font-family="Times,serif" font-size="14.00" fill="#000000">TagsComponent</text>
</g>
<!-- TagsComponent&#45;&gt;BlogEditorModule -->
<g id="edge14" class="edge">
<title>TagsComponent&#45;&gt;BlogEditorModule</title>
<path fill="none" stroke="#000000" d="M4747.6932,-122.0109C4747.6932,-122.0109 4747.6932,-151.855 4747.6932,-151.855"/>
<polygon fill="#000000" stroke="#000000" points="4744.1933,-151.8549 4747.6932,-161.855 4751.1933,-151.855 4744.1933,-151.8549"/>
</g>
<!-- BlogEditorRoutingModule -->
<g id="node18" class="node">
<title>BlogEditorRoutingModule</title>
<polygon fill="#8dd3c7" stroke="#000000" points="4637.3892,-122 4634.3892,-126 4613.3892,-126 4610.3892,-122 4470.6108,-122 4470.6108,-86 4637.3892,-86 4637.3892,-122"/>
<text text-anchor="middle" x="4554" y="-99.8" font-family="Times,serif" font-size="14.00" fill="#000000">BlogEditorRoutingModule</text>
</g>
<!-- BlogEditorRoutingModule&#45;&gt;BlogEditorModule -->
<g id="edge15" class="edge">
<title>BlogEditorRoutingModule&#45;&gt;BlogEditorModule</title>
<path fill="none" stroke="#000000" d="M4554,-122.0109C4554,-144.4852 4554,-180 4554,-180 4554,-180 4716.0863,-180 4716.0863,-180"/>
<polygon fill="#000000" stroke="#000000" points="4716.0864,-183.5001 4726.0863,-180 4716.0863,-176.5001 4716.0864,-183.5001"/>
</g>
<!-- AllComponent -->
<g id="node19" class="node">
<title>AllComponent</title>
<polygon fill="#ffffb3" stroke="#000000" points="3476.7204,-122 3377.2796,-122 3377.2796,-86 3476.7204,-86 3476.7204,-122"/>
<text text-anchor="middle" x="3427" y="-99.8" font-family="Times,serif" font-size="14.00" fill="#000000">AllComponent</text>
</g>
<!-- AllComponent&#45;&gt;BlogModule -->
<g id="edge16" class="edge">
<title>AllComponent&#45;&gt;BlogModule</title>
<path fill="none" stroke="#000000" d="M3427,-122.0109C3427,-144.4852 3427,-180 3427,-180 3427,-180 3288.5678,-180 3288.5678,-180"/>
<polygon fill="#000000" stroke="#000000" points="3288.5678,-176.5001 3278.5678,-180 3288.5677,-183.5001 3288.5678,-176.5001"/>
</g>
<!-- PostComponent -->
<g id="node20" class="node">
<title>PostComponent</title>
<polygon fill="#ffffb3" stroke="#000000" points="3359.9512,-122 3254.0488,-122 3254.0488,-86 3359.9512,-86 3359.9512,-122"/>
<text text-anchor="middle" x="3307" y="-99.8" font-family="Times,serif" font-size="14.00" fill="#000000">PostComponent</text>
</g>
<!-- PostComponent&#45;&gt;BlogModule -->
<g id="edge17" class="edge">
<title>PostComponent&#45;&gt;BlogModule</title>
<path fill="none" stroke="#000000" d="M3266.3317,-122.0109C3266.3317,-122.0109 3266.3317,-151.855 3266.3317,-151.855"/>
<polygon fill="#000000" stroke="#000000" points="3262.8318,-151.8549 3266.3317,-161.855 3269.8318,-151.855 3262.8318,-151.8549"/>
</g>
<!-- BlogRoutingModule -->
<g id="node22" class="node">
<title>BlogRoutingModule</title>
<polygon fill="#8dd3c7" stroke="#000000" points="3229.8948,-122 3226.8948,-126 3205.8948,-126 3202.8948,-122 3098.1052,-122 3098.1052,-86 3229.8948,-86 3229.8948,-122"/>
<text text-anchor="middle" x="3164" y="-99.8" font-family="Times,serif" font-size="14.00" fill="#000000">BlogRoutingModule</text>
</g>
<!-- BlogRoutingModule&#45;&gt;BlogModule -->
<g id="edge18" class="edge">
<title>BlogRoutingModule&#45;&gt;BlogModule</title>
<path fill="none" stroke="#000000" d="M3217.1688,-122.0109C3217.1688,-122.0109 3217.1688,-151.855 3217.1688,-151.855"/>
<polygon fill="#000000" stroke="#000000" points="3213.6689,-151.8549 3217.1688,-161.855 3220.6689,-151.855 3213.6689,-151.8549"/>
</g>
<!-- BubblesComponent -->
<g id="node23" class="node">
<title>BubblesComponent</title>
<polygon fill="#ffffb3" stroke="#000000" points="1767.719,-198 1640.281,-198 1640.281,-162 1767.719,-162 1767.719,-198"/>
<text text-anchor="middle" x="1704" y="-175.8" font-family="Times,serif" font-size="14.00" fill="#000000">BubblesComponent</text>
</g>
<!-- BubblesComponent&#45;&gt;CoreModule -->
<g id="edge20" class="edge">
<title>BubblesComponent&#45;&gt;CoreModule</title>
<path fill="none" stroke="#000000" d="M1679.0659,-161.9551C1679.0659,-154.251 1679.0659,-147 1679.0659,-147 1679.0659,-147 342.0337,-147 342.0337,-147 342.0337,-147 342.0337,-132.4854 342.0337,-132.4854"/>
<polygon fill="#000000" stroke="#000000" points="345.5338,-132.4854 342.0337,-122.4854 338.5338,-132.4855 345.5338,-132.4854"/>
</g>
<!-- EmailSignupComponent -->
<g id="node24" class="node">
<title>EmailSignupComponent</title>
<polygon fill="#ffffb3" stroke="#000000" points="1622.4452,-198 1467.5548,-198 1467.5548,-162 1622.4452,-162 1622.4452,-198"/>
<text text-anchor="middle" x="1545" y="-175.8" font-family="Times,serif" font-size="14.00" fill="#000000">EmailSignupComponent</text>
</g>
<!-- EmailSignupComponent&#45;&gt;CoreModule -->
<g id="edge21" class="edge">
<title>EmailSignupComponent&#45;&gt;CoreModule</title>
<path fill="none" stroke="#000000" d="M1511.7541,-161.9672C1511.7541,-155.1474 1511.7541,-149 1511.7541,-149 1511.7541,-149 336.9301,-149 336.9301,-149 336.9301,-149 336.9301,-132.0439 336.9301,-132.0439"/>
<polygon fill="#000000" stroke="#000000" points="340.4302,-132.0439 336.9301,-122.0439 333.4302,-132.044 340.4302,-132.0439"/>
</g>
<!-- FooterComponent -->
<g id="node25" class="node">
<title>FooterComponent</title>
<polygon fill="#ffffb3" stroke="#000000" points="1449.8809,-198 1332.1191,-198 1332.1191,-162 1449.8809,-162 1449.8809,-198"/>
<text text-anchor="middle" x="1391" y="-175.8" font-family="Times,serif" font-size="14.00" fill="#000000">FooterComponent</text>
</g>
<!-- FooterComponent&#45;&gt;CoreModule -->
<g id="edge22" class="edge">
<title>FooterComponent&#45;&gt;CoreModule</title>
<path fill="none" stroke="#000000" d="M1361.576,-161.7985C1361.576,-155.972 1361.576,-151 1361.576,-151 1361.576,-151 331.8264,-151 331.8264,-151 331.8264,-151 331.8264,-132.037 331.8264,-132.037"/>
<polygon fill="#000000" stroke="#000000" points="335.3265,-132.037 331.8264,-122.037 328.3265,-132.037 335.3265,-132.037"/>
</g>
<!-- NavComponent -->
<g id="node26" class="node">
<title>NavComponent</title>
<polygon fill="#ffffb3" stroke="#000000" points="1314.1542,-198 1209.8458,-198 1209.8458,-162 1314.1542,-162 1314.1542,-198"/>
<text text-anchor="middle" x="1262" y="-175.8" font-family="Times,serif" font-size="14.00" fill="#000000">NavComponent</text>
</g>
<!-- NavComponent&#45;&gt;CoreModule -->
<g id="edge23" class="edge">
<title>NavComponent&#45;&gt;CoreModule</title>
<path fill="none" stroke="#000000" d="M1231.7062,-161.8408C1231.7062,-156.9567 1231.7062,-153 1231.7062,-153 1231.7062,-153 326.7228,-153 326.7228,-153 326.7228,-153 326.7228,-132.2458 326.7228,-132.2458"/>
<polygon fill="#000000" stroke="#000000" points="330.2229,-132.2458 326.7228,-122.2458 323.2229,-132.2458 330.2229,-132.2458"/>
</g>
<!-- TagViewerComponent -->
<g id="node27" class="node">
<title>TagViewerComponent</title>
<polygon fill="#ffffb3" stroke="#000000" points="1930.2935,-198 1785.7065,-198 1785.7065,-162 1930.2935,-162 1930.2935,-198"/>
<text text-anchor="middle" x="1858" y="-175.8" font-family="Times,serif" font-size="14.00" fill="#000000">TagViewerComponent</text>
</g>
<!-- TagViewerComponent&#45;&gt;CoreModule -->
<g id="edge24" class="edge">
<title>TagViewerComponent&#45;&gt;CoreModule</title>
<path fill="none" stroke="#000000" d="M1858,-161.68C1858,-153.2117 1858,-145 1858,-145 1858,-145 347.1373,-145 347.1373,-145 347.1373,-145 347.1373,-132.1025 347.1373,-132.1025"/>
<polygon fill="#000000" stroke="#000000" points="350.6374,-132.1025 347.1373,-122.1025 343.6374,-132.1026 350.6374,-132.1025"/>
</g>
<!-- FragmentTargetDirective -->
<g id="node33" class="node">
<title>FragmentTargetDirective</title>
<polygon fill="#ffffb3" stroke="#000000" points="3058.2696,-198 2899.7304,-198 2899.7304,-162 3058.2696,-162 3058.2696,-198"/>
<text text-anchor="middle" x="2979" y="-175.8" font-family="Times,serif" font-size="14.00" fill="#000000">FragmentTargetDirective</text>
</g>
<!-- FragmentTargetDirective&#45;&gt;FragmentPolyfillModule -->
<g id="edge30" class="edge">
<title>FragmentTargetDirective&#45;&gt;FragmentPolyfillModule</title>
<path fill="none" stroke="#000000" d="M2979,-161.8015C2979,-137.6437 2979,-98 2979,-98 2979,-98 2553.635,-98 2553.635,-98"/>
<polygon fill="#000000" stroke="#000000" points="2553.635,-94.5001 2543.635,-98 2553.635,-101.5001 2553.635,-94.5001"/>
</g>
<!-- BannerComponent -->
<g id="node35" class="node">
<title>BannerComponent</title>
<polygon fill="#ffffb3" stroke="#000000" points="2201.759,-122 2080.241,-122 2080.241,-86 2201.759,-86 2201.759,-122"/>
<text text-anchor="middle" x="2141" y="-99.8" font-family="Times,serif" font-size="14.00" fill="#000000">BannerComponent</text>
</g>
<!-- BannerComponent&#45;&gt;HomeModule -->
<g id="edge32" class="edge">
<title>BannerComponent&#45;&gt;HomeModule</title>
<path fill="none" stroke="#000000" d="M2141,-122.308C2141,-142.1455 2141,-171 2141,-171 2141,-171 2232.1719,-171 2232.1719,-171"/>
<polygon fill="#000000" stroke="#000000" points="2232.1719,-174.5001 2242.1719,-171 2232.1718,-167.5001 2232.1719,-174.5001"/>
</g>
<!-- BlogComponent -->
<g id="node36" class="node">
<title>BlogComponent</title>
<polygon fill="#ffffb3" stroke="#000000" points="2062.0605,-122 1953.9395,-122 1953.9395,-86 2062.0605,-86 2062.0605,-122"/>
<text text-anchor="middle" x="2008" y="-99.8" font-family="Times,serif" font-size="14.00" fill="#000000">BlogComponent</text>
</g>
<!-- BlogComponent&#45;&gt;HomeModule -->
<g id="edge33" class="edge">
<title>BlogComponent&#45;&gt;HomeModule</title>
<path fill="none" stroke="#000000" d="M2008,-122.0109C2008,-144.4852 2008,-180 2008,-180 2008,-180 2231.9669,-180 2231.9669,-180"/>
<polygon fill="#000000" stroke="#000000" points="2231.967,-183.5001 2241.9669,-180 2231.9669,-176.5001 2231.967,-183.5001"/>
</g>
<!-- ClubMembersComponent -->
<g id="node37" class="node">
<title>ClubMembersComponent</title>
<polygon fill="#ffffb3" stroke="#000000" points="1935.9298,-122 1774.0702,-122 1774.0702,-86 1935.9298,-86 1935.9298,-122"/>
<text text-anchor="middle" x="1855" y="-99.8" font-family="Times,serif" font-size="14.00" fill="#000000">ClubMembersComponent</text>
</g>
<!-- ClubMembersComponent&#45;&gt;HomeModule -->
<g id="edge34" class="edge">
<title>ClubMembersComponent&#45;&gt;HomeModule</title>
<path fill="none" stroke="#000000" d="M1935.787,-104C1941.295,-104 1944.7174,-104 1944.7174,-104 1944.7174,-104 1944.7174,-189 1944.7174,-189 1944.7174,-189 2232.2102,-189 2232.2102,-189"/>
<polygon fill="#000000" stroke="#000000" points="2232.2103,-192.5001 2242.2102,-189 2232.2102,-185.5001 2232.2103,-192.5001"/>
</g>
<!-- DeepracerComponent -->
<g id="node38" class="node">
<title>DeepracerComponent</title>
<polygon fill="#ffffb3" stroke="#000000" points="1756.3333,-122 1617.6667,-122 1617.6667,-86 1756.3333,-86 1756.3333,-122"/>
<text text-anchor="middle" x="1687" y="-99.8" font-family="Times,serif" font-size="14.00" fill="#000000">DeepracerComponent</text>
</g>
<!-- DeepracerComponent&#45;&gt;HomeModule -->
<g id="edge35" class="edge">
<title>DeepracerComponent&#45;&gt;HomeModule</title>
<path fill="none" stroke="#000000" d="M1717.7413,-122.0579C1717.7413,-126.4945 1717.7413,-130 1717.7413,-130 1717.7413,-130 2325.4628,-130 2325.4628,-130 2325.4628,-130 2325.4628,-151.9489 2325.4628,-151.9489"/>
<polygon fill="#000000" stroke="#000000" points="2321.9629,-151.9488 2325.4628,-161.9489 2328.9629,-151.9489 2321.9629,-151.9488"/>
</g>
<!-- FounderLetterComponent -->
<g id="node39" class="node">
<title>FounderLetterComponent</title>
<polygon fill="#ffffb3" stroke="#000000" points="1599.9143,-122 1438.0857,-122 1438.0857,-86 1599.9143,-86 1599.9143,-122"/>
<text text-anchor="middle" x="1519" y="-99.8" font-family="Times,serif" font-size="14.00" fill="#000000">FounderLetterComponent</text>
</g>
<!-- FounderLetterComponent&#45;&gt;HomeModule -->
<g id="edge36" class="edge">
<title>FounderLetterComponent&#45;&gt;HomeModule</title>
<path fill="none" stroke="#000000" d="M1555.7305,-122.207C1555.7305,-127.5549 1555.7305,-132 1555.7305,-132 1555.7305,-132 2315.0449,-132 2315.0449,-132 2315.0449,-132 2315.0449,-151.8533 2315.0449,-151.8533"/>
<polygon fill="#000000" stroke="#000000" points="2311.545,-151.8532 2315.0449,-161.8533 2318.545,-151.8533 2311.545,-151.8532"/>
</g>
<!-- FunFactComponent -->
<g id="node40" class="node">
<title>FunFactComponent</title>
<polygon fill="#ffffb3" stroke="#000000" points="1420.7176,-122 1293.2824,-122 1293.2824,-86 1420.7176,-86 1420.7176,-122"/>
<text text-anchor="middle" x="1357" y="-99.8" font-family="Times,serif" font-size="14.00" fill="#000000">FunFactComponent</text>
</g>
<!-- FunFactComponent&#45;&gt;HomeModule -->
<g id="edge37" class="edge">
<title>FunFactComponent&#45;&gt;HomeModule</title>
<path fill="none" stroke="#000000" d="M1391.0923,-122.1432C1391.0923,-128.4611 1391.0923,-134 1391.0923,-134 1391.0923,-134 2304.6269,-134 2304.6269,-134 2304.6269,-134 2304.6269,-151.8196 2304.6269,-151.8196"/>
<polygon fill="#000000" stroke="#000000" points="2301.127,-151.8195 2304.6269,-161.8196 2308.127,-151.8196 2301.127,-151.8195"/>
</g>
<!-- HomeComponent -->
<g id="node41" class="node">
<title>HomeComponent</title>
<polygon fill="#ffffb3" stroke="#000000" points="1275.5451,-122 1160.4549,-122 1160.4549,-86 1275.5451,-86 1275.5451,-122"/>
<text text-anchor="middle" x="1218" y="-99.8" font-family="Times,serif" font-size="14.00" fill="#000000">HomeComponent</text>
</g>
<!-- HomeComponent&#45;&gt;HomeModule -->
<g id="edge38" class="edge">
<title>HomeComponent&#45;&gt;HomeModule</title>
<path fill="none" stroke="#000000" d="M1253.7391,-122.2434C1253.7391,-129.4297 1253.7391,-136 1253.7391,-136 1253.7391,-136 2294.209,-136 2294.209,-136 2294.209,-136 2294.209,-151.8495 2294.209,-151.8495"/>
<polygon fill="#000000" stroke="#000000" points="2290.7091,-151.8494 2294.209,-161.8495 2297.7091,-151.8495 2290.7091,-151.8494"/>
</g>
<!-- JetsonComponent -->
<g id="node42" class="node">
<title>JetsonComponent</title>
<polygon fill="#ffffb3" stroke="#000000" points="1142.3273,-122 1025.6727,-122 1025.6727,-86 1142.3273,-86 1142.3273,-122"/>
<text text-anchor="middle" x="1084" y="-99.8" font-family="Times,serif" font-size="14.00" fill="#000000">JetsonComponent</text>
</g>
<!-- JetsonComponent&#45;&gt;HomeModule -->
<g id="edge39" class="edge">
<title>JetsonComponent&#45;&gt;HomeModule</title>
<path fill="none" stroke="#000000" d="M1107.4767,-122.1944C1107.4767,-130.2782 1107.4767,-138 1107.4767,-138 1107.4767,-138 2283.791,-138 2283.791,-138 2283.791,-138 2283.791,-151.9445 2283.791,-151.9445"/>
<polygon fill="#000000" stroke="#000000" points="2280.2911,-151.9444 2283.791,-161.9445 2287.2911,-151.9445 2280.2911,-151.9444"/>
</g>
<!-- ProjectsComponent -->
<g id="node43" class="node">
<title>ProjectsComponent</title>
<polygon fill="#ffffb3" stroke="#000000" points="1008.4313,-122 881.5687,-122 881.5687,-86 1008.4313,-86 1008.4313,-122"/>
<text text-anchor="middle" x="945" y="-99.8" font-family="Times,serif" font-size="14.00" fill="#000000">ProjectsComponent</text>
</g>
<!-- ProjectsComponent&#45;&gt;HomeModule -->
<g id="edge40" class="edge">
<title>ProjectsComponent&#45;&gt;HomeModule</title>
<path fill="none" stroke="#000000" d="M968.6904,-122.4218C968.6904,-131.2791 968.6904,-140 968.6904,-140 968.6904,-140 2273.3731,-140 2273.3731,-140 2273.3731,-140 2273.3731,-151.8726 2273.3731,-151.8726"/>
<polygon fill="#000000" stroke="#000000" points="2269.8732,-151.8725 2273.3731,-161.8726 2276.8732,-151.8726 2269.8732,-151.8725"/>
</g>
<!-- RaceComponent -->
<g id="node44" class="node">
<title>RaceComponent</title>
<polygon fill="#ffffb3" stroke="#000000" points="863.8132,-122 754.1868,-122 754.1868,-86 863.8132,-86 863.8132,-122"/>
<text text-anchor="middle" x="809" y="-99.8" font-family="Times,serif" font-size="14.00" fill="#000000">RaceComponent</text>
</g>
<!-- RaceComponent&#45;&gt;HomeModule -->
<g id="edge41" class="edge">
<title>RaceComponent&#45;&gt;HomeModule</title>
<path fill="none" stroke="#000000" d="M809,-122.1097C809,-131.897 809,-142 809,-142 809,-142 2262.9551,-142 2262.9551,-142 2262.9551,-142 2262.9551,-151.8903 2262.9551,-151.8903"/>
<polygon fill="#000000" stroke="#000000" points="2259.4552,-151.8903 2262.9551,-161.8903 2266.4552,-151.8904 2259.4552,-151.8903"/>
</g>
<!-- HomeRoutingModule -->
<g id="node45" class="node">
<title>HomeRoutingModule</title>
<polygon fill="#8dd3c7" stroke="#000000" points="730.3795,-122 727.3795,-126 706.3795,-126 703.3795,-122 591.6205,-122 591.6205,-86 730.3795,-86 730.3795,-122"/>
<text text-anchor="middle" x="661" y="-99.8" font-family="Times,serif" font-size="14.00" fill="#000000">HomeRoutingModule</text>
</g>
<!-- HomeRoutingModule&#45;&gt;HomeModule -->
<g id="edge44" class="edge">
<title>HomeRoutingModule&#45;&gt;HomeModule</title>
<path fill="none" stroke="#000000" d="M704.8591,-122.1154C704.8591,-151.9121 704.8591,-208 704.8591,-208 704.8591,-208 2281.0601,-208 2281.0601,-208 2281.0601,-208 2281.0601,-207.0207 2281.0601,-207.0207"/>
<polygon fill="#000000" stroke="#000000" points="2284.5602,-208.2069 2281.0601,-198.207 2277.5602,-208.207 2284.5602,-208.2069"/>
</g>
<!-- PressComponent -->
<g id="node47" class="node">
<title>PressComponent</title>
<polygon fill="#ffffb3" stroke="#000000" points="3785.3795,-122 3674.6205,-122 3674.6205,-86 3785.3795,-86 3785.3795,-122"/>
<text text-anchor="middle" x="3730" y="-99.8" font-family="Times,serif" font-size="14.00" fill="#000000">PressComponent</text>
</g>
<!-- PressComponent&#45;&gt;PressModule -->
<g id="edge46" class="edge">
<title>PressComponent&#45;&gt;PressModule</title>
<path fill="none" stroke="#000000" d="M3730,-122.0109C3730,-144.4852 3730,-180 3730,-180 3730,-180 3638.5981,-180 3638.5981,-180"/>
<polygon fill="#000000" stroke="#000000" points="3638.5982,-176.5001 3628.5981,-180 3638.5981,-183.5001 3638.5982,-176.5001"/>
</g>
<!-- PressRoutingModule -->
<g id="node49" class="node">
<title>PressRoutingModule</title>
<polygon fill="#8dd3c7" stroke="#000000" points="3651.2148,-122 3648.2148,-126 3627.2148,-126 3624.2148,-122 3516.7852,-122 3516.7852,-86 3651.2148,-86 3651.2148,-122"/>
<text text-anchor="middle" x="3584" y="-99.8" font-family="Times,serif" font-size="14.00" fill="#000000">PressRoutingModule</text>
</g>
<!-- PressRoutingModule&#45;&gt;PressModule -->
<g id="edge48" class="edge">
<title>PressRoutingModule&#45;&gt;PressModule</title>
<path fill="none" stroke="#000000" d="M3598.8495,-122.0109C3598.8495,-122.0109 3598.8495,-151.855 3598.8495,-151.855"/>
<polygon fill="#000000" stroke="#000000" points="3595.3496,-151.8549 3598.8495,-161.855 3602.3496,-151.855 3595.3496,-151.8549"/>
</g>
<!-- SupportComponent -->
<g id="node50" class="node">
<title>SupportComponent</title>
<polygon fill="#ffffb3" stroke="#000000" points="4124.6666,-122 3999.3334,-122 3999.3334,-86 4124.6666,-86 4124.6666,-122"/>
<text text-anchor="middle" x="4062" y="-99.8" font-family="Times,serif" font-size="14.00" fill="#000000">SupportComponent</text>
</g>
<!-- SupportComponent&#45;&gt;SupportModule -->
<g id="edge49" class="edge">
<title>SupportComponent&#45;&gt;SupportModule</title>
<path fill="none" stroke="#000000" d="M4062,-122.0109C4062,-144.4852 4062,-180 4062,-180 4062,-180 3962.1495,-180 3962.1495,-180"/>
<polygon fill="#000000" stroke="#000000" points="3962.1496,-176.5001 3952.1495,-180 3962.1495,-183.5001 3962.1496,-176.5001"/>
</g>
<!-- SupportRoutingModule -->
<g id="node52" class="node">
<title>SupportRoutingModule</title>
<polygon fill="#8dd3c7" stroke="#000000" points="3974.5014,-122 3971.5014,-126 3950.5014,-126 3947.5014,-122 3825.4986,-122 3825.4986,-86 3974.5014,-86 3974.5014,-122"/>
<text text-anchor="middle" x="3900" y="-99.8" font-family="Times,serif" font-size="14.00" fill="#000000">SupportRoutingModule</text>
</g>
<!-- SupportRoutingModule&#45;&gt;SupportModule -->
<g id="edge51" class="edge">
<title>SupportRoutingModule&#45;&gt;SupportModule</title>
<path fill="none" stroke="#000000" d="M3917.3139,-122.0109C3917.3139,-122.0109 3917.3139,-151.855 3917.3139,-151.855"/>
<polygon fill="#000000" stroke="#000000" points="3913.814,-151.8549 3917.3139,-161.855 3920.814,-151.855 3913.814,-151.8549"/>
</g>
</g>
</svg>
