<?xml version="1.0" encoding="UTF-8" standalone="no"?>
<!DOCTYPE svg PUBLIC "-//W3C//DTD SVG 1.1//EN"
 "http://www.w3.org/Graphics/SVG/1.1/DTD/svg11.dtd">
<!-- Generated by graphviz version 2.40.1 (20161225.0304)
 -->
<!-- Title: dependencies Pages: 1 -->
<svg width="4509pt" height="360pt"
 viewBox="0.00 0.00 4509.00 360.00" xmlns="http://www.w3.org/2000/svg" xmlns:xlink="http://www.w3.org/1999/xlink">
<g id="graph0" class="graph" transform="scale(1 1) rotate(0) translate(4 356)">
<title>dependencies</title>
<polygon fill="#ffffff" stroke="transparent" points="-4,4 -4,-356 4505,-356 4505,4 -4,4"/>
<text text-anchor="start" x="2229.5091" y="-42.4" font-family="sans-serif" font-weight="bold" font-size="14.00" fill="#000000">Legend</text>
<polygon fill="#ffffb3" stroke="transparent" points="2016.5,-10 2016.5,-30 2036.5,-30 2036.5,-10 2016.5,-10"/>
<text text-anchor="start" x="2040.129" y="-15.4" font-family="sans-serif" font-size="14.00" fill="#000000"> &#160;Declarations</text>
<polygon fill="#8dd3c7" stroke="transparent" points="2129.5,-10 2129.5,-30 2149.5,-30 2149.5,-10 2129.5,-10"/>
<text text-anchor="start" x="2153.2251" y="-15.4" font-family="sans-serif" font-size="14.00" fill="#000000"> &#160;Module</text>
<polygon fill="#80b1d3" stroke="transparent" points="2215.5,-10 2215.5,-30 2235.5,-30 2235.5,-10 2215.5,-10"/>
<text text-anchor="start" x="2239.2812" y="-15.4" font-family="sans-serif" font-size="14.00" fill="#000000"> &#160;Bootstrap</text>
<polygon fill="#fdb462" stroke="transparent" points="2312.5,-10 2312.5,-30 2332.5,-30 2332.5,-10 2312.5,-10"/>
<text text-anchor="start" x="2336.1732" y="-15.4" font-family="sans-serif" font-size="14.00" fill="#000000"> &#160;Providers</text>
<polygon fill="#fb8072" stroke="transparent" points="2408.5,-10 2408.5,-30 2428.5,-30 2428.5,-10 2408.5,-10"/>
<text text-anchor="start" x="2432.2258" y="-15.4" font-family="sans-serif" font-size="14.00" fill="#000000"> &#160;Exports</text>
<g id="clust1" class="cluster">
<title>cluster_AboutModule</title>
<polygon fill="none" stroke="#000000" stroke-dasharray="1,5" points="8,-70 8,-206 424,-206 424,-70 8,-70"/>
</g>
<g id="clust2" class="cluster">
<title>cluster_AboutModule_declarations</title>
<polygon fill="none" stroke="#000000" points="16,-78 16,-130 148,-130 148,-78 16,-78"/>
</g>
<g id="clust4" class="cluster">
<title>cluster_AboutModule_imports</title>
<polygon fill="none" stroke="#000000" points="156,-78 156,-130 416,-130 416,-78 156,-78"/>
</g>
<g id="clust14" class="cluster">
<title>cluster_AppModule</title>
<polygon fill="none" stroke="#000000" stroke-dasharray="1,5" points="2226,-70 2226,-344 2690,-344 2690,-70 2226,-70"/>
</g>
<g id="clust15" class="cluster">
<title>cluster_AppModule_declarations</title>
<polygon fill="none" stroke="#000000" points="2560,-154 2560,-206 2682,-206 2682,-154 2560,-154"/>
</g>
<g id="clust17" class="cluster">
<title>cluster_AppModule_imports</title>
<polygon fill="none" stroke="#000000" points="2234,-78 2234,-206 2552,-206 2552,-78 2234,-78"/>
</g>
<g id="clust19" class="cluster">
<title>cluster_AppModule_bootstrap</title>
<polygon fill="none" stroke="#000000" points="2293,-284 2293,-336 2417,-336 2417,-284 2293,-284"/>
</g>
<g id="clust27" class="cluster">
<title>cluster_BlogEditorModule</title>
<polygon fill="none" stroke="#000000" stroke-dasharray="1,5" points="3422,-70 3422,-206 3948,-206 3948,-70 3422,-70"/>
</g>
<g id="clust28" class="cluster">
<title>cluster_BlogEditorModule_declarations</title>
<polygon fill="none" stroke="#000000" points="3620,-78 3620,-130 3940,-130 3940,-78 3620,-78"/>
</g>
<g id="clust31" class="cluster">
<title>cluster_BlogEditorModule_imports</title>
<polygon fill="none" stroke="#000000" points="3430,-78 3430,-130 3612,-130 3612,-78 3430,-78"/>
</g>
<g id="clust41" class="cluster">
<title>cluster_BlogModule</title>
<polygon fill="none" stroke="#000000" stroke-dasharray="1,5" points="3956,-70 3956,-206 4493,-206 4493,-70 3956,-70"/>
</g>
<g id="clust42" class="cluster">
<title>cluster_BlogModule_declarations</title>
<polygon fill="none" stroke="#000000" points="4120,-78 4120,-130 4485,-130 4485,-78 4120,-78"/>
</g>
<g id="clust46" class="cluster">
<title>cluster_BlogModule_imports</title>
<polygon fill="none" stroke="#000000" points="3964,-78 3964,-130 4112,-130 4112,-78 3964,-78"/>
</g>
<g id="clust56" class="cluster">
<title>cluster_CoreModule</title>
<polygon fill="none" stroke="#000000" stroke-dasharray="1,5" points="432,-146 432,-214 1618,-214 1618,-146 432,-146"/>
</g>
<g id="clust57" class="cluster">
<title>cluster_CoreModule_declarations</title>
<polygon fill="none" stroke="#000000" points="1036,-154 1036,-206 1610,-206 1610,-154 1036,-154"/>
</g>
<g id="clust63" class="cluster">
<title>cluster_CoreModule_exports</title>
<polygon fill="none" stroke="#000000" points="440,-154 440,-206 1028,-206 1028,-154 440,-154"/>
</g>
<g id="clust66" class="cluster">
<title>cluster_FragmentPolyfillModule</title>
<polygon fill="none" stroke="#000000" stroke-dasharray="1,5" points="2698,-146 2698,-214 3074,-214 3074,-146 2698,-146"/>
</g>
<g id="clust67" class="cluster">
<title>cluster_FragmentPolyfillModule_declarations</title>
<polygon fill="none" stroke="#000000" points="2892,-154 2892,-206 3066,-206 3066,-154 2892,-154"/>
</g>
<g id="clust70" class="cluster">
<title>cluster_FragmentPolyfillModule_exports</title>
<polygon fill="none" stroke="#000000" points="2706,-154 2706,-206 2884,-206 2884,-154 2706,-154"/>
</g>
<g id="clust73" class="cluster">
<title>cluster_HomeModule</title>
<polygon fill="none" stroke="#000000" stroke-dasharray="1,5" points="432,-70 432,-138 2218,-138 2218,-70 432,-70"/>
</g>
<g id="clust74" class="cluster">
<title>cluster_HomeModule_declarations</title>
<polygon fill="none" stroke="#000000" points="746,-78 746,-130 2210,-130 2210,-78 746,-78"/>
</g>
<g id="clust85" class="cluster">
<title>cluster_HomeModule_imports</title>
<polygon fill="none" stroke="#000000" points="584,-78 584,-130 738,-130 738,-78 584,-78"/>
</g>
<g id="clust86" class="cluster">
<title>cluster_HomeModule_exports</title>
<polygon fill="none" stroke="#000000" points="440,-78 440,-130 576,-130 576,-78 440,-78"/>
</g>
<g id="clust95" class="cluster">
<title>cluster_SupportModule</title>
<polygon fill="none" stroke="#000000" stroke-dasharray="1,5" points="3082,-70 3082,-206 3414,-206 3414,-70 3082,-70"/>
</g>
<g id="clust96" class="cluster">
<title>cluster_SupportModule_declarations</title>
<polygon fill="none" stroke="#000000" points="3264,-78 3264,-130 3406,-130 3406,-78 3264,-78"/>
</g>
<g id="clust98" class="cluster">
<title>cluster_SupportModule_imports</title>
<polygon fill="none" stroke="#000000" points="3090,-78 3090,-130 3256,-130 3256,-78 3090,-78"/>
</g>
<!-- AboutComponent -->
<g id="node1" class="node">
<title>AboutComponent</title>
<polygon fill="#ffffb3" stroke="#000000" points="140.3301,-122 23.6699,-122 23.6699,-86 140.3301,-86 140.3301,-122"/>
<text text-anchor="middle" x="82" y="-99.8" font-family="Times,serif" font-size="14.00" fill="#000000">AboutComponent</text>
</g>
<!-- AboutModule -->
<g id="node2" class="node">
<title>AboutModule</title>
<polygon fill="#8dd3c7" stroke="#000000" points="281.0481,-198 278.0481,-202 257.0481,-202 254.0481,-198 186.9519,-198 186.9519,-162 281.0481,-162 281.0481,-198"/>
<text text-anchor="middle" x="234" y="-175.8" font-family="Times,serif" font-size="14.00" fill="#000000">AboutModule</text>
</g>
<!-- AboutComponent&#45;&gt;AboutModule -->
<g id="edge1" class="edge">
<title>AboutComponent&#45;&gt;AboutModule</title>
<path fill="none" stroke="#000000" d="M82,-122.0109C82,-144.4852 82,-180 82,-180 82,-180 176.7395,-180 176.7395,-180"/>
<polygon fill="#000000" stroke="#000000" points="176.7395,-183.5001 186.7395,-180 176.7394,-176.5001 176.7395,-183.5001"/>
</g>
<!-- AboutRoutingModule -->
<g id="node3" class="node">
<title>AboutRoutingModule</title>
<polygon fill="#8dd3c7" stroke="#000000" points="303.6652,-122 300.6652,-126 279.6652,-126 276.6652,-122 164.3348,-122 164.3348,-86 303.6652,-86 303.6652,-122"/>
<text text-anchor="middle" x="234" y="-99.8" font-family="Times,serif" font-size="14.00" fill="#000000">AboutRoutingModule</text>
</g>
<!-- AboutRoutingModule&#45;&gt;AboutModule -->
<g id="edge2" class="edge">
<title>AboutRoutingModule&#45;&gt;AboutModule</title>
<path fill="none" stroke="#000000" d="M234,-122.0109C234,-122.0109 234,-151.855 234,-151.855"/>
<polygon fill="#000000" stroke="#000000" points="230.5001,-151.8549 234,-161.855 237.5001,-151.855 230.5001,-151.8549"/>
</g>
<!-- CoreModule -->
<g id="node4" class="node">
<title>CoreModule</title>
<polygon fill="#8dd3c7" stroke="#000000" points="408.2619,-122 405.2619,-126 384.2619,-126 381.2619,-122 321.7381,-122 321.7381,-86 408.2619,-86 408.2619,-122"/>
<text text-anchor="middle" x="365" y="-99.8" font-family="Times,serif" font-size="14.00" fill="#000000">CoreModule</text>
</g>
<!-- CoreModule&#45;&gt;AboutModule -->
<g id="edge3" class="edge">
<title>CoreModule&#45;&gt;AboutModule</title>
<path fill="none" stroke="#000000" d="M354.989,-122.1985C354.989,-146.3563 354.989,-186 354.989,-186 354.989,-186 291.124,-186 291.124,-186"/>
<polygon fill="#000000" stroke="#000000" points="291.124,-182.5001 281.124,-186 291.1239,-189.5001 291.124,-182.5001"/>
</g>
<!-- AppModule -->
<g id="node6" class="node">
<title>AppModule</title>
<polygon fill="#8dd3c7" stroke="#000000" points="2396.6571,-263 2393.6571,-267 2372.6571,-267 2369.6571,-263 2313.3429,-263 2313.3429,-227 2396.6571,-227 2396.6571,-263"/>
<text text-anchor="middle" x="2355" y="-240.8" font-family="Times,serif" font-size="14.00" fill="#000000">AppModule</text>
</g>
<!-- CoreModule&#45;&gt;AppModule -->
<g id="edge6" class="edge">
<title>CoreModule&#45;&gt;AppModule</title>
<path fill="none" stroke="#000000" d="M361.663,-122.1446C361.663,-160.2265 361.663,-245 361.663,-245 361.663,-245 2302.9064,-245 2302.9064,-245"/>
<polygon fill="#000000" stroke="#000000" points="2302.9064,-248.5001 2312.9064,-245 2302.9064,-241.5001 2302.9064,-248.5001"/>
</g>
<!-- HomeModule -->
<g id="node9" class="node">
<title>HomeModule</title>
<polygon fill="#8dd3c7" stroke="#000000" points="2335.7619,-198 2332.7619,-202 2311.7619,-202 2308.7619,-198 2242.2381,-198 2242.2381,-162 2335.7619,-162 2335.7619,-198"/>
<text text-anchor="middle" x="2289" y="-175.8" font-family="Times,serif" font-size="14.00" fill="#000000">HomeModule</text>
</g>
<!-- CoreModule&#45;&gt;HomeModule -->
<g id="edge37" class="edge">
<title>CoreModule&#45;&gt;HomeModule</title>
<path fill="none" stroke="#000000" d="M388.3589,-122.1274C388.3589,-132.7109 388.3589,-144 388.3589,-144 388.3589,-144 2252.5372,-144 2252.5372,-144 2252.5372,-144 2252.5372,-151.5782 2252.5372,-151.5782"/>
<polygon fill="#000000" stroke="#000000" points="2249.0373,-151.5781 2252.5372,-161.5782 2256.0373,-151.5782 2249.0373,-151.5781"/>
</g>
<!-- BubblesComponent  -->
<g id="node24" class="node">
<title>BubblesComponent </title>
<polygon fill="#fb8072" stroke="#000000" points="754.2191,-198 623.7809,-198 623.7809,-162 754.2191,-162 754.2191,-198"/>
<text text-anchor="middle" x="689" y="-175.8" font-family="Times,serif" font-size="14.00" fill="#000000">BubblesComponent </text>
</g>
<!-- CoreModule&#45;&gt;BubblesComponent  -->
<g id="edge21" class="edge">
<title>CoreModule&#45;&gt;BubblesComponent </title>
<path fill="none" stroke="#000000" stroke-dasharray="5,2" d="M368.337,-122.027C368.337,-138.3976 368.337,-160 368.337,-160 368.337,-160 659.2403,-160 659.2403,-160 659.2403,-160 659.2403,-160.1846 659.2403,-160.1846"/>
<polygon fill="#000000" stroke="#000000" points="655.7409,-151.8455 659.2403,-161.8457 662.7409,-151.8459 655.7409,-151.8455"/>
</g>
<!-- EmailSignupComponent  -->
<g id="node25" class="node">
<title>EmailSignupComponent </title>
<polygon fill="#fb8072" stroke="#000000" points="605.9446,-198 448.0554,-198 448.0554,-162 605.9446,-162 605.9446,-198"/>
<text text-anchor="middle" x="527" y="-175.8" font-family="Times,serif" font-size="14.00" fill="#000000">EmailSignupComponent </text>
</g>
<!-- CoreModule&#45;&gt;EmailSignupComponent  -->
<g id="edge22" class="edge">
<title>CoreModule&#45;&gt;EmailSignupComponent </title>
<path fill="none" stroke="#000000" stroke-dasharray="5,2" d="M401.7068,-122.0267C401.7068,-142.7672 401.7068,-174 401.7068,-174 401.7068,-174 438.0054,-174 438.0054,-174"/>
<polygon fill="#000000" stroke="#000000" points="438.0054,-177.5001 448.0054,-174 438.0054,-170.5001 438.0054,-177.5001"/>
</g>
<!-- FooterComponent  -->
<g id="node26" class="node">
<title>FooterComponent </title>
<polygon fill="#fb8072" stroke="#000000" points="1019.8814,-198 898.1186,-198 898.1186,-162 1019.8814,-162 1019.8814,-198"/>
<text text-anchor="middle" x="959" y="-175.8" font-family="Times,serif" font-size="14.00" fill="#000000">FooterComponent </text>
</g>
<!-- CoreModule&#45;&gt;FooterComponent  -->
<g id="edge23" class="edge">
<title>CoreModule&#45;&gt;FooterComponent </title>
<path fill="none" stroke="#000000" stroke-dasharray="5,2" d="M381.6849,-122.1243C381.6849,-136.7832 381.6849,-155 381.6849,-155 381.6849,-155 933.4638,-155 933.4638,-155 933.4638,-155 933.4638,-155.6831 933.4638,-155.6831"/>
<polygon fill="#000000" stroke="#000000" points="929.9639,-151.8313 933.4638,-161.8314 936.9639,-151.8314 929.9639,-151.8313"/>
</g>
<!-- NavComponent  -->
<g id="node27" class="node">
<title>NavComponent </title>
<polygon fill="#fb8072" stroke="#000000" points="880.1537,-198 771.8463,-198 771.8463,-162 880.1537,-162 880.1537,-198"/>
<text text-anchor="middle" x="826" y="-175.8" font-family="Times,serif" font-size="14.00" fill="#000000">NavComponent </text>
</g>
<!-- CoreModule&#45;&gt;NavComponent  -->
<g id="edge24" class="edge">
<title>CoreModule&#45;&gt;NavComponent </title>
<path fill="none" stroke="#000000" stroke-dasharray="5,2" d="M375.011,-122.2819C375.011,-137.9478 375.011,-158 375.011,-158 375.011,-158 804.6699,-158 804.6699,-158 804.6699,-158 804.6699,-158.3832 804.6699,-158.3832"/>
<polygon fill="#000000" stroke="#000000" points="801.1702,-151.832 804.6699,-161.8321 808.1702,-151.8322 801.1702,-151.832"/>
</g>
<!-- SupportModule -->
<g id="node43" class="node">
<title>SupportModule</title>
<polygon fill="#8dd3c7" stroke="#000000" points="3224.8837,-198 3221.8837,-202 3200.8837,-202 3197.8837,-198 3121.1163,-198 3121.1163,-162 3224.8837,-162 3224.8837,-198"/>
<text text-anchor="middle" x="3173" y="-175.8" font-family="Times,serif" font-size="14.00" fill="#000000">SupportModule</text>
</g>
<!-- CoreModule&#45;&gt;SupportModule -->
<g id="edge42" class="edge">
<title>CoreModule&#45;&gt;SupportModule</title>
<path fill="none" stroke="#000000" d="M395.0329,-122.08C395.0329,-123.8464 395.0329,-125 395.0329,-125 395.0329,-125 3155.6861,-125 3155.6861,-125 3155.6861,-125 3155.6861,-151.9909 3155.6861,-151.9909"/>
<polygon fill="#000000" stroke="#000000" points="3152.1862,-151.9909 3155.6861,-161.9909 3159.1862,-151.991 3152.1862,-151.9909"/>
</g>
<!-- AppComponent -->
<g id="node5" class="node">
<title>AppComponent</title>
<polygon fill="#ffffb3" stroke="#000000" points="2673.9399,-198 2568.0601,-198 2568.0601,-162 2673.9399,-162 2673.9399,-198"/>
<text text-anchor="middle" x="2621" y="-175.8" font-family="Times,serif" font-size="14.00" fill="#000000">AppComponent</text>
</g>
<!-- AppComponent&#45;&gt;AppModule -->
<g id="edge4" class="edge">
<title>AppComponent&#45;&gt;AppModule</title>
<path fill="none" stroke="#000000" d="M2568.233,-186C2501.369,-186 2394.72,-186 2394.72,-186 2394.72,-186 2394.72,-216.9775 2394.72,-216.9775"/>
<polygon fill="#000000" stroke="#000000" points="2391.2201,-216.9774 2394.72,-226.9775 2398.2201,-216.9775 2391.2201,-216.9774"/>
</g>
<!-- AppComponent  -->
<g id="node10" class="node">
<title>AppComponent </title>
<polygon fill="#80b1d3" stroke="#000000" points="2409.439,-328 2300.561,-328 2300.561,-292 2409.439,-292 2409.439,-328"/>
<text text-anchor="middle" x="2355" y="-305.8" font-family="Times,serif" font-size="14.00" fill="#000000">AppComponent </text>
</g>
<!-- AppModule&#45;&gt;AppComponent  -->
<g id="edge9" class="edge">
<title>AppModule&#45;&gt;AppComponent </title>
<path fill="none" stroke="#000000" stroke-dasharray="1,5" d="M2355,-263.1061C2355,-263.1061 2355,-281.991 2355,-281.991"/>
<polygon fill="#000000" stroke="#000000" points="2351.5001,-281.9909 2355,-291.991 2358.5001,-281.991 2351.5001,-281.9909"/>
</g>
<!-- AppRoutingModule -->
<g id="node7" class="node">
<title>AppRoutingModule</title>
<polygon fill="#8dd3c7" stroke="#000000" points="2370.2744,-122 2367.2744,-126 2346.2744,-126 2343.2744,-122 2241.7256,-122 2241.7256,-86 2370.2744,-86 2370.2744,-122"/>
<text text-anchor="middle" x="2306" y="-99.8" font-family="Times,serif" font-size="14.00" fill="#000000">AppRoutingModule</text>
</g>
<!-- AppRoutingModule&#45;&gt;AppModule -->
<g id="edge5" class="edge">
<title>AppRoutingModule&#45;&gt;AppModule</title>
<path fill="none" stroke="#000000" d="M2353.134,-122.1446C2353.134,-122.1446 2353.134,-216.925 2353.134,-216.925"/>
<polygon fill="#000000" stroke="#000000" points="2349.634,-216.925 2353.134,-226.925 2356.634,-216.925 2349.634,-216.925"/>
</g>
<!-- FragmentPolyfillModule -->
<g id="node8" class="node">
<title>FragmentPolyfillModule</title>
<polygon fill="#8dd3c7" stroke="#000000" points="2543.7091,-122 2540.7091,-126 2519.7091,-126 2516.7091,-122 2388.2909,-122 2388.2909,-86 2543.7091,-86 2543.7091,-122"/>
<text text-anchor="middle" x="2466" y="-99.8" font-family="Times,serif" font-size="14.00" fill="#000000">FragmentPolyfillModule</text>
</g>
<!-- FragmentPolyfillModule&#45;&gt;AppModule -->
<g id="edge7" class="edge">
<title>FragmentPolyfillModule&#45;&gt;AppModule</title>
<path fill="none" stroke="#000000" d="M2392.6119,-122.1446C2392.6119,-122.1446 2392.6119,-216.925 2392.6119,-216.925"/>
<polygon fill="#000000" stroke="#000000" points="2389.1119,-216.925 2392.6119,-226.925 2396.1119,-216.925 2389.1119,-216.925"/>
</g>
<!-- FragmentPolyfillModule&#45;&gt;HomeModule -->
<g id="edge38" class="edge">
<title>FragmentPolyfillModule&#45;&gt;HomeModule</title>
<path fill="none" stroke="#000000" d="M2390.5037,-122.0267C2390.5037,-142.7672 2390.5037,-174 2390.5037,-174 2390.5037,-174 2345.8893,-174 2345.8893,-174"/>
<polygon fill="#000000" stroke="#000000" points="2345.8893,-170.5001 2335.8893,-174 2345.8893,-177.5001 2345.8893,-170.5001"/>
</g>
<!-- FragmentTargetDirective  -->
<g id="node29" class="node">
<title>FragmentTargetDirective </title>
<polygon fill="#fb8072" stroke="#000000" points="2875.7696,-198 2714.2304,-198 2714.2304,-162 2875.7696,-162 2875.7696,-198"/>
<text text-anchor="middle" x="2795" y="-175.8" font-family="Times,serif" font-size="14.00" fill="#000000">FragmentTargetDirective </text>
</g>
<!-- FragmentPolyfillModule&#45;&gt;FragmentTargetDirective  -->
<g id="edge26" class="edge">
<title>FragmentPolyfillModule&#45;&gt;FragmentTargetDirective </title>
<path fill="none" stroke="#000000" stroke-dasharray="5,2" d="M2543.9684,-110C2641.2582,-110 2795,-110 2795,-110 2795,-110 2795,-151.9733 2795,-151.9733"/>
<polygon fill="#000000" stroke="#000000" points="2791.5001,-151.9732 2795,-161.9733 2798.5001,-151.9733 2791.5001,-151.9732"/>
</g>
<!-- HomeModule&#45;&gt;AppModule -->
<g id="edge8" class="edge">
<title>HomeModule&#45;&gt;AppModule</title>
<path fill="none" stroke="#000000" d="M2324.5263,-198.1061C2324.5263,-198.1061 2324.5263,-216.991 2324.5263,-216.991"/>
<polygon fill="#000000" stroke="#000000" points="2321.0264,-216.9909 2324.5263,-226.991 2328.0264,-216.991 2321.0264,-216.9909"/>
</g>
<!-- HomeComponent  -->
<g id="node41" class="node">
<title>HomeComponent </title>
<polygon fill="#fb8072" stroke="#000000" points="567.5442,-122 448.4558,-122 448.4558,-86 567.5442,-86 567.5442,-122"/>
<text text-anchor="middle" x="508" y="-99.8" font-family="Times,serif" font-size="14.00" fill="#000000">HomeComponent </text>
</g>
<!-- HomeModule&#45;&gt;HomeComponent  -->
<g id="edge40" class="edge">
<title>HomeModule&#45;&gt;HomeComponent </title>
<path fill="none" stroke="#000000" stroke-dasharray="5,2" d="M2262.9551,-161.8701C2262.9551,-151.6855 2262.9551,-141 2262.9551,-141 2262.9551,-141 508,-141 508,-141 508,-141 508,-132.0664 508,-132.0664"/>
<polygon fill="#000000" stroke="#000000" points="511.5001,-132.0664 508,-122.0664 504.5001,-132.0665 511.5001,-132.0664"/>
</g>
<!-- EditorPostComponent -->
<g id="node11" class="node">
<title>EditorPostComponent</title>
<polygon fill="#ffffb3" stroke="#000000" points="3932.4453,-122 3791.5547,-122 3791.5547,-86 3932.4453,-86 3932.4453,-122"/>
<text text-anchor="middle" x="3862" y="-99.8" font-family="Times,serif" font-size="14.00" fill="#000000">EditorPostComponent</text>
</g>
<!-- BlogEditorModule -->
<g id="node13" class="node">
<title>BlogEditorModule</title>
<polygon fill="#8dd3c7" stroke="#000000" points="3761.7716,-198 3758.7716,-202 3737.7716,-202 3734.7716,-198 3640.2284,-198 3640.2284,-162 3761.7716,-162 3761.7716,-198"/>
<text text-anchor="middle" x="3701" y="-175.8" font-family="Times,serif" font-size="14.00" fill="#000000">BlogEditorModule</text>
</g>
<!-- EditorPostComponent&#45;&gt;BlogEditorModule -->
<g id="edge10" class="edge">
<title>EditorPostComponent&#45;&gt;BlogEditorModule</title>
<path fill="none" stroke="#000000" d="M3862,-122.1985C3862,-146.3563 3862,-186 3862,-186 3862,-186 3771.8672,-186 3771.8672,-186"/>
<polygon fill="#000000" stroke="#000000" points="3771.8672,-182.5001 3761.8672,-186 3771.8672,-189.5001 3771.8672,-182.5001"/>
</g>
<!-- EditorPostsComponent -->
<g id="node12" class="node">
<title>EditorPostsComponent</title>
<polygon fill="#ffffb3" stroke="#000000" points="3773.8892,-122 3628.1108,-122 3628.1108,-86 3773.8892,-86 3773.8892,-122"/>
<text text-anchor="middle" x="3701" y="-99.8" font-family="Times,serif" font-size="14.00" fill="#000000">EditorPostsComponent</text>
</g>
<!-- EditorPostsComponent&#45;&gt;BlogEditorModule -->
<g id="edge11" class="edge">
<title>EditorPostsComponent&#45;&gt;BlogEditorModule</title>
<path fill="none" stroke="#000000" d="M3701,-122.0109C3701,-122.0109 3701,-151.855 3701,-151.855"/>
<polygon fill="#000000" stroke="#000000" points="3697.5001,-151.8549 3701,-161.855 3704.5001,-151.855 3697.5001,-151.8549"/>
</g>
<!-- BlogEditorRoutingModule -->
<g id="node14" class="node">
<title>BlogEditorRoutingModule</title>
<polygon fill="#8dd3c7" stroke="#000000" points="3604.3892,-122 3601.3892,-126 3580.3892,-126 3577.3892,-122 3437.6108,-122 3437.6108,-86 3604.3892,-86 3604.3892,-122"/>
<text text-anchor="middle" x="3521" y="-99.8" font-family="Times,serif" font-size="14.00" fill="#000000">BlogEditorRoutingModule</text>
</g>
<!-- BlogEditorRoutingModule&#45;&gt;BlogEditorModule -->
<g id="edge12" class="edge">
<title>BlogEditorRoutingModule&#45;&gt;BlogEditorModule</title>
<path fill="none" stroke="#000000" d="M3521,-122.0267C3521,-142.7672 3521,-174 3521,-174 3521,-174 3630.0602,-174 3630.0602,-174"/>
<polygon fill="#000000" stroke="#000000" points="3630.0602,-177.5001 3640.0602,-174 3630.0602,-170.5001 3630.0602,-177.5001"/>
</g>
<!-- AllComponent -->
<g id="node15" class="node">
<title>AllComponent</title>
<polygon fill="#ffffb3" stroke="#000000" points="4353.7204,-122 4254.2796,-122 4254.2796,-86 4353.7204,-86 4353.7204,-122"/>
<text text-anchor="middle" x="4304" y="-99.8" font-family="Times,serif" font-size="14.00" fill="#000000">AllComponent</text>
</g>
<!-- BlogModule -->
<g id="node18" class="node">
<title>BlogModule</title>
<polygon fill="#8dd3c7" stroke="#000000" points="4286.2773,-198 4283.2773,-202 4262.2773,-202 4259.2773,-198 4199.7227,-198 4199.7227,-162 4286.2773,-162 4286.2773,-198"/>
<text text-anchor="middle" x="4243" y="-175.8" font-family="Times,serif" font-size="14.00" fill="#000000">BlogModule</text>
</g>
<!-- AllComponent&#45;&gt;BlogModule -->
<g id="edge13" class="edge">
<title>AllComponent&#45;&gt;BlogModule</title>
<path fill="none" stroke="#000000" d="M4270.3892,-122.0109C4270.3892,-122.0109 4270.3892,-151.855 4270.3892,-151.855"/>
<polygon fill="#000000" stroke="#000000" points="4266.8893,-151.8549 4270.3892,-161.855 4273.8893,-151.855 4266.8893,-151.8549"/>
</g>
<!-- CardComponent -->
<g id="node16" class="node">
<title>CardComponent</title>
<polygon fill="#ffffb3" stroke="#000000" points="4236.0452,-122 4127.9548,-122 4127.9548,-86 4236.0452,-86 4236.0452,-122"/>
<text text-anchor="middle" x="4182" y="-99.8" font-family="Times,serif" font-size="14.00" fill="#000000">CardComponent</text>
</g>
<!-- CardComponent&#45;&gt;BlogModule -->
<g id="edge14" class="edge">
<title>CardComponent&#45;&gt;BlogModule</title>
<path fill="none" stroke="#000000" d="M4217.9418,-122.0109C4217.9418,-122.0109 4217.9418,-151.855 4217.9418,-151.855"/>
<polygon fill="#000000" stroke="#000000" points="4214.4419,-151.8549 4217.9418,-161.855 4221.4419,-151.855 4214.4419,-151.8549"/>
</g>
<!-- PostComponent -->
<g id="node17" class="node">
<title>PostComponent</title>
<polygon fill="#ffffb3" stroke="#000000" points="4476.9512,-122 4371.0488,-122 4371.0488,-86 4476.9512,-86 4476.9512,-122"/>
<text text-anchor="middle" x="4424" y="-99.8" font-family="Times,serif" font-size="14.00" fill="#000000">PostComponent</text>
</g>
<!-- PostComponent&#45;&gt;BlogModule -->
<g id="edge15" class="edge">
<title>PostComponent&#45;&gt;BlogModule</title>
<path fill="none" stroke="#000000" d="M4424,-122.0109C4424,-144.4852 4424,-180 4424,-180 4424,-180 4296.354,-180 4296.354,-180"/>
<polygon fill="#000000" stroke="#000000" points="4296.354,-176.5001 4286.354,-180 4296.354,-183.5001 4296.354,-176.5001"/>
</g>
<!-- BlogRoutingModule -->
<g id="node19" class="node">
<title>BlogRoutingModule</title>
<polygon fill="#8dd3c7" stroke="#000000" points="4103.8948,-122 4100.8948,-126 4079.8948,-126 4076.8948,-122 3972.1052,-122 3972.1052,-86 4103.8948,-86 4103.8948,-122"/>
<text text-anchor="middle" x="4038" y="-99.8" font-family="Times,serif" font-size="14.00" fill="#000000">BlogRoutingModule</text>
</g>
<!-- BlogRoutingModule&#45;&gt;BlogModule -->
<g id="edge16" class="edge">
<title>BlogRoutingModule&#45;&gt;BlogModule</title>
<path fill="none" stroke="#000000" d="M4038,-122.0267C4038,-142.7672 4038,-174 4038,-174 4038,-174 4189.5248,-174 4189.5248,-174"/>
<polygon fill="#000000" stroke="#000000" points="4189.5248,-177.5001 4199.5248,-174 4189.5247,-170.5001 4189.5248,-177.5001"/>
</g>
<!-- BubblesComponent -->
<g id="node20" class="node">
<title>BubblesComponent</title>
<polygon fill="#ffffb3" stroke="#000000" points="1343.719,-198 1216.281,-198 1216.281,-162 1343.719,-162 1343.719,-198"/>
<text text-anchor="middle" x="1280" y="-175.8" font-family="Times,serif" font-size="14.00" fill="#000000">BubblesComponent</text>
</g>
<!-- BubblesComponent&#45;&gt;CoreModule -->
<g id="edge17" class="edge">
<title>BubblesComponent&#45;&gt;CoreModule</title>
<path fill="none" stroke="#000000" d="M1253.496,-161.7985C1253.496,-155.972 1253.496,-151 1253.496,-151 1253.496,-151 334.9671,-151 334.9671,-151 334.9671,-151 334.9671,-132.037 334.9671,-132.037"/>
<polygon fill="#000000" stroke="#000000" points="338.4672,-132.037 334.9671,-122.037 331.4672,-132.037 338.4672,-132.037"/>
</g>
<!-- EmailSignupComponent -->
<g id="node21" class="node">
<title>EmailSignupComponent</title>
<polygon fill="#ffffb3" stroke="#000000" points="1198.4452,-198 1043.5548,-198 1043.5548,-162 1198.4452,-162 1198.4452,-198"/>
<text text-anchor="middle" x="1121" y="-175.8" font-family="Times,serif" font-size="14.00" fill="#000000">EmailSignupComponent</text>
</g>
<!-- EmailSignupComponent&#45;&gt;CoreModule -->
<g id="edge18" class="edge">
<title>EmailSignupComponent&#45;&gt;CoreModule</title>
<path fill="none" stroke="#000000" d="M1078.7214,-161.8408C1078.7214,-156.9567 1078.7214,-153 1078.7214,-153 1078.7214,-153 328.2932,-153 328.2932,-153 328.2932,-153 328.2932,-132.2458 328.2932,-132.2458"/>
<polygon fill="#000000" stroke="#000000" points="331.7933,-132.2458 328.2932,-122.2458 324.7933,-132.2458 331.7933,-132.2458"/>
</g>
<!-- FooterComponent -->
<g id="node22" class="node">
<title>FooterComponent</title>
<polygon fill="#ffffb3" stroke="#000000" points="1601.8809,-198 1484.1191,-198 1484.1191,-162 1601.8809,-162 1601.8809,-198"/>
<text text-anchor="middle" x="1543" y="-175.8" font-family="Times,serif" font-size="14.00" fill="#000000">FooterComponent</text>
</g>
<!-- FooterComponent&#45;&gt;CoreModule -->
<g id="edge19" class="edge">
<title>FooterComponent&#45;&gt;CoreModule</title>
<path fill="none" stroke="#000000" d="M1493.351,-161.8056C1493.351,-153.7218 1493.351,-146 1493.351,-146 1493.351,-146 348.3151,-146 348.3151,-146 348.3151,-146 348.3151,-132.0555 348.3151,-132.0555"/>
<polygon fill="#000000" stroke="#000000" points="351.8152,-132.0555 348.3151,-122.0555 344.8152,-132.0556 351.8152,-132.0555"/>
</g>
<!-- NavComponent -->
<g id="node23" class="node">
<title>NavComponent</title>
<polygon fill="#ffffb3" stroke="#000000" points="1466.1542,-198 1361.8458,-198 1361.8458,-162 1466.1542,-162 1466.1542,-198"/>
<text text-anchor="middle" x="1414" y="-175.8" font-family="Times,serif" font-size="14.00" fill="#000000">NavComponent</text>
</g>
<!-- NavComponent&#45;&gt;CoreModule -->
<g id="edge20" class="edge">
<title>NavComponent&#45;&gt;CoreModule</title>
<path fill="none" stroke="#000000" d="M1414,-161.7566C1414,-154.5703 1414,-148 1414,-148 1414,-148 341.6411,-148 341.6411,-148 341.6411,-148 341.6411,-132.1505 341.6411,-132.1505"/>
<polygon fill="#000000" stroke="#000000" points="345.1412,-132.1505 341.6411,-122.1505 338.1412,-132.1506 345.1412,-132.1505"/>
</g>
<!-- FragmentTargetDirective -->
<g id="node28" class="node">
<title>FragmentTargetDirective</title>
<polygon fill="#ffffb3" stroke="#000000" points="3058.2696,-198 2899.7304,-198 2899.7304,-162 3058.2696,-162 3058.2696,-198"/>
<text text-anchor="middle" x="2979" y="-175.8" font-family="Times,serif" font-size="14.00" fill="#000000">FragmentTargetDirective</text>
</g>
<!-- FragmentTargetDirective&#45;&gt;FragmentPolyfillModule -->
<g id="edge25" class="edge">
<title>FragmentTargetDirective&#45;&gt;FragmentPolyfillModule</title>
<path fill="none" stroke="#000000" d="M2979,-161.8015C2979,-137.6437 2979,-98 2979,-98 2979,-98 2553.635,-98 2553.635,-98"/>
<polygon fill="#000000" stroke="#000000" points="2553.635,-94.5001 2543.635,-98 2553.635,-101.5001 2553.635,-94.5001"/>
</g>
<!-- BannerComponent -->
<g id="node30" class="node">
<title>BannerComponent</title>
<polygon fill="#ffffb3" stroke="#000000" points="1929.759,-122 1808.241,-122 1808.241,-86 1929.759,-86 1929.759,-122"/>
<text text-anchor="middle" x="1869" y="-99.8" font-family="Times,serif" font-size="14.00" fill="#000000">BannerComponent</text>
</g>
<!-- BannerComponent&#45;&gt;HomeModule -->
<g id="edge27" class="edge">
<title>BannerComponent&#45;&gt;HomeModule</title>
<path fill="none" stroke="#000000" d="M1869,-122.0109C1869,-144.4852 1869,-180 1869,-180 1869,-180 2232.0432,-180 2232.0432,-180"/>
<polygon fill="#000000" stroke="#000000" points="2232.0432,-183.5001 2242.0432,-180 2232.0432,-176.5001 2232.0432,-183.5001"/>
</g>
<!-- BlogComponent -->
<g id="node31" class="node">
<title>BlogComponent</title>
<polygon fill="#ffffb3" stroke="#000000" points="1790.0605,-122 1681.9395,-122 1681.9395,-86 1790.0605,-86 1790.0605,-122"/>
<text text-anchor="middle" x="1736" y="-99.8" font-family="Times,serif" font-size="14.00" fill="#000000">BlogComponent</text>
</g>
<!-- BlogComponent&#45;&gt;HomeModule -->
<g id="edge28" class="edge">
<title>BlogComponent&#45;&gt;HomeModule</title>
<path fill="none" stroke="#000000" d="M1736,-122.1985C1736,-146.3563 1736,-186 1736,-186 1736,-186 2231.8515,-186 2231.8515,-186"/>
<polygon fill="#000000" stroke="#000000" points="2231.8516,-189.5001 2241.8515,-186 2231.8515,-182.5001 2231.8516,-189.5001"/>
</g>
<!-- ClubMembersComponent -->
<g id="node32" class="node">
<title>ClubMembersComponent</title>
<polygon fill="#ffffb3" stroke="#000000" points="1663.9298,-122 1502.0702,-122 1502.0702,-86 1663.9298,-86 1663.9298,-122"/>
<text text-anchor="middle" x="1583" y="-99.8" font-family="Times,serif" font-size="14.00" fill="#000000">ClubMembersComponent</text>
</g>
<!-- ClubMembersComponent&#45;&gt;HomeModule -->
<g id="edge29" class="edge">
<title>ClubMembersComponent&#45;&gt;HomeModule</title>
<path fill="none" stroke="#000000" d="M1632.8275,-122.2337C1632.8275,-148.0094 1632.8275,-192 1632.8275,-192 1632.8275,-192 2232.073,-192 2232.073,-192"/>
<polygon fill="#000000" stroke="#000000" points="2232.0731,-195.5001 2242.073,-192 2232.073,-188.5001 2232.0731,-195.5001"/>
</g>
<!-- DeepracerComponent -->
<g id="node33" class="node">
<title>DeepracerComponent</title>
<polygon fill="#ffffb3" stroke="#000000" points="1484.3333,-122 1345.6667,-122 1345.6667,-86 1484.3333,-86 1484.3333,-122"/>
<text text-anchor="middle" x="1415" y="-99.8" font-family="Times,serif" font-size="14.00" fill="#000000">DeepracerComponent</text>
</g>
<!-- DeepracerComponent&#45;&gt;HomeModule -->
<g id="edge30" class="edge">
<title>DeepracerComponent&#45;&gt;HomeModule</title>
<path fill="none" stroke="#000000" d="M1475.1932,-122.1223C1475.1932,-124.9729 1475.1932,-127 1475.1932,-127 1475.1932,-127 2325.4628,-127 2325.4628,-127 2325.4628,-127 2325.4628,-151.7604 2325.4628,-151.7604"/>
<polygon fill="#000000" stroke="#000000" points="2321.9629,-151.7604 2325.4628,-161.7604 2328.9629,-151.7604 2321.9629,-151.7604"/>
</g>
<!-- FounderLetterComponent -->
<g id="node34" class="node">
<title>FounderLetterComponent</title>
<polygon fill="#ffffb3" stroke="#000000" points="1327.9143,-122 1166.0857,-122 1166.0857,-86 1327.9143,-86 1327.9143,-122"/>
<text text-anchor="middle" x="1247" y="-99.8" font-family="Times,serif" font-size="14.00" fill="#000000">FounderLetterComponent</text>
</g>
<!-- FounderLetterComponent&#45;&gt;HomeModule -->
<g id="edge31" class="edge">
<title>FounderLetterComponent&#45;&gt;HomeModule</title>
<path fill="none" stroke="#000000" d="M1290.6015,-122.0579C1290.6015,-126.4945 1290.6015,-130 1290.6015,-130 1290.6015,-130 2315.0449,-130 2315.0449,-130 2315.0449,-130 2315.0449,-151.9489 2315.0449,-151.9489"/>
<polygon fill="#000000" stroke="#000000" points="2311.545,-151.9488 2315.0449,-161.9489 2318.545,-151.9489 2311.545,-151.9488"/>
</g>
<!-- FunFactComponent -->
<g id="node35" class="node">
<title>FunFactComponent</title>
<polygon fill="#ffffb3" stroke="#000000" points="1148.7176,-122 1021.2824,-122 1021.2824,-86 1148.7176,-86 1148.7176,-122"/>
<text text-anchor="middle" x="1085" y="-99.8" font-family="Times,serif" font-size="14.00" fill="#000000">FunFactComponent</text>
</g>
<!-- FunFactComponent&#45;&gt;HomeModule -->
<g id="edge32" class="edge">
<title>FunFactComponent&#45;&gt;HomeModule</title>
<path fill="none" stroke="#000000" d="M1113.665,-122.207C1113.665,-127.5549 1113.665,-132 1113.665,-132 1113.665,-132 2304.6269,-132 2304.6269,-132 2304.6269,-132 2304.6269,-151.8533 2304.6269,-151.8533"/>
<polygon fill="#000000" stroke="#000000" points="2301.127,-151.8532 2304.6269,-161.8533 2308.127,-151.8533 2301.127,-151.8532"/>
</g>
<!-- HomeComponent -->
<g id="node36" class="node">
<title>HomeComponent</title>
<polygon fill="#ffffb3" stroke="#000000" points="1003.5451,-122 888.4549,-122 888.4549,-86 1003.5451,-86 1003.5451,-122"/>
<text text-anchor="middle" x="946" y="-99.8" font-family="Times,serif" font-size="14.00" fill="#000000">HomeComponent</text>
</g>
<!-- HomeComponent&#45;&gt;HomeModule -->
<g id="edge33" class="edge">
<title>HomeComponent&#45;&gt;HomeModule</title>
<path fill="none" stroke="#000000" d="M968.6179,-122.1432C968.6179,-128.4611 968.6179,-134 968.6179,-134 968.6179,-134 2294.209,-134 2294.209,-134 2294.209,-134 2294.209,-151.8196 2294.209,-151.8196"/>
<polygon fill="#000000" stroke="#000000" points="2290.7091,-151.8195 2294.209,-161.8196 2297.7091,-151.8196 2290.7091,-151.8195"/>
</g>
<!-- JetsonComponent -->
<g id="node37" class="node">
<title>JetsonComponent</title>
<polygon fill="#ffffb3" stroke="#000000" points="870.3273,-122 753.6727,-122 753.6727,-86 870.3273,-86 870.3273,-122"/>
<text text-anchor="middle" x="812" y="-99.8" font-family="Times,serif" font-size="14.00" fill="#000000">JetsonComponent</text>
</g>
<!-- JetsonComponent&#45;&gt;HomeModule -->
<g id="edge34" class="edge">
<title>JetsonComponent&#45;&gt;HomeModule</title>
<path fill="none" stroke="#000000" d="M837.4167,-122.0449C837.4167,-129.749 837.4167,-137 837.4167,-137 837.4167,-137 2283.791,-137 2283.791,-137 2283.791,-137 2283.791,-151.5146 2283.791,-151.5146"/>
<polygon fill="#000000" stroke="#000000" points="2280.2911,-151.5145 2283.791,-161.5146 2287.2911,-151.5146 2280.2911,-151.5145"/>
</g>
<!-- ProjectsComponent -->
<g id="node38" class="node">
<title>ProjectsComponent</title>
<polygon fill="#ffffb3" stroke="#000000" points="2202.4313,-122 2075.5687,-122 2075.5687,-86 2202.4313,-86 2202.4313,-122"/>
<text text-anchor="middle" x="2139" y="-99.8" font-family="Times,serif" font-size="14.00" fill="#000000">ProjectsComponent</text>
</g>
<!-- ProjectsComponent&#45;&gt;HomeModule -->
<g id="edge35" class="edge">
<title>ProjectsComponent&#45;&gt;HomeModule</title>
<path fill="none" stroke="#000000" d="M2139,-122.1686C2139,-141.0898 2139,-168 2139,-168 2139,-168 2231.9506,-168 2231.9506,-168"/>
<polygon fill="#000000" stroke="#000000" points="2231.9507,-171.5001 2241.9506,-168 2231.9506,-164.5001 2231.9507,-171.5001"/>
</g>
<!-- RaceComponent -->
<g id="node39" class="node">
<title>RaceComponent</title>
<polygon fill="#ffffb3" stroke="#000000" points="2057.8132,-122 1948.1868,-122 1948.1868,-86 2057.8132,-86 2057.8132,-122"/>
<text text-anchor="middle" x="2003" y="-99.8" font-family="Times,serif" font-size="14.00" fill="#000000">RaceComponent</text>
</g>
<!-- RaceComponent&#45;&gt;HomeModule -->
<g id="edge36" class="edge">
<title>RaceComponent&#45;&gt;HomeModule</title>
<path fill="none" stroke="#000000" d="M2003,-122.0267C2003,-142.7672 2003,-174 2003,-174 2003,-174 2232.0932,-174 2232.0932,-174"/>
<polygon fill="#000000" stroke="#000000" points="2232.0932,-177.5001 2242.0932,-174 2232.0931,-170.5001 2232.0932,-177.5001"/>
</g>
<!-- HomeRoutingModule -->
<g id="node40" class="node">
<title>HomeRoutingModule</title>
<polygon fill="#8dd3c7" stroke="#000000" points="730.3795,-122 727.3795,-126 706.3795,-126 703.3795,-122 591.6205,-122 591.6205,-86 730.3795,-86 730.3795,-122"/>
<text text-anchor="middle" x="661" y="-99.8" font-family="Times,serif" font-size="14.00" fill="#000000">HomeRoutingModule</text>
</g>
<!-- HomeRoutingModule&#45;&gt;HomeModule -->
<g id="edge39" class="edge">
<title>HomeRoutingModule&#45;&gt;HomeModule</title>
<path fill="none" stroke="#000000" d="M694.84,-122.32C694.84,-130.7883 694.84,-139 694.84,-139 694.84,-139 2273.3731,-139 2273.3731,-139 2273.3731,-139 2273.3731,-151.8975 2273.3731,-151.8975"/>
<polygon fill="#000000" stroke="#000000" points="2269.8732,-151.8974 2273.3731,-161.8975 2276.8732,-151.8975 2269.8732,-151.8974"/>
</g>
<!-- SupportComponent -->
<g id="node42" class="node">
<title>SupportComponent</title>
<polygon fill="#ffffb3" stroke="#000000" points="3397.6666,-122 3272.3334,-122 3272.3334,-86 3397.6666,-86 3397.6666,-122"/>
<text text-anchor="middle" x="3335" y="-99.8" font-family="Times,serif" font-size="14.00" fill="#000000">SupportComponent</text>
</g>
<!-- SupportComponent&#45;&gt;SupportModule -->
<g id="edge41" class="edge">
<title>SupportComponent&#45;&gt;SupportModule</title>
<path fill="none" stroke="#000000" d="M3335,-122.1985C3335,-146.3563 3335,-186 3335,-186 3335,-186 3235.1495,-186 3235.1495,-186"/>
<polygon fill="#000000" stroke="#000000" points="3235.1496,-182.5001 3225.1495,-186 3235.1495,-189.5001 3235.1496,-182.5001"/>
</g>
<!-- SupportRoutingModule -->
<g id="node44" class="node">
<title>SupportRoutingModule</title>
<polygon fill="#8dd3c7" stroke="#000000" points="3247.5014,-122 3244.5014,-126 3223.5014,-126 3220.5014,-122 3098.4986,-122 3098.4986,-86 3247.5014,-86 3247.5014,-122"/>
<text text-anchor="middle" x="3173" y="-99.8" font-family="Times,serif" font-size="14.00" fill="#000000">SupportRoutingModule</text>
</g>
<!-- SupportRoutingModule&#45;&gt;SupportModule -->
<g id="edge43" class="edge">
<title>SupportRoutingModule&#45;&gt;SupportModule</title>
<path fill="none" stroke="#000000" d="M3190.3139,-122.0109C3190.3139,-122.0109 3190.3139,-151.855 3190.3139,-151.855"/>
<polygon fill="#000000" stroke="#000000" points="3186.814,-151.8549 3190.3139,-161.855 3193.814,-151.855 3186.814,-151.8549"/>
</g>
</g>
</svg>
