<?xml version="1.0" encoding="UTF-8" standalone="no"?>
<!DOCTYPE svg PUBLIC "-//W3C//DTD SVG 1.1//EN"
 "http://www.w3.org/Graphics/SVG/1.1/DTD/svg11.dtd">
<!-- Generated by graphviz version 2.40.1 (20161225.0304)
 -->
<!-- Title: dependencies Pages: 1 -->
<svg width="4589pt" height="360pt"
 viewBox="0.00 0.00 4589.00 360.00" xmlns="http://www.w3.org/2000/svg" xmlns:xlink="http://www.w3.org/1999/xlink">
<g id="graph0" class="graph" transform="scale(1 1) rotate(0) translate(4 356)">
<title>dependencies</title>
<polygon fill="#ffffff" stroke="transparent" points="-4,4 -4,-356 4585,-356 4585,4 -4,4"/>
<text text-anchor="start" x="2269.5091" y="-42.4" font-family="sans-serif" font-weight="bold" font-size="14.00" fill="#000000">Legend</text>
<polygon fill="#ffffb3" stroke="transparent" points="2056.5,-10 2056.5,-30 2076.5,-30 2076.5,-10 2056.5,-10"/>
<text text-anchor="start" x="2080.129" y="-15.4" font-family="sans-serif" font-size="14.00" fill="#000000"> &#160;Declarations</text>
<polygon fill="#8dd3c7" stroke="transparent" points="2169.5,-10 2169.5,-30 2189.5,-30 2189.5,-10 2169.5,-10"/>
<text text-anchor="start" x="2193.2251" y="-15.4" font-family="sans-serif" font-size="14.00" fill="#000000"> &#160;Module</text>
<polygon fill="#80b1d3" stroke="transparent" points="2255.5,-10 2255.5,-30 2275.5,-30 2275.5,-10 2255.5,-10"/>
<text text-anchor="start" x="2279.2812" y="-15.4" font-family="sans-serif" font-size="14.00" fill="#000000"> &#160;Bootstrap</text>
<polygon fill="#fdb462" stroke="transparent" points="2352.5,-10 2352.5,-30 2372.5,-30 2372.5,-10 2352.5,-10"/>
<text text-anchor="start" x="2376.1732" y="-15.4" font-family="sans-serif" font-size="14.00" fill="#000000"> &#160;Providers</text>
<polygon fill="#fb8072" stroke="transparent" points="2448.5,-10 2448.5,-30 2468.5,-30 2468.5,-10 2448.5,-10"/>
<text text-anchor="start" x="2472.2258" y="-15.4" font-family="sans-serif" font-size="14.00" fill="#000000"> &#160;Exports</text>
<g id="clust1" class="cluster">
<title>cluster_AppModule</title>
<polygon fill="none" stroke="#000000" stroke-dasharray="1,5" points="1640,-70 1640,-344 2209,-344 2209,-70 1640,-70"/>
</g>
<g id="clust2" class="cluster">
<title>cluster_AppModule_declarations</title>
<polygon fill="none" stroke="#000000" points="2079,-154 2079,-206 2201,-206 2201,-154 2079,-154"/>
</g>
<g id="clust4" class="cluster">
<title>cluster_AppModule_imports</title>
<polygon fill="none" stroke="#000000" points="1648,-78 1648,-206 2071,-206 2071,-78 1648,-78"/>
</g>
<g id="clust6" class="cluster">
<title>cluster_AppModule_bootstrap</title>
<polygon fill="none" stroke="#000000" points="1784,-284 1784,-336 1908,-336 1908,-284 1784,-284"/>
</g>
<g id="clust14" class="cluster">
<title>cluster_BlogEditorModule</title>
<polygon fill="none" stroke="#000000" stroke-dasharray="1,5" points="3501,-70 3501,-206 4027,-206 4027,-70 3501,-70"/>
</g>
<g id="clust15" class="cluster">
<title>cluster_BlogEditorModule_declarations</title>
<polygon fill="none" stroke="#000000" points="3699,-78 3699,-130 4019,-130 4019,-78 3699,-78"/>
</g>
<g id="clust18" class="cluster">
<title>cluster_BlogEditorModule_imports</title>
<polygon fill="none" stroke="#000000" points="3509,-78 3509,-130 3691,-130 3691,-78 3509,-78"/>
</g>
<g id="clust28" class="cluster">
<title>cluster_BlogModule</title>
<polygon fill="none" stroke="#000000" stroke-dasharray="1,5" points="4035,-70 4035,-206 4573,-206 4573,-70 4035,-70"/>
</g>
<g id="clust29" class="cluster">
<title>cluster_BlogModule_declarations</title>
<polygon fill="none" stroke="#000000" points="4199,-78 4199,-130 4565,-130 4565,-78 4199,-78"/>
</g>
<g id="clust33" class="cluster">
<title>cluster_BlogModule_imports</title>
<polygon fill="none" stroke="#000000" points="4043,-78 4043,-130 4191,-130 4191,-78 4043,-78"/>
</g>
<g id="clust43" class="cluster">
<title>cluster_CoreModule</title>
<polygon fill="none" stroke="#000000" stroke-dasharray="1,5" points="2217,-146 2217,-214 3109,-214 3109,-146 2217,-146"/>
</g>
<g id="clust44" class="cluster">
<title>cluster_CoreModule_declarations</title>
<polygon fill="none" stroke="#000000" points="2673,-154 2673,-206 3101,-206 3101,-154 2673,-154"/>
</g>
<g id="clust49" class="cluster">
<title>cluster_CoreModule_exports</title>
<polygon fill="none" stroke="#000000" points="2225,-154 2225,-206 2665,-206 2665,-154 2225,-154"/>
</g>
<g id="clust52" class="cluster">
<title>cluster_FragmentPolyfillModule</title>
<polygon fill="none" stroke="#000000" stroke-dasharray="1,5" points="3117,-146 3117,-214 3493,-214 3493,-146 3117,-146"/>
</g>
<g id="clust53" class="cluster">
<title>cluster_FragmentPolyfillModule_declarations</title>
<polygon fill="none" stroke="#000000" points="3311,-154 3311,-206 3485,-206 3485,-154 3311,-154"/>
</g>
<g id="clust56" class="cluster">
<title>cluster_FragmentPolyfillModule_exports</title>
<polygon fill="none" stroke="#000000" points="3125,-154 3125,-206 3303,-206 3303,-154 3125,-154"/>
</g>
<g id="clust59" class="cluster">
<title>cluster_HomeModule</title>
<polygon fill="none" stroke="#000000" stroke-dasharray="1,5" points="8,-70 8,-138 1632,-138 1632,-70 8,-70"/>
</g>
<g id="clust60" class="cluster">
<title>cluster_HomeModule_declarations</title>
<polygon fill="none" stroke="#000000" points="160,-78 160,-130 1624,-130 1624,-78 160,-78"/>
</g>
<g id="clust72" class="cluster">
<title>cluster_HomeModule_exports</title>
<polygon fill="none" stroke="#000000" points="16,-78 16,-130 152,-130 152,-78 16,-78"/>
</g>
<!-- AppComponent -->
<g id="node1" class="node">
<title>AppComponent</title>
<polygon fill="#ffffb3" stroke="#000000" points="2192.9399,-198 2087.0601,-198 2087.0601,-162 2192.9399,-162 2192.9399,-198"/>
<text text-anchor="middle" x="2140" y="-175.8" font-family="Times,serif" font-size="14.00" fill="#000000">AppComponent</text>
</g>
<!-- AppModule -->
<g id="node2" class="node">
<title>AppModule</title>
<polygon fill="#8dd3c7" stroke="#000000" points="1887.6571,-263 1884.6571,-267 1863.6571,-267 1860.6571,-263 1804.3429,-263 1804.3429,-227 1887.6571,-227 1887.6571,-263"/>
<text text-anchor="middle" x="1846" y="-240.8" font-family="Times,serif" font-size="14.00" fill="#000000">AppModule</text>
</g>
<!-- AppComponent&#45;&gt;AppModule -->
<g id="edge1" class="edge">
<title>AppComponent&#45;&gt;AppModule</title>
<path fill="none" stroke="#000000" d="M2087.2764,-180C2011.1466,-180 1879.4626,-180 1879.4626,-180 1879.4626,-180 1879.4626,-216.8939 1879.4626,-216.8939"/>
<polygon fill="#000000" stroke="#000000" points="1875.9627,-216.8938 1879.4626,-226.8939 1882.9627,-216.8939 1875.9627,-216.8938"/>
</g>
<!-- AppComponent  -->
<g id="node7" class="node">
<title>AppComponent </title>
<polygon fill="#80b1d3" stroke="#000000" points="1900.439,-328 1791.561,-328 1791.561,-292 1900.439,-292 1900.439,-328"/>
<text text-anchor="middle" x="1846" y="-305.8" font-family="Times,serif" font-size="14.00" fill="#000000">AppComponent </text>
</g>
<!-- AppModule&#45;&gt;AppComponent  -->
<g id="edge6" class="edge">
<title>AppModule&#45;&gt;AppComponent </title>
<path fill="none" stroke="#000000" stroke-dasharray="1,5" d="M1846,-263.1061C1846,-263.1061 1846,-281.991 1846,-281.991"/>
<polygon fill="#000000" stroke="#000000" points="1842.5001,-281.9909 1846,-291.991 1849.5001,-281.991 1842.5001,-281.9909"/>
</g>
<!-- AppRoutingModule -->
<g id="node3" class="node">
<title>AppRoutingModule</title>
<polygon fill="#8dd3c7" stroke="#000000" points="1784.2744,-122 1781.2744,-126 1760.2744,-126 1757.2744,-122 1655.7256,-122 1655.7256,-86 1784.2744,-86 1784.2744,-122"/>
<text text-anchor="middle" x="1720" y="-99.8" font-family="Times,serif" font-size="14.00" fill="#000000">AppRoutingModule</text>
</g>
<!-- AppRoutingModule&#45;&gt;AppModule -->
<g id="edge2" class="edge">
<title>AppRoutingModule&#45;&gt;AppModule</title>
<path fill="none" stroke="#000000" d="M1767.134,-122.1446C1767.134,-160.2265 1767.134,-245 1767.134,-245 1767.134,-245 1794.2576,-245 1794.2576,-245"/>
<polygon fill="#000000" stroke="#000000" points="1794.2577,-248.5001 1804.2576,-245 1794.2576,-241.5001 1794.2577,-248.5001"/>
</g>
<!-- CoreModule -->
<g id="node4" class="node">
<title>CoreModule</title>
<polygon fill="#8dd3c7" stroke="#000000" points="1889.2619,-122 1886.2619,-126 1865.2619,-126 1862.2619,-122 1802.7381,-122 1802.7381,-86 1889.2619,-86 1889.2619,-122"/>
<text text-anchor="middle" x="1846" y="-99.8" font-family="Times,serif" font-size="14.00" fill="#000000">CoreModule</text>
</g>
<!-- CoreModule&#45;&gt;AppModule -->
<g id="edge3" class="edge">
<title>CoreModule&#45;&gt;AppModule</title>
<path fill="none" stroke="#000000" d="M1871.0969,-122.1446C1871.0969,-122.1446 1871.0969,-216.925 1871.0969,-216.925"/>
<polygon fill="#000000" stroke="#000000" points="1867.597,-216.925 1871.0969,-226.925 1874.597,-216.925 1867.597,-216.925"/>
</g>
<!-- EmailSignupComponent  -->
<g id="node20" class="node">
<title>EmailSignupComponent </title>
<polygon fill="#fb8072" stroke="#000000" points="2656.9446,-198 2499.0554,-198 2499.0554,-162 2656.9446,-162 2656.9446,-198"/>
<text text-anchor="middle" x="2578" y="-175.8" font-family="Times,serif" font-size="14.00" fill="#000000">EmailSignupComponent </text>
</g>
<!-- CoreModule&#45;&gt;EmailSignupComponent  -->
<g id="edge17" class="edge">
<title>CoreModule&#45;&gt;EmailSignupComponent </title>
<path fill="none" stroke="#000000" stroke-dasharray="5,2" d="M1854.3656,-122.1025C1854.3656,-133.0859 1854.3656,-145 1854.3656,-145 1854.3656,-145 2578,-145 2578,-145 2578,-145 2578,-151.68 2578,-151.68"/>
<polygon fill="#000000" stroke="#000000" points="2574.5001,-151.6799 2578,-161.68 2581.5001,-151.68 2574.5001,-151.6799"/>
</g>
<!-- FooterComponent  -->
<g id="node21" class="node">
<title>FooterComponent </title>
<polygon fill="#fb8072" stroke="#000000" points="2480.8814,-198 2359.1186,-198 2359.1186,-162 2480.8814,-162 2480.8814,-198"/>
<text text-anchor="middle" x="2420" y="-175.8" font-family="Times,serif" font-size="14.00" fill="#000000">FooterComponent </text>
</g>
<!-- CoreModule&#45;&gt;FooterComponent  -->
<g id="edge18" class="edge">
<title>CoreModule&#45;&gt;FooterComponent </title>
<path fill="none" stroke="#000000" stroke-dasharray="5,2" d="M1846,-122.037C1846,-135.2913 1846,-151 1846,-151 1846,-151 2420,-151 2420,-151 2420,-151 2420,-152.0799 2420,-152.0799"/>
<polygon fill="#000000" stroke="#000000" points="2416.5001,-151.7985 2420,-161.7985 2423.5001,-151.7986 2416.5001,-151.7985"/>
</g>
<!-- NavComponent  -->
<g id="node22" class="node">
<title>NavComponent </title>
<polygon fill="#fb8072" stroke="#000000" points="2341.1537,-198 2232.8463,-198 2232.8463,-162 2341.1537,-162 2341.1537,-198"/>
<text text-anchor="middle" x="2287" y="-175.8" font-family="Times,serif" font-size="14.00" fill="#000000">NavComponent </text>
</g>
<!-- CoreModule&#45;&gt;NavComponent  -->
<g id="edge19" class="edge">
<title>CoreModule&#45;&gt;NavComponent </title>
<path fill="none" stroke="#000000" stroke-dasharray="5,2" d="M1837.6344,-122.2396C1837.6344,-137.5706 1837.6344,-157 1837.6344,-157 1837.6344,-157 2287,-157 2287,-157 2287,-157 2287,-157.4878 2287,-157.4878"/>
<polygon fill="#000000" stroke="#000000" points="2283.5002,-151.8776 2287,-161.8777 2290.5002,-151.8778 2283.5002,-151.8776"/>
</g>
<!-- FragmentPolyfillModule -->
<g id="node5" class="node">
<title>FragmentPolyfillModule</title>
<polygon fill="#8dd3c7" stroke="#000000" points="2062.7091,-122 2059.7091,-126 2038.7091,-126 2035.7091,-122 1907.2909,-122 1907.2909,-86 2062.7091,-86 2062.7091,-122"/>
<text text-anchor="middle" x="1985" y="-99.8" font-family="Times,serif" font-size="14.00" fill="#000000">FragmentPolyfillModule</text>
</g>
<!-- FragmentPolyfillModule&#45;&gt;AppModule -->
<g id="edge4" class="edge">
<title>FragmentPolyfillModule&#45;&gt;AppModule</title>
<path fill="none" stroke="#000000" d="M2010.8682,-122.1446C2010.8682,-160.2265 2010.8682,-245 2010.8682,-245 2010.8682,-245 1898.0298,-245 1898.0298,-245"/>
<polygon fill="#000000" stroke="#000000" points="1898.0298,-241.5001 1888.0298,-245 1898.0297,-248.5001 1898.0298,-241.5001"/>
</g>
<!-- HomeModule -->
<g id="node6" class="node">
<title>HomeModule</title>
<polygon fill="#8dd3c7" stroke="#000000" points="1749.7619,-198 1746.7619,-202 1725.7619,-202 1722.7619,-198 1656.2381,-198 1656.2381,-162 1749.7619,-162 1749.7619,-198"/>
<text text-anchor="middle" x="1703" y="-175.8" font-family="Times,serif" font-size="14.00" fill="#000000">HomeModule</text>
</g>
<!-- FragmentPolyfillModule&#45;&gt;HomeModule -->
<g id="edge32" class="edge">
<title>FragmentPolyfillModule&#45;&gt;HomeModule</title>
<path fill="none" stroke="#000000" d="M1959.1318,-122.308C1959.1318,-142.1455 1959.1318,-171 1959.1318,-171 1959.1318,-171 1759.9785,-171 1759.9785,-171"/>
<polygon fill="#000000" stroke="#000000" points="1759.9786,-167.5001 1749.9785,-171 1759.9785,-174.5001 1759.9786,-167.5001"/>
</g>
<!-- FragmentTargetDirective  -->
<g id="node24" class="node">
<title>FragmentTargetDirective </title>
<polygon fill="#fb8072" stroke="#000000" points="3294.7696,-198 3133.2304,-198 3133.2304,-162 3294.7696,-162 3294.7696,-198"/>
<text text-anchor="middle" x="3214" y="-175.8" font-family="Times,serif" font-size="14.00" fill="#000000">FragmentTargetDirective </text>
</g>
<!-- FragmentPolyfillModule&#45;&gt;FragmentTargetDirective  -->
<g id="edge21" class="edge">
<title>FragmentPolyfillModule&#45;&gt;FragmentTargetDirective </title>
<path fill="none" stroke="#000000" stroke-dasharray="5,2" d="M2062.8118,-110C2332.9711,-110 3214,-110 3214,-110 3214,-110 3214,-151.9733 3214,-151.9733"/>
<polygon fill="#000000" stroke="#000000" points="3210.5001,-151.9732 3214,-161.9733 3217.5001,-151.9733 3210.5001,-151.9732"/>
</g>
<!-- HomeModule&#45;&gt;AppModule -->
<g id="edge5" class="edge">
<title>HomeModule&#45;&gt;AppModule</title>
<path fill="none" stroke="#000000" d="M1750.0607,-189C1797.1775,-189 1862.7313,-189 1862.7313,-189 1862.7313,-189 1862.7313,-216.973 1862.7313,-216.973"/>
<polygon fill="#000000" stroke="#000000" points="1859.2314,-216.973 1862.7313,-226.973 1866.2314,-216.973 1859.2314,-216.973"/>
</g>
<!-- HomeComponent  -->
<g id="node35" class="node">
<title>HomeComponent </title>
<polygon fill="#fb8072" stroke="#000000" points="143.5442,-122 24.4558,-122 24.4558,-86 143.5442,-86 143.5442,-122"/>
<text text-anchor="middle" x="84" y="-99.8" font-family="Times,serif" font-size="14.00" fill="#000000">HomeComponent </text>
</g>
<!-- HomeModule&#45;&gt;HomeComponent  -->
<g id="edge33" class="edge">
<title>HomeModule&#45;&gt;HomeComponent </title>
<path fill="none" stroke="#000000" stroke-dasharray="5,2" d="M1655.8588,-195C1389.4204,-195 84,-195 84,-195 84,-195 84,-132.4152 84,-132.4152"/>
<polygon fill="#000000" stroke="#000000" points="87.5001,-132.4152 84,-122.4152 80.5001,-132.4152 87.5001,-132.4152"/>
</g>
<!-- EditorPostComponent -->
<g id="node8" class="node">
<title>EditorPostComponent</title>
<polygon fill="#ffffb3" stroke="#000000" points="3847.4453,-122 3706.5547,-122 3706.5547,-86 3847.4453,-86 3847.4453,-122"/>
<text text-anchor="middle" x="3777" y="-99.8" font-family="Times,serif" font-size="14.00" fill="#000000">EditorPostComponent</text>
</g>
<!-- BlogEditorModule -->
<g id="node10" class="node">
<title>BlogEditorModule</title>
<polygon fill="#8dd3c7" stroke="#000000" points="3837.7716,-198 3834.7716,-202 3813.7716,-202 3810.7716,-198 3716.2284,-198 3716.2284,-162 3837.7716,-162 3837.7716,-198"/>
<text text-anchor="middle" x="3777" y="-175.8" font-family="Times,serif" font-size="14.00" fill="#000000">BlogEditorModule</text>
</g>
<!-- EditorPostComponent&#45;&gt;BlogEditorModule -->
<g id="edge7" class="edge">
<title>EditorPostComponent&#45;&gt;BlogEditorModule</title>
<path fill="none" stroke="#000000" d="M3777,-122.0109C3777,-122.0109 3777,-151.855 3777,-151.855"/>
<polygon fill="#000000" stroke="#000000" points="3773.5001,-151.8549 3777,-161.855 3780.5001,-151.855 3773.5001,-151.8549"/>
</g>
<!-- EditorPostsComponent -->
<g id="node9" class="node">
<title>EditorPostsComponent</title>
<polygon fill="#ffffb3" stroke="#000000" points="4010.8892,-122 3865.1108,-122 3865.1108,-86 4010.8892,-86 4010.8892,-122"/>
<text text-anchor="middle" x="3938" y="-99.8" font-family="Times,serif" font-size="14.00" fill="#000000">EditorPostsComponent</text>
</g>
<!-- EditorPostsComponent&#45;&gt;BlogEditorModule -->
<g id="edge8" class="edge">
<title>EditorPostsComponent&#45;&gt;BlogEditorModule</title>
<path fill="none" stroke="#000000" d="M3938,-122.1985C3938,-146.3563 3938,-186 3938,-186 3938,-186 3847.8672,-186 3847.8672,-186"/>
<polygon fill="#000000" stroke="#000000" points="3847.8672,-182.5001 3837.8672,-186 3847.8672,-189.5001 3847.8672,-182.5001"/>
</g>
<!-- BlogEditorRoutingModule -->
<g id="node11" class="node">
<title>BlogEditorRoutingModule</title>
<polygon fill="#8dd3c7" stroke="#000000" points="3683.3892,-122 3680.3892,-126 3659.3892,-126 3656.3892,-122 3516.6108,-122 3516.6108,-86 3683.3892,-86 3683.3892,-122"/>
<text text-anchor="middle" x="3600" y="-99.8" font-family="Times,serif" font-size="14.00" fill="#000000">BlogEditorRoutingModule</text>
</g>
<!-- BlogEditorRoutingModule&#45;&gt;BlogEditorModule -->
<g id="edge9" class="edge">
<title>BlogEditorRoutingModule&#45;&gt;BlogEditorModule</title>
<path fill="none" stroke="#000000" d="M3600,-122.0109C3600,-144.4852 3600,-180 3600,-180 3600,-180 3706.0866,-180 3706.0866,-180"/>
<polygon fill="#000000" stroke="#000000" points="3706.0867,-183.5001 3716.0866,-180 3706.0866,-176.5001 3706.0867,-183.5001"/>
</g>
<!-- AllComponent -->
<g id="node12" class="node">
<title>AllComponent</title>
<polygon fill="#ffffb3" stroke="#000000" points="4556.7204,-122 4457.2796,-122 4457.2796,-86 4556.7204,-86 4556.7204,-122"/>
<text text-anchor="middle" x="4507" y="-99.8" font-family="Times,serif" font-size="14.00" fill="#000000">AllComponent</text>
</g>
<!-- BlogModule -->
<g id="node15" class="node">
<title>BlogModule</title>
<polygon fill="#8dd3c7" stroke="#000000" points="4365.2773,-198 4362.2773,-202 4341.2773,-202 4338.2773,-198 4278.7227,-198 4278.7227,-162 4365.2773,-162 4365.2773,-198"/>
<text text-anchor="middle" x="4322" y="-175.8" font-family="Times,serif" font-size="14.00" fill="#000000">BlogModule</text>
</g>
<!-- AllComponent&#45;&gt;BlogModule -->
<g id="edge10" class="edge">
<title>AllComponent&#45;&gt;BlogModule</title>
<path fill="none" stroke="#000000" d="M4507,-122.0109C4507,-144.4852 4507,-180 4507,-180 4507,-180 4375.3743,-180 4375.3743,-180"/>
<polygon fill="#000000" stroke="#000000" points="4375.3743,-176.5001 4365.3743,-180 4375.3742,-183.5001 4375.3743,-176.5001"/>
</g>
<!-- CardComponent -->
<g id="node13" class="node">
<title>CardComponent</title>
<polygon fill="#ffffb3" stroke="#000000" points="4439.0452,-122 4330.9548,-122 4330.9548,-86 4439.0452,-86 4439.0452,-122"/>
<text text-anchor="middle" x="4385" y="-99.8" font-family="Times,serif" font-size="14.00" fill="#000000">CardComponent</text>
</g>
<!-- CardComponent&#45;&gt;BlogModule -->
<g id="edge11" class="edge">
<title>CardComponent&#45;&gt;BlogModule</title>
<path fill="none" stroke="#000000" d="M4348.0582,-122.0109C4348.0582,-122.0109 4348.0582,-151.855 4348.0582,-151.855"/>
<polygon fill="#000000" stroke="#000000" points="4344.5583,-151.8549 4348.0582,-161.855 4351.5583,-151.855 4344.5583,-151.8549"/>
</g>
<!-- PostComponent -->
<g id="node14" class="node">
<title>PostComponent</title>
<polygon fill="#ffffb3" stroke="#000000" points="4312.9512,-122 4207.0488,-122 4207.0488,-86 4312.9512,-86 4312.9512,-122"/>
<text text-anchor="middle" x="4260" y="-99.8" font-family="Times,serif" font-size="14.00" fill="#000000">PostComponent</text>
</g>
<!-- PostComponent&#45;&gt;BlogModule -->
<g id="edge12" class="edge">
<title>PostComponent&#45;&gt;BlogModule</title>
<path fill="none" stroke="#000000" d="M4295.6683,-122.0109C4295.6683,-122.0109 4295.6683,-151.855 4295.6683,-151.855"/>
<polygon fill="#000000" stroke="#000000" points="4292.1684,-151.8549 4295.6683,-161.855 4299.1684,-151.855 4292.1684,-151.8549"/>
</g>
<!-- BlogRoutingModule -->
<g id="node16" class="node">
<title>BlogRoutingModule</title>
<polygon fill="#8dd3c7" stroke="#000000" points="4182.8948,-122 4179.8948,-126 4158.8948,-126 4155.8948,-122 4051.1052,-122 4051.1052,-86 4182.8948,-86 4182.8948,-122"/>
<text text-anchor="middle" x="4117" y="-99.8" font-family="Times,serif" font-size="14.00" fill="#000000">BlogRoutingModule</text>
</g>
<!-- BlogRoutingModule&#45;&gt;BlogModule -->
<g id="edge13" class="edge">
<title>BlogRoutingModule&#45;&gt;BlogModule</title>
<path fill="none" stroke="#000000" d="M4117,-122.0267C4117,-142.7672 4117,-174 4117,-174 4117,-174 4268.5248,-174 4268.5248,-174"/>
<polygon fill="#000000" stroke="#000000" points="4268.5248,-177.5001 4278.5248,-174 4268.5247,-170.5001 4268.5248,-177.5001"/>
</g>
<!-- EmailSignupComponent -->
<g id="node17" class="node">
<title>EmailSignupComponent</title>
<polygon fill="#ffffb3" stroke="#000000" points="3093.4452,-198 2938.5548,-198 2938.5548,-162 3093.4452,-162 3093.4452,-198"/>
<text text-anchor="middle" x="3016" y="-175.8" font-family="Times,serif" font-size="14.00" fill="#000000">EmailSignupComponent</text>
</g>
<!-- EmailSignupComponent&#45;&gt;CoreModule -->
<g id="edge14" class="edge">
<title>EmailSignupComponent&#45;&gt;CoreModule</title>
<path fill="none" stroke="#000000" d="M3016,-161.8129C3016,-146.8176 3016,-128 3016,-128 3016,-128 1829.2687,-128 1829.2687,-128 1829.2687,-128 1829.2687,-127.419 1829.2687,-127.419"/>
<polygon fill="#000000" stroke="#000000" points="1832.7689,-132.1902 1829.2687,-122.1903 1825.7689,-132.1903 1832.7689,-132.1902"/>
</g>
<!-- FooterComponent -->
<g id="node18" class="node">
<title>FooterComponent</title>
<polygon fill="#ffffb3" stroke="#000000" points="2920.8809,-198 2803.1191,-198 2803.1191,-162 2920.8809,-162 2920.8809,-198"/>
<text text-anchor="middle" x="2862" y="-175.8" font-family="Times,serif" font-size="14.00" fill="#000000">FooterComponent</text>
</g>
<!-- FooterComponent&#45;&gt;CoreModule -->
<g id="edge15" class="edge">
<title>FooterComponent&#45;&gt;CoreModule</title>
<path fill="none" stroke="#000000" d="M2862,-161.8196C2862,-148.9618 2862,-134 2862,-134 2862,-134 1820.9031,-134 1820.9031,-134 1820.9031,-134 1820.9031,-132.1432 1820.9031,-132.1432"/>
<polygon fill="#000000" stroke="#000000" points="1824.4032,-132.1432 1820.9031,-122.1432 1817.4032,-132.1432 1824.4032,-132.1432"/>
</g>
<!-- NavComponent -->
<g id="node19" class="node">
<title>NavComponent</title>
<polygon fill="#ffffb3" stroke="#000000" points="2785.1542,-198 2680.8458,-198 2680.8458,-162 2785.1542,-162 2785.1542,-198"/>
<text text-anchor="middle" x="2733" y="-175.8" font-family="Times,serif" font-size="14.00" fill="#000000">NavComponent</text>
</g>
<!-- NavComponent&#45;&gt;CoreModule -->
<g id="edge16" class="edge">
<title>NavComponent&#45;&gt;CoreModule</title>
<path fill="none" stroke="#000000" d="M2733,-161.8726C2733,-151.2891 2733,-140 2733,-140 2733,-140 1812.5374,-140 1812.5374,-140 1812.5374,-140 1812.5374,-132.4218 1812.5374,-132.4218"/>
<polygon fill="#000000" stroke="#000000" points="1816.0375,-132.4218 1812.5374,-122.4218 1809.0375,-132.4219 1816.0375,-132.4218"/>
</g>
<!-- FragmentTargetDirective -->
<g id="node23" class="node">
<title>FragmentTargetDirective</title>
<polygon fill="#ffffb3" stroke="#000000" points="3477.2696,-198 3318.7304,-198 3318.7304,-162 3477.2696,-162 3477.2696,-198"/>
<text text-anchor="middle" x="3398" y="-175.8" font-family="Times,serif" font-size="14.00" fill="#000000">FragmentTargetDirective</text>
</g>
<!-- FragmentTargetDirective&#45;&gt;FragmentPolyfillModule -->
<g id="edge20" class="edge">
<title>FragmentTargetDirective&#45;&gt;FragmentPolyfillModule</title>
<path fill="none" stroke="#000000" d="M3398,-161.8015C3398,-137.6437 3398,-98 3398,-98 3398,-98 2072.7289,-98 2072.7289,-98"/>
<polygon fill="#000000" stroke="#000000" points="2072.7289,-94.5001 2062.7289,-98 2072.7288,-101.5001 2072.7289,-94.5001"/>
</g>
<!-- BannerComponent -->
<g id="node25" class="node">
<title>BannerComponent</title>
<polygon fill="#ffffb3" stroke="#000000" points="1209.759,-122 1088.241,-122 1088.241,-86 1209.759,-86 1209.759,-122"/>
<text text-anchor="middle" x="1149" y="-99.8" font-family="Times,serif" font-size="14.00" fill="#000000">BannerComponent</text>
</g>
<!-- BannerComponent&#45;&gt;HomeModule -->
<g id="edge22" class="edge">
<title>BannerComponent&#45;&gt;HomeModule</title>
<path fill="none" stroke="#000000" d="M1149,-122.0267C1149,-142.7672 1149,-174 1149,-174 1149,-174 1645.7663,-174 1645.7663,-174"/>
<polygon fill="#000000" stroke="#000000" points="1645.7663,-177.5001 1655.7663,-174 1645.7662,-170.5001 1645.7663,-177.5001"/>
</g>
<!-- BlogComponent -->
<g id="node26" class="node">
<title>BlogComponent</title>
<polygon fill="#ffffb3" stroke="#000000" points="1070.0605,-122 961.9395,-122 961.9395,-86 1070.0605,-86 1070.0605,-122"/>
<text text-anchor="middle" x="1016" y="-99.8" font-family="Times,serif" font-size="14.00" fill="#000000">BlogComponent</text>
</g>
<!-- BlogComponent&#45;&gt;HomeModule -->
<g id="edge23" class="edge">
<title>BlogComponent&#45;&gt;HomeModule</title>
<path fill="none" stroke="#000000" d="M1016,-122.0449C1016,-143.6623 1016,-177 1016,-177 1016,-177 1646.0501,-177 1646.0501,-177"/>
<polygon fill="#000000" stroke="#000000" points="1646.0501,-180.5001 1656.0501,-177 1646.0501,-173.5001 1646.0501,-180.5001"/>
</g>
<!-- ClubMembersComponent -->
<g id="node27" class="node">
<title>ClubMembersComponent</title>
<polygon fill="#ffffb3" stroke="#000000" points="943.9298,-122 782.0702,-122 782.0702,-86 943.9298,-86 943.9298,-122"/>
<text text-anchor="middle" x="863" y="-99.8" font-family="Times,serif" font-size="14.00" fill="#000000">ClubMembersComponent</text>
</g>
<!-- ClubMembersComponent&#45;&gt;HomeModule -->
<g id="edge24" class="edge">
<title>ClubMembersComponent&#45;&gt;HomeModule</title>
<path fill="none" stroke="#000000" d="M863,-122.0109C863,-144.4852 863,-180 863,-180 863,-180 1646.038,-180 1646.038,-180"/>
<polygon fill="#000000" stroke="#000000" points="1646.0381,-183.5001 1656.038,-180 1646.038,-176.5001 1646.0381,-183.5001"/>
</g>
<!-- DeepracerComponent -->
<g id="node28" class="node">
<title>DeepracerComponent</title>
<polygon fill="#ffffb3" stroke="#000000" points="764.3333,-122 625.6667,-122 625.6667,-86 764.3333,-86 764.3333,-122"/>
<text text-anchor="middle" x="695" y="-99.8" font-family="Times,serif" font-size="14.00" fill="#000000">DeepracerComponent</text>
</g>
<!-- DeepracerComponent&#45;&gt;HomeModule -->
<g id="edge25" class="edge">
<title>DeepracerComponent&#45;&gt;HomeModule</title>
<path fill="none" stroke="#000000" d="M695,-122.3228C695,-145.6602 695,-183 695,-183 695,-183 1646.0694,-183 1646.0694,-183"/>
<polygon fill="#000000" stroke="#000000" points="1646.0694,-186.5001 1656.0694,-183 1646.0694,-179.5001 1646.0694,-186.5001"/>
</g>
<!-- FounderLetterComponent -->
<g id="node29" class="node">
<title>FounderLetterComponent</title>
<polygon fill="#ffffb3" stroke="#000000" points="607.9143,-122 446.0857,-122 446.0857,-86 607.9143,-86 607.9143,-122"/>
<text text-anchor="middle" x="527" y="-99.8" font-family="Times,serif" font-size="14.00" fill="#000000">FounderLetterComponent</text>
</g>
<!-- FounderLetterComponent&#45;&gt;HomeModule -->
<g id="edge26" class="edge">
<title>FounderLetterComponent&#45;&gt;HomeModule</title>
<path fill="none" stroke="#000000" d="M527,-122.1985C527,-146.3563 527,-186 527,-186 527,-186 1646.1737,-186 1646.1737,-186"/>
<polygon fill="#000000" stroke="#000000" points="1646.1737,-189.5001 1656.1737,-186 1646.1737,-182.5001 1646.1737,-189.5001"/>
</g>
<!-- FunFactComponent -->
<g id="node30" class="node">
<title>FunFactComponent</title>
<polygon fill="#ffffb3" stroke="#000000" points="428.7176,-122 301.2824,-122 301.2824,-86 428.7176,-86 428.7176,-122"/>
<text text-anchor="middle" x="365" y="-99.8" font-family="Times,serif" font-size="14.00" fill="#000000">FunFactComponent</text>
</g>
<!-- FunFactComponent&#45;&gt;HomeModule -->
<g id="edge27" class="edge">
<title>FunFactComponent&#45;&gt;HomeModule</title>
<path fill="none" stroke="#000000" d="M365,-122.0263C365,-146.9773 365,-189 365,-189 365,-189 1646.1644,-189 1646.1644,-189"/>
<polygon fill="#000000" stroke="#000000" points="1646.1644,-192.5001 1656.1644,-189 1646.1644,-185.5001 1646.1644,-192.5001"/>
</g>
<!-- HomeComponent -->
<g id="node31" class="node">
<title>HomeComponent</title>
<polygon fill="#ffffb3" stroke="#000000" points="283.5451,-122 168.4549,-122 168.4549,-86 283.5451,-86 283.5451,-122"/>
<text text-anchor="middle" x="226" y="-99.8" font-family="Times,serif" font-size="14.00" fill="#000000">HomeComponent</text>
</g>
<!-- HomeComponent&#45;&gt;HomeModule -->
<g id="edge28" class="edge">
<title>HomeComponent&#45;&gt;HomeModule</title>
<path fill="none" stroke="#000000" d="M226,-122.2337C226,-148.0094 226,-192 226,-192 226,-192 1645.9445,-192 1645.9445,-192"/>
<polygon fill="#000000" stroke="#000000" points="1645.9445,-195.5001 1655.9445,-192 1645.9444,-188.5001 1645.9445,-195.5001"/>
</g>
<!-- JetsonComponent -->
<g id="node32" class="node">
<title>JetsonComponent</title>
<polygon fill="#ffffb3" stroke="#000000" points="1616.3273,-122 1499.6727,-122 1499.6727,-86 1616.3273,-86 1616.3273,-122"/>
<text text-anchor="middle" x="1558" y="-99.8" font-family="Times,serif" font-size="14.00" fill="#000000">JetsonComponent</text>
</g>
<!-- JetsonComponent&#45;&gt;HomeModule -->
<g id="edge29" class="edge">
<title>JetsonComponent&#45;&gt;HomeModule</title>
<path fill="none" stroke="#000000" d="M1558,-122.302C1558,-140.2699 1558,-165 1558,-165 1558,-165 1645.9227,-165 1645.9227,-165"/>
<polygon fill="#000000" stroke="#000000" points="1645.9227,-168.5001 1655.9227,-165 1645.9226,-161.5001 1645.9227,-168.5001"/>
</g>
<!-- ProjectsComponent -->
<g id="node33" class="node">
<title>ProjectsComponent</title>
<polygon fill="#ffffb3" stroke="#000000" points="1482.4313,-122 1355.5687,-122 1355.5687,-86 1482.4313,-86 1482.4313,-122"/>
<text text-anchor="middle" x="1419" y="-99.8" font-family="Times,serif" font-size="14.00" fill="#000000">ProjectsComponent</text>
</g>
<!-- ProjectsComponent&#45;&gt;HomeModule -->
<g id="edge30" class="edge">
<title>ProjectsComponent&#45;&gt;HomeModule</title>
<path fill="none" stroke="#000000" d="M1419,-122.1686C1419,-141.0898 1419,-168 1419,-168 1419,-168 1646.1032,-168 1646.1032,-168"/>
<polygon fill="#000000" stroke="#000000" points="1646.1032,-171.5001 1656.1032,-168 1646.1031,-164.5001 1646.1032,-171.5001"/>
</g>
<!-- RaceComponent -->
<g id="node34" class="node">
<title>RaceComponent</title>
<polygon fill="#ffffb3" stroke="#000000" points="1337.8132,-122 1228.1868,-122 1228.1868,-86 1337.8132,-86 1337.8132,-122"/>
<text text-anchor="middle" x="1283" y="-99.8" font-family="Times,serif" font-size="14.00" fill="#000000">RaceComponent</text>
</g>
<!-- RaceComponent&#45;&gt;HomeModule -->
<g id="edge31" class="edge">
<title>RaceComponent&#45;&gt;HomeModule</title>
<path fill="none" stroke="#000000" d="M1283,-122.308C1283,-142.1455 1283,-171 1283,-171 1283,-171 1646.0432,-171 1646.0432,-171"/>
<polygon fill="#000000" stroke="#000000" points="1646.0432,-174.5001 1656.0432,-171 1646.0432,-167.5001 1646.0432,-174.5001"/>
</g>
</g>
</svg>
