<svg width="230" height="230" viewBox="0 0 230 230" fill="none" xmlns="http://www.w3.org/2000/svg">
<circle cx="115" cy="115" r="115" fill="#2E3967"/>
<path d="M178.934 53C178.934 53 178.934 53 178.933 53H59.0667C57.9256 52.9997 57.0003 53.9246 57 55.0656C57 55.0659 57 55.0664 57 55.0667V96.4H61.1333V57.1333H176.867V102.6H104.533V106.733H178.933C180.074 106.734 181 105.809 181 104.668C181 104.667 181 104.667 181 104.667V55.0667C181 53.9256 180.075 53.0003 178.934 53Z" fill="#9263D3"/>
<path d="M166.533 63.3333H125.2V67.4666H166.533V63.3333Z" fill="#9263D3"/>
<path d="M172.733 75.7334H131.4V79.8667H172.733V75.7334Z" fill="#9263D3"/>
<path d="M164.467 88.1333H123.133V92.2666H164.467V88.1333Z" fill="#9263D3"/>
<path d="M122.969 70.8182C121.554 67.4173 117.65 65.8073 114.249 67.2222C114.191 67.2465 114.133 67.2713 114.076 67.2971L97.3181 75.9901C97.9789 74.6204 98.3258 73.1205 98.3333 71.5999C98.3333 65.8931 93.7068 61.2666 88 61.2666C82.2932 61.2666 77.6667 65.8931 77.6667 71.5999C77.6744 73.843 78.4192 76.0216 79.7863 77.7999H79.7003C73.834 77.8392 68.5974 81.4861 66.5263 86.9749L61.0093 105.991C59.696 109.402 61.3968 113.233 64.8086 114.546C66.3643 115.145 68.0887 115.135 69.6374 114.518C71.4168 113.801 72.8015 112.353 73.4388 110.544L75.6 103.666V133.576C73.8216 132.209 71.6431 131.465 69.4 131.457C63.7017 131.448 59.0752 136.061 59.0667 141.759C59.0625 144.55 60.1889 147.223 62.1891 149.169C59.0147 150.791 57.0124 154.05 57 157.615V174.933C56.9997 176.074 57.9246 177 59.0656 177C59.0659 177 59.0664 177 59.0667 177H79.7333C80.8744 177 81.7997 176.075 81.8 174.934C81.8 174.934 81.8 174.934 81.8 174.933V157.615C81.7899 154.686 80.429 151.925 78.112 150.133H93.7549C91.4376 151.925 90.0767 154.686 90.0669 157.615V174.933C90.0667 176.074 90.9915 177 92.1326 177C92.1328 177 92.1333 177 92.1336 177H112.8C113.941 177 114.867 176.075 114.867 174.934C114.867 174.934 114.867 174.934 114.867 174.933V157.615C114.855 154.05 112.852 150.791 109.678 149.169C113.758 145.187 113.837 138.65 109.855 134.57C107.402 132.057 103.84 130.963 100.4 131.666V89.3885L119.373 79.5375C122.773 78.1229 124.383 74.2189 122.969 70.8182ZM88 65.3999C91.4242 65.3999 94.2 68.1757 94.2 71.5999C94.2 75.0241 91.4242 77.7999 88 77.7999C84.5773 77.7963 81.8036 75.0226 81.8 71.5999C81.8 68.1757 84.5758 65.3999 88 65.3999ZM69.4 135.59C72.8242 135.59 75.6 138.366 75.6 141.79C75.6 145.214 72.8242 147.99 69.4 147.99C65.9758 147.99 63.2 145.214 63.2 141.79C63.2036 138.367 65.9773 135.594 69.4 135.59ZM77.6667 172.867H61.1333V157.615C61.1375 154.626 63.5599 152.204 66.5493 152.2H72.2507C75.2399 152.204 77.6625 154.626 77.6667 157.615V172.867ZM110.733 157.615V172.867H94.2V157.615C94.2041 154.626 96.6265 152.204 99.616 152.2H105.317C108.307 152.204 110.729 154.626 110.733 157.615ZM102.467 135.59C105.889 135.593 108.663 138.367 108.667 141.79C108.667 145.214 105.891 147.99 102.467 147.99C99.0425 147.99 96.2667 145.214 96.2667 141.79C96.2667 138.366 99.0425 135.59 102.467 135.59ZM119.187 74.2659C118.91 74.9758 118.342 75.5331 117.627 75.7958L97.3819 86.2986C96.6968 86.6541 96.2667 87.3616 96.2667 88.1333V133.576C92.3955 136.439 91.0545 141.619 93.0509 146H90.0667V110.867H85.9333V146H78.8157C79.4037 144.701 79.7134 143.293 79.7256 141.867H79.7333V90.1999C79.7331 89.0584 78.8075 88.1333 77.6662 88.1335C76.7638 88.1338 75.9658 88.7194 75.6951 89.5805L69.524 109.218C69.0564 110.507 67.6317 111.174 66.3421 110.706C66.2517 110.673 66.1631 110.635 66.0768 110.592C64.8846 109.976 64.3785 108.537 64.9226 107.31L70.4393 88.2947C71.927 84.474 75.5997 81.9511 79.7 81.9333H94.3333C94.6645 81.9338 94.991 81.854 95.285 81.7013L115.826 71.0391C117.058 70.525 118.478 71.051 119.078 72.244C119.396 72.8727 119.436 73.6064 119.187 74.2659Z" fill="#9263D3"/>
<path d="M142.744 149.17C146.832 145.187 146.917 138.645 142.935 134.557C138.952 130.47 132.41 130.384 128.322 134.367C124.235 138.349 124.149 144.892 128.132 148.979C128.195 149.043 128.258 149.107 128.322 149.17C125.148 150.791 123.146 154.05 123.133 157.615V174.933C123.133 176.074 124.058 177 125.199 177C125.199 177 125.2 177 125.2 177H145.867C147.008 177 147.933 176.075 147.933 174.934C147.933 174.934 147.933 174.934 147.933 174.933V157.615C147.921 154.05 145.919 150.791 142.744 149.17ZM135.533 135.59C138.958 135.59 141.733 138.366 141.733 141.79C141.733 145.214 138.958 147.99 135.533 147.99C132.109 147.99 129.333 145.214 129.333 141.79C129.337 138.367 132.111 135.594 135.533 135.59ZM143.8 172.867H127.267V157.615C127.271 154.626 129.693 152.204 132.683 152.2H138.384C141.373 152.204 143.796 154.626 143.8 157.615V172.867Z" fill="#9263D3"/>
<path d="M175.811 149.17C179.899 145.187 179.984 138.645 176.001 134.557C172.019 130.47 165.477 130.384 161.389 134.367C157.301 138.349 157.216 144.892 161.199 148.979C161.261 149.043 161.325 149.107 161.389 149.17C158.215 150.791 156.212 154.05 156.2 157.615V174.933C156.2 176.074 157.125 177 158.266 177C158.266 177 158.266 177 158.267 177H178.933C180.074 177 181 176.075 181 174.934C181 174.934 181 174.934 181 174.933V157.615C180.988 154.05 178.985 150.791 175.811 149.17ZM168.6 135.59C172.024 135.59 174.8 138.366 174.8 141.79C174.8 145.214 172.024 147.99 168.6 147.99C165.176 147.99 162.4 145.214 162.4 141.79C162.404 138.367 165.177 135.594 168.6 135.59ZM176.867 172.867H160.333V157.615C160.338 154.626 162.76 152.204 165.749 152.2H171.451C174.44 152.204 176.863 154.626 176.867 157.615V172.867Z" fill="#9263D3"/>
</svg>
