<svg width="230" height="230" viewBox="0 0 230 230" fill="none" xmlns="http://www.w3.org/2000/svg">
<circle cx="115" cy="115" r="115" fill="#2E3967"/>
<path d="M165.824 67.6585H149.723V61.754C149.723 60.7843 148.937 59.9987 147.967 59.9987H82.0315C81.062 59.9987 80.2761 60.7843 80.2761 61.754V67.6585H64.1743C61.8717 67.6585 59.9987 69.5313 59.9987 71.8339V148.883C59.9987 151.185 61.8717 153.058 64.1743 153.058H102.513V166.489H85.9564C84.987 166.489 84.2011 167.275 84.2011 168.245C84.2011 169.214 84.987 170 85.9564 170H136.271C137.241 170 138.027 169.214 138.027 168.245C138.027 167.275 137.241 166.489 136.271 166.489H127.486V153.058H134.71C135.68 153.058 136.466 152.272 136.466 151.303C136.466 150.333 135.68 149.547 134.71 149.547H64.1743C63.8138 149.547 63.5093 149.243 63.5093 148.883V71.8339C63.5093 71.4734 63.8138 71.1689 64.1743 71.1689H80.2761V135.265H69.0148C68.0454 135.265 67.2594 136.051 67.2594 137.021C67.2594 137.99 68.0454 138.776 69.0148 138.776H134.711C135.68 138.776 136.466 137.99 136.466 137.021C136.466 136.051 135.68 135.265 134.711 135.265H120.929V120.919C120.929 119.95 120.143 119.164 119.174 119.164H91.3933C90.4239 119.164 89.6379 119.95 89.6379 120.919V135.265H83.7868V69.4159C83.7868 69.4113 83.7868 63.5093 83.7868 63.5093H146.212V79.5038C146.212 80.4734 146.998 81.2591 147.967 81.2591C148.937 81.2591 149.723 80.4734 149.723 79.5038V71.1692H165.825C166.185 71.1692 166.49 71.4737 166.49 71.8341V148.883C166.49 149.243 166.185 149.548 165.825 149.548H161.223C160.254 149.548 159.468 150.333 159.468 151.303C159.468 152.273 160.254 153.058 161.223 153.058H165.824C168.127 153.058 170 151.185 170 148.883V71.8339C170 69.5313 168.127 67.6585 165.824 67.6585ZM123.976 166.489H106.023V153.058H123.976V166.489ZM93.1486 122.675H117.418V135.266H93.1486V122.675Z" fill="#EE3F58"/>
<path d="M155.935 101.791C155.931 101.765 155.929 101.74 155.924 101.715C155.916 101.678 155.907 101.642 155.897 101.606C155.892 101.588 155.889 101.57 155.883 101.551C155.872 101.514 155.859 101.478 155.845 101.441C155.84 101.428 155.836 101.414 155.831 101.4L155.822 101.379C155.821 101.375 155.819 101.371 155.818 101.367L149.596 85.871C149.329 85.2058 148.684 84.7698 147.967 84.7698C147.25 84.7698 146.605 85.2058 146.338 85.871L140.116 101.369C140.113 101.376 140.103 101.4 140.103 101.4C140.097 101.415 140.093 101.43 140.087 101.445C140.074 101.48 140.061 101.515 140.051 101.551C140.045 101.57 140.041 101.589 140.036 101.608C140.027 101.643 140.017 101.678 140.01 101.715C140.005 101.74 140.003 101.766 139.999 101.791C139.994 101.822 139.989 101.851 139.985 101.882C139.98 101.939 139.977 101.997 139.977 102.054V162.01C139.977 166.416 143.561 170 147.967 170C152.373 170 155.958 166.416 155.958 162.01V102.054C155.958 101.997 155.955 101.939 155.949 101.882C155.945 101.851 155.94 101.821 155.935 101.791V101.791ZM143.487 103.809H152.447V153.939H143.487V103.809ZM147.967 91.2362L151.606 100.299H144.328L147.967 91.2362V91.2362ZM147.967 166.489C145.497 166.489 143.487 164.48 143.487 162.009V157.449H152.447V162.009C152.447 164.48 150.437 166.489 147.967 166.489Z" fill="#EE3F58"/>
<path d="M91.3933 85.2276H138.606C139.575 85.2276 140.361 84.4419 140.361 83.4722V71.1158C140.361 70.1462 139.575 69.3605 138.606 69.3605H91.3933C90.4239 69.3605 89.6379 70.1462 89.6379 71.1158V83.4722C89.6379 84.4419 90.4239 85.2276 91.3933 85.2276ZM93.1486 72.8712H136.85V81.7169H93.1486V72.8712Z" fill="#EE3F58"/>
<path d="M138.605 88.7383H91.3933C90.4239 88.7383 89.6379 89.524 89.6379 90.4936C89.6379 91.4633 90.4239 92.249 91.3933 92.249H138.606C139.575 92.249 140.361 91.4633 140.361 90.4936C140.361 89.524 139.575 88.7383 138.605 88.7383V88.7383Z" fill="#EE3F58"/>
<path d="M119.174 98.1001H91.3933C90.4239 98.1001 89.6379 98.8858 89.6379 99.8554C89.6379 100.825 90.4239 101.611 91.3933 101.611H119.174C120.143 101.611 120.929 100.825 120.929 99.8554C120.929 98.8858 120.143 98.1001 119.174 98.1001Z" fill="#EE3F58"/>
<path d="M135.049 98.1001H126.195C125.225 98.1001 124.44 98.8858 124.44 99.8554C124.44 100.825 125.225 101.611 126.195 101.611H135.049C136.018 101.611 136.804 100.825 136.804 99.8554C136.804 98.8858 136.018 98.1001 135.049 98.1001Z" fill="#EE3F58"/>
<path d="M119.174 105.121H91.3933C90.4239 105.121 89.6379 105.907 89.6379 106.877C89.6379 107.846 90.4239 108.632 91.3933 108.632H119.174C120.143 108.632 120.929 107.846 120.929 106.877C120.929 105.907 120.143 105.121 119.174 105.121Z" fill="#EE3F58"/>
<path d="M134.711 105.121H126.195C125.225 105.121 124.44 105.907 124.44 106.877C124.44 107.846 125.225 108.632 126.195 108.632H134.711C135.68 108.632 136.466 107.846 136.466 106.877C136.466 105.907 135.68 105.121 134.711 105.121Z" fill="#EE3F58"/>
<path d="M119.174 112.143H91.3933C90.4239 112.143 89.6379 112.929 89.6379 113.898C89.6379 114.868 90.4239 115.654 91.3933 115.654H119.174C120.143 115.654 120.929 114.868 120.929 113.898C120.929 112.929 120.143 112.143 119.174 112.143Z" fill="#EE3F58"/>
<path d="M134.711 112.143H126.195C125.225 112.143 124.44 112.929 124.44 113.898C124.44 114.868 125.225 115.654 126.195 115.654H134.711C135.68 115.654 136.466 114.868 136.466 113.898C136.466 112.929 135.68 112.143 134.711 112.143Z" fill="#EE3F58"/>
</svg>
