<svg width="230" height="230" viewBox="0 0 230 230" fill="none" xmlns="http://www.w3.org/2000/svg">
<circle cx="115" cy="115" r="115" fill="#2E3967"/>
<path d="M146.812 114.129C148.077 114.129 149.3 114.499 150.354 115.202L165.223 125.115C166.98 126.284 169.022 126.903 171.129 126.903H185V122.645H171.131C169.867 122.645 168.64 122.275 167.586 121.572L161.581 117.568V46H80.6774V58.7742H53V178H133.903V165.226H161.581V147.314C161.715 147.282 161.853 147.271 161.987 147.239L171.891 144.764C174.089 144.214 176.35 143.935 178.613 143.935H185V139.677H178.613C176.003 139.677 173.392 139.999 170.859 140.632L160.955 143.107C155.864 144.378 150.446 144.171 145.473 142.513L141.885 141.317C138.619 140.228 135.217 139.677 131.774 139.677H113.196C113.196 136.156 116.062 133.29 119.583 133.29H143.003C146.525 133.29 149.39 130.424 149.39 126.903C149.39 123.637 146.915 120.967 143.75 120.591L145.498 114.129H146.812ZM144.122 146.552C147.388 147.643 150.791 148.194 154.233 148.194C155.266 148.194 156.297 148.104 157.323 148.004V160.968H133.903V154.004C134.651 153.142 135.23 152.122 135.541 150.968L137.284 144.51C138.381 144.734 139.468 145 140.536 145.358L144.122 146.552ZM133.018 143.984L131.431 149.856C131.018 151.385 129.624 152.452 128.042 152.452H127.352C125.417 152.452 123.843 150.879 123.843 148.943C123.843 148.632 123.884 148.326 123.965 148.027L125.07 143.935H131.774C132.189 143.935 132.603 143.968 133.018 143.984ZM120.658 143.935L119.853 146.914C119.675 147.574 119.585 148.255 119.585 148.943C119.585 151.822 121.178 154.31 123.51 155.651L122.841 158.321L126.971 159.354L127.634 156.71H128.042C128.591 156.71 129.123 156.633 129.645 156.523V173.742H57.2581V63.0323H84.9355V50.2581H157.323V114.73L152.717 111.659C150.961 110.491 148.92 109.871 146.812 109.871H146.647L155.509 77.0862C155.687 76.426 155.777 75.7451 155.777 75.0569C155.777 70.7739 152.292 67.2903 148.01 67.2903H147.32C143.819 67.2903 140.735 69.6512 139.821 73.0319L133.903 94.9314V58.7742H89.1936V63.0323H129.645V109.871H125.241C122.923 109.871 120.741 110.639 118.917 112H97.7097V116.258H114.444L110.186 120.516H97.7097V124.774H105.93L102.372 128.332C101.116 129.585 100.424 131.255 100.424 133.033C100.424 136.697 103.404 139.677 107.071 139.677C107.727 139.677 108.359 139.552 108.972 139.369C108.97 139.473 108.94 139.571 108.94 139.677C108.94 142.026 110.85 143.935 113.198 143.935H120.658ZM137.058 129.032H129.098L138.089 95.7682L145.391 98.2018L137.058 129.032ZM120.725 115.998C121.915 114.81 123.561 114.129 125.241 114.129H128.715L126.978 120.555C124.284 120.652 121.759 121.717 119.843 123.633L108.757 134.719C108.312 135.164 107.697 135.419 107.069 135.419C105.751 135.419 104.68 134.349 104.68 133.033C104.68 132.394 104.929 131.795 105.381 131.344L120.725 115.998ZM122.854 126.643C123.658 125.839 124.682 125.29 125.775 125.004L124.686 129.032H120.467L122.854 126.643ZM151.397 75.9749L148.79 85.621L141.487 83.1874L143.931 74.1442C144.346 72.615 145.739 71.5484 147.32 71.5484H148.01C149.946 71.5484 151.519 73.1213 151.519 75.0569C151.519 75.3678 151.478 75.6744 151.397 75.9749ZM140.376 87.3051L147.679 89.7387L146.503 94.0841L139.2 91.6505L140.376 87.3051ZM143.003 124.774C144.176 124.774 145.132 125.731 145.132 126.903C145.132 128.076 144.176 129.032 143.003 129.032H141.468L142.62 124.774H143.003Z" fill="#5DD7D2"/>
<path d="M116.871 67.2903H61.5161V88.5806H116.871V67.2903ZM112.613 84.3226H65.7742V71.5484H112.613V84.3226Z" fill="#5DD7D2"/>
<path d="M70.0322 75.8064H74.2903V80.0645H70.0322V75.8064Z" fill="#5DD7D2"/>
<path d="M78.5483 75.8064H82.8064V80.0645H78.5483V75.8064Z" fill="#5DD7D2"/>
<path d="M87.0645 75.8064H91.3225V80.0645H87.0645V75.8064Z" fill="#5DD7D2"/>
<path d="M95.5807 75.8064H99.8388V80.0645H95.5807V75.8064Z" fill="#5DD7D2"/>
<path d="M104.097 75.8064H108.355V80.0645H104.097V75.8064Z" fill="#5DD7D2"/>
<path d="M87.0645 114.129H82.8064V122.645H65.7742V105.613H78.5484V101.355H61.5161V126.903H87.0645V114.129Z" fill="#5DD7D2"/>
<path d="M94.0754 93.4624L74.2903 113.247L71.5376 110.495L68.527 113.505L74.2903 119.269L97.0859 96.473L94.0754 93.4624Z" fill="#5DD7D2"/>
<path d="M82.8064 158.839H65.7742V141.806H78.5484V137.548H61.5161V163.097H87.0645V150.323H82.8064V158.839Z" fill="#5DD7D2"/>
<path d="M71.5376 146.688L68.527 149.699L74.2903 155.462L97.0859 132.667L94.0754 129.656L74.2903 149.441L71.5376 146.688Z" fill="#5DD7D2"/>
<path d="M121.129 163.097H125.387V167.355H121.129V163.097Z" fill="#5DD7D2"/>
<path d="M93.4517 163.097H116.871V167.355H93.4517V163.097Z" fill="#5DD7D2"/>
<path d="M97.7097 103.484H125.387V107.742H97.7097V103.484Z" fill="#5DD7D2"/>
</svg>
