<svg width="230" height="230" viewBox="0 0 230 230" fill="none" xmlns="http://www.w3.org/2000/svg">
<circle cx="115" cy="115" r="115" fill="#2E3967"/>
<path d="M181.045 56.7435H163.721C163.784 54.8247 163.819 52.8945 163.819 50.9551C163.819 48.7705 162.047 47 159.864 47H75.1364C72.9528 47 71.1813 48.7705 71.1813 50.9551C71.1813 52.8945 71.2163 54.8247 71.2791 56.7435H53.9551C51.7705 56.7435 50 58.514 50 60.6986C50 78.4202 54.6318 95.1397 63.0415 107.778C71.3543 120.273 82.4275 127.439 94.3896 128.137C97.1015 131.088 99.9679 133.494 102.954 135.329V152.908H96.3187C88.2973 152.908 81.7725 159.433 81.7725 167.454V174.089H81.4913C79.3067 174.089 77.5362 175.86 77.5362 178.044C77.5362 180.228 79.3067 181.999 81.4913 181.999H153.509C155.693 181.999 157.464 180.228 157.464 178.044C157.464 175.86 155.693 174.089 153.509 174.089H153.228V167.454C153.228 159.433 146.703 152.908 138.681 152.908H132.046V135.329C135.032 133.495 137.9 131.088 140.611 128.137C152.572 127.439 163.646 120.273 171.96 107.778C180.369 95.1397 185 78.4202 185 60.6986C185 58.514 183.229 56.7435 181.045 56.7435ZM69.6271 103.397C62.6902 92.9726 58.6147 79.3379 57.9936 64.6537H71.721C73.1475 82.7049 77.3848 99.3904 84.0075 112.635C85.0622 114.744 86.1653 116.737 87.3096 118.614C80.7312 116.129 74.643 110.936 69.6271 103.397ZM145.317 167.454V174.09H89.6826V167.454C89.6826 163.795 92.6592 160.818 96.3187 160.818H138.681C142.341 160.818 145.317 163.795 145.317 167.454ZM124.136 152.908H110.864V138.766C113.038 139.339 115.254 139.636 117.5 139.636C119.746 139.636 121.962 139.339 124.136 138.766V152.908ZM126.585 129.356C126.407 129.429 126.236 129.518 126.072 129.616C123.277 131.006 120.405 131.726 117.5 131.726C114.597 131.726 111.725 131.006 108.931 129.618C108.765 129.518 108.593 129.429 108.413 129.354C105.311 127.714 102.311 125.238 99.4735 121.985C99.3242 121.772 99.1563 121.575 98.9698 121.396C96.1529 118.051 93.5028 113.938 91.0823 109.097C83.8139 94.5608 79.6157 75.4477 79.1378 54.9102H155.862C155.383 75.4477 151.185 94.5619 143.918 109.097C141.497 113.938 138.847 118.051 136.031 121.396C135.844 121.575 135.674 121.773 135.525 121.986C132.688 125.241 129.687 127.716 126.585 129.356ZM165.373 103.397C160.357 110.936 154.269 116.129 147.69 118.614C148.835 116.737 149.938 114.744 150.993 112.635C157.615 99.3904 161.851 82.7049 163.279 64.6537H177.006C176.385 79.3379 172.31 92.9726 165.373 103.397Z" fill="#ED529B"/>
</svg>
