<?xml version="1.0" encoding="UTF-8" standalone="no"?>
<!DOCTYPE svg PUBLIC "-//W3C//DTD SVG 1.1//EN"
 "http://www.w3.org/Graphics/SVG/1.1/DTD/svg11.dtd">
<!-- Generated by graphviz version 2.40.1 (20161225.0304)
 -->
<!-- Title: dependencies Pages: 1 -->
<svg width="2361pt" height="284pt"
 viewBox="0.00 0.00 2361.00 284.00" xmlns="http://www.w3.org/2000/svg" xmlns:xlink="http://www.w3.org/1999/xlink">
<g id="graph0" class="graph" transform="scale(1 1) rotate(0) translate(4 280)">
<title>dependencies</title>
<polygon fill="#ffffff" stroke="transparent" points="-4,4 -4,-280 2357,-280 2357,4 -4,4"/>
<text text-anchor="start" x="1155.5091" y="-42.4" font-family="sans-serif" font-weight="bold" font-size="14.00" fill="#000000">Legend</text>
<polygon fill="#ffffb3" stroke="transparent" points="942.5,-10 942.5,-30 962.5,-30 962.5,-10 942.5,-10"/>
<text text-anchor="start" x="966.129" y="-15.4" font-family="sans-serif" font-size="14.00" fill="#000000"> &#160;Declarations</text>
<polygon fill="#8dd3c7" stroke="transparent" points="1055.5,-10 1055.5,-30 1075.5,-30 1075.5,-10 1055.5,-10"/>
<text text-anchor="start" x="1079.2251" y="-15.4" font-family="sans-serif" font-size="14.00" fill="#000000"> &#160;Module</text>
<polygon fill="#80b1d3" stroke="transparent" points="1141.5,-10 1141.5,-30 1161.5,-30 1161.5,-10 1141.5,-10"/>
<text text-anchor="start" x="1165.2812" y="-15.4" font-family="sans-serif" font-size="14.00" fill="#000000"> &#160;Bootstrap</text>
<polygon fill="#fdb462" stroke="transparent" points="1238.5,-10 1238.5,-30 1258.5,-30 1258.5,-10 1238.5,-10"/>
<text text-anchor="start" x="1262.1732" y="-15.4" font-family="sans-serif" font-size="14.00" fill="#000000"> &#160;Providers</text>
<polygon fill="#fb8072" stroke="transparent" points="1334.5,-10 1334.5,-30 1354.5,-30 1354.5,-10 1334.5,-10"/>
<text text-anchor="start" x="1358.2258" y="-15.4" font-family="sans-serif" font-size="14.00" fill="#000000"> &#160;Exports</text>
<g id="clust1" class="cluster">
<title>cluster_AppModule</title>
<polygon fill="none" stroke="#000000" stroke-dasharray="1,5" points="8,-70 8,-268 2345,-268 2345,-70 8,-70"/>
</g>
<g id="clust2" class="cluster">
<title>cluster_AppModule_declarations</title>
<polygon fill="none" stroke="#000000" points="2215,-78 2215,-130 2337,-130 2337,-78 2215,-78"/>
</g>
<g id="clust4" class="cluster">
<title>cluster_AppModule_imports</title>
<polygon fill="none" stroke="#000000" points="194,-78 194,-130 2207,-130 2207,-78 194,-78"/>
</g>
<g id="clust6" class="cluster">
<title>cluster_AppModule_bootstrap</title>
<polygon fill="none" stroke="#000000" points="1289,-208 1289,-260 1413,-260 1413,-208 1289,-208"/>
</g>
<g id="clust7" class="cluster">
<title>cluster_AppModule_providers</title>
<polygon fill="none" stroke="#000000" points="16,-78 16,-130 186,-130 186,-78 16,-78"/>
</g>
<!-- AppComponent -->
<g id="node1" class="node">
<title>AppComponent</title>
<polygon fill="#ffffb3" stroke="#000000" points="2328.9399,-122 2223.0601,-122 2223.0601,-86 2328.9399,-86 2328.9399,-122"/>
<text text-anchor="middle" x="2276" y="-99.8" font-family="Times,serif" font-size="14.00" fill="#000000">AppComponent</text>
</g>
<!-- AppModule -->
<g id="node2" class="node">
<title>AppModule</title>
<polygon fill="#8dd3c7" stroke="#000000" points="1392.6571,-187 1389.6571,-191 1368.6571,-191 1365.6571,-187 1309.3429,-187 1309.3429,-151 1392.6571,-151 1392.6571,-187"/>
<text text-anchor="middle" x="1351" y="-164.8" font-family="Times,serif" font-size="14.00" fill="#000000">AppModule</text>
</g>
<!-- AppComponent&#45;&gt;AppModule -->
<g id="edge1" class="edge">
<title>AppComponent&#45;&gt;AppModule</title>
<path fill="none" stroke="#000000" d="M2276,-122.0908C2276,-145.1328 2276,-182 2276,-182 2276,-182 1402.8451,-182 1402.8451,-182"/>
<polygon fill="#000000" stroke="#000000" points="1402.8452,-178.5001 1392.8451,-182 1402.8451,-185.5001 1402.8452,-178.5001"/>
</g>
<!-- AppComponent  -->
<g id="node15" class="node">
<title>AppComponent </title>
<polygon fill="#80b1d3" stroke="#000000" points="1405.439,-252 1296.561,-252 1296.561,-216 1405.439,-216 1405.439,-252"/>
<text text-anchor="middle" x="1351" y="-229.8" font-family="Times,serif" font-size="14.00" fill="#000000">AppComponent </text>
</g>
<!-- AppModule&#45;&gt;AppComponent  -->
<g id="edge14" class="edge">
<title>AppModule&#45;&gt;AppComponent </title>
<path fill="none" stroke="#000000" stroke-dasharray="1,5" d="M1351,-187.1061C1351,-187.1061 1351,-205.991 1351,-205.991"/>
<polygon fill="#000000" stroke="#000000" points="1347.5001,-205.9909 1351,-215.991 1354.5001,-205.991 1347.5001,-205.9909"/>
</g>
<!-- BrowserModule -->
<g id="node3" class="node">
<title>BrowserModule</title>
<polygon fill="#8dd3c7" stroke="#000000" points="2199.4734,-122 2196.4734,-126 2175.4734,-126 2172.4734,-122 2092.5266,-122 2092.5266,-86 2199.4734,-86 2199.4734,-122"/>
<text text-anchor="middle" x="2146" y="-99.8" font-family="Times,serif" font-size="14.00" fill="#000000">BrowserModule</text>
</g>
<!-- BrowserModule&#45;&gt;AppModule -->
<g id="edge2" class="edge">
<title>BrowserModule&#45;&gt;AppModule</title>
<path fill="none" stroke="#000000" d="M2146,-122.0449C2146,-143.6623 2146,-177 2146,-177 2146,-177 1402.9019,-177 1402.9019,-177"/>
<polygon fill="#000000" stroke="#000000" points="1402.902,-173.5001 1392.9019,-177 1402.9019,-180.5001 1402.902,-173.5001"/>
</g>
<!-- CoreModule -->
<g id="node4" class="node">
<title>CoreModule</title>
<polygon fill="#8dd3c7" stroke="#000000" points="2074.2619,-122 2071.2619,-126 2050.2619,-126 2047.2619,-122 1987.7381,-122 1987.7381,-86 2074.2619,-86 2074.2619,-122"/>
<text text-anchor="middle" x="2031" y="-99.8" font-family="Times,serif" font-size="14.00" fill="#000000">CoreModule</text>
</g>
<!-- CoreModule&#45;&gt;AppModule -->
<g id="edge3" class="edge">
<title>CoreModule&#45;&gt;AppModule</title>
<path fill="none" stroke="#000000" d="M2031,-122.2228C2031,-142.3652 2031,-172 2031,-172 2031,-172 1402.7683,-172 1402.7683,-172"/>
<polygon fill="#000000" stroke="#000000" points="1402.7683,-168.5001 1392.7683,-172 1402.7683,-175.5001 1402.7683,-168.5001"/>
</g>
<!-- HomeModule -->
<g id="node5" class="node">
<title>HomeModule</title>
<polygon fill="#8dd3c7" stroke="#000000" points="1969.7619,-122 1966.7619,-126 1945.7619,-126 1942.7619,-122 1876.2381,-122 1876.2381,-86 1969.7619,-86 1969.7619,-122"/>
<text text-anchor="middle" x="1923" y="-99.8" font-family="Times,serif" font-size="14.00" fill="#000000">HomeModule</text>
</g>
<!-- HomeModule&#45;&gt;AppModule -->
<g id="edge4" class="edge">
<title>HomeModule&#45;&gt;AppModule</title>
<path fill="none" stroke="#000000" d="M1923,-122.2222C1923,-140.8285 1923,-167 1923,-167 1923,-167 1403.0605,-167 1403.0605,-167"/>
<polygon fill="#000000" stroke="#000000" points="1403.0606,-163.5001 1393.0605,-167 1403.0605,-170.5001 1403.0606,-163.5001"/>
</g>
<!-- RouterModule -->
<g id="node6" class="node">
<title>RouterModule</title>
<polygon fill="#8dd3c7" stroke="#000000" points="1857.6528,-122 1854.6528,-126 1833.6528,-126 1830.6528,-122 1760.3472,-122 1760.3472,-86 1857.6528,-86 1857.6528,-122"/>
<text text-anchor="middle" x="1809" y="-99.8" font-family="Times,serif" font-size="14.00" fill="#000000">RouterModule</text>
</g>
<!-- RouterModule&#45;&gt;AppModule -->
<g id="edge5" class="edge">
<title>RouterModule&#45;&gt;AppModule</title>
<path fill="none" stroke="#000000" d="M1809,-122.0336C1809,-139.0597 1809,-162 1809,-162 1809,-162 1402.8586,-162 1402.8586,-162"/>
<polygon fill="#000000" stroke="#000000" points="1402.8586,-158.5001 1392.8586,-162 1402.8586,-165.5001 1402.8586,-158.5001"/>
</g>
<!-- AppRoutingModule -->
<g id="node7" class="node">
<title>AppRoutingModule</title>
<polygon fill="#8dd3c7" stroke="#000000" points="1742.2744,-122 1739.2744,-126 1718.2744,-126 1715.2744,-122 1613.7256,-122 1613.7256,-86 1742.2744,-86 1742.2744,-122"/>
<text text-anchor="middle" x="1678" y="-99.8" font-family="Times,serif" font-size="14.00" fill="#000000">AppRoutingModule</text>
</g>
<!-- AppRoutingModule&#45;&gt;AppModule -->
<g id="edge6" class="edge">
<title>AppRoutingModule&#45;&gt;AppModule</title>
<path fill="none" stroke="#000000" d="M1678,-122.2396C1678,-137.5706 1678,-157 1678,-157 1678,-157 1402.7469,-157 1402.7469,-157"/>
<polygon fill="#000000" stroke="#000000" points="1402.747,-153.5001 1392.7469,-157 1402.7469,-160.5001 1402.747,-153.5001"/>
</g>
<!-- FragmentPolyfillModule.forRoot(args) -->
<g id="node8" class="node">
<title>FragmentPolyfillModule.forRoot(args)</title>
<polygon fill="#8dd3c7" stroke="#000000" points="1595.3984,-122 1592.3984,-126 1571.3984,-126 1568.3984,-122 1360.6016,-122 1360.6016,-86 1595.3984,-86 1595.3984,-122"/>
<text text-anchor="middle" x="1478" y="-99.8" font-family="Times,serif" font-size="14.00" fill="#000000">FragmentPolyfillModule.forRoot(args)</text>
</g>
<!-- FragmentPolyfillModule.forRoot(args)&#45;&gt;AppModule -->
<g id="edge7" class="edge">
<title>FragmentPolyfillModule.forRoot(args)&#45;&gt;AppModule</title>
<path fill="none" stroke="#000000" d="M1376.6895,-122.1061C1376.6895,-122.1061 1376.6895,-140.991 1376.6895,-140.991"/>
<polygon fill="#000000" stroke="#000000" points="1373.1896,-140.9909 1376.6895,-150.991 1380.1896,-140.991 1373.1896,-140.9909"/>
</g>
<!-- AngularFireModule.initializeApp(args) -->
<g id="node9" class="node">
<title>AngularFireModule.initializeApp(args)</title>
<polygon fill="#8dd3c7" stroke="#000000" points="1342.7057,-122 1339.7057,-126 1318.7057,-126 1315.7057,-122 1105.2943,-122 1105.2943,-86 1342.7057,-86 1342.7057,-122"/>
<text text-anchor="middle" x="1224" y="-99.8" font-family="Times,serif" font-size="14.00" fill="#000000">AngularFireModule.initializeApp(args)</text>
</g>
<!-- AngularFireModule.initializeApp(args)&#45;&gt;AppModule -->
<g id="edge8" class="edge">
<title>AngularFireModule.initializeApp(args)&#45;&gt;AppModule</title>
<path fill="none" stroke="#000000" d="M1325.8873,-122.1061C1325.8873,-122.1061 1325.8873,-140.991 1325.8873,-140.991"/>
<polygon fill="#000000" stroke="#000000" points="1322.3874,-140.9909 1325.8873,-150.991 1329.3874,-140.991 1322.3874,-140.9909"/>
</g>
<!-- AngularFireAuthModule -->
<g id="node10" class="node">
<title>AngularFireAuthModule</title>
<polygon fill="#8dd3c7" stroke="#000000" points="1086.9678,-122 1083.9678,-126 1062.9678,-126 1059.9678,-122 931.0322,-122 931.0322,-86 1086.9678,-86 1086.9678,-122"/>
<text text-anchor="middle" x="1009" y="-99.8" font-family="Times,serif" font-size="14.00" fill="#000000">AngularFireAuthModule</text>
</g>
<!-- AngularFireAuthModule&#45;&gt;AppModule -->
<g id="edge9" class="edge">
<title>AngularFireAuthModule&#45;&gt;AppModule</title>
<path fill="none" stroke="#000000" d="M1009,-122.2396C1009,-137.5706 1009,-157 1009,-157 1009,-157 1299.0641,-157 1299.0641,-157"/>
<polygon fill="#000000" stroke="#000000" points="1299.0641,-160.5001 1309.0641,-157 1299.0641,-153.5001 1299.0641,-160.5001"/>
</g>
<!-- AngularFirestoreModule -->
<g id="node11" class="node">
<title>AngularFirestoreModule</title>
<polygon fill="#8dd3c7" stroke="#000000" points="912.6811,-122 909.6811,-126 888.6811,-126 885.6811,-122 757.3189,-122 757.3189,-86 912.6811,-86 912.6811,-122"/>
<text text-anchor="middle" x="835" y="-99.8" font-family="Times,serif" font-size="14.00" fill="#000000">AngularFirestoreModule</text>
</g>
<!-- AngularFirestoreModule&#45;&gt;AppModule -->
<g id="edge10" class="edge">
<title>AngularFirestoreModule&#45;&gt;AppModule</title>
<path fill="none" stroke="#000000" d="M835,-122.0336C835,-139.0597 835,-162 835,-162 835,-162 1299.2106,-162 1299.2106,-162"/>
<polygon fill="#000000" stroke="#000000" points="1299.2107,-165.5001 1309.2106,-162 1299.2106,-158.5001 1299.2107,-165.5001"/>
</g>
<!-- MarkdownModule.forRoot() -->
<g id="node12" class="node">
<title>MarkdownModule.forRoot()</title>
<polygon fill="#8dd3c7" stroke="#000000" points="739.8461,-122 736.8461,-126 715.8461,-126 712.8461,-122 562.1539,-122 562.1539,-86 739.8461,-86 739.8461,-122"/>
<text text-anchor="middle" x="651" y="-99.8" font-family="Times,serif" font-size="14.00" fill="#000000">MarkdownModule.forRoot()</text>
</g>
<!-- MarkdownModule.forRoot()&#45;&gt;AppModule -->
<g id="edge11" class="edge">
<title>MarkdownModule.forRoot()&#45;&gt;AppModule</title>
<path fill="none" stroke="#000000" d="M651,-122.2222C651,-140.8285 651,-167 651,-167 651,-167 1299.3081,-167 1299.3081,-167"/>
<polygon fill="#000000" stroke="#000000" points="1299.3082,-170.5001 1309.3081,-167 1299.3081,-163.5001 1299.3082,-170.5001"/>
</g>
<!-- BrowserAnimationsModule -->
<g id="node13" class="node">
<title>BrowserAnimationsModule</title>
<polygon fill="#8dd3c7" stroke="#000000" points="544.3019,-122 541.3019,-126 520.3019,-126 517.3019,-122 371.6981,-122 371.6981,-86 544.3019,-86 544.3019,-122"/>
<text text-anchor="middle" x="458" y="-99.8" font-family="Times,serif" font-size="14.00" fill="#000000">BrowserAnimationsModule</text>
</g>
<!-- BrowserAnimationsModule&#45;&gt;AppModule -->
<g id="edge12" class="edge">
<title>BrowserAnimationsModule&#45;&gt;AppModule</title>
<path fill="none" stroke="#000000" d="M458,-122.2228C458,-142.3652 458,-172 458,-172 458,-172 1299.1265,-172 1299.1265,-172"/>
<polygon fill="#000000" stroke="#000000" points="1299.1265,-175.5001 1309.1265,-172 1299.1265,-168.5001 1299.1265,-175.5001"/>
</g>
<!-- NgAisModule.forRoot() -->
<g id="node14" class="node">
<title>NgAisModule.forRoot()</title>
<polygon fill="#8dd3c7" stroke="#000000" points="354.4685,-122 351.4685,-126 330.4685,-126 327.4685,-122 201.5315,-122 201.5315,-86 354.4685,-86 354.4685,-122"/>
<text text-anchor="middle" x="278" y="-99.8" font-family="Times,serif" font-size="14.00" fill="#000000">NgAisModule.forRoot()</text>
</g>
<!-- NgAisModule.forRoot()&#45;&gt;AppModule -->
<g id="edge13" class="edge">
<title>NgAisModule.forRoot()&#45;&gt;AppModule</title>
<path fill="none" stroke="#000000" d="M278,-122.0449C278,-143.6623 278,-177 278,-177 278,-177 1299.2664,-177 1299.2664,-177"/>
<polygon fill="#000000" stroke="#000000" points="1299.2665,-180.5001 1309.2664,-177 1299.2664,-173.5001 1299.2665,-180.5001"/>
</g>
<!-- AngularFirestore -->
<g id="node16" class="node">
<title>AngularFirestore</title>
<ellipse fill="#fdb462" stroke="#000000" cx="101" cy="-104" rx="77.0023" ry="18"/>
<text text-anchor="middle" x="101" y="-99.8" font-family="Times,serif" font-size="14.00" fill="#000000">AngularFirestore</text>
</g>
<!-- AngularFirestore&#45;&gt;AppModule -->
<g id="edge15" class="edge">
<title>AngularFirestore&#45;&gt;AppModule</title>
<path fill="none" stroke="#000000" d="M101,-122.0908C101,-145.1328 101,-182 101,-182 101,-182 1299.0528,-182 1299.0528,-182"/>
<polygon fill="#000000" stroke="#000000" points="1299.0529,-185.5001 1309.0528,-182 1299.0528,-178.5001 1299.0529,-185.5001"/>
</g>
</g>
</svg>
