<?xml version="1.0" encoding="UTF-8" standalone="no"?>
<!DOCTYPE svg PUBLIC "-//W3C//DTD SVG 1.1//EN"
 "http://www.w3.org/Graphics/SVG/1.1/DTD/svg11.dtd">
<!-- Generated by graphviz version 2.40.1 (20161225.0304)
 -->
<!-- Title: dependencies Pages: 1 -->
<svg width="704pt" height="284pt"
 viewBox="0.00 0.00 704.00 284.00" xmlns="http://www.w3.org/2000/svg" xmlns:xlink="http://www.w3.org/1999/xlink">
<g id="graph0" class="graph" transform="scale(1 1) rotate(0) translate(4 280)">
<title>dependencies</title>
<polygon fill="#ffffff" stroke="transparent" points="-4,4 -4,-280 700,-280 700,4 -4,4"/>
<text text-anchor="start" x="327.0091" y="-42.4" font-family="sans-serif" font-weight="bold" font-size="14.00" fill="#000000">Legend</text>
<polygon fill="#ffffb3" stroke="transparent" points="114,-10 114,-30 134,-30 134,-10 114,-10"/>
<text text-anchor="start" x="137.629" y="-15.4" font-family="sans-serif" font-size="14.00" fill="#000000"> &#160;Declarations</text>
<polygon fill="#8dd3c7" stroke="transparent" points="227,-10 227,-30 247,-30 247,-10 227,-10"/>
<text text-anchor="start" x="250.7251" y="-15.4" font-family="sans-serif" font-size="14.00" fill="#000000"> &#160;Module</text>
<polygon fill="#80b1d3" stroke="transparent" points="313,-10 313,-30 333,-30 333,-10 313,-10"/>
<text text-anchor="start" x="336.7812" y="-15.4" font-family="sans-serif" font-size="14.00" fill="#000000"> &#160;Bootstrap</text>
<polygon fill="#fdb462" stroke="transparent" points="410,-10 410,-30 430,-30 430,-10 410,-10"/>
<text text-anchor="start" x="433.6732" y="-15.4" font-family="sans-serif" font-size="14.00" fill="#000000"> &#160;Providers</text>
<polygon fill="#fb8072" stroke="transparent" points="506,-10 506,-30 526,-30 526,-10 506,-10"/>
<text text-anchor="start" x="529.7258" y="-15.4" font-family="sans-serif" font-size="14.00" fill="#000000"> &#160;Exports</text>
<g id="clust1" class="cluster">
<title>cluster_AppModule</title>
<polygon fill="none" stroke="#000000" stroke-dasharray="1,5" points="8,-70 8,-268 688,-268 688,-70 8,-70"/>
</g>
<g id="clust2" class="cluster">
<title>cluster_AppModule_declarations</title>
<polygon fill="none" stroke="#000000" points="558,-78 558,-130 680,-130 680,-78 558,-78"/>
</g>
<g id="clust4" class="cluster">
<title>cluster_AppModule_imports</title>
<polygon fill="none" stroke="#000000" points="16,-78 16,-130 550,-130 550,-78 16,-78"/>
</g>
<g id="clust6" class="cluster">
<title>cluster_AppModule_bootstrap</title>
<polygon fill="none" stroke="#000000" points="290,-208 290,-260 414,-260 414,-208 290,-208"/>
</g>
<!-- AppComponent -->
<g id="node1" class="node">
<title>AppComponent</title>
<polygon fill="#ffffb3" stroke="#000000" points="671.9399,-122 566.0601,-122 566.0601,-86 671.9399,-86 671.9399,-122"/>
<text text-anchor="middle" x="619" y="-99.8" font-family="Times,serif" font-size="14.00" fill="#000000">AppComponent</text>
</g>
<!-- AppModule -->
<g id="node2" class="node">
<title>AppModule</title>
<polygon fill="#8dd3c7" stroke="#000000" points="393.6571,-187 390.6571,-191 369.6571,-191 366.6571,-187 310.3429,-187 310.3429,-151 393.6571,-151 393.6571,-187"/>
<text text-anchor="middle" x="352" y="-164.8" font-family="Times,serif" font-size="14.00" fill="#000000">AppModule</text>
</g>
<!-- AppComponent&#45;&gt;AppModule -->
<g id="edge1" class="edge">
<title>AppComponent&#45;&gt;AppModule</title>
<path fill="none" stroke="#000000" d="M619,-122.2843C619,-143.3211 619,-175 619,-175 619,-175 403.7188,-175 403.7188,-175"/>
<polygon fill="#000000" stroke="#000000" points="403.7188,-171.5001 393.7188,-175 403.7187,-178.5001 403.7188,-171.5001"/>
</g>
<!-- AppComponent  -->
<g id="node7" class="node">
<title>AppComponent </title>
<polygon fill="#80b1d3" stroke="#000000" points="406.439,-252 297.561,-252 297.561,-216 406.439,-216 406.439,-252"/>
<text text-anchor="middle" x="352" y="-229.8" font-family="Times,serif" font-size="14.00" fill="#000000">AppComponent </text>
</g>
<!-- AppModule&#45;&gt;AppComponent  -->
<g id="edge6" class="edge">
<title>AppModule&#45;&gt;AppComponent </title>
<path fill="none" stroke="#000000" stroke-dasharray="1,5" d="M352,-187.1061C352,-187.1061 352,-205.991 352,-205.991"/>
<polygon fill="#000000" stroke="#000000" points="348.5001,-205.9909 352,-215.991 355.5001,-205.991 348.5001,-205.9909"/>
</g>
<!-- AppRoutingModule -->
<g id="node3" class="node">
<title>AppRoutingModule</title>
<polygon fill="#8dd3c7" stroke="#000000" points="542.2744,-122 539.2744,-126 518.2744,-126 515.2744,-122 413.7256,-122 413.7256,-86 542.2744,-86 542.2744,-122"/>
<text text-anchor="middle" x="478" y="-99.8" font-family="Times,serif" font-size="14.00" fill="#000000">AppRoutingModule</text>
</g>
<!-- AppRoutingModule&#45;&gt;AppModule -->
<g id="edge2" class="edge">
<title>AppRoutingModule&#45;&gt;AppModule</title>
<path fill="none" stroke="#000000" d="M478,-122.0225C478,-139.3734 478,-163 478,-163 478,-163 403.9562,-163 403.9562,-163"/>
<polygon fill="#000000" stroke="#000000" points="403.9562,-159.5001 393.9562,-163 403.9561,-166.5001 403.9562,-159.5001"/>
</g>
<!-- CoreModule -->
<g id="node4" class="node">
<title>CoreModule</title>
<polygon fill="#8dd3c7" stroke="#000000" points="395.2619,-122 392.2619,-126 371.2619,-126 368.2619,-122 308.7381,-122 308.7381,-86 395.2619,-86 395.2619,-122"/>
<text text-anchor="middle" x="352" y="-99.8" font-family="Times,serif" font-size="14.00" fill="#000000">CoreModule</text>
</g>
<!-- CoreModule&#45;&gt;AppModule -->
<g id="edge3" class="edge">
<title>CoreModule&#45;&gt;AppModule</title>
<path fill="none" stroke="#000000" d="M352,-122.1061C352,-122.1061 352,-140.991 352,-140.991"/>
<polygon fill="#000000" stroke="#000000" points="348.5001,-140.9909 352,-150.991 355.5001,-140.991 348.5001,-140.9909"/>
</g>
<!-- FragmentPolyfillModule -->
<g id="node5" class="node">
<title>FragmentPolyfillModule</title>
<polygon fill="#8dd3c7" stroke="#000000" points="290.7091,-122 287.7091,-126 266.7091,-126 263.7091,-122 135.2909,-122 135.2909,-86 290.7091,-86 290.7091,-122"/>
<text text-anchor="middle" x="213" y="-99.8" font-family="Times,serif" font-size="14.00" fill="#000000">FragmentPolyfillModule</text>
</g>
<!-- FragmentPolyfillModule&#45;&gt;AppModule -->
<g id="edge4" class="edge">
<title>FragmentPolyfillModule&#45;&gt;AppModule</title>
<path fill="none" stroke="#000000" d="M213,-122.0225C213,-139.3734 213,-163 213,-163 213,-163 300.2954,-163 300.2954,-163"/>
<polygon fill="#000000" stroke="#000000" points="300.2955,-166.5001 310.2954,-163 300.2954,-159.5001 300.2955,-166.5001"/>
</g>
<!-- HomeModule -->
<g id="node6" class="node">
<title>HomeModule</title>
<polygon fill="#8dd3c7" stroke="#000000" points="117.7619,-122 114.7619,-126 93.7619,-126 90.7619,-122 24.2381,-122 24.2381,-86 117.7619,-86 117.7619,-122"/>
<text text-anchor="middle" x="71" y="-99.8" font-family="Times,serif" font-size="14.00" fill="#000000">HomeModule</text>
</g>
<!-- HomeModule&#45;&gt;AppModule -->
<g id="edge5" class="edge">
<title>HomeModule&#45;&gt;AppModule</title>
<path fill="none" stroke="#000000" d="M71,-122.2843C71,-143.3211 71,-175 71,-175 71,-175 300.2349,-175 300.2349,-175"/>
<polygon fill="#000000" stroke="#000000" points="300.2349,-178.5001 310.2349,-175 300.2348,-171.5001 300.2349,-178.5001"/>
</g>
</g>
</svg>
