<?xml version="1.0" encoding="UTF-8" standalone="no"?>
<!DOCTYPE svg PUBLIC "-//W3C//DTD SVG 1.1//EN"
 "http://www.w3.org/Graphics/SVG/1.1/DTD/svg11.dtd">
<!-- Generated by graphviz version 2.40.1 (20161225.0304)
 -->
<!-- Title: dependencies Pages: 1 -->
<svg width="1944pt" height="284pt"
 viewBox="0.00 0.00 1944.00 284.00" xmlns="http://www.w3.org/2000/svg" xmlns:xlink="http://www.w3.org/1999/xlink">
<g id="graph0" class="graph" transform="scale(1 1) rotate(0) translate(4 280)">
<title>dependencies</title>
<polygon fill="#ffffff" stroke="transparent" points="-4,4 -4,-280 1940,-280 1940,4 -4,4"/>
<text text-anchor="start" x="947.0091" y="-42.4" font-family="sans-serif" font-weight="bold" font-size="14.00" fill="#000000">Legend</text>
<polygon fill="#ffffb3" stroke="transparent" points="734,-10 734,-30 754,-30 754,-10 734,-10"/>
<text text-anchor="start" x="757.629" y="-15.4" font-family="sans-serif" font-size="14.00" fill="#000000"> &#160;Declarations</text>
<polygon fill="#8dd3c7" stroke="transparent" points="847,-10 847,-30 867,-30 867,-10 847,-10"/>
<text text-anchor="start" x="870.7251" y="-15.4" font-family="sans-serif" font-size="14.00" fill="#000000"> &#160;Module</text>
<polygon fill="#80b1d3" stroke="transparent" points="933,-10 933,-30 953,-30 953,-10 933,-10"/>
<text text-anchor="start" x="956.7812" y="-15.4" font-family="sans-serif" font-size="14.00" fill="#000000"> &#160;Bootstrap</text>
<polygon fill="#fdb462" stroke="transparent" points="1030,-10 1030,-30 1050,-30 1050,-10 1030,-10"/>
<text text-anchor="start" x="1053.6732" y="-15.4" font-family="sans-serif" font-size="14.00" fill="#000000"> &#160;Providers</text>
<polygon fill="#fb8072" stroke="transparent" points="1126,-10 1126,-30 1146,-30 1146,-10 1126,-10"/>
<text text-anchor="start" x="1149.7258" y="-15.4" font-family="sans-serif" font-size="14.00" fill="#000000"> &#160;Exports</text>
<g id="clust1" class="cluster">
<title>cluster_HomeModule</title>
<polygon fill="none" stroke="#000000" stroke-dasharray="1,5" points="8,-70 8,-268 1928,-268 1928,-70 8,-70"/>
</g>
<g id="clust2" class="cluster">
<title>cluster_HomeModule_declarations</title>
<polygon fill="none" stroke="#000000" points="456,-78 456,-130 1920,-130 1920,-78 456,-78"/>
</g>
<g id="clust13" class="cluster">
<title>cluster_HomeModule_imports</title>
<polygon fill="none" stroke="#000000" points="16,-78 16,-130 448,-130 448,-78 16,-78"/>
</g>
<g id="clust14" class="cluster">
<title>cluster_HomeModule_exports</title>
<polygon fill="none" stroke="#000000" points="860,-208 860,-260 996,-260 996,-208 860,-208"/>
</g>
<!-- BannerComponent -->
<g id="node1" class="node">
<title>BannerComponent</title>
<polygon fill="#ffffb3" stroke="#000000" points="1911.759,-122 1790.241,-122 1790.241,-86 1911.759,-86 1911.759,-122"/>
<text text-anchor="middle" x="1851" y="-99.8" font-family="Times,serif" font-size="14.00" fill="#000000">BannerComponent</text>
</g>
<!-- HomeModule -->
<g id="node11" class="node">
<title>HomeModule</title>
<polygon fill="#8dd3c7" stroke="#000000" points="974.7619,-187 971.7619,-191 950.7619,-191 947.7619,-187 881.2381,-187 881.2381,-151 974.7619,-151 974.7619,-187"/>
<text text-anchor="middle" x="928" y="-164.8" font-family="Times,serif" font-size="14.00" fill="#000000">HomeModule</text>
</g>
<!-- BannerComponent&#45;&gt;HomeModule -->
<g id="edge1" class="edge">
<title>BannerComponent&#45;&gt;HomeModule</title>
<path fill="none" stroke="#000000" d="M1851,-122.0908C1851,-145.1328 1851,-182 1851,-182 1851,-182 985.0407,-182 985.0407,-182"/>
<polygon fill="#000000" stroke="#000000" points="985.0407,-178.5001 975.0407,-182 985.0406,-185.5001 985.0407,-178.5001"/>
</g>
<!-- BlogComponent -->
<g id="node2" class="node">
<title>BlogComponent</title>
<polygon fill="#ffffb3" stroke="#000000" points="1772.0605,-122 1663.9395,-122 1663.9395,-86 1772.0605,-86 1772.0605,-122"/>
<text text-anchor="middle" x="1718" y="-99.8" font-family="Times,serif" font-size="14.00" fill="#000000">BlogComponent</text>
</g>
<!-- BlogComponent&#45;&gt;HomeModule -->
<g id="edge2" class="edge">
<title>BlogComponent&#45;&gt;HomeModule</title>
<path fill="none" stroke="#000000" d="M1718,-122.0449C1718,-143.6623 1718,-177 1718,-177 1718,-177 985.0523,-177 985.0523,-177"/>
<polygon fill="#000000" stroke="#000000" points="985.0523,-173.5001 975.0523,-177 985.0522,-180.5001 985.0523,-173.5001"/>
</g>
<!-- ClubMembersComponent -->
<g id="node3" class="node">
<title>ClubMembersComponent</title>
<polygon fill="#ffffb3" stroke="#000000" points="1645.9298,-122 1484.0702,-122 1484.0702,-86 1645.9298,-86 1645.9298,-122"/>
<text text-anchor="middle" x="1565" y="-99.8" font-family="Times,serif" font-size="14.00" fill="#000000">ClubMembersComponent</text>
</g>
<!-- ClubMembersComponent&#45;&gt;HomeModule -->
<g id="edge3" class="edge">
<title>ClubMembersComponent&#45;&gt;HomeModule</title>
<path fill="none" stroke="#000000" d="M1565,-122.2228C1565,-142.3652 1565,-172 1565,-172 1565,-172 984.8401,-172 984.8401,-172"/>
<polygon fill="#000000" stroke="#000000" points="984.8402,-168.5001 974.8401,-172 984.8401,-175.5001 984.8402,-168.5001"/>
</g>
<!-- DeepracerComponent -->
<g id="node4" class="node">
<title>DeepracerComponent</title>
<polygon fill="#ffffb3" stroke="#000000" points="1466.3333,-122 1327.6667,-122 1327.6667,-86 1466.3333,-86 1466.3333,-122"/>
<text text-anchor="middle" x="1397" y="-99.8" font-family="Times,serif" font-size="14.00" fill="#000000">DeepracerComponent</text>
</g>
<!-- DeepracerComponent&#45;&gt;HomeModule -->
<g id="edge4" class="edge">
<title>DeepracerComponent&#45;&gt;HomeModule</title>
<path fill="none" stroke="#000000" d="M1397,-122.2222C1397,-140.8285 1397,-167 1397,-167 1397,-167 985.1169,-167 985.1169,-167"/>
<polygon fill="#000000" stroke="#000000" points="985.1169,-163.5001 975.1169,-167 985.1168,-170.5001 985.1169,-163.5001"/>
</g>
<!-- FounderLetterComponent -->
<g id="node5" class="node">
<title>FounderLetterComponent</title>
<polygon fill="#ffffb3" stroke="#000000" points="1309.9143,-122 1148.0857,-122 1148.0857,-86 1309.9143,-86 1309.9143,-122"/>
<text text-anchor="middle" x="1229" y="-99.8" font-family="Times,serif" font-size="14.00" fill="#000000">FounderLetterComponent</text>
</g>
<!-- FounderLetterComponent&#45;&gt;HomeModule -->
<g id="edge5" class="edge">
<title>FounderLetterComponent&#45;&gt;HomeModule</title>
<path fill="none" stroke="#000000" d="M1229,-122.0336C1229,-139.0597 1229,-162 1229,-162 1229,-162 985.0313,-162 985.0313,-162"/>
<polygon fill="#000000" stroke="#000000" points="985.0313,-158.5001 975.0313,-162 985.0312,-165.5001 985.0313,-158.5001"/>
</g>
<!-- FunFactComponent -->
<g id="node6" class="node">
<title>FunFactComponent</title>
<polygon fill="#ffffb3" stroke="#000000" points="1130.7176,-122 1003.2824,-122 1003.2824,-86 1130.7176,-86 1130.7176,-122"/>
<text text-anchor="middle" x="1067" y="-99.8" font-family="Times,serif" font-size="14.00" fill="#000000">FunFactComponent</text>
</g>
<!-- FunFactComponent&#45;&gt;HomeModule -->
<g id="edge6" class="edge">
<title>FunFactComponent&#45;&gt;HomeModule</title>
<path fill="none" stroke="#000000" d="M1067,-122.2396C1067,-137.5706 1067,-157 1067,-157 1067,-157 985.0591,-157 985.0591,-157"/>
<polygon fill="#000000" stroke="#000000" points="985.0591,-153.5001 975.0591,-157 985.059,-160.5001 985.0591,-153.5001"/>
</g>
<!-- HomeComponent -->
<g id="node7" class="node">
<title>HomeComponent</title>
<polygon fill="#ffffb3" stroke="#000000" points="985.5451,-122 870.4549,-122 870.4549,-86 985.5451,-86 985.5451,-122"/>
<text text-anchor="middle" x="928" y="-99.8" font-family="Times,serif" font-size="14.00" fill="#000000">HomeComponent</text>
</g>
<!-- HomeComponent&#45;&gt;HomeModule -->
<g id="edge7" class="edge">
<title>HomeComponent&#45;&gt;HomeModule</title>
<path fill="none" stroke="#000000" d="M928,-122.1061C928,-122.1061 928,-140.991 928,-140.991"/>
<polygon fill="#000000" stroke="#000000" points="924.5001,-140.9909 928,-150.991 931.5001,-140.991 924.5001,-140.9909"/>
</g>
<!-- JetsonComponent -->
<g id="node8" class="node">
<title>JetsonComponent</title>
<polygon fill="#ffffb3" stroke="#000000" points="852.3273,-122 735.6727,-122 735.6727,-86 852.3273,-86 852.3273,-122"/>
<text text-anchor="middle" x="794" y="-99.8" font-family="Times,serif" font-size="14.00" fill="#000000">JetsonComponent</text>
</g>
<!-- JetsonComponent&#45;&gt;HomeModule -->
<g id="edge8" class="edge">
<title>JetsonComponent&#45;&gt;HomeModule</title>
<path fill="none" stroke="#000000" d="M794,-122.2396C794,-137.5706 794,-157 794,-157 794,-157 871.1333,-157 871.1333,-157"/>
<polygon fill="#000000" stroke="#000000" points="871.1333,-160.5001 881.1333,-157 871.1333,-153.5001 871.1333,-160.5001"/>
</g>
<!-- ProjectsComponent -->
<g id="node9" class="node">
<title>ProjectsComponent</title>
<polygon fill="#ffffb3" stroke="#000000" points="718.4313,-122 591.5687,-122 591.5687,-86 718.4313,-86 718.4313,-122"/>
<text text-anchor="middle" x="655" y="-99.8" font-family="Times,serif" font-size="14.00" fill="#000000">ProjectsComponent</text>
</g>
<!-- ProjectsComponent&#45;&gt;HomeModule -->
<g id="edge9" class="edge">
<title>ProjectsComponent&#45;&gt;HomeModule</title>
<path fill="none" stroke="#000000" d="M655,-122.0336C655,-139.0597 655,-162 655,-162 655,-162 871.0696,-162 871.0696,-162"/>
<polygon fill="#000000" stroke="#000000" points="871.0697,-165.5001 881.0696,-162 871.0696,-158.5001 871.0697,-165.5001"/>
</g>
<!-- RaceComponent -->
<g id="node10" class="node">
<title>RaceComponent</title>
<polygon fill="#ffffb3" stroke="#000000" points="573.8132,-122 464.1868,-122 464.1868,-86 573.8132,-86 573.8132,-122"/>
<text text-anchor="middle" x="519" y="-99.8" font-family="Times,serif" font-size="14.00" fill="#000000">RaceComponent</text>
</g>
<!-- RaceComponent&#45;&gt;HomeModule -->
<g id="edge10" class="edge">
<title>RaceComponent&#45;&gt;HomeModule</title>
<path fill="none" stroke="#000000" d="M519,-122.2222C519,-140.8285 519,-167 519,-167 519,-167 871.0825,-167 871.0825,-167"/>
<polygon fill="#000000" stroke="#000000" points="871.0825,-170.5001 881.0825,-167 871.0825,-163.5001 871.0825,-170.5001"/>
</g>
<!-- HomeComponent  -->
<g id="node15" class="node">
<title>HomeComponent </title>
<polygon fill="#fb8072" stroke="#000000" points="987.5442,-252 868.4558,-252 868.4558,-216 987.5442,-216 987.5442,-252"/>
<text text-anchor="middle" x="928" y="-229.8" font-family="Times,serif" font-size="14.00" fill="#000000">HomeComponent </text>
</g>
<!-- HomeModule&#45;&gt;HomeComponent  -->
<g id="edge14" class="edge">
<title>HomeModule&#45;&gt;HomeComponent </title>
<path fill="none" stroke="#000000" stroke-dasharray="5,2" d="M928,-187.1061C928,-187.1061 928,-205.991 928,-205.991"/>
<polygon fill="#000000" stroke="#000000" points="924.5001,-205.9909 928,-215.991 931.5001,-205.991 924.5001,-205.9909"/>
</g>
<!-- CoreModule -->
<g id="node12" class="node">
<title>CoreModule</title>
<polygon fill="#8dd3c7" stroke="#000000" points="440.2619,-122 437.2619,-126 416.2619,-126 413.2619,-122 353.7381,-122 353.7381,-86 440.2619,-86 440.2619,-122"/>
<text text-anchor="middle" x="397" y="-99.8" font-family="Times,serif" font-size="14.00" fill="#000000">CoreModule</text>
</g>
<!-- CoreModule&#45;&gt;HomeModule -->
<g id="edge11" class="edge">
<title>CoreModule&#45;&gt;HomeModule</title>
<path fill="none" stroke="#000000" d="M397,-122.2228C397,-142.3652 397,-172 397,-172 397,-172 870.8773,-172 870.8773,-172"/>
<polygon fill="#000000" stroke="#000000" points="870.8773,-175.5001 880.8773,-172 870.8773,-168.5001 870.8773,-175.5001"/>
</g>
<!-- FragmentPolyfillModule -->
<g id="node13" class="node">
<title>FragmentPolyfillModule</title>
<polygon fill="#8dd3c7" stroke="#000000" points="335.7091,-122 332.7091,-126 311.7091,-126 308.7091,-122 180.2909,-122 180.2909,-86 335.7091,-86 335.7091,-122"/>
<text text-anchor="middle" x="258" y="-99.8" font-family="Times,serif" font-size="14.00" fill="#000000">FragmentPolyfillModule</text>
</g>
<!-- FragmentPolyfillModule&#45;&gt;HomeModule -->
<g id="edge12" class="edge">
<title>FragmentPolyfillModule&#45;&gt;HomeModule</title>
<path fill="none" stroke="#000000" d="M258,-122.0449C258,-143.6623 258,-177 258,-177 258,-177 871.1532,-177 871.1532,-177"/>
<polygon fill="#000000" stroke="#000000" points="871.1532,-180.5001 881.1532,-177 871.1532,-173.5001 871.1532,-180.5001"/>
</g>
<!-- HomeRoutingModule -->
<g id="node14" class="node">
<title>HomeRoutingModule</title>
<polygon fill="#8dd3c7" stroke="#000000" points="162.3795,-122 159.3795,-126 138.3795,-126 135.3795,-122 23.6205,-122 23.6205,-86 162.3795,-86 162.3795,-122"/>
<text text-anchor="middle" x="93" y="-99.8" font-family="Times,serif" font-size="14.00" fill="#000000">HomeRoutingModule</text>
</g>
<!-- HomeRoutingModule&#45;&gt;HomeModule -->
<g id="edge13" class="edge">
<title>HomeRoutingModule&#45;&gt;HomeModule</title>
<path fill="none" stroke="#000000" d="M93,-122.0908C93,-145.1328 93,-182 93,-182 93,-182 871.0164,-182 871.0164,-182"/>
<polygon fill="#000000" stroke="#000000" points="871.0164,-185.5001 881.0164,-182 871.0163,-178.5001 871.0164,-185.5001"/>
</g>
</g>
</svg>
