<?xml version="1.0" encoding="UTF-8" standalone="no"?>
<!DOCTYPE svg PUBLIC "-//W3C//DTD SVG 1.1//EN"
 "http://www.w3.org/Graphics/SVG/1.1/DTD/svg11.dtd">
<!-- Generated by graphviz version 2.40.1 (20161225.0304)
 -->
<!-- Title: dependencies Pages: 1 -->
<svg width="2270pt" height="284pt"
 viewBox="0.00 0.00 2270.00 284.00" xmlns="http://www.w3.org/2000/svg" xmlns:xlink="http://www.w3.org/1999/xlink">
<g id="graph0" class="graph" transform="scale(1 1) rotate(0) translate(4 280)">
<title>dependencies</title>
<polygon fill="#ffffff" stroke="transparent" points="-4,4 -4,-280 2266,-280 2266,4 -4,4"/>
<text text-anchor="start" x="1110.0091" y="-42.4" font-family="sans-serif" font-weight="bold" font-size="14.00" fill="#000000">Legend</text>
<polygon fill="#ffffb3" stroke="transparent" points="897,-10 897,-30 917,-30 917,-10 897,-10"/>
<text text-anchor="start" x="920.629" y="-15.4" font-family="sans-serif" font-size="14.00" fill="#000000"> &#160;Declarations</text>
<polygon fill="#8dd3c7" stroke="transparent" points="1010,-10 1010,-30 1030,-30 1030,-10 1010,-10"/>
<text text-anchor="start" x="1033.7251" y="-15.4" font-family="sans-serif" font-size="14.00" fill="#000000"> &#160;Module</text>
<polygon fill="#80b1d3" stroke="transparent" points="1096,-10 1096,-30 1116,-30 1116,-10 1096,-10"/>
<text text-anchor="start" x="1119.7812" y="-15.4" font-family="sans-serif" font-size="14.00" fill="#000000"> &#160;Bootstrap</text>
<polygon fill="#fdb462" stroke="transparent" points="1193,-10 1193,-30 1213,-30 1213,-10 1193,-10"/>
<text text-anchor="start" x="1216.6732" y="-15.4" font-family="sans-serif" font-size="14.00" fill="#000000"> &#160;Providers</text>
<polygon fill="#fb8072" stroke="transparent" points="1289,-10 1289,-30 1309,-30 1309,-10 1289,-10"/>
<text text-anchor="start" x="1312.7258" y="-15.4" font-family="sans-serif" font-size="14.00" fill="#000000"> &#160;Exports</text>
<g id="clust1" class="cluster">
<title>cluster_HomeModule</title>
<polygon fill="none" stroke="#000000" stroke-dasharray="1,5" points="8,-70 8,-268 2254,-268 2254,-70 8,-70"/>
</g>
<g id="clust2" class="cluster">
<title>cluster_HomeModule_declarations</title>
<polygon fill="none" stroke="#000000" points="781,-78 781,-130 2246,-130 2246,-78 781,-78"/>
</g>
<g id="clust13" class="cluster">
<title>cluster_HomeModule_imports</title>
<polygon fill="none" stroke="#000000" points="16,-78 16,-130 773,-130 773,-78 16,-78"/>
</g>
<g id="clust14" class="cluster">
<title>cluster_HomeModule_exports</title>
<polygon fill="none" stroke="#000000" points="1073,-208 1073,-260 1209,-260 1209,-208 1073,-208"/>
</g>
<!-- HomeComponent -->
<g id="node1" class="node">
<title>HomeComponent</title>
<polygon fill="#ffffb3" stroke="#000000" points="2237.5451,-122 2122.4549,-122 2122.4549,-86 2237.5451,-86 2237.5451,-122"/>
<text text-anchor="middle" x="2180" y="-99.8" font-family="Times,serif" font-size="14.00" fill="#000000">HomeComponent</text>
</g>
<!-- HomeModule -->
<g id="node11" class="node">
<title>HomeModule</title>
<polygon fill="#8dd3c7" stroke="#000000" points="1187.7619,-187 1184.7619,-191 1163.7619,-191 1160.7619,-187 1094.2381,-187 1094.2381,-151 1187.7619,-151 1187.7619,-187"/>
<text text-anchor="middle" x="1141" y="-164.8" font-family="Times,serif" font-size="14.00" fill="#000000">HomeModule</text>
</g>
<!-- HomeComponent&#45;&gt;HomeModule -->
<g id="edge1" class="edge">
<title>HomeComponent&#45;&gt;HomeModule</title>
<path fill="none" stroke="#000000" d="M2180,-122.3228C2180,-145.6602 2180,-183 2180,-183 2180,-183 1198.0023,-183 1198.0023,-183"/>
<polygon fill="#000000" stroke="#000000" points="1198.0023,-179.5001 1188.0023,-183 1198.0022,-186.5001 1198.0023,-179.5001"/>
</g>
<!-- BannerComponent -->
<g id="node2" class="node">
<title>BannerComponent</title>
<polygon fill="#ffffb3" stroke="#000000" points="2103.759,-122 1982.241,-122 1982.241,-86 2103.759,-86 2103.759,-122"/>
<text text-anchor="middle" x="2043" y="-99.8" font-family="Times,serif" font-size="14.00" fill="#000000">BannerComponent</text>
</g>
<!-- BannerComponent&#45;&gt;HomeModule -->
<g id="edge2" class="edge">
<title>BannerComponent&#45;&gt;HomeModule</title>
<path fill="none" stroke="#000000" d="M2043,-122.2921C2043,-144.2057 2043,-178 2043,-178 2043,-178 1197.9103,-178 1197.9103,-178"/>
<polygon fill="#000000" stroke="#000000" points="1197.9103,-174.5001 1187.9103,-178 1197.9102,-181.5001 1197.9103,-174.5001"/>
</g>
<!-- ProjectsComponent -->
<g id="node3" class="node">
<title>ProjectsComponent</title>
<polygon fill="#ffffb3" stroke="#000000" points="1964.4313,-122 1837.5687,-122 1837.5687,-86 1964.4313,-86 1964.4313,-122"/>
<text text-anchor="middle" x="1901" y="-99.8" font-family="Times,serif" font-size="14.00" fill="#000000">ProjectsComponent</text>
</g>
<!-- ProjectsComponent&#45;&gt;HomeModule -->
<g id="edge3" class="edge">
<title>ProjectsComponent&#45;&gt;HomeModule</title>
<path fill="none" stroke="#000000" d="M1901,-122.0267C1901,-142.7672 1901,-174 1901,-174 1901,-174 1197.9679,-174 1197.9679,-174"/>
<polygon fill="#000000" stroke="#000000" points="1197.9679,-170.5001 1187.9679,-174 1197.9678,-177.5001 1197.9679,-170.5001"/>
</g>
<!-- DeepracerComponent -->
<g id="node4" class="node">
<title>DeepracerComponent</title>
<polygon fill="#ffffb3" stroke="#000000" points="1819.3333,-122 1680.6667,-122 1680.6667,-86 1819.3333,-86 1819.3333,-122"/>
<text text-anchor="middle" x="1750" y="-99.8" font-family="Times,serif" font-size="14.00" fill="#000000">DeepracerComponent</text>
</g>
<!-- DeepracerComponent&#45;&gt;HomeModule -->
<g id="edge4" class="edge">
<title>DeepracerComponent&#45;&gt;HomeModule</title>
<path fill="none" stroke="#000000" d="M1750,-122.1061C1750,-141.3391 1750,-169 1750,-169 1750,-169 1197.776,-169 1197.776,-169"/>
<polygon fill="#000000" stroke="#000000" points="1197.776,-165.5001 1187.776,-169 1197.776,-172.5001 1197.776,-165.5001"/>
</g>
<!-- RaceComponent -->
<g id="node5" class="node">
<title>RaceComponent</title>
<polygon fill="#ffffb3" stroke="#000000" points="1662.8132,-122 1553.1868,-122 1553.1868,-86 1662.8132,-86 1662.8132,-122"/>
<text text-anchor="middle" x="1608" y="-99.8" font-family="Times,serif" font-size="14.00" fill="#000000">RaceComponent</text>
</g>
<!-- RaceComponent&#45;&gt;HomeModule -->
<g id="edge5" class="edge">
<title>RaceComponent&#45;&gt;HomeModule</title>
<path fill="none" stroke="#000000" d="M1608,-122.302C1608,-140.2699 1608,-165 1608,-165 1608,-165 1197.9159,-165 1197.9159,-165"/>
<polygon fill="#000000" stroke="#000000" points="1197.916,-161.5001 1187.9159,-165 1197.9159,-168.5001 1197.916,-161.5001"/>
</g>
<!-- JetsonComponent -->
<g id="node6" class="node">
<title>JetsonComponent</title>
<polygon fill="#ffffb3" stroke="#000000" points="1535.3273,-122 1418.6727,-122 1418.6727,-86 1535.3273,-86 1535.3273,-122"/>
<text text-anchor="middle" x="1477" y="-99.8" font-family="Times,serif" font-size="14.00" fill="#000000">JetsonComponent</text>
</g>
<!-- JetsonComponent&#45;&gt;HomeModule -->
<g id="edge6" class="edge">
<title>JetsonComponent&#45;&gt;HomeModule</title>
<path fill="none" stroke="#000000" d="M1477,-122.027C1477,-138.3976 1477,-160 1477,-160 1477,-160 1198.0731,-160 1198.0731,-160"/>
<polygon fill="#000000" stroke="#000000" points="1198.0732,-156.5001 1188.0731,-160 1198.0731,-163.5001 1198.0732,-156.5001"/>
</g>
<!-- ClubMembersComponent -->
<g id="node7" class="node">
<title>ClubMembersComponent</title>
<polygon fill="#ffffb3" stroke="#000000" points="1400.9298,-122 1239.0702,-122 1239.0702,-86 1400.9298,-86 1400.9298,-122"/>
<text text-anchor="middle" x="1320" y="-99.8" font-family="Times,serif" font-size="14.00" fill="#000000">ClubMembersComponent</text>
</g>
<!-- ClubMembersComponent&#45;&gt;HomeModule -->
<g id="edge7" class="edge">
<title>ClubMembersComponent&#45;&gt;HomeModule</title>
<path fill="none" stroke="#000000" d="M1320,-122.1871C1320,-137.1824 1320,-156 1320,-156 1320,-156 1198.0301,-156 1198.0301,-156"/>
<polygon fill="#000000" stroke="#000000" points="1198.0302,-152.5001 1188.0301,-156 1198.0301,-159.5001 1198.0302,-152.5001"/>
</g>
<!-- FounderLetterComponent -->
<g id="node8" class="node">
<title>FounderLetterComponent</title>
<polygon fill="#ffffb3" stroke="#000000" points="1221.9143,-122 1060.0857,-122 1060.0857,-86 1221.9143,-86 1221.9143,-122"/>
<text text-anchor="middle" x="1141" y="-99.8" font-family="Times,serif" font-size="14.00" fill="#000000">FounderLetterComponent</text>
</g>
<!-- FounderLetterComponent&#45;&gt;HomeModule -->
<g id="edge8" class="edge">
<title>FounderLetterComponent&#45;&gt;HomeModule</title>
<path fill="none" stroke="#000000" d="M1141,-122.1061C1141,-122.1061 1141,-140.991 1141,-140.991"/>
<polygon fill="#000000" stroke="#000000" points="1137.5001,-140.9909 1141,-150.991 1144.5001,-140.991 1137.5001,-140.9909"/>
</g>
<!-- FunFactComponent -->
<g id="node9" class="node">
<title>FunFactComponent</title>
<polygon fill="#ffffb3" stroke="#000000" points="1042.7176,-122 915.2824,-122 915.2824,-86 1042.7176,-86 1042.7176,-122"/>
<text text-anchor="middle" x="979" y="-99.8" font-family="Times,serif" font-size="14.00" fill="#000000">FunFactComponent</text>
</g>
<!-- FunFactComponent&#45;&gt;HomeModule -->
<g id="edge9" class="edge">
<title>FunFactComponent&#45;&gt;HomeModule</title>
<path fill="none" stroke="#000000" d="M979,-122.1871C979,-137.1824 979,-156 979,-156 979,-156 1084.1429,-156 1084.1429,-156"/>
<polygon fill="#000000" stroke="#000000" points="1084.1429,-159.5001 1094.1429,-156 1084.1429,-152.5001 1084.1429,-159.5001"/>
</g>
<!-- BlogComponent -->
<g id="node10" class="node">
<title>BlogComponent</title>
<polygon fill="#ffffb3" stroke="#000000" points="897.0605,-122 788.9395,-122 788.9395,-86 897.0605,-86 897.0605,-122"/>
<text text-anchor="middle" x="843" y="-99.8" font-family="Times,serif" font-size="14.00" fill="#000000">BlogComponent</text>
</g>
<!-- BlogComponent&#45;&gt;HomeModule -->
<g id="edge10" class="edge">
<title>BlogComponent&#45;&gt;HomeModule</title>
<path fill="none" stroke="#000000" d="M843,-122.027C843,-138.3976 843,-160 843,-160 843,-160 1084.1097,-160 1084.1097,-160"/>
<polygon fill="#000000" stroke="#000000" points="1084.1097,-163.5001 1094.1097,-160 1084.1096,-156.5001 1084.1097,-163.5001"/>
</g>
<!-- HomeComponent  -->
<g id="node17" class="node">
<title>HomeComponent </title>
<polygon fill="#fb8072" stroke="#000000" points="1200.5442,-252 1081.4558,-252 1081.4558,-216 1200.5442,-216 1200.5442,-252"/>
<text text-anchor="middle" x="1141" y="-229.8" font-family="Times,serif" font-size="14.00" fill="#000000">HomeComponent </text>
</g>
<!-- HomeModule&#45;&gt;HomeComponent  -->
<g id="edge16" class="edge">
<title>HomeModule&#45;&gt;HomeComponent </title>
<path fill="none" stroke="#000000" stroke-dasharray="5,2" d="M1141,-187.1061C1141,-187.1061 1141,-205.991 1141,-205.991"/>
<polygon fill="#000000" stroke="#000000" points="1137.5001,-205.9909 1141,-215.991 1144.5001,-205.991 1137.5001,-205.9909"/>
</g>
<!-- CommonModule -->
<g id="node12" class="node">
<title>CommonModule</title>
<polygon fill="#8dd3c7" stroke="#000000" points="764.6681,-122 761.6681,-126 740.6681,-126 737.6681,-122 653.3319,-122 653.3319,-86 764.6681,-86 764.6681,-122"/>
<text text-anchor="middle" x="709" y="-99.8" font-family="Times,serif" font-size="14.00" fill="#000000">CommonModule</text>
</g>
<!-- CommonModule&#45;&gt;HomeModule -->
<g id="edge11" class="edge">
<title>CommonModule&#45;&gt;HomeModule</title>
<path fill="none" stroke="#000000" d="M709,-122.302C709,-140.2699 709,-165 709,-165 709,-165 1083.9461,-165 1083.9461,-165"/>
<polygon fill="#000000" stroke="#000000" points="1083.9461,-168.5001 1093.9461,-165 1083.946,-161.5001 1083.9461,-168.5001"/>
</g>
<!-- FragmentPolyfillModule.forRoot(args) -->
<g id="node13" class="node">
<title>FragmentPolyfillModule.forRoot(args)</title>
<polygon fill="#8dd3c7" stroke="#000000" points="635.3984,-122 632.3984,-126 611.3984,-126 608.3984,-122 400.6016,-122 400.6016,-86 635.3984,-86 635.3984,-122"/>
<text text-anchor="middle" x="518" y="-99.8" font-family="Times,serif" font-size="14.00" fill="#000000">FragmentPolyfillModule.forRoot(args)</text>
</g>
<!-- FragmentPolyfillModule.forRoot(args)&#45;&gt;HomeModule -->
<g id="edge12" class="edge">
<title>FragmentPolyfillModule.forRoot(args)&#45;&gt;HomeModule</title>
<path fill="none" stroke="#000000" d="M518,-122.1061C518,-141.3391 518,-169 518,-169 518,-169 1084.1737,-169 1084.1737,-169"/>
<polygon fill="#000000" stroke="#000000" points="1084.1738,-172.5001 1094.1737,-169 1084.1737,-165.5001 1084.1738,-172.5001"/>
</g>
<!-- RouterModule -->
<g id="node14" class="node">
<title>RouterModule</title>
<polygon fill="#8dd3c7" stroke="#000000" points="382.6528,-122 379.6528,-126 358.6528,-126 355.6528,-122 285.3472,-122 285.3472,-86 382.6528,-86 382.6528,-122"/>
<text text-anchor="middle" x="334" y="-99.8" font-family="Times,serif" font-size="14.00" fill="#000000">RouterModule</text>
</g>
<!-- RouterModule&#45;&gt;HomeModule -->
<g id="edge13" class="edge">
<title>RouterModule&#45;&gt;HomeModule</title>
<path fill="none" stroke="#000000" d="M334,-122.0267C334,-142.7672 334,-174 334,-174 334,-174 1084.1241,-174 1084.1241,-174"/>
<polygon fill="#000000" stroke="#000000" points="1084.1242,-177.5001 1094.1241,-174 1084.1241,-170.5001 1084.1242,-177.5001"/>
</g>
<!-- HomeRoutingModule -->
<g id="node15" class="node">
<title>HomeRoutingModule</title>
<polygon fill="#8dd3c7" stroke="#000000" points="267.3795,-122 264.3795,-126 243.3795,-126 240.3795,-122 128.6205,-122 128.6205,-86 267.3795,-86 267.3795,-122"/>
<text text-anchor="middle" x="198" y="-99.8" font-family="Times,serif" font-size="14.00" fill="#000000">HomeRoutingModule</text>
</g>
<!-- HomeRoutingModule&#45;&gt;HomeModule -->
<g id="edge14" class="edge">
<title>HomeRoutingModule&#45;&gt;HomeModule</title>
<path fill="none" stroke="#000000" d="M198,-122.2921C198,-144.2057 198,-178 198,-178 198,-178 1084.2365,-178 1084.2365,-178"/>
<polygon fill="#000000" stroke="#000000" points="1084.2365,-181.5001 1094.2365,-178 1084.2364,-174.5001 1084.2365,-181.5001"/>
</g>
<!-- CoreModule -->
<g id="node16" class="node">
<title>CoreModule</title>
<polygon fill="#8dd3c7" stroke="#000000" points="110.2619,-122 107.2619,-126 86.2619,-126 83.2619,-122 23.7381,-122 23.7381,-86 110.2619,-86 110.2619,-122"/>
<text text-anchor="middle" x="67" y="-99.8" font-family="Times,serif" font-size="14.00" fill="#000000">CoreModule</text>
</g>
<!-- CoreModule&#45;&gt;HomeModule -->
<g id="edge15" class="edge">
<title>CoreModule&#45;&gt;HomeModule</title>
<path fill="none" stroke="#000000" d="M67,-122.3228C67,-145.6602 67,-183 67,-183 67,-183 1084.161,-183 1084.161,-183"/>
<polygon fill="#000000" stroke="#000000" points="1084.161,-186.5001 1094.161,-183 1084.1609,-179.5001 1084.161,-186.5001"/>
</g>
</g>
</svg>
