<?xml version="1.0" encoding="UTF-8" standalone="no"?>
<!DOCTYPE svg PUBLIC "-//W3C//DTD SVG 1.1//EN"
 "http://www.w3.org/Graphics/SVG/1.1/DTD/svg11.dtd">
<!-- Generated by graphviz version 2.40.1 (20161225.0304)
 -->
<!-- Title: dependencies Pages: 1 -->
<svg width="1684pt" height="284pt"
 viewBox="0.00 0.00 1684.00 284.00" xmlns="http://www.w3.org/2000/svg" xmlns:xlink="http://www.w3.org/1999/xlink">
<g id="graph0" class="graph" transform="scale(1 1) rotate(0) translate(4 280)">
<title>dependencies</title>
<polygon fill="#ffffff" stroke="transparent" points="-4,4 -4,-280 1680,-280 1680,4 -4,4"/>
<text text-anchor="start" x="817.0091" y="-42.4" font-family="sans-serif" font-weight="bold" font-size="14.00" fill="#000000">Legend</text>
<polygon fill="#ffffb3" stroke="transparent" points="604,-10 604,-30 624,-30 624,-10 604,-10"/>
<text text-anchor="start" x="627.629" y="-15.4" font-family="sans-serif" font-size="14.00" fill="#000000"> &#160;Declarations</text>
<polygon fill="#8dd3c7" stroke="transparent" points="717,-10 717,-30 737,-30 737,-10 717,-10"/>
<text text-anchor="start" x="740.7251" y="-15.4" font-family="sans-serif" font-size="14.00" fill="#000000"> &#160;Module</text>
<polygon fill="#80b1d3" stroke="transparent" points="803,-10 803,-30 823,-30 823,-10 803,-10"/>
<text text-anchor="start" x="826.7812" y="-15.4" font-family="sans-serif" font-size="14.00" fill="#000000"> &#160;Bootstrap</text>
<polygon fill="#fdb462" stroke="transparent" points="900,-10 900,-30 920,-30 920,-10 900,-10"/>
<text text-anchor="start" x="923.6732" y="-15.4" font-family="sans-serif" font-size="14.00" fill="#000000"> &#160;Providers</text>
<polygon fill="#fb8072" stroke="transparent" points="996,-10 996,-30 1016,-30 1016,-10 996,-10"/>
<text text-anchor="start" x="1019.7258" y="-15.4" font-family="sans-serif" font-size="14.00" fill="#000000"> &#160;Exports</text>
<g id="clust1" class="cluster">
<title>cluster_HomeModule</title>
<polygon fill="none" stroke="#000000" stroke-dasharray="1,5" points="8,-70 8,-268 1668,-268 1668,-70 8,-70"/>
</g>
<g id="clust2" class="cluster">
<title>cluster_HomeModule_declarations</title>
<polygon fill="none" stroke="#000000" points="196,-78 196,-130 1660,-130 1660,-78 196,-78"/>
</g>
<g id="clust13" class="cluster">
<title>cluster_HomeModule_imports</title>
<polygon fill="none" stroke="#000000" points="16,-78 16,-130 188,-130 188,-78 16,-78"/>
</g>
<g id="clust14" class="cluster">
<title>cluster_HomeModule_exports</title>
<polygon fill="none" stroke="#000000" points="739,-208 739,-260 875,-260 875,-208 739,-208"/>
</g>
<!-- BannerComponent -->
<g id="node1" class="node">
<title>BannerComponent</title>
<polygon fill="#ffffb3" stroke="#000000" points="1651.759,-122 1530.241,-122 1530.241,-86 1651.759,-86 1651.759,-122"/>
<text text-anchor="middle" x="1591" y="-99.8" font-family="Times,serif" font-size="14.00" fill="#000000">BannerComponent</text>
</g>
<!-- HomeModule -->
<g id="node11" class="node">
<title>HomeModule</title>
<polygon fill="#8dd3c7" stroke="#000000" points="853.7619,-187 850.7619,-191 829.7619,-191 826.7619,-187 760.2381,-187 760.2381,-151 853.7619,-151 853.7619,-187"/>
<text text-anchor="middle" x="807" y="-164.8" font-family="Times,serif" font-size="14.00" fill="#000000">HomeModule</text>
</g>
<!-- BannerComponent&#45;&gt;HomeModule -->
<g id="edge1" class="edge">
<title>BannerComponent&#45;&gt;HomeModule</title>
<path fill="none" stroke="#000000" d="M1591,-122.2479C1591,-145.0179 1591,-181 1591,-181 1591,-181 863.9856,-181 863.9856,-181"/>
<polygon fill="#000000" stroke="#000000" points="863.9857,-177.5001 853.9856,-181 863.9856,-184.5001 863.9857,-177.5001"/>
</g>
<!-- BlogComponent -->
<g id="node2" class="node">
<title>BlogComponent</title>
<polygon fill="#ffffb3" stroke="#000000" points="1512.0605,-122 1403.9395,-122 1403.9395,-86 1512.0605,-86 1512.0605,-122"/>
<text text-anchor="middle" x="1458" y="-99.8" font-family="Times,serif" font-size="14.00" fill="#000000">BlogComponent</text>
</g>
<!-- BlogComponent&#45;&gt;HomeModule -->
<g id="edge2" class="edge">
<title>BlogComponent&#45;&gt;HomeModule</title>
<path fill="none" stroke="#000000" d="M1458,-122.2843C1458,-143.3211 1458,-175 1458,-175 1458,-175 863.8183,-175 863.8183,-175"/>
<polygon fill="#000000" stroke="#000000" points="863.8183,-171.5001 853.8183,-175 863.8183,-178.5001 863.8183,-171.5001"/>
</g>
<!-- ClubMembersComponent -->
<g id="node3" class="node">
<title>ClubMembersComponent</title>
<polygon fill="#ffffb3" stroke="#000000" points="1385.9298,-122 1224.0702,-122 1224.0702,-86 1385.9298,-86 1385.9298,-122"/>
<text text-anchor="middle" x="1305" y="-99.8" font-family="Times,serif" font-size="14.00" fill="#000000">ClubMembersComponent</text>
</g>
<!-- ClubMembersComponent&#45;&gt;HomeModule -->
<g id="edge3" class="edge">
<title>ClubMembersComponent&#45;&gt;HomeModule</title>
<path fill="none" stroke="#000000" d="M1305,-122.1061C1305,-141.3391 1305,-169 1305,-169 1305,-169 863.8506,-169 863.8506,-169"/>
<polygon fill="#000000" stroke="#000000" points="863.8507,-165.5001 853.8506,-169 863.8506,-172.5001 863.8507,-165.5001"/>
</g>
<!-- DeepracerComponent -->
<g id="node4" class="node">
<title>DeepracerComponent</title>
<polygon fill="#ffffb3" stroke="#000000" points="1206.3333,-122 1067.6667,-122 1067.6667,-86 1206.3333,-86 1206.3333,-122"/>
<text text-anchor="middle" x="1137" y="-99.8" font-family="Times,serif" font-size="14.00" fill="#000000">DeepracerComponent</text>
</g>
<!-- DeepracerComponent&#45;&gt;HomeModule -->
<g id="edge4" class="edge">
<title>DeepracerComponent&#45;&gt;HomeModule</title>
<path fill="none" stroke="#000000" d="M1137,-122.0225C1137,-139.3734 1137,-163 1137,-163 1137,-163 863.9305,-163 863.9305,-163"/>
<polygon fill="#000000" stroke="#000000" points="863.9305,-159.5001 853.9305,-163 863.9305,-166.5001 863.9305,-159.5001"/>
</g>
<!-- FounderLetterComponent -->
<g id="node5" class="node">
<title>FounderLetterComponent</title>
<polygon fill="#ffffb3" stroke="#000000" points="1049.9143,-122 888.0857,-122 888.0857,-86 1049.9143,-86 1049.9143,-122"/>
<text text-anchor="middle" x="969" y="-99.8" font-family="Times,serif" font-size="14.00" fill="#000000">FounderLetterComponent</text>
</g>
<!-- FounderLetterComponent&#45;&gt;HomeModule -->
<g id="edge5" class="edge">
<title>FounderLetterComponent&#45;&gt;HomeModule</title>
<path fill="none" stroke="#000000" d="M969,-122.2396C969,-137.5706 969,-157 969,-157 969,-157 863.8571,-157 863.8571,-157"/>
<polygon fill="#000000" stroke="#000000" points="863.8571,-153.5001 853.8571,-157 863.8571,-160.5001 863.8571,-153.5001"/>
</g>
<!-- FunFactComponent -->
<g id="node6" class="node">
<title>FunFactComponent</title>
<polygon fill="#ffffb3" stroke="#000000" points="870.7176,-122 743.2824,-122 743.2824,-86 870.7176,-86 870.7176,-122"/>
<text text-anchor="middle" x="807" y="-99.8" font-family="Times,serif" font-size="14.00" fill="#000000">FunFactComponent</text>
</g>
<!-- FunFactComponent&#45;&gt;HomeModule -->
<g id="edge6" class="edge">
<title>FunFactComponent&#45;&gt;HomeModule</title>
<path fill="none" stroke="#000000" d="M807,-122.1061C807,-122.1061 807,-140.991 807,-140.991"/>
<polygon fill="#000000" stroke="#000000" points="803.5001,-140.9909 807,-150.991 810.5001,-140.991 803.5001,-140.9909"/>
</g>
<!-- HomeComponent -->
<g id="node7" class="node">
<title>HomeComponent</title>
<polygon fill="#ffffb3" stroke="#000000" points="725.5451,-122 610.4549,-122 610.4549,-86 725.5451,-86 725.5451,-122"/>
<text text-anchor="middle" x="668" y="-99.8" font-family="Times,serif" font-size="14.00" fill="#000000">HomeComponent</text>
</g>
<!-- HomeComponent&#45;&gt;HomeModule -->
<g id="edge7" class="edge">
<title>HomeComponent&#45;&gt;HomeModule</title>
<path fill="none" stroke="#000000" d="M668,-122.2396C668,-137.5706 668,-157 668,-157 668,-157 749.9409,-157 749.9409,-157"/>
<polygon fill="#000000" stroke="#000000" points="749.941,-160.5001 759.9409,-157 749.9409,-153.5001 749.941,-160.5001"/>
</g>
<!-- JetsonComponent -->
<g id="node8" class="node">
<title>JetsonComponent</title>
<polygon fill="#ffffb3" stroke="#000000" points="592.3273,-122 475.6727,-122 475.6727,-86 592.3273,-86 592.3273,-122"/>
<text text-anchor="middle" x="534" y="-99.8" font-family="Times,serif" font-size="14.00" fill="#000000">JetsonComponent</text>
</g>
<!-- JetsonComponent&#45;&gt;HomeModule -->
<g id="edge8" class="edge">
<title>JetsonComponent&#45;&gt;HomeModule</title>
<path fill="none" stroke="#000000" d="M534,-122.0225C534,-139.3734 534,-163 534,-163 534,-163 750.0696,-163 750.0696,-163"/>
<polygon fill="#000000" stroke="#000000" points="750.0697,-166.5001 760.0696,-163 750.0696,-159.5001 750.0697,-166.5001"/>
</g>
<!-- ProjectsComponent -->
<g id="node9" class="node">
<title>ProjectsComponent</title>
<polygon fill="#ffffb3" stroke="#000000" points="458.4313,-122 331.5687,-122 331.5687,-86 458.4313,-86 458.4313,-122"/>
<text text-anchor="middle" x="395" y="-99.8" font-family="Times,serif" font-size="14.00" fill="#000000">ProjectsComponent</text>
</g>
<!-- ProjectsComponent&#45;&gt;HomeModule -->
<g id="edge9" class="edge">
<title>ProjectsComponent&#45;&gt;HomeModule</title>
<path fill="none" stroke="#000000" d="M395,-122.1061C395,-141.3391 395,-169 395,-169 395,-169 750.1395,-169 750.1395,-169"/>
<polygon fill="#000000" stroke="#000000" points="750.1395,-172.5001 760.1395,-169 750.1394,-165.5001 750.1395,-172.5001"/>
</g>
<!-- RaceComponent -->
<g id="node10" class="node">
<title>RaceComponent</title>
<polygon fill="#ffffb3" stroke="#000000" points="313.8132,-122 204.1868,-122 204.1868,-86 313.8132,-86 313.8132,-122"/>
<text text-anchor="middle" x="259" y="-99.8" font-family="Times,serif" font-size="14.00" fill="#000000">RaceComponent</text>
</g>
<!-- RaceComponent&#45;&gt;HomeModule -->
<g id="edge10" class="edge">
<title>RaceComponent&#45;&gt;HomeModule</title>
<path fill="none" stroke="#000000" d="M259,-122.2843C259,-143.3211 259,-175 259,-175 259,-175 749.8035,-175 749.8035,-175"/>
<polygon fill="#000000" stroke="#000000" points="749.8036,-178.5001 759.8035,-175 749.8035,-171.5001 749.8036,-178.5001"/>
</g>
<!-- HomeComponent  -->
<g id="node13" class="node">
<title>HomeComponent </title>
<polygon fill="#fb8072" stroke="#000000" points="866.5442,-252 747.4558,-252 747.4558,-216 866.5442,-216 866.5442,-252"/>
<text text-anchor="middle" x="807" y="-229.8" font-family="Times,serif" font-size="14.00" fill="#000000">HomeComponent </text>
</g>
<!-- HomeModule&#45;&gt;HomeComponent  -->
<g id="edge12" class="edge">
<title>HomeModule&#45;&gt;HomeComponent </title>
<path fill="none" stroke="#000000" stroke-dasharray="5,2" d="M807,-187.1061C807,-187.1061 807,-205.991 807,-205.991"/>
<polygon fill="#000000" stroke="#000000" points="803.5001,-205.9909 807,-215.991 810.5001,-205.991 803.5001,-205.9909"/>
</g>
<!-- FragmentPolyfillModule -->
<g id="node12" class="node">
<title>FragmentPolyfillModule</title>
<polygon fill="#8dd3c7" stroke="#000000" points="179.7091,-122 176.7091,-126 155.7091,-126 152.7091,-122 24.2909,-122 24.2909,-86 179.7091,-86 179.7091,-122"/>
<text text-anchor="middle" x="102" y="-99.8" font-family="Times,serif" font-size="14.00" fill="#000000">FragmentPolyfillModule</text>
</g>
<!-- FragmentPolyfillModule&#45;&gt;HomeModule -->
<g id="edge11" class="edge">
<title>FragmentPolyfillModule&#45;&gt;HomeModule</title>
<path fill="none" stroke="#000000" d="M102,-122.2479C102,-145.0179 102,-181 102,-181 102,-181 750.197,-181 750.197,-181"/>
<polygon fill="#000000" stroke="#000000" points="750.197,-184.5001 760.197,-181 750.197,-177.5001 750.197,-184.5001"/>
</g>
</g>
</svg>
