<?xml version="1.0" encoding="UTF-8" standalone="no"?>
<!DOCTYPE svg PUBLIC "-//W3C//DTD SVG 1.1//EN"
 "http://www.w3.org/Graphics/SVG/1.1/DTD/svg11.dtd">
<!-- Generated by graphviz version 2.40.1 (20161225.0304)
 -->
<!-- Title: dependencies Pages: 1 -->
<svg width="504pt" height="211pt"
 viewBox="0.00 0.00 504.00 211.00" xmlns="http://www.w3.org/2000/svg" xmlns:xlink="http://www.w3.org/1999/xlink">
<g id="graph0" class="graph" transform="scale(1 1) rotate(0) translate(4 207)">
<title>dependencies</title>
<polygon fill="#ffffff" stroke="transparent" points="-4,4 -4,-207 500,-207 500,4 -4,4"/>
<text text-anchor="start" x="227.0091" y="-42.4" font-family="sans-serif" font-weight="bold" font-size="14.00" fill="#000000">Legend</text>
<polygon fill="#ffffb3" stroke="transparent" points="14,-10 14,-30 34,-30 34,-10 14,-10"/>
<text text-anchor="start" x="37.629" y="-15.4" font-family="sans-serif" font-size="14.00" fill="#000000"> &#160;Declarations</text>
<polygon fill="#8dd3c7" stroke="transparent" points="127,-10 127,-30 147,-30 147,-10 127,-10"/>
<text text-anchor="start" x="150.7251" y="-15.4" font-family="sans-serif" font-size="14.00" fill="#000000"> &#160;Module</text>
<polygon fill="#80b1d3" stroke="transparent" points="213,-10 213,-30 233,-30 233,-10 213,-10"/>
<text text-anchor="start" x="236.7812" y="-15.4" font-family="sans-serif" font-size="14.00" fill="#000000"> &#160;Bootstrap</text>
<polygon fill="#fdb462" stroke="transparent" points="310,-10 310,-30 330,-30 330,-10 310,-10"/>
<text text-anchor="start" x="333.6732" y="-15.4" font-family="sans-serif" font-size="14.00" fill="#000000"> &#160;Providers</text>
<polygon fill="#fb8072" stroke="transparent" points="406,-10 406,-30 426,-30 426,-10 406,-10"/>
<text text-anchor="start" x="429.7258" y="-15.4" font-family="sans-serif" font-size="14.00" fill="#000000"> &#160;Exports</text>
<g id="clust1" class="cluster">
<title>cluster_TimelineModule</title>
<polygon fill="none" stroke="#000000" stroke-dasharray="1,5" points="27,-70 27,-195 469,-195 469,-70 27,-70"/>
</g>
<g id="clust2" class="cluster">
<title>cluster_TimelineModule_declarations</title>
<polygon fill="none" stroke="#000000" points="319,-78 319,-130 461,-130 461,-78 319,-78"/>
</g>
<g id="clust4" class="cluster">
<title>cluster_TimelineModule_imports</title>
<polygon fill="none" stroke="#000000" points="35,-78 35,-130 311,-130 311,-78 35,-78"/>
</g>
<!-- ContentComponent -->
<g id="node1" class="node">
<title>ContentComponent</title>
<polygon fill="#ffffb3" stroke="#000000" points="452.6652,-122 327.3348,-122 327.3348,-86 452.6652,-86 452.6652,-122"/>
<text text-anchor="middle" x="390" y="-99.8" font-family="Times,serif" font-size="14.00" fill="#000000">ContentComponent</text>
</g>
<!-- TimelineModule -->
<g id="node2" class="node">
<title>TimelineModule</title>
<polygon fill="#8dd3c7" stroke="#000000" points="315.094,-187 312.094,-191 291.094,-191 288.094,-187 204.906,-187 204.906,-151 315.094,-151 315.094,-187"/>
<text text-anchor="middle" x="260" y="-164.8" font-family="Times,serif" font-size="14.00" fill="#000000">TimelineModule</text>
</g>
<!-- ContentComponent&#45;&gt;TimelineModule -->
<g id="edge1" class="edge">
<title>ContentComponent&#45;&gt;TimelineModule</title>
<path fill="none" stroke="#000000" d="M327.143,-104C316.7136,-104 309.2139,-104 309.2139,-104 309.2139,-104 309.2139,-140.8939 309.2139,-140.8939"/>
<polygon fill="#000000" stroke="#000000" points="305.714,-140.8938 309.2139,-150.8939 312.714,-140.8939 305.714,-140.8938"/>
</g>
<!-- CoreModule -->
<g id="node3" class="node">
<title>CoreModule</title>
<polygon fill="#8dd3c7" stroke="#000000" points="303.2619,-122 300.2619,-126 279.2619,-126 276.2619,-122 216.7381,-122 216.7381,-86 303.2619,-86 303.2619,-122"/>
<text text-anchor="middle" x="260" y="-99.8" font-family="Times,serif" font-size="14.00" fill="#000000">CoreModule</text>
</g>
<!-- CoreModule&#45;&gt;TimelineModule -->
<g id="edge2" class="edge">
<title>CoreModule&#45;&gt;TimelineModule</title>
<path fill="none" stroke="#000000" d="M260,-122.1061C260,-122.1061 260,-140.991 260,-140.991"/>
<polygon fill="#000000" stroke="#000000" points="256.5001,-140.9909 260,-150.991 263.5001,-140.991 256.5001,-140.9909"/>
</g>
<!-- TimelineRoutingModule -->
<g id="node4" class="node">
<title>TimelineRoutingModule</title>
<polygon fill="#8dd3c7" stroke="#000000" points="198.7119,-122 195.7119,-126 174.7119,-126 171.7119,-122 43.2881,-122 43.2881,-86 198.7119,-86 198.7119,-122"/>
<text text-anchor="middle" x="121" y="-99.8" font-family="Times,serif" font-size="14.00" fill="#000000">TimelineRoutingModule</text>
</g>
<!-- TimelineRoutingModule&#45;&gt;TimelineModule -->
<g id="edge3" class="edge">
<title>TimelineRoutingModule&#45;&gt;TimelineModule</title>
<path fill="none" stroke="#000000" d="M198.6771,-104C206.017,-104 210.7861,-104 210.7861,-104 210.7861,-104 210.7861,-140.8939 210.7861,-140.8939"/>
<polygon fill="#000000" stroke="#000000" points="207.2862,-140.8938 210.7861,-150.8939 214.2862,-140.8939 207.2862,-140.8938"/>
</g>
</g>
</svg>
