<?xml version="1.0" encoding="UTF-8" standalone="no"?>
<!DOCTYPE svg PUBLIC "-//W3C//DTD SVG 1.1//EN"
 "http://www.w3.org/Graphics/SVG/1.1/DTD/svg11.dtd">
<!-- Generated by graphviz version 2.40.1 (20161225.0304)
 -->
<!-- Title: dependencies Pages: 1 -->
<svg width="769pt" height="211pt"
 viewBox="0.00 0.00 769.00 211.00" xmlns="http://www.w3.org/2000/svg" xmlns:xlink="http://www.w3.org/1999/xlink">
<g id="graph0" class="graph" transform="scale(1 1) rotate(0) translate(4 207)">
<title>dependencies</title>
<polygon fill="#ffffff" stroke="transparent" points="-4,4 -4,-207 765,-207 765,4 -4,4"/>
<text text-anchor="start" x="359.5091" y="-42.4" font-family="sans-serif" font-weight="bold" font-size="14.00" fill="#000000">Legend</text>
<polygon fill="#ffffb3" stroke="transparent" points="146.5,-10 146.5,-30 166.5,-30 166.5,-10 146.5,-10"/>
<text text-anchor="start" x="170.129" y="-15.4" font-family="sans-serif" font-size="14.00" fill="#000000"> &#160;Declarations</text>
<polygon fill="#8dd3c7" stroke="transparent" points="259.5,-10 259.5,-30 279.5,-30 279.5,-10 259.5,-10"/>
<text text-anchor="start" x="283.2251" y="-15.4" font-family="sans-serif" font-size="14.00" fill="#000000"> &#160;Module</text>
<polygon fill="#80b1d3" stroke="transparent" points="345.5,-10 345.5,-30 365.5,-30 365.5,-10 345.5,-10"/>
<text text-anchor="start" x="369.2812" y="-15.4" font-family="sans-serif" font-size="14.00" fill="#000000"> &#160;Bootstrap</text>
<polygon fill="#fdb462" stroke="transparent" points="442.5,-10 442.5,-30 462.5,-30 462.5,-10 442.5,-10"/>
<text text-anchor="start" x="466.1732" y="-15.4" font-family="sans-serif" font-size="14.00" fill="#000000"> &#160;Providers</text>
<polygon fill="#fb8072" stroke="transparent" points="538.5,-10 538.5,-30 558.5,-30 558.5,-10 538.5,-10"/>
<text text-anchor="start" x="562.2258" y="-15.4" font-family="sans-serif" font-size="14.00" fill="#000000"> &#160;Exports</text>
<g id="clust1" class="cluster">
<title>cluster_TimelineModule</title>
<polygon fill="none" stroke="#000000" stroke-dasharray="1,5" points="8,-70 8,-195 753,-195 753,-70 8,-70"/>
</g>
<g id="clust2" class="cluster">
<title>cluster_TimelineModule_declarations</title>
<polygon fill="none" stroke="#000000" points="603,-78 603,-130 745,-130 745,-78 603,-78"/>
</g>
<g id="clust4" class="cluster">
<title>cluster_TimelineModule_imports</title>
<polygon fill="none" stroke="#000000" points="16,-78 16,-130 595,-130 595,-78 16,-78"/>
</g>
<!-- ContentComponent -->
<g id="node1" class="node">
<title>ContentComponent</title>
<polygon fill="#ffffb3" stroke="#000000" points="736.6652,-122 611.3348,-122 611.3348,-86 736.6652,-86 736.6652,-122"/>
<text text-anchor="middle" x="674" y="-99.8" font-family="Times,serif" font-size="14.00" fill="#000000">ContentComponent</text>
</g>
<!-- TimelineModule -->
<g id="node2" class="node">
<title>TimelineModule</title>
<polygon fill="#8dd3c7" stroke="#000000" points="435.094,-187 432.094,-191 411.094,-191 408.094,-187 324.906,-187 324.906,-151 435.094,-151 435.094,-187"/>
<text text-anchor="middle" x="380" y="-164.8" font-family="Times,serif" font-size="14.00" fill="#000000">TimelineModule</text>
</g>
<!-- ContentComponent&#45;&gt;TimelineModule -->
<g id="edge1" class="edge">
<title>ContentComponent&#45;&gt;TimelineModule</title>
<path fill="none" stroke="#000000" d="M674,-122.2843C674,-143.3211 674,-175 674,-175 674,-175 445.2992,-175 445.2992,-175"/>
<polygon fill="#000000" stroke="#000000" points="445.2992,-171.5001 435.2992,-175 445.2991,-178.5001 445.2992,-171.5001"/>
</g>
<!-- CommonModule -->
<g id="node3" class="node">
<title>CommonModule</title>
<polygon fill="#8dd3c7" stroke="#000000" points="586.6681,-122 583.6681,-126 562.6681,-126 559.6681,-122 475.3319,-122 475.3319,-86 586.6681,-86 586.6681,-122"/>
<text text-anchor="middle" x="531" y="-99.8" font-family="Times,serif" font-size="14.00" fill="#000000">CommonModule</text>
</g>
<!-- CommonModule&#45;&gt;TimelineModule -->
<g id="edge2" class="edge">
<title>CommonModule&#45;&gt;TimelineModule</title>
<path fill="none" stroke="#000000" d="M531,-122.0225C531,-139.3734 531,-163 531,-163 531,-163 445.3694,-163 445.3694,-163"/>
<polygon fill="#000000" stroke="#000000" points="445.3694,-159.5001 435.3694,-163 445.3694,-166.5001 445.3694,-159.5001"/>
</g>
<!-- TimelineRoutingModule -->
<g id="node4" class="node">
<title>TimelineRoutingModule</title>
<polygon fill="#8dd3c7" stroke="#000000" points="457.7119,-122 454.7119,-126 433.7119,-126 430.7119,-122 302.2881,-122 302.2881,-86 457.7119,-86 457.7119,-122"/>
<text text-anchor="middle" x="380" y="-99.8" font-family="Times,serif" font-size="14.00" fill="#000000">TimelineRoutingModule</text>
</g>
<!-- TimelineRoutingModule&#45;&gt;TimelineModule -->
<g id="edge3" class="edge">
<title>TimelineRoutingModule&#45;&gt;TimelineModule</title>
<path fill="none" stroke="#000000" d="M380,-122.1061C380,-122.1061 380,-140.991 380,-140.991"/>
<polygon fill="#000000" stroke="#000000" points="376.5001,-140.9909 380,-150.991 383.5001,-140.991 376.5001,-140.9909"/>
</g>
<!-- CoreModule -->
<g id="node5" class="node">
<title>CoreModule</title>
<polygon fill="#8dd3c7" stroke="#000000" points="284.2619,-122 281.2619,-126 260.2619,-126 257.2619,-122 197.7381,-122 197.7381,-86 284.2619,-86 284.2619,-122"/>
<text text-anchor="middle" x="241" y="-99.8" font-family="Times,serif" font-size="14.00" fill="#000000">CoreModule</text>
</g>
<!-- CoreModule&#45;&gt;TimelineModule -->
<g id="edge4" class="edge">
<title>CoreModule&#45;&gt;TimelineModule</title>
<path fill="none" stroke="#000000" d="M241,-122.0225C241,-139.3734 241,-163 241,-163 241,-163 314.6641,-163 314.6641,-163"/>
<polygon fill="#000000" stroke="#000000" points="314.6642,-166.5001 324.6641,-163 314.6641,-159.5001 314.6642,-166.5001"/>
</g>
<!-- VerticalTimelineModule -->
<g id="node6" class="node">
<title>VerticalTimelineModule</title>
<polygon fill="#8dd3c7" stroke="#000000" points="179.6769,-122 176.6769,-126 155.6769,-126 152.6769,-122 24.3231,-122 24.3231,-86 179.6769,-86 179.6769,-122"/>
<text text-anchor="middle" x="102" y="-99.8" font-family="Times,serif" font-size="14.00" fill="#000000">VerticalTimelineModule</text>
</g>
<!-- VerticalTimelineModule&#45;&gt;TimelineModule -->
<g id="edge5" class="edge">
<title>VerticalTimelineModule&#45;&gt;TimelineModule</title>
<path fill="none" stroke="#000000" d="M102,-122.2843C102,-143.3211 102,-175 102,-175 102,-175 314.7438,-175 314.7438,-175"/>
<polygon fill="#000000" stroke="#000000" points="314.7438,-178.5001 324.7438,-175 314.7437,-171.5001 314.7438,-178.5001"/>
</g>
</g>
</svg>
