<?xml version="1.0" encoding="UTF-8" standalone="no"?>
<!DOCTYPE svg PUBLIC "-//W3C//DTD SVG 1.1//EN"
 "http://www.w3.org/Graphics/SVG/1.1/DTD/svg11.dtd">
<!-- Generated by graphviz version 2.40.1 (20161225.0304)
 -->
<!-- Title: dependencies Pages: 1 -->
<svg width="2141pt" height="211pt"
 viewBox="0.00 0.00 2141.00 211.00" xmlns="http://www.w3.org/2000/svg" xmlns:xlink="http://www.w3.org/1999/xlink">
<g id="graph0" class="graph" transform="scale(1 1) rotate(0) translate(4 207)">
<title>dependencies</title>
<polygon fill="#ffffff" stroke="transparent" points="-4,4 -4,-207 2137,-207 2137,4 -4,4"/>
<text text-anchor="start" x="1045.5091" y="-42.4" font-family="sans-serif" font-weight="bold" font-size="14.00" fill="#000000">Legend</text>
<polygon fill="#ffffb3" stroke="transparent" points="832.5,-10 832.5,-30 852.5,-30 852.5,-10 832.5,-10"/>
<text text-anchor="start" x="856.129" y="-15.4" font-family="sans-serif" font-size="14.00" fill="#000000"> &#160;Declarations</text>
<polygon fill="#8dd3c7" stroke="transparent" points="945.5,-10 945.5,-30 965.5,-30 965.5,-10 945.5,-10"/>
<text text-anchor="start" x="969.2251" y="-15.4" font-family="sans-serif" font-size="14.00" fill="#000000"> &#160;Module</text>
<polygon fill="#80b1d3" stroke="transparent" points="1031.5,-10 1031.5,-30 1051.5,-30 1051.5,-10 1031.5,-10"/>
<text text-anchor="start" x="1055.2812" y="-15.4" font-family="sans-serif" font-size="14.00" fill="#000000"> &#160;Bootstrap</text>
<polygon fill="#fdb462" stroke="transparent" points="1128.5,-10 1128.5,-30 1148.5,-30 1148.5,-10 1128.5,-10"/>
<text text-anchor="start" x="1152.1732" y="-15.4" font-family="sans-serif" font-size="14.00" fill="#000000"> &#160;Providers</text>
<polygon fill="#fb8072" stroke="transparent" points="1224.5,-10 1224.5,-30 1244.5,-30 1244.5,-10 1224.5,-10"/>
<text text-anchor="start" x="1248.2258" y="-15.4" font-family="sans-serif" font-size="14.00" fill="#000000"> &#160;Exports</text>
<g id="clust1" class="cluster">
<title>cluster_BlogEditorModule</title>
<polygon fill="none" stroke="#000000" stroke-dasharray="1,5" points="8,-70 8,-195 2125,-195 2125,-70 8,-70"/>
</g>
<g id="clust2" class="cluster">
<title>cluster_BlogEditorModule_declarations</title>
<polygon fill="none" stroke="#000000" points="1671,-78 1671,-130 2117,-130 2117,-78 1671,-78"/>
</g>
<g id="clust6" class="cluster">
<title>cluster_BlogEditorModule_imports</title>
<polygon fill="none" stroke="#000000" points="194,-78 194,-130 1663,-130 1663,-78 194,-78"/>
</g>
<g id="clust9" class="cluster">
<title>cluster_BlogEditorModule_providers</title>
<polygon fill="none" stroke="#000000" points="16,-78 16,-130 186,-130 186,-78 16,-78"/>
</g>
<!-- EditorPostComponent -->
<g id="node1" class="node">
<title>EditorPostComponent</title>
<polygon fill="#ffffb3" stroke="#000000" points="2109.4453,-122 1968.5547,-122 1968.5547,-86 2109.4453,-86 2109.4453,-122"/>
<text text-anchor="middle" x="2039" y="-99.8" font-family="Times,serif" font-size="14.00" fill="#000000">EditorPostComponent</text>
</g>
<!-- BlogEditorModule -->
<g id="node4" class="node">
<title>BlogEditorModule</title>
<polygon fill="#8dd3c7" stroke="#000000" points="1153.7716,-187 1150.7716,-191 1129.7716,-191 1126.7716,-187 1032.2284,-187 1032.2284,-151 1153.7716,-151 1153.7716,-187"/>
<text text-anchor="middle" x="1093" y="-164.8" font-family="Times,serif" font-size="14.00" fill="#000000">BlogEditorModule</text>
</g>
<!-- EditorPostComponent&#45;&gt;BlogEditorModule -->
<g id="edge1" class="edge">
<title>EditorPostComponent&#45;&gt;BlogEditorModule</title>
<path fill="none" stroke="#000000" d="M2039,-122.0908C2039,-145.1328 2039,-182 2039,-182 2039,-182 1163.9778,-182 1163.9778,-182"/>
<polygon fill="#000000" stroke="#000000" points="1163.9778,-178.5001 1153.9778,-182 1163.9777,-185.5001 1163.9778,-178.5001"/>
</g>
<!-- EditorPostsComponent -->
<g id="node2" class="node">
<title>EditorPostsComponent</title>
<polygon fill="#ffffb3" stroke="#000000" points="1950.8892,-122 1805.1108,-122 1805.1108,-86 1950.8892,-86 1950.8892,-122"/>
<text text-anchor="middle" x="1878" y="-99.8" font-family="Times,serif" font-size="14.00" fill="#000000">EditorPostsComponent</text>
</g>
<!-- EditorPostsComponent&#45;&gt;BlogEditorModule -->
<g id="edge2" class="edge">
<title>EditorPostsComponent&#45;&gt;BlogEditorModule</title>
<path fill="none" stroke="#000000" d="M1878,-122.0449C1878,-143.6623 1878,-177 1878,-177 1878,-177 1163.9444,-177 1163.9444,-177"/>
<polygon fill="#000000" stroke="#000000" points="1163.9445,-173.5001 1153.9444,-177 1163.9444,-180.5001 1163.9445,-173.5001"/>
</g>
<!-- TagsComponent -->
<g id="node3" class="node">
<title>TagsComponent</title>
<polygon fill="#ffffb3" stroke="#000000" points="1787.0452,-122 1678.9548,-122 1678.9548,-86 1787.0452,-86 1787.0452,-122"/>
<text text-anchor="middle" x="1733" y="-99.8" font-family="Times,serif" font-size="14.00" fill="#000000">TagsComponent</text>
</g>
<!-- TagsComponent&#45;&gt;BlogEditorModule -->
<g id="edge3" class="edge">
<title>TagsComponent&#45;&gt;BlogEditorModule</title>
<path fill="none" stroke="#000000" d="M1733,-122.2228C1733,-142.3652 1733,-172 1733,-172 1733,-172 1163.7866,-172 1163.7866,-172"/>
<polygon fill="#000000" stroke="#000000" points="1163.7867,-168.5001 1153.7866,-172 1163.7866,-175.5001 1163.7867,-168.5001"/>
</g>
<!-- CommonModule -->
<g id="node5" class="node">
<title>CommonModule</title>
<polygon fill="#8dd3c7" stroke="#000000" points="1654.6681,-122 1651.6681,-126 1630.6681,-126 1627.6681,-122 1543.3319,-122 1543.3319,-86 1654.6681,-86 1654.6681,-122"/>
<text text-anchor="middle" x="1599" y="-99.8" font-family="Times,serif" font-size="14.00" fill="#000000">CommonModule</text>
</g>
<!-- CommonModule&#45;&gt;BlogEditorModule -->
<g id="edge4" class="edge">
<title>CommonModule&#45;&gt;BlogEditorModule</title>
<path fill="none" stroke="#000000" d="M1599,-122.2222C1599,-140.8285 1599,-167 1599,-167 1599,-167 1163.7839,-167 1163.7839,-167"/>
<polygon fill="#000000" stroke="#000000" points="1163.784,-163.5001 1153.7839,-167 1163.7839,-170.5001 1163.784,-163.5001"/>
</g>
<!-- FormsModule -->
<g id="node6" class="node">
<title>FormsModule</title>
<polygon fill="#8dd3c7" stroke="#000000" points="1525.8288,-122 1522.8288,-126 1501.8288,-126 1498.8288,-122 1430.1712,-122 1430.1712,-86 1525.8288,-86 1525.8288,-122"/>
<text text-anchor="middle" x="1478" y="-99.8" font-family="Times,serif" font-size="14.00" fill="#000000">FormsModule</text>
</g>
<!-- FormsModule&#45;&gt;BlogEditorModule -->
<g id="edge5" class="edge">
<title>FormsModule&#45;&gt;BlogEditorModule</title>
<path fill="none" stroke="#000000" d="M1478,-122.0336C1478,-139.0597 1478,-162 1478,-162 1478,-162 1164.0044,-162 1164.0044,-162"/>
<polygon fill="#000000" stroke="#000000" points="1164.0044,-158.5001 1154.0044,-162 1164.0044,-165.5001 1164.0044,-158.5001"/>
</g>
<!-- BlogEditorRoutingModule -->
<g id="node7" class="node">
<title>BlogEditorRoutingModule</title>
<polygon fill="#8dd3c7" stroke="#000000" points="1412.3892,-122 1409.3892,-126 1388.3892,-126 1385.3892,-122 1245.6108,-122 1245.6108,-86 1412.3892,-86 1412.3892,-122"/>
<text text-anchor="middle" x="1329" y="-99.8" font-family="Times,serif" font-size="14.00" fill="#000000">BlogEditorRoutingModule</text>
</g>
<!-- BlogEditorRoutingModule&#45;&gt;BlogEditorModule -->
<g id="edge6" class="edge">
<title>BlogEditorRoutingModule&#45;&gt;BlogEditorModule</title>
<path fill="none" stroke="#000000" d="M1329,-122.2396C1329,-137.5706 1329,-157 1329,-157 1329,-157 1163.7759,-157 1163.7759,-157"/>
<polygon fill="#000000" stroke="#000000" points="1163.7759,-153.5001 1153.7759,-157 1163.7758,-160.5001 1163.7759,-153.5001"/>
</g>
<!-- AngularFireModule -->
<g id="node8" class="node">
<title>AngularFireModule</title>
<polygon fill="#8dd3c7" stroke="#000000" points="1227.9706,-122 1224.9706,-126 1203.9706,-126 1200.9706,-122 1100.0294,-122 1100.0294,-86 1227.9706,-86 1227.9706,-122"/>
<text text-anchor="middle" x="1164" y="-99.8" font-family="Times,serif" font-size="14.00" fill="#000000">AngularFireModule</text>
</g>
<!-- AngularFireModule&#45;&gt;BlogEditorModule -->
<g id="edge7" class="edge">
<title>AngularFireModule&#45;&gt;BlogEditorModule</title>
<path fill="none" stroke="#000000" d="M1126.9502,-122.1061C1126.9502,-122.1061 1126.9502,-140.991 1126.9502,-140.991"/>
<polygon fill="#000000" stroke="#000000" points="1123.4503,-140.9909 1126.9502,-150.991 1130.4503,-140.991 1123.4503,-140.9909"/>
</g>
<!-- MarkdownModule -->
<g id="node9" class="node">
<title>MarkdownModule</title>
<polygon fill="#8dd3c7" stroke="#000000" points="1082.4762,-122 1079.4762,-126 1058.4762,-126 1055.4762,-122 961.5238,-122 961.5238,-86 1082.4762,-86 1082.4762,-122"/>
<text text-anchor="middle" x="1022" y="-99.8" font-family="Times,serif" font-size="14.00" fill="#000000">MarkdownModule</text>
</g>
<!-- MarkdownModule&#45;&gt;BlogEditorModule -->
<g id="edge8" class="edge">
<title>MarkdownModule&#45;&gt;BlogEditorModule</title>
<path fill="none" stroke="#000000" d="M1057.3012,-122.1061C1057.3012,-122.1061 1057.3012,-140.991 1057.3012,-140.991"/>
<polygon fill="#000000" stroke="#000000" points="1053.8013,-140.9909 1057.3012,-150.991 1060.8013,-140.991 1053.8013,-140.9909"/>
</g>
<!-- MatChipsModule -->
<g id="node10" class="node">
<title>MatChipsModule</title>
<polygon fill="#8dd3c7" stroke="#000000" points="943.2716,-122 940.2716,-126 919.2716,-126 916.2716,-122 828.7284,-122 828.7284,-86 943.2716,-86 943.2716,-122"/>
<text text-anchor="middle" x="886" y="-99.8" font-family="Times,serif" font-size="14.00" fill="#000000">MatChipsModule</text>
</g>
<!-- MatChipsModule&#45;&gt;BlogEditorModule -->
<g id="edge9" class="edge">
<title>MatChipsModule&#45;&gt;BlogEditorModule</title>
<path fill="none" stroke="#000000" d="M886,-122.2396C886,-137.5706 886,-157 886,-157 886,-157 1022.0128,-157 1022.0128,-157"/>
<polygon fill="#000000" stroke="#000000" points="1022.0128,-160.5001 1032.0128,-157 1022.0127,-153.5001 1022.0128,-160.5001"/>
</g>
<!-- ReactiveFormsModule -->
<g id="node11" class="node">
<title>ReactiveFormsModule</title>
<polygon fill="#8dd3c7" stroke="#000000" points="810.3047,-122 807.3047,-126 786.3047,-126 783.3047,-122 665.6953,-122 665.6953,-86 810.3047,-86 810.3047,-122"/>
<text text-anchor="middle" x="738" y="-99.8" font-family="Times,serif" font-size="14.00" fill="#000000">ReactiveFormsModule</text>
</g>
<!-- ReactiveFormsModule&#45;&gt;BlogEditorModule -->
<g id="edge10" class="edge">
<title>ReactiveFormsModule&#45;&gt;BlogEditorModule</title>
<path fill="none" stroke="#000000" d="M738,-122.0336C738,-139.0597 738,-162 738,-162 738,-162 1021.9733,-162 1021.9733,-162"/>
<polygon fill="#000000" stroke="#000000" points="1021.9734,-165.5001 1031.9733,-162 1021.9733,-158.5001 1021.9734,-165.5001"/>
</g>
<!-- MatAutocompleteModule -->
<g id="node12" class="node">
<title>MatAutocompleteModule</title>
<polygon fill="#8dd3c7" stroke="#000000" points="647.9129,-122 644.9129,-126 623.9129,-126 620.9129,-122 486.0871,-122 486.0871,-86 647.9129,-86 647.9129,-122"/>
<text text-anchor="middle" x="567" y="-99.8" font-family="Times,serif" font-size="14.00" fill="#000000">MatAutocompleteModule</text>
</g>
<!-- MatAutocompleteModule&#45;&gt;BlogEditorModule -->
<g id="edge11" class="edge">
<title>MatAutocompleteModule&#45;&gt;BlogEditorModule</title>
<path fill="none" stroke="#000000" d="M567,-122.2222C567,-140.8285 567,-167 567,-167 567,-167 1022.1473,-167 1022.1473,-167"/>
<polygon fill="#000000" stroke="#000000" points="1022.1473,-170.5001 1032.1473,-167 1022.1472,-163.5001 1022.1473,-170.5001"/>
</g>
<!-- MatIconModule -->
<g id="node13" class="node">
<title>MatIconModule</title>
<polygon fill="#8dd3c7" stroke="#000000" points="468.4748,-122 465.4748,-126 444.4748,-126 441.4748,-122 361.5252,-122 361.5252,-86 468.4748,-86 468.4748,-122"/>
<text text-anchor="middle" x="415" y="-99.8" font-family="Times,serif" font-size="14.00" fill="#000000">MatIconModule</text>
</g>
<!-- MatIconModule&#45;&gt;BlogEditorModule -->
<g id="edge12" class="edge">
<title>MatIconModule&#45;&gt;BlogEditorModule</title>
<path fill="none" stroke="#000000" d="M415,-122.2228C415,-142.3652 415,-172 415,-172 415,-172 1021.9361,-172 1021.9361,-172"/>
<polygon fill="#000000" stroke="#000000" points="1021.9361,-175.5001 1031.9361,-172 1021.9361,-168.5001 1021.9361,-175.5001"/>
</g>
<!-- MatFormFieldModule -->
<g id="node14" class="node">
<title>MatFormFieldModule</title>
<polygon fill="#8dd3c7" stroke="#000000" points="343.712,-122 340.712,-126 319.712,-126 316.712,-122 202.288,-122 202.288,-86 343.712,-86 343.712,-122"/>
<text text-anchor="middle" x="273" y="-99.8" font-family="Times,serif" font-size="14.00" fill="#000000">MatFormFieldModule</text>
</g>
<!-- MatFormFieldModule&#45;&gt;BlogEditorModule -->
<g id="edge13" class="edge">
<title>MatFormFieldModule&#45;&gt;BlogEditorModule</title>
<path fill="none" stroke="#000000" d="M273,-122.0449C273,-143.6623 273,-177 273,-177 273,-177 1022.0366,-177 1022.0366,-177"/>
<polygon fill="#000000" stroke="#000000" points="1022.0367,-180.5001 1032.0366,-177 1022.0366,-173.5001 1022.0367,-180.5001"/>
</g>
<!-- AngularFirestore -->
<g id="node15" class="node">
<title>AngularFirestore</title>
<ellipse fill="#fdb462" stroke="#000000" cx="101" cy="-104" rx="77.0023" ry="18"/>
<text text-anchor="middle" x="101" y="-99.8" font-family="Times,serif" font-size="14.00" fill="#000000">AngularFirestore</text>
</g>
<!-- AngularFirestore&#45;&gt;BlogEditorModule -->
<g id="edge14" class="edge">
<title>AngularFirestore&#45;&gt;BlogEditorModule</title>
<path fill="none" stroke="#000000" d="M101,-122.0908C101,-145.1328 101,-182 101,-182 101,-182 1022.0674,-182 1022.0674,-182"/>
<polygon fill="#000000" stroke="#000000" points="1022.0674,-185.5001 1032.0674,-182 1022.0674,-178.5001 1022.0674,-185.5001"/>
</g>
</g>
</svg>
