<?xml version="1.0" encoding="UTF-8" standalone="no"?>
<!DOCTYPE svg PUBLIC "-//W3C//DTD SVG 1.1//EN"
 "http://www.w3.org/Graphics/SVG/1.1/DTD/svg11.dtd">
<!-- Generated by graphviz version 2.40.1 (20161225.0304)
 -->
<!-- Title: dependencies Pages: 1 -->
<svg width="550pt" height="211pt"
 viewBox="0.00 0.00 550.00 211.00" xmlns="http://www.w3.org/2000/svg" xmlns:xlink="http://www.w3.org/1999/xlink">
<g id="graph0" class="graph" transform="scale(1 1) rotate(0) translate(4 207)">
<title>dependencies</title>
<polygon fill="#ffffff" stroke="transparent" points="-4,4 -4,-207 546,-207 546,4 -4,4"/>
<text text-anchor="start" x="250.0091" y="-42.4" font-family="sans-serif" font-weight="bold" font-size="14.00" fill="#000000">Legend</text>
<polygon fill="#ffffb3" stroke="transparent" points="37,-10 37,-30 57,-30 57,-10 37,-10"/>
<text text-anchor="start" x="60.629" y="-15.4" font-family="sans-serif" font-size="14.00" fill="#000000"> &#160;Declarations</text>
<polygon fill="#8dd3c7" stroke="transparent" points="150,-10 150,-30 170,-30 170,-10 150,-10"/>
<text text-anchor="start" x="173.7251" y="-15.4" font-family="sans-serif" font-size="14.00" fill="#000000"> &#160;Module</text>
<polygon fill="#80b1d3" stroke="transparent" points="236,-10 236,-30 256,-30 256,-10 236,-10"/>
<text text-anchor="start" x="259.7812" y="-15.4" font-family="sans-serif" font-size="14.00" fill="#000000"> &#160;Bootstrap</text>
<polygon fill="#fdb462" stroke="transparent" points="333,-10 333,-30 353,-30 353,-10 333,-10"/>
<text text-anchor="start" x="356.6732" y="-15.4" font-family="sans-serif" font-size="14.00" fill="#000000"> &#160;Providers</text>
<polygon fill="#fb8072" stroke="transparent" points="429,-10 429,-30 449,-30 449,-10 429,-10"/>
<text text-anchor="start" x="452.7258" y="-15.4" font-family="sans-serif" font-size="14.00" fill="#000000"> &#160;Exports</text>
<g id="clust1" class="cluster">
<title>cluster_BlogEditorModule</title>
<polygon fill="none" stroke="#000000" stroke-dasharray="1,5" points="8,-70 8,-195 534,-195 534,-70 8,-70"/>
</g>
<g id="clust2" class="cluster">
<title>cluster_BlogEditorModule_declarations</title>
<polygon fill="none" stroke="#000000" points="206,-78 206,-130 526,-130 526,-78 206,-78"/>
</g>
<g id="clust5" class="cluster">
<title>cluster_BlogEditorModule_imports</title>
<polygon fill="none" stroke="#000000" points="16,-78 16,-130 198,-130 198,-78 16,-78"/>
</g>
<!-- EditorPostComponent -->
<g id="node1" class="node">
<title>EditorPostComponent</title>
<polygon fill="#ffffb3" stroke="#000000" points="518.4453,-122 377.5547,-122 377.5547,-86 518.4453,-86 518.4453,-122"/>
<text text-anchor="middle" x="448" y="-99.8" font-family="Times,serif" font-size="14.00" fill="#000000">EditorPostComponent</text>
</g>
<!-- BlogEditorModule -->
<g id="node3" class="node">
<title>BlogEditorModule</title>
<polygon fill="#8dd3c7" stroke="#000000" points="347.7716,-187 344.7716,-191 323.7716,-191 320.7716,-187 226.2284,-187 226.2284,-151 347.7716,-151 347.7716,-187"/>
<text text-anchor="middle" x="287" y="-164.8" font-family="Times,serif" font-size="14.00" fill="#000000">BlogEditorModule</text>
</g>
<!-- EditorPostComponent&#45;&gt;BlogEditorModule -->
<g id="edge1" class="edge">
<title>EditorPostComponent&#45;&gt;BlogEditorModule</title>
<path fill="none" stroke="#000000" d="M448,-122.1061C448,-141.3391 448,-169 448,-169 448,-169 357.8672,-169 357.8672,-169"/>
<polygon fill="#000000" stroke="#000000" points="357.8672,-165.5001 347.8672,-169 357.8672,-172.5001 357.8672,-165.5001"/>
</g>
<!-- EditorPostsComponent -->
<g id="node2" class="node">
<title>EditorPostsComponent</title>
<polygon fill="#ffffb3" stroke="#000000" points="359.8892,-122 214.1108,-122 214.1108,-86 359.8892,-86 359.8892,-122"/>
<text text-anchor="middle" x="287" y="-99.8" font-family="Times,serif" font-size="14.00" fill="#000000">EditorPostsComponent</text>
</g>
<!-- EditorPostsComponent&#45;&gt;BlogEditorModule -->
<g id="edge2" class="edge">
<title>EditorPostsComponent&#45;&gt;BlogEditorModule</title>
<path fill="none" stroke="#000000" d="M287,-122.1061C287,-122.1061 287,-140.991 287,-140.991"/>
<polygon fill="#000000" stroke="#000000" points="283.5001,-140.9909 287,-150.991 290.5001,-140.991 283.5001,-140.9909"/>
</g>
<!-- BlogEditorRoutingModule -->
<g id="node4" class="node">
<title>BlogEditorRoutingModule</title>
<polygon fill="#8dd3c7" stroke="#000000" points="190.3892,-122 187.3892,-126 166.3892,-126 163.3892,-122 23.6108,-122 23.6108,-86 190.3892,-86 190.3892,-122"/>
<text text-anchor="middle" x="107" y="-99.8" font-family="Times,serif" font-size="14.00" fill="#000000">BlogEditorRoutingModule</text>
</g>
<!-- BlogEditorRoutingModule&#45;&gt;BlogEditorModule -->
<g id="edge3" class="edge">
<title>BlogEditorRoutingModule&#45;&gt;BlogEditorModule</title>
<path fill="none" stroke="#000000" d="M107,-122.1061C107,-141.3391 107,-169 107,-169 107,-169 216.0602,-169 216.0602,-169"/>
<polygon fill="#000000" stroke="#000000" points="216.0602,-172.5001 226.0602,-169 216.0602,-165.5001 216.0602,-172.5001"/>
</g>
</g>
</svg>
