<?xml version="1.0" encoding="UTF-8" standalone="no"?>
<!DOCTYPE svg PUBLIC "-//W3C//DTD SVG 1.1//EN"
 "http://www.w3.org/Graphics/SVG/1.1/DTD/svg11.dtd">
<!-- Generated by graphviz version 2.40.1 (20161225.0304)
 -->
<!-- Title: dependencies Pages: 1 -->
<svg width="691pt" height="211pt"
 viewBox="0.00 0.00 691.00 211.00" xmlns="http://www.w3.org/2000/svg" xmlns:xlink="http://www.w3.org/1999/xlink">
<g id="graph0" class="graph" transform="scale(1 1) rotate(0) translate(4 207)">
<title>dependencies</title>
<polygon fill="#ffffff" stroke="transparent" points="-4,4 -4,-207 687,-207 687,4 -4,4"/>
<text text-anchor="start" x="320.5091" y="-42.4" font-family="sans-serif" font-weight="bold" font-size="14.00" fill="#000000">Legend</text>
<polygon fill="#ffffb3" stroke="transparent" points="107.5,-10 107.5,-30 127.5,-30 127.5,-10 107.5,-10"/>
<text text-anchor="start" x="131.129" y="-15.4" font-family="sans-serif" font-size="14.00" fill="#000000"> &#160;Declarations</text>
<polygon fill="#8dd3c7" stroke="transparent" points="220.5,-10 220.5,-30 240.5,-30 240.5,-10 220.5,-10"/>
<text text-anchor="start" x="244.2251" y="-15.4" font-family="sans-serif" font-size="14.00" fill="#000000"> &#160;Module</text>
<polygon fill="#80b1d3" stroke="transparent" points="306.5,-10 306.5,-30 326.5,-30 326.5,-10 306.5,-10"/>
<text text-anchor="start" x="330.2812" y="-15.4" font-family="sans-serif" font-size="14.00" fill="#000000"> &#160;Bootstrap</text>
<polygon fill="#fdb462" stroke="transparent" points="403.5,-10 403.5,-30 423.5,-30 423.5,-10 403.5,-10"/>
<text text-anchor="start" x="427.1732" y="-15.4" font-family="sans-serif" font-size="14.00" fill="#000000"> &#160;Providers</text>
<polygon fill="#fb8072" stroke="transparent" points="499.5,-10 499.5,-30 519.5,-30 519.5,-10 499.5,-10"/>
<text text-anchor="start" x="523.2258" y="-15.4" font-family="sans-serif" font-size="14.00" fill="#000000"> &#160;Exports</text>
<g id="clust1" class="cluster">
<title>cluster_PressModule</title>
<polygon fill="none" stroke="#000000" stroke-dasharray="1,5" points="8,-70 8,-195 675,-195 675,-70 8,-70"/>
</g>
<g id="clust2" class="cluster">
<title>cluster_PressModule_declarations</title>
<polygon fill="none" stroke="#000000" points="541,-78 541,-130 667,-130 667,-78 541,-78"/>
</g>
<g id="clust4" class="cluster">
<title>cluster_PressModule_imports</title>
<polygon fill="none" stroke="#000000" points="16,-78 16,-130 533,-130 533,-78 16,-78"/>
</g>
<!-- PressComponent -->
<g id="node1" class="node">
<title>PressComponent</title>
<polygon fill="#ffffb3" stroke="#000000" points="659.3795,-122 548.6205,-122 548.6205,-86 659.3795,-86 659.3795,-122"/>
<text text-anchor="middle" x="604" y="-99.8" font-family="Times,serif" font-size="14.00" fill="#000000">PressComponent</text>
</g>
<!-- PressModule -->
<g id="node2" class="node">
<title>PressModule</title>
<polygon fill="#8dd3c7" stroke="#000000" points="372.5969,-187 369.5969,-191 348.5969,-191 345.5969,-187 283.4031,-187 283.4031,-151 372.5969,-151 372.5969,-187"/>
<text text-anchor="middle" x="328" y="-164.8" font-family="Times,serif" font-size="14.00" fill="#000000">PressModule</text>
</g>
<!-- PressComponent&#45;&gt;PressModule -->
<g id="edge1" class="edge">
<title>PressComponent&#45;&gt;PressModule</title>
<path fill="none" stroke="#000000" d="M604,-122.2843C604,-143.3211 604,-175 604,-175 604,-175 382.6509,-175 382.6509,-175"/>
<polygon fill="#000000" stroke="#000000" points="382.651,-171.5001 372.6509,-175 382.6509,-178.5001 382.651,-171.5001"/>
</g>
<!-- CommonModule -->
<g id="node3" class="node">
<title>CommonModule</title>
<polygon fill="#8dd3c7" stroke="#000000" points="524.6681,-122 521.6681,-126 500.6681,-126 497.6681,-122 413.3319,-122 413.3319,-86 524.6681,-86 524.6681,-122"/>
<text text-anchor="middle" x="469" y="-99.8" font-family="Times,serif" font-size="14.00" fill="#000000">CommonModule</text>
</g>
<!-- CommonModule&#45;&gt;PressModule -->
<g id="edge2" class="edge">
<title>CommonModule&#45;&gt;PressModule</title>
<path fill="none" stroke="#000000" d="M469,-122.0225C469,-139.3734 469,-163 469,-163 469,-163 382.6133,-163 382.6133,-163"/>
<polygon fill="#000000" stroke="#000000" points="382.6133,-159.5001 372.6133,-163 382.6132,-166.5001 382.6133,-159.5001"/>
</g>
<!-- PressRoutingModule -->
<g id="node4" class="node">
<title>PressRoutingModule</title>
<polygon fill="#8dd3c7" stroke="#000000" points="395.2148,-122 392.2148,-126 371.2148,-126 368.2148,-122 260.7852,-122 260.7852,-86 395.2148,-86 395.2148,-122"/>
<text text-anchor="middle" x="328" y="-99.8" font-family="Times,serif" font-size="14.00" fill="#000000">PressRoutingModule</text>
</g>
<!-- PressRoutingModule&#45;&gt;PressModule -->
<g id="edge3" class="edge">
<title>PressRoutingModule&#45;&gt;PressModule</title>
<path fill="none" stroke="#000000" d="M328,-122.1061C328,-122.1061 328,-140.991 328,-140.991"/>
<polygon fill="#000000" stroke="#000000" points="324.5001,-140.9909 328,-150.991 331.5001,-140.991 324.5001,-140.9909"/>
</g>
<!-- MatChipsModule -->
<g id="node5" class="node">
<title>MatChipsModule</title>
<polygon fill="#8dd3c7" stroke="#000000" points="243.2716,-122 240.2716,-126 219.2716,-126 216.2716,-122 128.7284,-122 128.7284,-86 243.2716,-86 243.2716,-122"/>
<text text-anchor="middle" x="186" y="-99.8" font-family="Times,serif" font-size="14.00" fill="#000000">MatChipsModule</text>
</g>
<!-- MatChipsModule&#45;&gt;PressModule -->
<g id="edge4" class="edge">
<title>MatChipsModule&#45;&gt;PressModule</title>
<path fill="none" stroke="#000000" d="M186,-122.0225C186,-139.3734 186,-163 186,-163 186,-163 273.0703,-163 273.0703,-163"/>
<polygon fill="#000000" stroke="#000000" points="273.0703,-166.5001 283.0703,-163 273.0703,-159.5001 273.0703,-166.5001"/>
</g>
<!-- CoreModule -->
<g id="node6" class="node">
<title>CoreModule</title>
<polygon fill="#8dd3c7" stroke="#000000" points="110.2619,-122 107.2619,-126 86.2619,-126 83.2619,-122 23.7381,-122 23.7381,-86 110.2619,-86 110.2619,-122"/>
<text text-anchor="middle" x="67" y="-99.8" font-family="Times,serif" font-size="14.00" fill="#000000">CoreModule</text>
</g>
<!-- CoreModule&#45;&gt;PressModule -->
<g id="edge5" class="edge">
<title>CoreModule&#45;&gt;PressModule</title>
<path fill="none" stroke="#000000" d="M67,-122.2843C67,-143.3211 67,-175 67,-175 67,-175 273.4291,-175 273.4291,-175"/>
<polygon fill="#000000" stroke="#000000" points="273.4291,-178.5001 283.4291,-175 273.429,-171.5001 273.4291,-178.5001"/>
</g>
</g>
</svg>
