<?xml version="1.0" encoding="UTF-8" standalone="no"?>
<!DOCTYPE svg PUBLIC "-//W3C//DTD SVG 1.1//EN"
 "http://www.w3.org/Graphics/SVG/1.1/DTD/svg11.dtd">
<!-- Generated by graphviz version 2.40.1 (20161225.0304)
 -->
<!-- Title: dependencies Pages: 1 -->
<svg width="504pt" height="211pt"
 viewBox="0.00 0.00 504.00 211.00" xmlns="http://www.w3.org/2000/svg" xmlns:xlink="http://www.w3.org/1999/xlink">
<g id="graph0" class="graph" transform="scale(1 1) rotate(0) translate(4 207)">
<title>dependencies</title>
<polygon fill="#ffffff" stroke="transparent" points="-4,4 -4,-207 500,-207 500,4 -4,4"/>
<text text-anchor="start" x="227.0091" y="-42.4" font-family="sans-serif" font-weight="bold" font-size="14.00" fill="#000000">Legend</text>
<polygon fill="#ffffb3" stroke="transparent" points="14,-10 14,-30 34,-30 34,-10 14,-10"/>
<text text-anchor="start" x="37.629" y="-15.4" font-family="sans-serif" font-size="14.00" fill="#000000"> &#160;Declarations</text>
<polygon fill="#8dd3c7" stroke="transparent" points="127,-10 127,-30 147,-30 147,-10 127,-10"/>
<text text-anchor="start" x="150.7251" y="-15.4" font-family="sans-serif" font-size="14.00" fill="#000000"> &#160;Module</text>
<polygon fill="#80b1d3" stroke="transparent" points="213,-10 213,-30 233,-30 233,-10 213,-10"/>
<text text-anchor="start" x="236.7812" y="-15.4" font-family="sans-serif" font-size="14.00" fill="#000000"> &#160;Bootstrap</text>
<polygon fill="#fdb462" stroke="transparent" points="310,-10 310,-30 330,-30 330,-10 310,-10"/>
<text text-anchor="start" x="333.6732" y="-15.4" font-family="sans-serif" font-size="14.00" fill="#000000"> &#160;Providers</text>
<polygon fill="#fb8072" stroke="transparent" points="406,-10 406,-30 426,-30 426,-10 406,-10"/>
<text text-anchor="start" x="429.7258" y="-15.4" font-family="sans-serif" font-size="14.00" fill="#000000"> &#160;Exports</text>
<g id="clust1" class="cluster">
<title>cluster_PressModule</title>
<polygon fill="none" stroke="#000000" stroke-dasharray="1,5" points="46,-70 46,-195 450,-195 450,-70 46,-70"/>
</g>
<g id="clust2" class="cluster">
<title>cluster_PressModule_declarations</title>
<polygon fill="none" stroke="#000000" points="316,-78 316,-130 442,-130 442,-78 316,-78"/>
</g>
<g id="clust4" class="cluster">
<title>cluster_PressModule_imports</title>
<polygon fill="none" stroke="#000000" points="54,-78 54,-130 308,-130 308,-78 54,-78"/>
</g>
<!-- PressComponent -->
<g id="node1" class="node">
<title>PressComponent</title>
<polygon fill="#ffffb3" stroke="#000000" points="434.3795,-122 323.6205,-122 323.6205,-86 434.3795,-86 434.3795,-122"/>
<text text-anchor="middle" x="379" y="-99.8" font-family="Times,serif" font-size="14.00" fill="#000000">PressComponent</text>
</g>
<!-- PressModule -->
<g id="node2" class="node">
<title>PressModule</title>
<polygon fill="#8dd3c7" stroke="#000000" points="301.5969,-187 298.5969,-191 277.5969,-191 274.5969,-187 212.4031,-187 212.4031,-151 301.5969,-151 301.5969,-187"/>
<text text-anchor="middle" x="257" y="-164.8" font-family="Times,serif" font-size="14.00" fill="#000000">PressModule</text>
</g>
<!-- PressComponent&#45;&gt;PressModule -->
<g id="edge1" class="edge">
<title>PressComponent&#45;&gt;PressModule</title>
<path fill="none" stroke="#000000" d="M379,-122.1061C379,-141.3391 379,-169 379,-169 379,-169 311.7355,-169 311.7355,-169"/>
<polygon fill="#000000" stroke="#000000" points="311.7356,-165.5001 301.7355,-169 311.7355,-172.5001 311.7356,-165.5001"/>
</g>
<!-- CoreModule -->
<g id="node3" class="node">
<title>CoreModule</title>
<polygon fill="#8dd3c7" stroke="#000000" points="300.2619,-122 297.2619,-126 276.2619,-126 273.2619,-122 213.7381,-122 213.7381,-86 300.2619,-86 300.2619,-122"/>
<text text-anchor="middle" x="257" y="-99.8" font-family="Times,serif" font-size="14.00" fill="#000000">CoreModule</text>
</g>
<!-- CoreModule&#45;&gt;PressModule -->
<g id="edge2" class="edge">
<title>CoreModule&#45;&gt;PressModule</title>
<path fill="none" stroke="#000000" d="M257,-122.1061C257,-122.1061 257,-140.991 257,-140.991"/>
<polygon fill="#000000" stroke="#000000" points="253.5001,-140.9909 257,-150.991 260.5001,-140.991 253.5001,-140.9909"/>
</g>
<!-- PressRoutingModule -->
<g id="node4" class="node">
<title>PressRoutingModule</title>
<polygon fill="#8dd3c7" stroke="#000000" points="196.2148,-122 193.2148,-126 172.2148,-126 169.2148,-122 61.7852,-122 61.7852,-86 196.2148,-86 196.2148,-122"/>
<text text-anchor="middle" x="129" y="-99.8" font-family="Times,serif" font-size="14.00" fill="#000000">PressRoutingModule</text>
</g>
<!-- PressRoutingModule&#45;&gt;PressModule -->
<g id="edge3" class="edge">
<title>PressRoutingModule&#45;&gt;PressModule</title>
<path fill="none" stroke="#000000" d="M129,-122.1061C129,-141.3391 129,-169 129,-169 129,-169 202.2318,-169 202.2318,-169"/>
<polygon fill="#000000" stroke="#000000" points="202.2318,-172.5001 212.2318,-169 202.2318,-165.5001 202.2318,-172.5001"/>
</g>
</g>
</svg>
