<?xml version="1.0" encoding="UTF-8" standalone="no"?>
<!DOCTYPE svg PUBLIC "-//W3C//DTD SVG 1.1//EN"
 "http://www.w3.org/Graphics/SVG/1.1/DTD/svg11.dtd">
<!-- Generated by graphviz version 2.40.1 (20161225.0304)
 -->
<!-- Title: dependencies Pages: 1 -->
<svg width="504pt" height="211pt"
 viewBox="0.00 0.00 504.00 211.00" xmlns="http://www.w3.org/2000/svg" xmlns:xlink="http://www.w3.org/1999/xlink">
<g id="graph0" class="graph" transform="scale(1 1) rotate(0) translate(4 207)">
<title>dependencies</title>
<polygon fill="#ffffff" stroke="transparent" points="-4,4 -4,-207 500,-207 500,4 -4,4"/>
<text text-anchor="start" x="227.0091" y="-42.4" font-family="sans-serif" font-weight="bold" font-size="14.00" fill="#000000">Legend</text>
<polygon fill="#ffffb3" stroke="transparent" points="14,-10 14,-30 34,-30 34,-10 14,-10"/>
<text text-anchor="start" x="37.629" y="-15.4" font-family="sans-serif" font-size="14.00" fill="#000000"> &#160;Declarations</text>
<polygon fill="#8dd3c7" stroke="transparent" points="127,-10 127,-30 147,-30 147,-10 127,-10"/>
<text text-anchor="start" x="150.7251" y="-15.4" font-family="sans-serif" font-size="14.00" fill="#000000"> &#160;Module</text>
<polygon fill="#80b1d3" stroke="transparent" points="213,-10 213,-30 233,-30 233,-10 213,-10"/>
<text text-anchor="start" x="236.7812" y="-15.4" font-family="sans-serif" font-size="14.00" fill="#000000"> &#160;Bootstrap</text>
<polygon fill="#fdb462" stroke="transparent" points="310,-10 310,-30 330,-30 330,-10 310,-10"/>
<text text-anchor="start" x="333.6732" y="-15.4" font-family="sans-serif" font-size="14.00" fill="#000000"> &#160;Providers</text>
<polygon fill="#fb8072" stroke="transparent" points="406,-10 406,-30 426,-30 426,-10 406,-10"/>
<text text-anchor="start" x="429.7258" y="-15.4" font-family="sans-serif" font-size="14.00" fill="#000000"> &#160;Exports</text>
<g id="clust1" class="cluster">
<title>cluster_SupportModule</title>
<polygon fill="none" stroke="#000000" stroke-dasharray="1,5" points="30,-70 30,-195 466,-195 466,-70 30,-70"/>
</g>
<g id="clust2" class="cluster">
<title>cluster_SupportModule_declarations</title>
<polygon fill="none" stroke="#000000" points="316,-78 316,-130 458,-130 458,-78 316,-78"/>
</g>
<g id="clust4" class="cluster">
<title>cluster_SupportModule_imports</title>
<polygon fill="none" stroke="#000000" points="38,-78 38,-130 308,-130 308,-78 38,-78"/>
</g>
<!-- SupportComponent -->
<g id="node1" class="node">
<title>SupportComponent</title>
<polygon fill="#ffffb3" stroke="#000000" points="449.6666,-122 324.3334,-122 324.3334,-86 449.6666,-86 449.6666,-122"/>
<text text-anchor="middle" x="387" y="-99.8" font-family="Times,serif" font-size="14.00" fill="#000000">SupportComponent</text>
</g>
<!-- SupportModule -->
<g id="node2" class="node">
<title>SupportModule</title>
<polygon fill="#8dd3c7" stroke="#000000" points="308.8837,-187 305.8837,-191 284.8837,-191 281.8837,-187 205.1163,-187 205.1163,-151 308.8837,-151 308.8837,-187"/>
<text text-anchor="middle" x="257" y="-164.8" font-family="Times,serif" font-size="14.00" fill="#000000">SupportModule</text>
</g>
<!-- SupportComponent&#45;&gt;SupportModule -->
<g id="edge1" class="edge">
<title>SupportComponent&#45;&gt;SupportModule</title>
<path fill="none" stroke="#000000" d="M324.1744,-104C312.9045,-104 304.6613,-104 304.6613,-104 304.6613,-104 304.6613,-140.8939 304.6613,-140.8939"/>
<polygon fill="#000000" stroke="#000000" points="301.1614,-140.8938 304.6613,-150.8939 308.1614,-140.8939 301.1614,-140.8938"/>
</g>
<!-- CoreModule -->
<g id="node3" class="node">
<title>CoreModule</title>
<polygon fill="#8dd3c7" stroke="#000000" points="300.2619,-122 297.2619,-126 276.2619,-126 273.2619,-122 213.7381,-122 213.7381,-86 300.2619,-86 300.2619,-122"/>
<text text-anchor="middle" x="257" y="-99.8" font-family="Times,serif" font-size="14.00" fill="#000000">CoreModule</text>
</g>
<!-- CoreModule&#45;&gt;SupportModule -->
<g id="edge2" class="edge">
<title>CoreModule&#45;&gt;SupportModule</title>
<path fill="none" stroke="#000000" d="M257,-122.1061C257,-122.1061 257,-140.991 257,-140.991"/>
<polygon fill="#000000" stroke="#000000" points="253.5001,-140.9909 257,-150.991 260.5001,-140.991 253.5001,-140.9909"/>
</g>
<!-- SupportRoutingModule -->
<g id="node4" class="node">
<title>SupportRoutingModule</title>
<polygon fill="#8dd3c7" stroke="#000000" points="195.5014,-122 192.5014,-126 171.5014,-126 168.5014,-122 46.4986,-122 46.4986,-86 195.5014,-86 195.5014,-122"/>
<text text-anchor="middle" x="121" y="-99.8" font-family="Times,serif" font-size="14.00" fill="#000000">SupportRoutingModule</text>
</g>
<!-- SupportRoutingModule&#45;&gt;SupportModule -->
<g id="edge3" class="edge">
<title>SupportRoutingModule&#45;&gt;SupportModule</title>
<path fill="none" stroke="#000000" d="M195.5358,-104C203.8175,-104 209.3387,-104 209.3387,-104 209.3387,-104 209.3387,-140.8939 209.3387,-140.8939"/>
<polygon fill="#000000" stroke="#000000" points="205.8388,-140.8938 209.3387,-150.8939 212.8388,-140.8939 205.8388,-140.8938"/>
</g>
</g>
</svg>
