<?xml version="1.0" encoding="UTF-8" standalone="no"?>
<!DOCTYPE svg PUBLIC "-//W3C//DTD SVG 1.1//EN"
 "http://www.w3.org/Graphics/SVG/1.1/DTD/svg11.dtd">
<!-- Generated by graphviz version 2.40.1 (20161225.0304)
 -->
<!-- Title: dependencies Pages: 1 -->
<svg width="589pt" height="211pt"
 viewBox="0.00 0.00 589.00 211.00" xmlns="http://www.w3.org/2000/svg" xmlns:xlink="http://www.w3.org/1999/xlink">
<g id="graph0" class="graph" transform="scale(1 1) rotate(0) translate(4 207)">
<title>dependencies</title>
<polygon fill="#ffffff" stroke="transparent" points="-4,4 -4,-207 585,-207 585,4 -4,4"/>
<text text-anchor="start" x="269.5091" y="-42.4" font-family="sans-serif" font-weight="bold" font-size="14.00" fill="#000000">Legend</text>
<polygon fill="#ffffb3" stroke="transparent" points="56.5,-10 56.5,-30 76.5,-30 76.5,-10 56.5,-10"/>
<text text-anchor="start" x="80.129" y="-15.4" font-family="sans-serif" font-size="14.00" fill="#000000"> &#160;Declarations</text>
<polygon fill="#8dd3c7" stroke="transparent" points="169.5,-10 169.5,-30 189.5,-30 189.5,-10 169.5,-10"/>
<text text-anchor="start" x="193.2251" y="-15.4" font-family="sans-serif" font-size="14.00" fill="#000000"> &#160;Module</text>
<polygon fill="#80b1d3" stroke="transparent" points="255.5,-10 255.5,-30 275.5,-30 275.5,-10 255.5,-10"/>
<text text-anchor="start" x="279.2812" y="-15.4" font-family="sans-serif" font-size="14.00" fill="#000000"> &#160;Bootstrap</text>
<polygon fill="#fdb462" stroke="transparent" points="352.5,-10 352.5,-30 372.5,-30 372.5,-10 352.5,-10"/>
<text text-anchor="start" x="376.1732" y="-15.4" font-family="sans-serif" font-size="14.00" fill="#000000"> &#160;Providers</text>
<polygon fill="#fb8072" stroke="transparent" points="448.5,-10 448.5,-30 468.5,-30 468.5,-10 448.5,-10"/>
<text text-anchor="start" x="472.2258" y="-15.4" font-family="sans-serif" font-size="14.00" fill="#000000"> &#160;Exports</text>
<g id="clust1" class="cluster">
<title>cluster_SupportModule</title>
<polygon fill="none" stroke="#000000" stroke-dasharray="1,5" points="8,-70 8,-195 573,-195 573,-70 8,-70"/>
</g>
<g id="clust2" class="cluster">
<title>cluster_SupportModule_declarations</title>
<polygon fill="none" stroke="#000000" points="423,-78 423,-130 565,-130 565,-78 423,-78"/>
</g>
<g id="clust4" class="cluster">
<title>cluster_SupportModule_imports</title>
<polygon fill="none" stroke="#000000" points="16,-78 16,-130 415,-130 415,-78 16,-78"/>
</g>
<!-- SupportComponent -->
<g id="node1" class="node">
<title>SupportComponent</title>
<polygon fill="#ffffb3" stroke="#000000" points="556.6666,-122 431.3334,-122 431.3334,-86 556.6666,-86 556.6666,-122"/>
<text text-anchor="middle" x="494" y="-99.8" font-family="Times,serif" font-size="14.00" fill="#000000">SupportComponent</text>
</g>
<!-- SupportModule -->
<g id="node2" class="node">
<title>SupportModule</title>
<polygon fill="#8dd3c7" stroke="#000000" points="328.8837,-187 325.8837,-191 304.8837,-191 301.8837,-187 225.1163,-187 225.1163,-151 328.8837,-151 328.8837,-187"/>
<text text-anchor="middle" x="277" y="-164.8" font-family="Times,serif" font-size="14.00" fill="#000000">SupportModule</text>
</g>
<!-- SupportComponent&#45;&gt;SupportModule -->
<g id="edge1" class="edge">
<title>SupportComponent&#45;&gt;SupportModule</title>
<path fill="none" stroke="#000000" d="M494,-122.1061C494,-141.3391 494,-169 494,-169 494,-169 338.9769,-169 338.9769,-169"/>
<polygon fill="#000000" stroke="#000000" points="338.9769,-165.5001 328.9769,-169 338.9769,-172.5001 338.9769,-165.5001"/>
</g>
<!-- CommonModule -->
<g id="node3" class="node">
<title>CommonModule</title>
<polygon fill="#8dd3c7" stroke="#000000" points="406.6681,-122 403.6681,-126 382.6681,-126 379.6681,-122 295.3319,-122 295.3319,-86 406.6681,-86 406.6681,-122"/>
<text text-anchor="middle" x="351" y="-99.8" font-family="Times,serif" font-size="14.00" fill="#000000">CommonModule</text>
</g>
<!-- CommonModule&#45;&gt;SupportModule -->
<g id="edge2" class="edge">
<title>CommonModule&#45;&gt;SupportModule</title>
<path fill="none" stroke="#000000" d="M312.054,-122.1061C312.054,-122.1061 312.054,-140.991 312.054,-140.991"/>
<polygon fill="#000000" stroke="#000000" points="308.5541,-140.9909 312.054,-150.991 315.5541,-140.991 308.5541,-140.9909"/>
</g>
<!-- SupportRoutingModule -->
<g id="node4" class="node">
<title>SupportRoutingModule</title>
<polygon fill="#8dd3c7" stroke="#000000" points="277.5014,-122 274.5014,-126 253.5014,-126 250.5014,-122 128.4986,-122 128.4986,-86 277.5014,-86 277.5014,-122"/>
<text text-anchor="middle" x="203" y="-99.8" font-family="Times,serif" font-size="14.00" fill="#000000">SupportRoutingModule</text>
</g>
<!-- SupportRoutingModule&#45;&gt;SupportModule -->
<g id="edge3" class="edge">
<title>SupportRoutingModule&#45;&gt;SupportModule</title>
<path fill="none" stroke="#000000" d="M251.2795,-122.1061C251.2795,-122.1061 251.2795,-140.991 251.2795,-140.991"/>
<polygon fill="#000000" stroke="#000000" points="247.7795,-140.9909 251.2795,-150.991 254.7795,-140.991 247.7795,-140.9909"/>
</g>
<!-- CoreModule -->
<g id="node5" class="node">
<title>CoreModule</title>
<polygon fill="#8dd3c7" stroke="#000000" points="110.2619,-122 107.2619,-126 86.2619,-126 83.2619,-122 23.7381,-122 23.7381,-86 110.2619,-86 110.2619,-122"/>
<text text-anchor="middle" x="67" y="-99.8" font-family="Times,serif" font-size="14.00" fill="#000000">CoreModule</text>
</g>
<!-- CoreModule&#45;&gt;SupportModule -->
<g id="edge4" class="edge">
<title>CoreModule&#45;&gt;SupportModule</title>
<path fill="none" stroke="#000000" d="M67,-122.1061C67,-141.3391 67,-169 67,-169 67,-169 215.0899,-169 215.0899,-169"/>
<polygon fill="#000000" stroke="#000000" points="215.0899,-172.5001 225.0899,-169 215.0898,-165.5001 215.0899,-172.5001"/>
</g>
</g>
</svg>
